<?xml version="1.0" encoding="UTF-8"?>
<svg xmlns="http://www.w3.org/2000/svg" xmlns:xlink="http://www.w3.org/1999/xlink" width="202pt" height="145pt" viewBox="0 0 202 145" version="1.1">
<g id="surface1">
<path style="fill:none;stroke-width:0.3985;stroke-linecap:butt;stroke-linejoin:miter;stroke:rgb(79.998779%,79.998779%,79.998779%);stroke-opacity:1;stroke-miterlimit:10;" d="M -85.041236 -28.346686 L 113.388265 -28.346686 M -85.041236 -0.000446628 L 113.388265 -0.000446628 M -85.041236 28.345792 L 113.388265 28.345792 M -85.041236 56.692031 L 113.388265 56.692031 M -85.041236 85.042176 L 113.388265 85.042176 M -85.041236 113.376697 L 113.388265 113.376697 M -85.041236 -28.346686 L -85.041236 113.388415 M -56.69528 -28.346686 L -56.69528 113.388415 M -28.345419 -28.346686 L -28.345419 113.388415 M 0.000536868 -28.346686 L 0.000536868 113.388415 M 28.346492 -28.346686 L 28.346492 113.388415 M 56.692448 -28.346686 L 56.692448 113.388415 M 85.042309 -28.346686 L 85.042309 113.388415 M 113.376547 -28.346686 L 113.376547 113.388415 " transform="matrix(1.00006,0,0,-1.00005,87.140088,115.19096)"/>
<path style="fill:none;stroke-width:0.3985;stroke-linecap:butt;stroke-linejoin:miter;stroke:rgb(0%,0%,0%);stroke-opacity:1;stroke-miterlimit:10;" d="M -84.642822 -0.000446628 L 112.989851 -0.000446628 " transform="matrix(1.00006,0,0,-1.00005,87.140088,115.19096)"/>
<path style="fill:none;stroke-width:0.3985;stroke-linecap:round;stroke-linejoin:round;stroke:rgb(0%,0%,0%);stroke-opacity:1;stroke-miterlimit:10;" d="M -2.073235 2.390952 C -1.694352 0.95743 -0.850653 0.277777 0.000858828 0.000446628 C -0.850653 -0.280789 -1.694352 -0.956537 -2.073235 -2.390059 " transform="matrix(-1.00006,0,0,1.00005,2.293828,115.19096)"/>
<path style="fill:none;stroke-width:0.3985;stroke-linecap:round;stroke-linejoin:round;stroke:rgb(0%,0%,0%);stroke-opacity:1;stroke-miterlimit:10;" d="M -2.073006 2.390059 C -1.694123 0.956537 -0.850423 0.280789 0.00108806 -0.000446628 C -0.850423 -0.277777 -1.694123 -0.95743 -2.073006 -2.390952 " transform="matrix(1.00006,0,0,-1.00005,200.334849,115.19096)"/>
<path style="fill:none;stroke-width:0.3985;stroke-linecap:butt;stroke-linejoin:miter;stroke:rgb(0%,0%,0%);stroke-opacity:1;stroke-miterlimit:10;" d="M 0.000536868 -27.948268 L 0.000536868 112.989998 " transform="matrix(1.00006,0,0,-1.00005,87.140088,115.19096)"/>
<path style="fill:none;stroke-width:0.3985;stroke-linecap:round;stroke-linejoin:round;stroke:rgb(0%,0%,0%);stroke-opacity:1;stroke-miterlimit:10;" d="M -2.074188 2.391018 C -1.695301 0.957511 -0.851593 0.277864 -0.0000732238 0.000536868 C -0.851593 -0.280696 -1.695301 -0.956437 -2.074188 -2.389945 " transform="matrix(0,1.00005,1.00006,0,87.140088,143.339917)"/>
<path style="fill:none;stroke-width:0.3985;stroke-linecap:round;stroke-linejoin:round;stroke:rgb(0%,0%,0%);stroke-opacity:1;stroke-miterlimit:10;" d="M -2.072879 2.389945 C -1.693991 0.956437 -0.850284 0.280696 0.00123639 -0.000536868 C -0.850284 -0.277864 -1.693991 -0.957511 -2.072879 -2.391018 " transform="matrix(0,-1.00005,-1.00006,0,87.140088,1.99733)"/>
<path style="fill-rule:nonzero;fill:rgb(0%,0%,100%);fill-opacity:0.3;stroke-width:0.3985;stroke-linecap:butt;stroke-linejoin:miter;stroke:rgb(0%,0%,100%);stroke-opacity:0.3;stroke-miterlimit:10;" d="M 0.000536868 -0.000446628 L -56.69528 56.692031 L 56.692448 113.388415 L 113.388265 56.692031 Z M 0.000536868 -0.000446628 " transform="matrix(1.00006,0,0,-1.00005,87.140088,115.19096)"/>
<path style="fill:none;stroke-width:1.99255;stroke-linecap:butt;stroke-linejoin:miter;stroke:rgb(100%,0%,0%);stroke-opacity:1;stroke-miterlimit:10;" d="M 0.000536868 -0.000446628 L 109.466625 54.735098 " transform="matrix(1.00006,0,0,-1.00005,87.140088,115.19096)"/>
<path style=" stroke:none;fill-rule:nonzero;fill:rgb(100%,0%,0%);fill-opacity:1;" d="M 200.535156 58.496094 L 192.691406 58.496094 L 196.613281 60.453125 L 195.828125 64.769531 "/>
<path style="fill:none;stroke-width:1.99255;stroke-linecap:butt;stroke-linejoin:miter;stroke:rgb(0%,0%,100%);stroke-opacity:1;stroke-miterlimit:10;" d="M 0.000536868 -0.000446628 L -53.593904 53.59453 " transform="matrix(1.00006,0,0,-1.00005,87.140088,115.19096)"/>
<path style=" stroke:none;fill-rule:nonzero;fill:rgb(0%,0%,100%);fill-opacity:1;" d="M 30.441406 58.496094 L 32.921875 65.933594 L 33.542969 61.59375 L 37.882812 60.972656 "/>
</g>
</svg>
