<svg xmlns="http://www.w3.org/2000/svg" xmlns:xlink="http://www.w3.org/1999/xlink" xmlns:inkscape="http://www.inkscape.org/namespaces/inkscape" version="1.1" width="275" height="185" viewBox="0 0 275 185">
<defs>
<path id="font_1_1" d="M.25-2.3587189H.5130005V-2.303711H.30499269V-.0146484379H.5130005V.04034424H.25V-2.3587189Z"/>
<path id="font_2_1" d="M.6589966 .23046875C.6759949 .23046875 .69400027 .23046875 .69400027 .25045777 .69400027 .27046205 .6759949 .27046205 .6589966 .27046205H.117996219C.100997928 .27046205 .08299255 .27046205 .08299255 .25045777 .08299255 .23046875 .100997928 .23046875 .117996219 .23046875H.6589966Z"/>
<path id="font_3_2" d="M.2899933 .35191346C.37199403 .37893678 .42999269 .4490509 .42999269 .52809146 .42999269 .6100464 .34199525 .6660156 .24598694 .6660156 .14498902 .6660156 .068984989 .60606387 .068984989 .53009036 .068984989 .49710084 .09098816 .47808839 .11999512 .47808839 .15098572 .47808839 .17098999 .50009158 .17098999 .5290985 .17098999 .57910159 .12399292 .57910159 .10899353 .57910159 .13999939 .62802127 .20599365 .64100649 .24198914 .64100649 .2829895 .64100649 .33799745 .6190338 .33799745 .5290985 .33799745 .51708987 .33599855 .45906068 .30999757 .4149933 .27999879 .36691285 .24598694 .36390687 .22099304 .36291505 .21299744 .36190797 .18899536 .35990907 .18199158 .35990907 .17399597 .35890199 .16699219 .35791017 .16699219 .3479004 .16699219 .33691407 .17399597 .33691407 .19099427 .33691407H.23498535C.31698609 .33691407 .35398866 .2686615 .35398866 .17037964 .35398866 .034469606 .2849884 .0055389406 .24099732 .0055389406 .19799805 .0055389406 .12298584 .022491456 .08799744 .08137512 .12298584 .07637024 .1539917 .09837341 .1539917 .1363678 .1539917 .17237854 .1269989 .19238281 .09799194 .19238281 .07398987 .19238281 .041992189 .17837525 .041992189 .1343689 .041992189 .043441774 .1349945-.022460938 .24398804-.022460938 .3659973-.022460938 .45700074 .06838989 .45700074 .17037964 .45700074 .252594 .3939972 .33088685 .2899933 .35191346Z"/>
<path id="font_3_1" d="M.2939911 .64004519C.2939911 .66400149 .2939911 .6660156 .2709961 .6660156 .20899964 .60227969 .12098694 .60227969 .08898926 .60227969V.57128909C.10899353 .57128909 .16799927 .57128909 .21998596 .5972748V.07902527C.21998596 .042999269 .21699524 .0309906 .1269989 .0309906H.09498596V0C.12998963 .0029907227 .21699524 .0029907227 .25698854 .0029907227 .29699708 .0029907227 .38398744 .0029907227 .4189911 0V.0309906H.3869934C.29699708 .0309906 .2939911 .041992189 .2939911 .07902527V.64004519Z"/>
<path id="font_1_2" d="M.22200012-2.303711H.01399231V-2.3587189H.2769928V.04034424H.01399231V-.0146484379H.22200012V-2.303711Z"/>
</defs>
<path transform="matrix(1.00003,0,0,-1.00006,137.46259,92.51358)" stroke-width=".3985" stroke-linecap="butt" stroke-miterlimit="10" stroke-linejoin="miter" fill="none" stroke="#cccccc" d="M-136.0652-90.71013H136.0652M-136.0652-68.0326H136.0652M-136.0652-45.35506H136.0652M-136.0652-22.67752H136.0652M-136.0652 0H136.0652M-136.0652 22.67752H136.0652M-136.0652 45.35506H136.0652M-136.0652 68.0326H136.0652M-136.0652 90.70215H136.0652M-136.0652-90.71013V90.71013M-113.38766-90.71013V90.71013M-90.71013-90.71013V90.71013M-68.0326-90.71013V90.71013M-45.35506-90.71013V90.71013M-22.67752-90.71013V90.71013M0-90.71013V90.71013M22.67752-90.71013V90.71013M45.35506-90.71013V90.71013M68.0326-90.71013V90.71013M90.71013-90.71013V90.71013M113.38766-90.71013V90.71013M136.05722-90.71013V90.71013M136.0652 90.71013"/>
<path transform="matrix(1.00003,0,0,-1.00006,137.46259,92.51358)" stroke-width=".3985" stroke-linecap="butt" stroke-miterlimit="10" stroke-linejoin="miter" fill="none" stroke="#000000" d="M-135.66669 0H135.66669"/>
<path transform="matrix(-1.00003,-0,0,1.00006,1.5925751,92.51358)" stroke-width=".3985" stroke-linecap="round" stroke-linejoin="round" fill="none" stroke="#000000" d="M-2.07224 2.39104C-1.69365 .95639-.84999 .27895 0 0-.84999-.27895-1.69365-.95639-2.07224-2.39104"/>
<path transform="matrix(1.00003,0,0,-1.00006,273.33259,92.51358)" stroke-width=".3985" stroke-linecap="round" stroke-linejoin="round" fill="none" stroke="#000000" d="M-2.07224 2.39104C-1.69365 .95639-.84999 .27895 0 0-.84999-.27895-1.69365-.95639-2.07224-2.39104"/>
<path transform="matrix(1.00003,0,0,-1.00006,137.46259,92.51358)" stroke-width=".3985" stroke-linecap="butt" stroke-miterlimit="10" stroke-linejoin="miter" fill="none" stroke="#000000" d="M0-90.31161V90.31161"/>
<path transform="matrix(0,1.00006,1.00003,0,137.46259,183.02986)" stroke-width=".3985" stroke-linecap="round" stroke-linejoin="round" fill="none" stroke="#000000" d="M-2.07224 2.39104C-1.69365 .95639-.84999 .27895 0 0-.84999-.27895-1.69365-.95639-2.07224-2.39104"/>
<path transform="matrix(0,-1.00006,-1.00003,-0,137.46259,1.9972992)" stroke-width=".3985" stroke-linecap="round" stroke-linejoin="round" fill="none" stroke="#000000" d="M-2.07224 2.39104C-1.69365 .95639-.84999 .27895 0 0-.84999-.27895-1.69365-.95639-2.07224-2.39104"/>
<path transform="matrix(1.00003,0,0,-1.00006,137.46259,92.51358)" stroke-width=".99628" stroke-linecap="butt" stroke-miterlimit="10" stroke-linejoin="miter" fill="none" stroke="#000000" d="M0 0-133.32439 44.44147"/>
<path transform="matrix(-.9486685,-.31622897,-.3162195,.94869688,4.134201,48.069467)" d="M2.8892 0-1.73352 2.31136 0 0-1.73352-2.31136"/>
<path transform="matrix(1.00003,0,0,-1.00006,137.46259,92.51358)" stroke-width=".99628" stroke-linecap="butt" stroke-miterlimit="10" stroke-linejoin="miter" fill="none" stroke="#000000" d="M0 0 133.32439-44.44147"/>
<path transform="matrix(.9486685,.31622897,.3162195,-.94869688,270.79096,136.9577)" d="M2.8892 0-1.73352 2.31136 0 0-1.73352-2.31136"/>
<path transform="matrix(1.00003,0,0,-1.00006,137.46259,92.51358)" stroke-width=".99628" stroke-linecap="butt" stroke-miterlimit="10" stroke-linejoin="miter" fill="none" stroke="#000000" d="M0 0 65.29178-21.76393"/>
<path transform="matrix(.9486685,.31622897,.3162195,-.94869688,202.75632,114.27881)" d="M2.8892 0-1.73352 2.31136 0 0-1.73352-2.31136"/>
<path transform="matrix(1.00003,0,0,-1.00006,137.46259,92.51358)" stroke-width=".99628" stroke-linecap="butt" stroke-miterlimit="10" stroke-linejoin="miter" fill="none" stroke="#000000" d="M0 0 31.27547-10.42517"/>
<path transform="matrix(.9486685,.31622897,.3162195,-.94869688,168.739,102.93936)" d="M2.8892 0-1.73352 2.31136 0 0-1.73352-2.31136"/>
<path transform="matrix(1.00003,0,0,-1.00006,137.46259,92.51358)" stroke-width=".99628" stroke-linecap="butt" stroke-miterlimit="10" stroke-linejoin="miter" fill="none" stroke="#000000" d="M0 0 99.30807-33.10269"/>
<path transform="matrix(.9486685,.31622897,.3162195,-.94869688,236.77364,125.61824)" d="M2.8892 0-1.73352 2.31136 0 0-1.73352-2.31136"/>
<path transform="matrix(1.00003,0,0,-1.00006,137.46259,92.51358)" stroke-width=".99628" stroke-linecap="butt" stroke-miterlimit="10" stroke-linejoin="miter" fill="none" stroke="#000000" d="M0 0-99.30807 33.10269"/>
<path transform="matrix(-.9486685,-.31622897,-.3162195,.94869688,38.151536,59.408918)" d="M2.8892 0-1.73352 2.31136 0 0-1.73352-2.31136"/>
<path transform="matrix(1.00003,0,0,-1.00006,137.46259,92.51358)" stroke-width="1.99255" stroke-linecap="butt" stroke-miterlimit="10" stroke-linejoin="miter" fill="none" stroke="#ff0000" d="M0 0-63.8741 21.29138"/>
<path transform="matrix(-.9486685,-.31622897,-.3162195,.94869688,73.586589,71.220928)" d="M4.38364 0-2.63017 3.50691 0 0-2.63017-3.50691" fill="#ff0000"/>
<use data-text="[" xlink:href="#font_1_1" transform="matrix(9.962899,0,0,-9.963197,73.744678,42.00456)" fill="#ff0000"/>
<use data-text="&#x2212;" xlink:href="#font_2_1" transform="matrix(9.962899,0,0,-9.963197,79.00282,49.97504)" fill="#ff0000"/>
<use data-text="3" xlink:href="#font_3_2" transform="matrix(9.962899,0,0,-9.963197,86.75206,49.97504)" fill="#ff0000"/>
<use data-text="1" xlink:href="#font_3_1" transform="matrix(9.962899,0,0,-9.963197,82.877948,61.93076)" fill="#ff0000"/>
<use data-text="]" xlink:href="#font_1_2" transform="matrix(9.962899,0,0,-9.963197,91.7332,42.004564)" fill="#ff0000"/>
</svg>
