<?xml version="1.0" encoding="UTF-8"?>
<svg xmlns="http://www.w3.org/2000/svg" xmlns:xlink="http://www.w3.org/1999/xlink" width="87pt" height="88pt" viewBox="0 0 87 88" version="1.1">
<g id="surface1">
<path style="fill:none;stroke-width:0.3985;stroke-linecap:butt;stroke-linejoin:miter;stroke:rgb(0%,0%,0%);stroke-opacity:1;stroke-miterlimit:10;" d="M -42.120411 -0.0013125 L 42.123155 -0.0013125 " transform="matrix(1.00003,0,0,-1,43.617768,44.319)"/>
<path style="fill:none;stroke-width:0.3985;stroke-linecap:round;stroke-linejoin:round;stroke:rgb(0%,0%,0%);stroke-opacity:1;stroke-miterlimit:10;" d="M -2.071577 2.391937 C -1.692682 0.954437 -0.848957 0.278656 -0.00132611 0.0013125 C -0.848957 -0.279938 -1.692682 -0.955719 -2.071577 -2.389313 " transform="matrix(-1.00003,0,0,1,1.295549,44.319)"/>
<path style="fill:none;stroke-width:0.3985;stroke-linecap:round;stroke-linejoin:round;stroke:rgb(0%,0%,0%);stroke-opacity:1;stroke-miterlimit:10;" d="M -2.072738 2.389313 C -1.693844 0.955719 -0.850119 0.279938 0.0014181 -0.0013125 C -0.850119 -0.278656 -1.693844 -0.954437 -2.072738 -2.391937 " transform="matrix(1.00003,0,0,-1,85.939988,44.319)"/>
<path style="fill:none;stroke-width:0.3985;stroke-linecap:butt;stroke-linejoin:miter;stroke:rgb(0%,0%,0%);stroke-opacity:1;stroke-miterlimit:10;" d="M -0.000580963 -42.122406 L -0.000580963 42.119781 " transform="matrix(1.00003,0,0,-1,43.617768,44.319)"/>
<path style="fill:none;stroke-width:0.3985;stroke-linecap:round;stroke-linejoin:round;stroke:rgb(0%,0%,0%);stroke-opacity:1;stroke-miterlimit:10;" d="M -2.073544 2.389972 C -1.694637 0.956422 -0.850887 0.280661 0.000675 -0.000580963 C -0.850887 -0.277916 -1.694637 -0.957584 -2.073544 -2.391134 " transform="matrix(0,1,1.00003,0,43.617768,86.63995)"/>
<path style="fill:none;stroke-width:0.3985;stroke-linecap:round;stroke-linejoin:round;stroke:rgb(0%,0%,0%);stroke-opacity:1;stroke-miterlimit:10;" d="M -2.072263 2.391134 C -1.693356 0.957584 -0.849606 0.277916 -0.00195 0.000580963 C -0.849606 -0.280661 -1.693356 -0.956422 -2.072263 -2.389972 " transform="matrix(0,-1,-1.00003,0,43.617768,1.99805)"/>
<path style="fill:none;stroke-width:0.99628;stroke-linecap:butt;stroke-linejoin:miter;stroke:rgb(0%,0%,100%);stroke-opacity:1;stroke-miterlimit:10;" d="M -0.000580963 -0.0013125 L 25.455687 -0.0013125 " transform="matrix(1.00003,0,0,-1,43.617768,44.319)"/>
<path style=" stroke:none;fill-rule:nonzero;fill:rgb(0%,0%,100%);fill-opacity:1;" d="M 71.964844 44.320312 L 67.34375 42.007812 L 69.074219 44.320312 L 67.34375 46.628906 "/>
<path style="fill:none;stroke-width:0.99628;stroke-linecap:butt;stroke-linejoin:miter;stroke:rgb(39.99939%,39.99939%,100%);stroke-opacity:1;stroke-miterlimit:10;" d="M -0.000580963 -0.0013125 L 23.522151 9.748688 " transform="matrix(1.00003,0,0,-1,43.617768,44.319)"/>
<path style=" stroke:none;fill-rule:nonzero;fill:rgb(39.99939%,39.99939%,100%);fill-opacity:1;" d="M 69.8125 33.460938 L 64.65625 33.097656 L 67.140625 34.570312 L 66.425781 37.367188 "/>
<path style="fill:none;stroke-width:0.99628;stroke-linecap:butt;stroke-linejoin:miter;stroke:rgb(59.999084%,59.999084%,100%);stroke-opacity:1;stroke-miterlimit:10;" d="M -0.000580963 -0.0013125 L 17.998879 17.998688 " transform="matrix(1.00003,0,0,-1,43.617768,44.319)"/>
<path style=" stroke:none;fill-rule:nonzero;fill:rgb(59.999084%,59.999084%,100%);fill-opacity:1;" d="M 63.660156 24.277344 L 58.757812 25.914062 L 61.617188 26.320312 L 62.023438 29.179688 "/>
<path style="fill:none;stroke-width:0.99628;stroke-linecap:butt;stroke-linejoin:miter;stroke:rgb(79.998779%,79.998779%,100%);stroke-opacity:1;stroke-miterlimit:10;" d="M -0.000580963 -0.0013125 L 9.749127 23.522125 " transform="matrix(1.00003,0,0,-1,43.617768,44.319)"/>
<path style=" stroke:none;fill-rule:nonzero;fill:rgb(79.998779%,79.998779%,100%);fill-opacity:1;" d="M 54.476562 18.125 L 50.570312 21.511719 L 53.367188 20.796875 L 54.839844 23.28125 "/>
<path style="fill:none;stroke-width:0.99628;stroke-linecap:butt;stroke-linejoin:miter;stroke:rgb(100%,79.998779%,79.998779%);stroke-opacity:1;stroke-miterlimit:10;" d="M -0.000580963 -0.0013125 L -0.000580963 25.455719 " transform="matrix(1.00003,0,0,-1,43.617768,44.319)"/>
<path style=" stroke:none;fill-rule:nonzero;fill:rgb(100%,79.998779%,79.998779%);fill-opacity:1;" d="M 43.617188 15.972656 L 41.304688 20.59375 L 43.617188 18.863281 L 45.929688 20.59375 "/>
<path style="fill:none;stroke-width:0.99628;stroke-linecap:butt;stroke-linejoin:miter;stroke:rgb(100%,59.999084%,59.999084%);stroke-opacity:1;stroke-miterlimit:10;" d="M -0.000580963 -0.0013125 L -9.750288 23.522125 " transform="matrix(1.00003,0,0,-1,43.617768,44.319)"/>
<path style=" stroke:none;fill-rule:nonzero;fill:rgb(100%,59.999084%,59.999084%);fill-opacity:1;" d="M 32.761719 18.125 L 32.394531 23.28125 L 33.867188 20.796875 L 36.664062 21.511719 "/>
<path style="fill:none;stroke-width:0.99628;stroke-linecap:butt;stroke-linejoin:miter;stroke:rgb(100%,39.99939%,39.99939%);stroke-opacity:1;stroke-miterlimit:10;" d="M -0.000580963 -0.0013125 L -18.000041 17.998688 " transform="matrix(1.00003,0,0,-1,43.617768,44.319)"/>
<path style=" stroke:none;fill-rule:nonzero;fill:rgb(100%,39.99939%,39.99939%);fill-opacity:1;" d="M 23.574219 24.277344 L 25.210938 29.179688 L 25.617188 26.320312 L 28.480469 25.914062 "/>
<path style="fill:none;stroke-width:0.99628;stroke-linecap:butt;stroke-linejoin:miter;stroke:rgb(100%,29.998779%,29.998779%);stroke-opacity:1;stroke-miterlimit:10;" d="M -0.000580963 -0.0013125 L -23.523313 9.748688 " transform="matrix(1.00003,0,0,-1,43.617768,44.319)"/>
<path style=" stroke:none;fill-rule:nonzero;fill:rgb(100%,29.998779%,29.998779%);fill-opacity:1;" d="M 17.425781 33.460938 L 20.808594 37.367188 L 20.09375 34.570312 L 22.578125 33.097656 "/>
<path style="fill:none;stroke-width:0.99628;stroke-linecap:butt;stroke-linejoin:miter;stroke:rgb(100%,0%,0%);stroke-opacity:1;stroke-miterlimit:10;" d="M -0.000580963 -0.0013125 L -25.456849 -0.0013125 " transform="matrix(1.00003,0,0,-1,43.617768,44.319)"/>
<path style=" stroke:none;fill-rule:nonzero;fill:rgb(100%,0%,0%);fill-opacity:1;" d="M 15.269531 44.320312 L 19.894531 46.628906 L 18.160156 44.320312 L 19.894531 42.007812 "/>
<path style="fill:none;stroke-width:0.99628;stroke-linecap:butt;stroke-linejoin:miter;stroke:rgb(89.99939%,0%,9.999084%);stroke-opacity:1;stroke-miterlimit:10;" d="M -0.000580963 -0.0013125 L -23.523313 -9.751312 " transform="matrix(1.00003,0,0,-1,43.617768,44.319)"/>
<path style=" stroke:none;fill-rule:nonzero;fill:rgb(89.99939%,0%,9.999084%);fill-opacity:1;" d="M 17.425781 55.175781 L 22.578125 55.539062 L 20.09375 54.070312 L 20.808594 51.269531 "/>
<path style="fill:none;stroke-width:0.99628;stroke-linecap:butt;stroke-linejoin:miter;stroke:rgb(79.998779%,0%,19.999695%);stroke-opacity:1;stroke-miterlimit:10;" d="M -0.000580963 -0.0013125 L -18.000041 -17.997406 " transform="matrix(1.00003,0,0,-1,43.617768,44.319)"/>
<path style=" stroke:none;fill-rule:nonzero;fill:rgb(79.998779%,0%,19.999695%);fill-opacity:1;" d="M 23.574219 64.359375 L 28.480469 62.726562 L 25.617188 62.316406 L 25.210938 59.457031 "/>
<path style="fill:none;stroke-width:0.99628;stroke-linecap:butt;stroke-linejoin:miter;stroke:rgb(69.999695%,0%,29.998779%);stroke-opacity:1;stroke-miterlimit:10;" d="M -0.000580963 -0.0013125 L -9.750288 -23.52475 " transform="matrix(1.00003,0,0,-1,43.617768,44.319)"/>
<path style=" stroke:none;fill-rule:nonzero;fill:rgb(69.999695%,0%,29.998779%);fill-opacity:1;" d="M 32.761719 70.511719 L 36.664062 67.125 L 33.867188 67.84375 L 32.394531 65.355469 "/>
<path style="fill:none;stroke-width:0.99628;stroke-linecap:butt;stroke-linejoin:miter;stroke:rgb(59.999084%,0%,39.99939%);stroke-opacity:1;stroke-miterlimit:10;" d="M -0.000580963 -0.0013125 L -0.000580963 -25.458344 " transform="matrix(1.00003,0,0,-1,43.617768,44.319)"/>
<path style=" stroke:none;fill-rule:nonzero;fill:rgb(59.999084%,0%,39.99939%);fill-opacity:1;" d="M 43.617188 72.664062 L 45.929688 68.042969 L 43.617188 69.777344 L 41.304688 68.042969 "/>
<path style="fill:none;stroke-width:0.99628;stroke-linecap:butt;stroke-linejoin:miter;stroke:rgb(50%,0%,50%);stroke-opacity:1;stroke-miterlimit:10;" d="M -0.000580963 -0.0013125 L 9.749127 -23.52475 " transform="matrix(1.00003,0,0,-1,43.617768,44.319)"/>
<path style=" stroke:none;fill-rule:nonzero;fill:rgb(50%,0%,50%);fill-opacity:1;" d="M 54.476562 70.511719 L 54.839844 65.355469 L 53.367188 67.84375 L 50.570312 67.125 "/>
<path style="fill:none;stroke-width:0.99628;stroke-linecap:butt;stroke-linejoin:miter;stroke:rgb(39.99939%,0%,59.999084%);stroke-opacity:1;stroke-miterlimit:10;" d="M -0.000580963 -0.0013125 L 17.998879 -17.997406 " transform="matrix(1.00003,0,0,-1,43.617768,44.319)"/>
<path style=" stroke:none;fill-rule:nonzero;fill:rgb(39.99939%,0%,59.999084%);fill-opacity:1;" d="M 63.660156 64.359375 L 62.023438 59.457031 L 61.617188 62.316406 L 58.757812 62.726562 "/>
<path style="fill:none;stroke-width:0.99628;stroke-linecap:butt;stroke-linejoin:miter;stroke:rgb(29.998779%,0%,69.999695%);stroke-opacity:1;stroke-miterlimit:10;" d="M -0.000580963 -0.0013125 L 23.522151 -9.751312 " transform="matrix(1.00003,0,0,-1,43.617768,44.319)"/>
<path style=" stroke:none;fill-rule:nonzero;fill:rgb(29.998779%,0%,69.999695%);fill-opacity:1;" d="M 69.8125 55.175781 L 66.425781 51.269531 L 67.140625 54.070312 L 64.65625 55.539062 "/>
<path style=" stroke:none;fill-rule:nonzero;fill:rgb(0%,0%,100%);fill-opacity:1;" d="M 73.667969 44.320312 C 73.667969 43.378906 72.90625 42.617188 71.964844 42.617188 C 71.027344 42.617188 70.265625 43.378906 70.265625 44.320312 C 70.265625 45.257812 71.027344 46.019531 71.964844 46.019531 C 72.90625 46.019531 73.667969 45.257812 73.667969 44.320312 Z M 73.667969 44.320312 "/>
<path style="fill:none;stroke-width:0.49814;stroke-linecap:butt;stroke-linejoin:miter;stroke:rgb(0%,0%,0%);stroke-opacity:1;stroke-miterlimit:10;" d="M 34.01793 2.834625 C 33.217173 11.983063 30.588345 17.60025 25.608026 22.580719 " transform="matrix(1.00003,0,0,-1,43.617768,44.319)"/>
<path style=" stroke:none;fill-rule:nonzero;fill:rgb(0%,0%,0%);fill-opacity:1;" d="M 67.714844 20.222656 L 68.925781 23.859375 L 69.226562 21.738281 L 71.347656 21.4375 "/>
</g>
</svg>
