<svg xmlns="http://www.w3.org/2000/svg" xmlns:xlink="http://www.w3.org/1999/xlink" xmlns:inkscape="http://www.inkscape.org/namespaces/inkscape" version="1.1" width="254" height="230" viewBox="0 0 254 230">
<defs>
<path id="font_1_1" d="M.25-2.3587189H.5130005V-2.303711H.30499269V-.0146484379H.5130005V.04034424H.25V-2.3587189Z"/>
<path id="font_2_4" d="M.1269989 .07699585 .23298645 .18003845C.3889923 .31811524 .44898988 .3721466 .44898988 .47216798 .44898988 .5860901 .35899354 .6660156 .23699951 .6660156 .12399292 .6660156 .049987794 .57411196 .049987794 .48516847 .049987794 .4291687 .099990848 .4291687 .102996829 .4291687 .11999512 .4291687 .15499878 .44117738 .15499878 .48217774 .15499878 .5081787 .13699341 .5341797 .101989749 .5341797 .09399414 .5341797 .09199524 .5341797 .08898926 .5331726 .11199951 .59806826 .1659851 .63500979 .22399903 .63500979 .31498719 .63500979 .35798646 .5541382 .35798646 .47216798 .35798646 .39215089 .30799867 .31311036 .25299073 .25108338L.06098938 .036987306C.049987794 .025985718 .049987794 .023986817 .049987794 0H.42099L.44898988 .17404175H.42399598C.4189911 .14402771 .4119873 .1000061 .4019928 .084991458 .394989 .07699585 .32899476 .07699585 .30699159 .07699585H.1269989Z"/>
<path id="font_2_3" d="M.2939911 .64004519C.2939911 .66400149 .2939911 .6660156 .2709961 .6660156 .20899964 .60227969 .12098694 .60227969 .08898926 .60227969V.57128909C.10899353 .57128909 .16799927 .57128909 .21998596 .5972748V.07902527C.21998596 .042999269 .21699524 .0309906 .1269989 .0309906H.09498596V0C.12998963 .0029907227 .21699524 .0029907227 .25698854 .0029907227 .29699708 .0029907227 .38398744 .0029907227 .4189911 0V.0309906H.3869934C.29699708 .0309906 .2939911 .041992189 .2939911 .07902527V.64004519Z"/>
<path id="font_1_2" d="M.22200012-2.303711H.01399231V-2.3587189H.2769928V.04034424H.01399231V-.0146484379H.22200012V-2.303711Z"/>
<path id="font_3_1" d="M.6589966 .23046875C.6759949 .23046875 .69400027 .23046875 .69400027 .25045777 .69400027 .27046205 .6759949 .27046205 .6589966 .27046205H.117996219C.100997928 .27046205 .08299255 .27046205 .08299255 .25045777 .08299255 .23046875 .100997928 .23046875 .117996219 .23046875H.6589966Z"/>
<path id="font_2_1" d="M.33099366-.2400055C.33099366-.23701477 .33099366-.23500061 .31399537-.21800232 .18899536-.0920105 .15699768 .09700012 .15699768 .25 .15699768 .42399598 .19499207 .59799197 .31799317 .72299197 .33099366 .73498538 .33099366 .7369995 .33099366 .73999026 .33099366 .746994 .32699586 .75 .32099916 .75 .31098939 .75 .22099304 .6819916 .1619873 .5549927 .11099243 .44499208 .09899902 .33399964 .09899902 .25 .09899902 .17199707 .10998535 .050994874 .16499329-.06201172 .22499085-.18501282 .31098939-.25 .32099916-.25 .32699586-.25 .33099366-.24700928 .33099366-.2400055Z"/>
<path id="font_2_2" d="M.2889862 .25C.2889862 .32798768 .27799989 .44898988 .22299195 .56199648 .16299439 .68499758 .07699585 .75 .066986087 .75 .06098938 .75 .056991579 .74598696 .056991579 .73999026 .056991579 .7369995 .056991579 .73498538 .07598877 .71699526 .17399597 .6179962 .23098755 .45899964 .23098755 .25 .23098755 .07899475 .19400025-.09700012 .069992069-.2230072 .056991579-.23500061 .056991579-.23701477 .056991579-.2400055 .056991579-.2460022 .06098938-.25 .066986087-.25 .07699585-.25 .16699219-.18200684 .22599793-.055007936 .2769928 .054992677 .2889862 .16600037 .2889862 .25Z"/>
</defs>
<path transform="matrix(1.00003,0,0,-1.00003,115.4859,114.98601)" stroke-width=".3985" stroke-linecap="butt" stroke-miterlimit="10" stroke-linejoin="miter" fill="none" stroke="#cccccc" d="M-113.38724-113.38724H113.38724M-113.38724-85.04042H113.38724M-113.38724-56.69362H113.38724M-113.38724-28.3468H113.38724M-113.38724 0H113.38724M-113.38724 28.3468H113.38724M-113.38724 56.69362H113.38724M-113.38724 85.04042H113.38724M-113.38724 113.37727H113.38724M-113.38724-113.38724V113.38724M-85.04042-113.38724V113.38724M-56.69362-113.38724V113.38724M-28.3468-113.38724V113.38724M0-113.38724V113.38724M28.3468-113.38724V113.38724M56.69362-113.38724V113.38724M85.04042-113.38724V113.38724M113.37727-113.38724V113.38724M113.38724 113.38724"/>
<path transform="matrix(1.00003,0,0,-1.00003,115.4859,114.98601)" stroke-width=".3985" stroke-linecap="butt" stroke-miterlimit="10" stroke-linejoin="miter" fill="none" stroke="#000000" d="M-112.98872 0H112.98872"/>
<path transform="matrix(-1.00003,-0,0,1.00003,2.2945252,114.98601)" stroke-width=".3985" stroke-linecap="round" stroke-linejoin="round" fill="none" stroke="#000000" d="M-2.07224 2.39104C-1.69365 .95639-.84999 .27895 0 0-.84999-.27895-1.69365-.95639-2.07224-2.39104"/>
<path transform="matrix(1.00003,0,0,-1.00003,228.67728,114.98601)" stroke-width=".3985" stroke-linecap="round" stroke-linejoin="round" fill="none" stroke="#000000" d="M-2.07224 2.39104C-1.69365 .95639-.84999 .27895 0 0-.84999-.27895-1.69365-.95639-2.07224-2.39104"/>
<path transform="matrix(1.00003,0,0,-1.00003,115.4859,114.98601)" stroke-width=".3985" stroke-linecap="butt" stroke-miterlimit="10" stroke-linejoin="miter" fill="none" stroke="#000000" d="M0-112.98872V112.98872"/>
<path transform="matrix(0,1.00003,1.00003,0,115.4859,228.17739)" stroke-width=".3985" stroke-linecap="round" stroke-linejoin="round" fill="none" stroke="#000000" d="M-2.07224 2.39104C-1.69365 .95639-.84999 .27895 0 0-.84999-.27895-1.69365-.95639-2.07224-2.39104"/>
<path transform="matrix(0,-1.00003,-1.00003,-0,115.4859,1.794632)" stroke-width=".3985" stroke-linecap="round" stroke-linejoin="round" fill="none" stroke="#000000" d="M-2.07224 2.39104C-1.69365 .95639-.84999 .27895 0 0-.84999-.27895-1.69365-.95639-2.07224-2.39104"/>
<g>
<path transform="matrix(1.00003,0,0,-1.00003,115.4859,114.98601)" d="M0 0-56.69362 56.69362 56.69362 113.38724 113.38724 56.69362Z" fill="#0000ff" fill-opacity=".3"/>
<path transform="matrix(1.00003,0,0,-1.00003,115.4859,114.98601)" stroke-width=".3985" stroke-linecap="butt" stroke-miterlimit="10" stroke-linejoin="miter" fill="none" stroke="#0000ff" stroke-opacity=".3" d="M0 0-56.69362 56.69362 56.69362 113.38724 113.38724 56.69362Z"/>
</g>
<path transform="matrix(1.00003,0,0,-1.00003,115.4859,114.98601)" stroke-width="1.99255" stroke-linecap="butt" stroke-miterlimit="10" stroke-linejoin="miter" fill="none" stroke="#ff0000" d="M0 0 52.77306 26.38655"/>
<path transform="matrix(.8943869,-.44718344,-.44718344,-.8943869,168.26055,88.59866)" d="M4.38364 0-2.63017 3.50691 0 0-2.63017-3.50691" fill="#ff0000"/>
<use data-text="[" xlink:href="#font_1_1" transform="matrix(9.962899,0,0,-9.962899,176.49773,91.354297)" fill="#ff0000"/>
<use data-text="2" xlink:href="#font_2_4" transform="matrix(9.962899,0,0,-9.962899,181.75588,99.32454)" fill="#ff0000"/>
<use data-text="1" xlink:href="#font_2_3" transform="matrix(9.962899,0,0,-9.962899,181.75588,111.2799)" fill="#ff0000"/>
<use data-text="]" xlink:href="#font_1_2" transform="matrix(9.962899,0,0,-9.962899,186.73703,91.354297)" fill="#ff0000"/>
<path transform="matrix(1.00003,0,0,-1.00003,115.4859,114.98601)" stroke-width="1.99255" stroke-linecap="butt" stroke-dasharray="2.98883,2.98883" stroke-miterlimit="10" stroke-linejoin="miter" fill="none" stroke="#ff0000" d="M0 0 109.46667 54.73337"/>
<path transform="matrix(.8943869,-.44718344,-.44718344,-.8943869,224.95586,60.25099)" d="M4.38364 0-2.63017 3.50691 0 0-2.63017-3.50691" fill="#ff0000"/>
<use data-text="2" xlink:href="#font_2_4" transform="matrix(9.962899,0,0,-9.962899,233.19344,77.05386)" fill="#ff0000"/>
<use data-text="[" xlink:href="#font_1_1" transform="matrix(9.962899,0,0,-9.962899,239.83464,63.006444)" fill="#ff0000"/>
<use data-text="2" xlink:href="#font_2_4" transform="matrix(9.962899,0,0,-9.962899,245.09279,70.976688)" fill="#ff0000"/>
<use data-text="1" xlink:href="#font_2_3" transform="matrix(9.962899,0,0,-9.962899,245.09279,82.93205)" fill="#ff0000"/>
<use data-text="]" xlink:href="#font_1_2" transform="matrix(9.962899,0,0,-9.962899,250.07494,63.006444)" fill="#ff0000"/>
<path transform="matrix(1.00003,0,0,-1.00003,115.4859,114.98601)" stroke-width="1.99255" stroke-linecap="butt" stroke-miterlimit="10" stroke-linejoin="miter" fill="none" stroke="#0000ff" d="M0 0 53.59392-53.59392"/>
<path transform="matrix(.7071212,.7071212,.7071212,-.7071212,169.0814,168.58152)" d="M4.38364 0-2.63017 3.50691 0 0-2.63017-3.50691" fill="#0000ff"/>
<use data-text="[" xlink:href="#font_1_1" transform="matrix(9.962899,0,0,-9.962899,176.49773,160.12436)" fill="#0000ff"/>
<use data-text="2" xlink:href="#font_2_4" transform="matrix(9.962899,0,0,-9.962899,185.63,168.0946)" fill="#0000ff"/>
<use data-text="&#x2212;" xlink:href="#font_3_1" transform="matrix(9.962899,0,0,-9.962899,181.75589,180.04996)" fill="#0000ff"/>
<use data-text="2" xlink:href="#font_2_4" transform="matrix(9.962899,0,0,-9.962899,189.50511,180.04996)" fill="#0000ff"/>
<use data-text="]" xlink:href="#font_1_2" transform="matrix(9.962899,0,0,-9.962899,194.48627,160.12436)" fill="#0000ff"/>
<path transform="matrix(1.00003,0,0,-1.00003,115.4859,114.98601)" stroke-width="1.99255" stroke-linecap="butt" stroke-dasharray="2.98883,2.98883" stroke-miterlimit="10" stroke-linejoin="miter" fill="none" stroke="#0000ff" d="M0 0-53.59392 53.59392"/>
<path transform="matrix(-.7071212,-.7071212,-.7071212,.7071212,61.890394,61.3905)" d="M4.38364 0-2.63017 3.50691 0 0-2.63017-3.50691" fill="#0000ff"/>
<use data-text="(" xlink:href="#font_2_1" transform="matrix(9.962899,0,0,-9.962899,9.085709,44.508897)" fill="#0000ff"/>
<use data-text="&#x2212;" xlink:href="#font_3_1" transform="matrix(9.962899,0,0,-9.962899,12.959808,44.508897)" fill="#0000ff"/>
<use data-text="1" xlink:href="#font_2_3" transform="matrix(9.962899,0,0,-9.962899,20.709046,44.508897)" fill="#0000ff"/>
<use data-text=")" xlink:href="#font_2_2" transform="matrix(9.962899,0,0,-9.962899,25.69049,44.508897)" fill="#0000ff"/>
<use data-text="[" xlink:href="#font_1_1" transform="matrix(9.962899,0,0,-9.962899,31.225358,30.461472)" fill="#0000ff"/>
<use data-text="2" xlink:href="#font_2_4" transform="matrix(9.962899,0,0,-9.962899,40.357637,38.431718)" fill="#0000ff"/>
<use data-text="&#x2212;" xlink:href="#font_3_1" transform="matrix(9.962899,0,0,-9.962899,36.483537,50.387079)" fill="#0000ff"/>
<use data-text="2" xlink:href="#font_2_4" transform="matrix(9.962899,0,0,-9.962899,44.232759,50.387079)" fill="#0000ff"/>
<use data-text="]" xlink:href="#font_1_2" transform="matrix(9.962899,0,0,-9.962899,49.213914,30.461472)" fill="#0000ff"/>
<path transform="matrix(1.00003,0,0,-1.00003,115.4859,114.98601)" stroke-width="1.99255" stroke-linecap="butt" stroke-miterlimit="10" stroke-linejoin="miter" fill="none" stroke="#000000" d="M0 0 54.73337 109.46667"/>
<path transform="matrix(.44718344,-.8943869,-.8943869,-.44718344,170.22092,5.5160524)" d="M4.38364 0-2.63017 3.50691 0 0-2.63017-3.50691"/>
</svg>
