<?xml version="1.0" encoding="UTF-8"?>
<svg xmlns="http://www.w3.org/2000/svg" xmlns:xlink="http://www.w3.org/1999/xlink" width="116pt" height="139pt" viewBox="0 0 116 139" version="1.1">
<g id="surface1">
<path style="fill:none;stroke-width:0.3985;stroke-linecap:butt;stroke-linejoin:miter;stroke:rgb(0%,0%,0%);stroke-opacity:1;stroke-miterlimit:10;" d="M -45.355986 0.00182536 L 67.633942 0.00182536 " transform="matrix(1.00002,0,0,-1.00005,46.403768,69.630732)"/>
<path style="fill:none;stroke-width:0.3985;stroke-linecap:round;stroke-linejoin:round;stroke:rgb(0%,0%,0%);stroke-opacity:1;stroke-miterlimit:10;" d="M -2.070445 2.392331 C -1.695452 0.954903 -0.851719 0.279155 -0.000173473 0.00182536 C -0.851719 -0.279411 -1.695452 -0.955158 -2.070445 -2.392586 " transform="matrix(1.00002,0,0,-1.00005,114.238455,69.630732)"/>
<path style="fill:none;stroke-width:0.3985;stroke-linecap:butt;stroke-linejoin:miter;stroke:rgb(0%,0%,0%);stroke-opacity:1;stroke-miterlimit:10;" d="M -0.00142428 -45.355282 L -0.00142428 67.635162 " transform="matrix(1.00002,0,0,-1.00005,46.403768,69.630732)"/>
<path style="fill:none;stroke-width:0.3985;stroke-linecap:round;stroke-linejoin:round;stroke:rgb(0%,0%,0%);stroke-opacity:1;stroke-miterlimit:10;" d="M -2.073074 2.392001 C -1.694187 0.95453 -0.850479 0.278762 0.00104123 0.00142428 C -0.850479 -0.27982 -1.694187 -0.955588 -2.073074 -2.389153 " transform="matrix(0,-1.00005,-1.00002,0,46.403768,1.79401)"/>
<path style="fill:none;stroke-width:0.3985;stroke-linecap:butt;stroke-linejoin:miter;stroke:rgb(0%,0%,0%);stroke-opacity:1;stroke-miterlimit:10;" d="M 17.46307 17.46189 L -43.371651 -43.371006 " transform="matrix(1.00002,0,0,-1.00005,46.403768,69.630732)"/>
<path style="fill:none;stroke-width:0.3985;stroke-linecap:round;stroke-linejoin:round;stroke:rgb(0%,0%,0%);stroke-opacity:1;stroke-miterlimit:10;" d="M -2.072662 2.391521 C -1.694238 0.958003 -0.849035 0.278523 -0.00107709 -0.000458808 C -0.849027 -0.279415 -1.691447 -0.956108 -2.07259 -2.392377 " transform="matrix(-0.707114,0.707135,0.707114,0.707135,2.890188,113.145617)"/>
<path style="fill-rule:nonzero;fill:rgb(0%,0%,100%);fill-opacity:0.3;stroke-width:0.3985;stroke-linecap:butt;stroke-linejoin:miter;stroke:rgb(0%,0%,100%);stroke-opacity:0.3;stroke-miterlimit:10;" d="M 45.353137 68.03358 L -21.825207 23.527993 L -45.355986 -68.033835 L 21.826264 -23.528248 Z M 45.353137 68.03358 " transform="matrix(1.00002,0,0,-1.00005,46.403768,69.630732)"/>
<path style="fill:none;stroke-width:1.99255;stroke-linecap:butt;stroke-linejoin:miter;stroke:rgb(100%,0%,0%);stroke-opacity:1;stroke-miterlimit:10;" d="M -0.00142428 0.00182536 L 42.923498 64.385325 " transform="matrix(1.00002,0,0,-1.00005,46.403768,69.630732)"/>
<path style=" stroke:none;fill-rule:nonzero;fill:rgb(100%,0%,0%);fill-opacity:1;" d="M 91.757812 1.59375 L 84.953125 5.484375 L 89.328125 5.242188 L 90.789062 9.375 "/>
<path style="fill:none;stroke-width:1.99255;stroke-linecap:butt;stroke-linejoin:miter;stroke:rgb(0%,0%,100%);stroke-opacity:1;stroke-miterlimit:10;" d="M -0.00142428 0.00182536 L -18.844797 20.31331 " transform="matrix(1.00002,0,0,-1.00005,46.403768,69.630732)"/>
<path style=" stroke:none;fill-rule:nonzero;fill:rgb(0%,0%,100%);fill-opacity:1;" d="M 24.578125 46.101562 L 26.777344 53.628906 L 27.558594 49.316406 L 31.917969 48.859375 "/>
</g>
</svg>
