<svg xmlns="http://www.w3.org/2000/svg" xmlns:xlink="http://www.w3.org/1999/xlink" xmlns:inkscape="http://www.inkscape.org/namespaces/inkscape" version="1.1" width="162" height="162" viewBox="0 0 162 162">
<defs>
<path id="font_1_1" d="M.5059967 .37631227C.5119934 .39031983 .5159912 .3973236 .5799866 .3973236V.44433595C.5549927 .44232179 .526001 .44132997 .5009918 .44132997 .47599793 .44132997 .43099977 .44332887 .4099884 .44433595V.3973236C.42900086 .3973236 .45799256 .3943329 .45799256 .38632203 .45799256 .3853302 .45700074 .38331605 .45298768 .37431336L.33699037 .12416077 .20999146 .3973236H.2639923V.44433595C.23098755 .44232179 .14099121 .44132997 .13999939 .44132997 .11199951 .44132997 .066986087 .44332887 .025985718 .44433595V.3973236H.08999634L.2649994 .021087647C.2769928-.00390625 .2899933-.00390625 .30299378-.00390625 .31999208-.00390625 .32998658-.00091552737 .33999635 .020080567L.5059967 .37631227Z"/>
<path id="font_2_1" d="M.20599365 .71199038C.20599365 .72698977 .20599365 .75 .18199158 .75 .15699768 .75 .15699768 .72499087 .15699768 .7069855V-.20602417C.15699768-.22402954 .15699768-.24902344 .18199158-.24902344 .20599365-.24902344 .20599365-.22602844 .20599365-.21102906V.71199038M.4269867 .7069855C.4269867 .72499087 .4269867 .75 .4019928 .75 .37799073 .75 .37799073 .72698977 .37799073 .71199038V-.21102906C.37799073-.22602844 .37799073-.24902344 .4019928-.24902344 .4269867-.24902344 .4269867-.22402954 .4269867-.20602417V.7069855Z"/>
</defs>
<path transform="matrix(1.00005,0,0,-1,60.92514,101.011)" stroke-width=".3985" stroke-linecap="butt" stroke-miterlimit="10" stroke-linejoin="miter" fill="none" stroke="#cccccc" d="M-59.52802-59.52802H99.2134M-59.52802-39.68535H99.2134M-59.52802-19.84267H99.2134M-59.52802 0H99.2134M-59.52802 19.84267H99.2134M-59.52802 39.68535H99.2134M-59.52802 59.52802H99.2134M-59.52802 79.37071H99.2134M-59.52802 99.20642H99.2134M-59.52802-59.52802V99.2134M-39.68535-59.52802V99.2134M-19.84267-59.52802V99.2134M0-59.52802V99.2134M19.84267-59.52802V99.2134M39.68535-59.52802V99.2134M59.52802-59.52802V99.2134M79.37071-59.52802V99.2134M99.20642-59.52802V99.2134M99.2134 99.2134"/>
<path transform="matrix(1.00005,0,0,-1,60.92514,101.011)" stroke-width=".3985" stroke-linecap="butt" stroke-miterlimit="10" stroke-linejoin="miter" fill="none" stroke="#000000" d="M-59.12952 0H98.8149"/>
<path transform="matrix(-1.00005,-0,0,1,1.5934067,101.011)" stroke-width=".3985" stroke-linecap="round" stroke-linejoin="round" fill="none" stroke="#000000" d="M-2.07224 2.39104C-1.69365 .95639-.84999 .27895 0 0-.84999-.27895-1.69365-.95639-2.07224-2.39104"/>
<path transform="matrix(1.00005,0,0,-1,159.94422,101.011)" stroke-width=".3985" stroke-linecap="round" stroke-linejoin="round" fill="none" stroke="#000000" d="M-2.07224 2.39104C-1.69365 .95639-.84999 .27895 0 0-.84999-.27895-1.69365-.95639-2.07224-2.39104"/>
<path transform="matrix(1.00005,0,0,-1,60.92514,101.011)" stroke-width=".3985" stroke-linecap="butt" stroke-miterlimit="10" stroke-linejoin="miter" fill="none" stroke="#000000" d="M0-59.12952V98.8149"/>
<path transform="matrix(0,1,1.00005,0,60.92514,160.33977)" stroke-width=".3985" stroke-linecap="round" stroke-linejoin="round" fill="none" stroke="#000000" d="M-2.07224 2.39104C-1.69365 .95639-.84999 .27895 0 0-.84999-.27895-1.69365-.95639-2.07224-2.39104"/>
<path transform="matrix(0,-1,-1.00005,-0,60.92514,1.9968643)" stroke-width=".3985" stroke-linecap="round" stroke-linejoin="round" fill="none" stroke="#000000" d="M-2.07224 2.39104C-1.69365 .95639-.84999 .27895 0 0-.84999-.27895-1.69365-.95639-2.07224-2.39104"/>
<path transform="matrix(1.00005,0,0,-1,60.92514,101.011)" stroke-width=".3985" stroke-linecap="butt" stroke-dasharray="2.98883,2.98883" stroke-miterlimit="10" stroke-linejoin="miter" fill="none" stroke="#ff0000" d="M39.68535 79.37071 71.43376 15.87419"/>
<path transform="matrix(1.00005,0,0,-1,60.92514,101.011)" stroke-width=".99628" stroke-linecap="butt" stroke-miterlimit="10" stroke-linejoin="miter" fill="none" stroke="#000000" d="M-59.52802-49.60667 99.2134 29.764"/>
<path transform="matrix(1.00005,0,0,-1,60.92514,101.011)" stroke-width="1.99255" stroke-linecap="butt" stroke-miterlimit="10" stroke-linejoin="miter" fill="none" stroke="#0000ff" d="M-39.68535-39.68535 37.25388 75.72345"/>
<path transform="matrix(.5546977,-.83202,-.8320615,-.55467,98.18088,25.287552)" d="M4.38364 0-2.63017 3.50691 0 0-2.63017-3.50691" fill="#0000ff"/>
<path transform="matrix(1.00005,0,0,-1,60.92514,101.011)" stroke-width="1.99255" stroke-linecap="butt" stroke-miterlimit="10" stroke-linejoin="miter" fill="none" stroke="#ff0000" d="M-39.68535-39.68535 67.5132 13.91394"/>
<path transform="matrix(.89440467,-.44717,-.4471923,-.89436,128.44171,87.09706)" d="M4.38364 0-2.63017 3.50691 0 0-2.63017-3.50691" fill="#ff0000"/>
<use data-text="v" xlink:href="#font_1_1" transform="matrix(9.963098,0,0,-9.9626,47.90049,73.461)" fill="#0000ff"/>
<use data-text="v" xlink:href="#font_1_1" transform="matrix(9.963098,0,0,-9.9626,93.31376,119.312007)" fill="#ff0000"/>
<use data-text="&#x2225;" xlink:href="#font_2_1" transform="matrix(6.9741489,0,0,-6.9738,99.36106,121.11101)" fill="#ff0000"/>
</svg>
