<svg xmlns="http://www.w3.org/2000/svg" xmlns:xlink="http://www.w3.org/1999/xlink" xmlns:inkscape="http://www.inkscape.org/namespaces/inkscape" version="1.1" width="185" height="117" viewBox="0 0 185 117">
<defs>
<path id="font_1_1" d="M.25-2.3587189H.5130005V-2.303711H.30499269V-.0146484379H.5130005V.04034424H.25V-2.3587189Z"/>
<path id="font_2_3" d="M.1269989 .07699585 .23298645 .18003845C.3889923 .31811524 .44898988 .3721466 .44898988 .47216798 .44898988 .5860901 .35899354 .6660156 .23699951 .6660156 .12399292 .6660156 .049987794 .57411196 .049987794 .48516847 .049987794 .4291687 .099990848 .4291687 .102996829 .4291687 .11999512 .4291687 .15499878 .44117738 .15499878 .48217774 .15499878 .5081787 .13699341 .5341797 .101989749 .5341797 .09399414 .5341797 .09199524 .5341797 .08898926 .5331726 .11199951 .59806826 .1659851 .63500979 .22399903 .63500979 .31498719 .63500979 .35798646 .5541382 .35798646 .47216798 .35798646 .39215089 .30799867 .31311036 .25299073 .25108338L.06098938 .036987306C.049987794 .025985718 .049987794 .023986817 .049987794 0H.42099L.44898988 .17404175H.42399598C.4189911 .14402771 .4119873 .1000061 .4019928 .084991458 .394989 .07699585 .32899476 .07699585 .30699159 .07699585H.1269989Z"/>
<path id="font_1_2" d="M.22200012-2.303711H.01399231V-2.3587189H.2769928V.04034424H.01399231V-.0146484379H.22200012V-2.303711Z"/>
<path id="font_3_1" d="M.6589966 .23046875C.6759949 .23046875 .69400027 .23046875 .69400027 .25045777 .69400027 .27046205 .6759949 .27046205 .6589966 .27046205H.117996219C.100997928 .27046205 .08299255 .27046205 .08299255 .25045777 .08299255 .23046875 .100997928 .23046875 .117996219 .23046875H.6589966Z"/>
<path id="font_2_2" d="M.2939911 .64004519C.2939911 .66400149 .2939911 .6660156 .2709961 .6660156 .20899964 .60227969 .12098694 .60227969 .08898926 .60227969V.57128909C.10899353 .57128909 .16799927 .57128909 .21998596 .5972748V.07902527C.21998596 .042999269 .21699524 .0309906 .1269989 .0309906H.09498596V0C.12998963 .0029907227 .21699524 .0029907227 .25698854 .0029907227 .29699708 .0029907227 .38398744 .0029907227 .4189911 0V.0309906H.3869934C.29699708 .0309906 .2939911 .041992189 .2939911 .07902527V.64004519Z"/>
<path id="font_2_1" d="M.45999146 .31976319C.45999146 .39982606 .45498658 .47988893 .41999818 .5539398 .37399293 .65000918 .2919922 .6660156 .25 .6660156 .18998719 .6660156 .116989139 .64001467 .07598877 .54693606 .04399109 .47789 .038986207 .39982606 .038986207 .31976319 .038986207 .24472046 .042999269 .15464783 .083999637 .07859802 .1269989-.0024719239 .19999695-.022460938 .24899292-.022460938 .30299378-.022460938 .3789978-.0014648438 .4229889 .09359741 .45498658 .16265869 .45999146 .2407074 .45999146 .31976319M.24899292-.00047302247C.20999146-.00047302247 .15098572 .024551392 .1329956 .12062073 .12199402 .18066406 .12199402 .2727356 .12199402 .3317871 .12199402 .39582826 .12199402 .46188355 .12998963 .5159149 .14898682 .63500979 .22399903 .64401248 .24899292 .64401248 .28199769 .64401248 .34799195 .6259918 .36698915 .52693179 .3769989 .47088624 .3769989 .39482118 .3769989 .3317871 .3769989 .25672914 .3769989 .18867493 .3659973 .12461853 .35099793 .029556275 .2939911-.00047302247 .24899292-.00047302247Z"/>
</defs>
<path transform="matrix(1,0,0,-1,92.80499,92.508)" stroke-width=".3985" stroke-linecap="butt" stroke-miterlimit="10" stroke-linejoin="miter" fill="none" stroke="#cccccc" d="M-90.71013-22.67752H90.71013M-90.71013 0H90.71013M-90.71013 22.67752H90.71013M-90.71013 45.35506H90.71013M-90.71013 68.0326H90.71013M-90.71013 90.70215H90.71013M-90.71013-22.67752V90.71013M-68.0326-22.67752V90.71013M-45.35506-22.67752V90.71013M-22.67752-22.67752V90.71013M0-22.67752V90.71013M22.67752-22.67752V90.71013M45.35506-22.67752V90.71013M68.0326-22.67752V90.71013M90.70215-22.67752V90.71013M90.71013 90.71013"/>
<path transform="matrix(1,0,0,-1,92.80499,92.508)" stroke-width=".3985" stroke-linecap="butt" stroke-miterlimit="10" stroke-linejoin="miter" fill="none" stroke="#000000" d="M-90.31161 0H90.31161"/>
<path transform="matrix(-1,-0,0,1,2.294136,92.508)" stroke-width=".3985" stroke-linecap="round" stroke-linejoin="round" fill="none" stroke="#000000" d="M-2.07224 2.39104C-1.69365 .95639-.84999 .27895 0 0-.84999-.27895-1.69365-.95639-2.07224-2.39104"/>
<path transform="matrix(1,0,0,-1,183.31586,92.508)" stroke-width=".3985" stroke-linecap="round" stroke-linejoin="round" fill="none" stroke="#000000" d="M-2.07224 2.39104C-1.69365 .95639-.84999 .27895 0 0-.84999-.27895-1.69365-.95639-2.07224-2.39104"/>
<path transform="matrix(1,0,0,-1,92.80499,92.508)" stroke-width=".3985" stroke-linecap="butt" stroke-miterlimit="10" stroke-linejoin="miter" fill="none" stroke="#000000" d="M0-22.279V90.31161"/>
<path transform="matrix(0,1,1,0,92.80499,114.98627)" stroke-width=".3985" stroke-linecap="round" stroke-linejoin="round" fill="none" stroke="#000000" d="M-2.07224 2.39104C-1.69365 .95639-.84999 .27895 0 0-.84999-.27895-1.69365-.95639-2.07224-2.39104"/>
<path transform="matrix(0,-1,-1,-0,92.80499,1.9971466)" stroke-width=".3985" stroke-linecap="round" stroke-linejoin="round" fill="none" stroke="#000000" d="M-2.07224 2.39104C-1.69365 .95639-.84999 .27895 0 0-.84999-.27895-1.69365-.95639-2.07224-2.39104"/>
<path transform="matrix(1,0,0,-1,92.80499,92.508)" stroke-width="1.99255" stroke-linecap="butt" stroke-miterlimit="10" stroke-linejoin="miter" fill="none" stroke="#0000ff" d="M0 0 42.25536 42.25536"/>
<path transform="matrix(.7071,-.7071,-.7071,-.7071,135.06034,50.252664)" d="M4.38364 0-2.63017 3.50691 0 0-2.63017-3.50691" fill="#0000ff"/>
<use data-text="[" xlink:href="#font_1_1" transform="matrix(9.9626,0,0,-9.9626,142.47699,19.323998)" fill="#0000ff"/>
<use data-text="2" xlink:href="#font_2_3" transform="matrix(9.9626,0,0,-9.9626,147.73499,27.293999)" fill="#0000ff"/>
<use data-text="2" xlink:href="#font_2_3" transform="matrix(9.9626,0,0,-9.9626,147.73499,39.249)" fill="#0000ff"/>
<use data-text="]" xlink:href="#font_1_2" transform="matrix(9.9626,0,0,-9.9626,152.71599,19.324002)" fill="#0000ff"/>
<path transform="matrix(1,0,0,-1,92.80499,92.508)" stroke-width="1.99255" stroke-linecap="butt" stroke-miterlimit="10" stroke-linejoin="miter" fill="none" stroke="#ff0000" d="M0 0H-18.29387"/>
<path transform="matrix(-1,-0,0,1,74.51112,92.508)" d="M4.38364 0-2.63017 3.50691 0 0-2.63017-3.50691" fill="#ff0000"/>
<use data-text="[" xlink:href="#font_1_1" transform="matrix(9.9626,0,0,-9.9626,42.563997,64.679)" fill="#ff0000"/>
<use data-text="&#x2212;" xlink:href="#font_3_1" transform="matrix(9.9626,0,0,-9.9626,47.82199,72.649)" fill="#ff0000"/>
<use data-text="1" xlink:href="#font_2_2" transform="matrix(9.9626,0,0,-9.9626,55.570985,72.649)" fill="#ff0000"/>
<use data-text="0" xlink:href="#font_2_1" transform="matrix(9.9626,0,0,-9.9626,51.695985,84.604007)" fill="#ff0000"/>
<use data-text="]" xlink:href="#font_1_2" transform="matrix(9.9626,0,0,-9.9626,60.551988,64.679)" fill="#ff0000"/>
</svg>
