<?xml version="1.0" encoding="UTF-8"?>
<svg xmlns="http://www.w3.org/2000/svg" xmlns:xlink="http://www.w3.org/1999/xlink" width="174pt" height="174pt" viewBox="0 0 174 174" version="1.1">
<g id="surface1">
<path style="fill:none;stroke-width:0.3985;stroke-linecap:butt;stroke-linejoin:miter;stroke:rgb(79.998779%,79.998779%,79.998779%);stroke-opacity:1;stroke-miterlimit:10;" d="M -85.041405 -56.693136 L 85.039935 -56.693136 M -85.041405 -28.34633 L 85.039935 -28.34633 M -85.041405 0.000475686 L 85.039935 0.000475686 M -85.041405 28.347282 L 85.039935 28.347282 M -85.041405 56.694087 L 85.039935 56.694087 M -85.041405 85.040893 L 85.039935 85.040893 M -85.041405 113.375981 L 85.039935 113.375981 M -85.041405 -56.693136 L -85.041405 113.387699 M -56.695166 -56.693136 L -56.695166 113.387699 M -28.345021 -56.693136 L -28.345021 113.387699 M 0.00121819 -56.693136 L 0.00121819 113.387699 M 28.347457 -56.693136 L 28.347457 113.387699 M 56.693696 -56.693136 L 56.693696 113.387699 M 85.032123 -56.693136 L 85.032123 113.387699 " transform="matrix(1.00005,0,0,-1.00003,87.139407,115.187976)"/>
<path style="fill:none;stroke-width:0.3985;stroke-linecap:butt;stroke-linejoin:miter;stroke:rgb(0%,0%,0%);stroke-opacity:1;stroke-miterlimit:10;" d="M -84.642987 0.000475686 L 84.641517 0.000475686 " transform="matrix(1.00005,0,0,-1.00003,87.139407,115.187976)"/>
<path style="fill:none;stroke-width:0.3985;stroke-linecap:round;stroke-linejoin:round;stroke:rgb(0%,0%,0%);stroke-opacity:1;stroke-miterlimit:10;" d="M -2.073089 2.390078 C -1.694202 0.956527 -0.850494 0.280766 0.00102589 -0.000475686 C -0.850494 -0.277811 -1.694202 -0.957478 -2.073089 -2.391029 " transform="matrix(-1.00005,0,0,1.00003,2.293995,115.187976)"/>
<path style="fill:none;stroke-width:0.3985;stroke-linecap:round;stroke-linejoin:round;stroke:rgb(0%,0%,0%);stroke-opacity:1;stroke-miterlimit:10;" d="M -2.070653 2.391029 C -1.691765 0.957478 -0.848058 0.277811 -0.000443786 0.000475686 C -0.848058 -0.280766 -1.691765 -0.956527 -2.070653 -2.390078 " transform="matrix(1.00005,0,0,-1.00003,171.984819,115.187976)"/>
<path style="fill:none;stroke-width:0.3985;stroke-linecap:butt;stroke-linejoin:miter;stroke:rgb(0%,0%,0%);stroke-opacity:1;stroke-miterlimit:10;" d="M 0.00121819 -56.29471 L 0.00121819 112.989274 " transform="matrix(1.00005,0,0,-1.00003,87.139407,115.187976)"/>
<path style="fill:none;stroke-width:0.3985;stroke-linecap:round;stroke-linejoin:round;stroke:rgb(0%,0%,0%);stroke-opacity:1;stroke-miterlimit:10;" d="M -2.070677 2.391724 C -1.691782 0.958202 -0.848058 0.278548 -0.000426768 0.00121819 C -0.848058 -0.280018 -1.691782 -0.955765 -2.070677 -2.389287 " transform="matrix(0,1.00003,1.00005,0,87.139407,171.684021)"/>
<path style="fill:none;stroke-width:0.3985;stroke-linecap:round;stroke-linejoin:round;stroke:rgb(0%,0%,0%);stroke-opacity:1;stroke-miterlimit:10;" d="M -2.07364 2.389287 C -1.694745 0.955765 -0.851021 0.280018 0.000516295 -0.00121819 C -0.851021 -0.278548 -1.694745 -0.958202 -2.07364 -2.391724 " transform="matrix(0,-1.00003,-1.00005,0,87.139407,1.99661)"/>
<path style="fill-rule:nonzero;fill:rgb(0%,0%,100%);fill-opacity:0.3;stroke-width:0.3985;stroke-linecap:butt;stroke-linejoin:miter;stroke:rgb(0%,0%,100%);stroke-opacity:0.3;stroke-miterlimit:10;" d="M -28.345021 -28.34633 L -56.695166 56.694087 L -28.345021 85.040893 L 28.347457 56.694087 L 56.693696 0.000475686 Z M -28.345021 -28.34633 " transform="matrix(1.00005,0,0,-1.00003,87.139407,115.187976)"/>
<path style="fill:none;stroke-width:0.99628;stroke-linecap:butt;stroke-linejoin:miter;stroke:rgb(100%,0%,0%);stroke-opacity:1;stroke-miterlimit:10;" d="M 0.00121819 0.000475686 L -26.302154 -26.303423 " transform="matrix(1.00005,0,0,-1.00003,87.139407,115.187976)"/>
<path style=" stroke:none;fill-rule:nonzero;fill:rgb(100%,0%,0%);fill-opacity:1;" d="M 58.792969 143.535156 L 63.695312 141.902344 L 60.835938 141.492188 L 60.425781 138.632812 "/>
<path style="fill:none;stroke-width:0.99628;stroke-linecap:butt;stroke-linejoin:miter;stroke:rgb(100%,0%,0%);stroke-opacity:1;stroke-miterlimit:10;" d="M 0.00121819 0.000475686 L -54.652299 54.65118 " transform="matrix(1.00005,0,0,-1.00003,87.139407,115.187976)"/>
<path style=" stroke:none;fill-rule:nonzero;fill:rgb(100%,0%,0%);fill-opacity:1;" d="M 30.441406 58.492188 L 32.078125 63.394531 L 32.484375 60.535156 L 35.347656 60.128906 "/>
<path style="fill:none;stroke-width:0.99628;stroke-linecap:butt;stroke-linejoin:miter;stroke:rgb(100%,0%,0%);stroke-opacity:1;stroke-miterlimit:10;" d="M 0.00121819 0.000475686 L -27.43491 82.298788 " transform="matrix(1.00005,0,0,-1.00003,87.139407,115.187976)"/>
<path style=" stroke:none;fill-rule:nonzero;fill:rgb(100%,0%,0%);fill-opacity:1;" d="M 58.792969 30.144531 L 58.058594 35.261719 L 59.703125 32.886719 L 62.445312 33.800781 "/>
<path style="fill:none;stroke-width:0.99628;stroke-linecap:butt;stroke-linejoin:miter;stroke:rgb(100%,0%,0%);stroke-opacity:1;stroke-miterlimit:10;" d="M 0.00121819 0.000475686 L 27.054553 54.108227 " transform="matrix(1.00005,0,0,-1.00003,87.139407,115.187976)"/>
<path style=" stroke:none;fill-rule:nonzero;fill:rgb(100%,0%,0%);fill-opacity:1;" d="M 115.488281 58.492188 L 111.351562 61.59375 L 114.195312 61.078125 L 115.488281 63.660156 "/>
<path style="fill:none;stroke-width:0.99628;stroke-linecap:butt;stroke-linejoin:miter;stroke:rgb(100%,0%,0%);stroke-opacity:1;stroke-miterlimit:10;" d="M 0.00121819 0.000475686 L 53.803216 0.000475686 " transform="matrix(1.00005,0,0,-1.00003,87.139407,115.187976)"/>
<path style=" stroke:none;fill-rule:nonzero;fill:rgb(100%,0%,0%);fill-opacity:1;" d="M 143.835938 115.1875 L 139.210938 112.875 L 140.945312 115.1875 L 139.210938 117.5 "/>
<path style="fill-rule:nonzero;fill:rgb(100%,50%,0%);fill-opacity:0.3;stroke-width:0.3985;stroke-linecap:butt;stroke-linejoin:miter;stroke:rgb(100%,50%,0%);stroke-opacity:0.3;stroke-miterlimit:10;" d="M 56.693696 0.000475686 L 0.00121819 0.000475686 L 28.347457 56.694087 L 85.039935 56.694087 Z M 56.693696 0.000475686 " transform="matrix(1.00005,0,0,-1.00003,87.139407,115.187976)"/>
</g>
</svg>
