<svg xmlns="http://www.w3.org/2000/svg" xmlns:xlink="http://www.w3.org/1999/xlink" xmlns:inkscape="http://www.inkscape.org/namespaces/inkscape" version="1.1" width="174" height="178" viewBox="0 0 174 178">
<path transform="matrix(1.00008,0,0,-1.00005,30.241982,148.3036)" stroke-width=".3985" stroke-linecap="butt" stroke-miterlimit="10" stroke-linejoin="miter" fill="none" stroke="#cccccc" d="M-28.3468-28.3468H141.73404M-28.3468 0H141.73404M-28.3468 28.3468H141.73404M-28.3468 56.69362H141.73404M-28.3468 85.04042H141.73404M-28.3468 113.38724H141.73404M-28.3468 141.72409H141.73404M-28.3468-28.3468V141.73404M0-28.3468V141.73404M28.3468-28.3468V141.73404M56.69362-28.3468V141.73404M85.04042-28.3468V141.73404M113.38724-28.3468V141.73404M141.72409-28.3468V141.73404M141.73404 141.73404"/>
<path transform="matrix(1.00008,0,0,-1.00005,30.241982,148.3036)" stroke-width=".3985" stroke-linecap="butt" stroke-miterlimit="10" stroke-linejoin="miter" fill="none" stroke="#000000" d="M-27.9483 0H141.33554"/>
<path transform="matrix(-1.00008,-0,0,1.00005,2.0921803,148.3036)" stroke-width=".3985" stroke-linecap="round" stroke-linejoin="round" fill="none" stroke="#000000" d="M-2.07224 2.39104C-1.69365 .95639-.84999 .27895 0 0-.84999-.27895-1.69365-.95639-2.07224-2.39104"/>
<path transform="matrix(1.00008,0,0,-1.00005,171.78809,148.3036)" stroke-width=".3985" stroke-linecap="round" stroke-linejoin="round" fill="none" stroke="#000000" d="M-2.07224 2.39104C-1.69365 .95639-.84999 .27895 0 0-.84999-.27895-1.69365-.95639-2.07224-2.39104"/>
<path transform="matrix(1.00008,0,0,-1.00005,30.241982,148.3036)" stroke-width=".3985" stroke-linecap="butt" stroke-miterlimit="10" stroke-linejoin="miter" fill="none" stroke="#000000" d="M0-27.9483V141.33554"/>
<path transform="matrix(0,1.00005,1.00008,0,30.241982,176.45256)" stroke-width=".3985" stroke-linecap="round" stroke-linejoin="round" fill="none" stroke="#000000" d="M-2.07224 2.39104C-1.69365 .95639-.84999 .27895 0 0-.84999-.27895-1.69365-.95639-2.07224-2.39104"/>
<path transform="matrix(0,-1.00005,-1.00008,-0,30.241982,6.7617495)" stroke-width=".3985" stroke-linecap="round" stroke-linejoin="round" fill="none" stroke="#000000" d="M-2.07224 2.39104C-1.69365 .95639-.84999 .27895 0 0-.84999-.27895-1.69365-.95639-2.07224-2.39104"/>
<path transform="matrix(1.00008,0,0,-1.00005,30.241982,148.3036)" stroke-width="1.99255" stroke-linecap="butt" stroke-miterlimit="10" stroke-linejoin="miter" fill="none" stroke="#000000" d="M-28.3468-12.1889 141.73404 145.70256"/>
<path transform="matrix(1.00008,0,0,-1.00005,30.241982,148.3036)" d="M30.6146 28.3468C30.6146 29.59927 29.59927 30.6146 28.3468 30.6146 27.09433 30.6146 26.07901 29.59927 26.07901 28.3468 26.07901 27.09433 27.09433 26.07901 28.3468 26.07901 29.59927 26.07901 30.6146 27.09433 30.6146 28.3468ZM28.3468 28.3468" fill="#0000ff"/>
<path transform="matrix(1.00008,0,0,-1.00005,30.241982,148.3036)" d="M58.9614 85.04042C58.9614 86.2929 57.94609 87.30821 56.69362 87.30821 55.44113 87.30821 54.42583 86.2929 54.42583 85.04042 54.42583 83.78795 55.44113 82.77263 56.69362 82.77263 57.94609 82.77263 58.9614 83.78795 58.9614 85.04042ZM56.69362 85.04042" fill="#0000ff"/>
<path transform="matrix(1.00008,0,0,-1.00005,30.241982,148.3036)" d="M115.65501 113.38724C115.65501 114.63971 114.63971 115.65501 113.38724 115.65501 112.13475 115.65501 111.11945 114.63971 111.11945 113.38724 111.11945 112.13475 112.13475 111.11945 113.38724 111.11945 114.63971 111.11945 115.65501 112.13475 115.65501 113.38724ZM113.38724 113.38724" fill="#0000ff"/>
</svg>
