<?xml version="1.0" encoding="UTF-8"?>
<svg xmlns="http://www.w3.org/2000/svg" xmlns:xlink="http://www.w3.org/1999/xlink" width="174pt" height="174pt" viewBox="0 0 174 174" version="1.1">
<g id="surface1">
<path style="fill:none;stroke-width:0.3985;stroke-linecap:butt;stroke-linejoin:miter;stroke:rgb(79.998779%,79.998779%,79.998779%);stroke-opacity:1;stroke-miterlimit:10;" d="M -85.041405 -56.693136 L 85.039935 -56.693136 M -85.041405 -28.34633 L 85.039935 -28.34633 M -85.041405 0.000475686 L 85.039935 0.000475686 M -85.041405 28.347282 L 85.039935 28.347282 M -85.041405 56.694087 L 85.039935 56.694087 M -85.041405 85.040893 L 85.039935 85.040893 M -85.041405 113.375981 L 85.039935 113.375981 M -85.041405 -56.693136 L -85.041405 113.387699 M -56.695166 -56.693136 L -56.695166 113.387699 M -28.345021 -56.693136 L -28.345021 113.387699 M 0.00121819 -56.693136 L 0.00121819 113.387699 M 28.347457 -56.693136 L 28.347457 113.387699 M 56.693696 -56.693136 L 56.693696 113.387699 M 85.032123 -56.693136 L 85.032123 113.387699 " transform="matrix(1.00005,0,0,-1.00003,87.139407,115.187976)"/>
<path style="fill:none;stroke-width:0.3985;stroke-linecap:butt;stroke-linejoin:miter;stroke:rgb(0%,0%,0%);stroke-opacity:1;stroke-miterlimit:10;" d="M -84.642987 0.000475686 L 84.641517 0.000475686 " transform="matrix(1.00005,0,0,-1.00003,87.139407,115.187976)"/>
<path style="fill:none;stroke-width:0.3985;stroke-linecap:round;stroke-linejoin:round;stroke:rgb(0%,0%,0%);stroke-opacity:1;stroke-miterlimit:10;" d="M -2.073089 2.390078 C -1.694202 0.956527 -0.850494 0.280766 0.00102589 -0.000475686 C -0.850494 -0.277811 -1.694202 -0.957478 -2.073089 -2.391029 " transform="matrix(-1.00005,0,0,1.00003,2.293995,115.187976)"/>
<path style="fill:none;stroke-width:0.3985;stroke-linecap:round;stroke-linejoin:round;stroke:rgb(0%,0%,0%);stroke-opacity:1;stroke-miterlimit:10;" d="M -2.070653 2.391029 C -1.691765 0.957478 -0.848058 0.277811 -0.000443786 0.000475686 C -0.848058 -0.280766 -1.691765 -0.956527 -2.070653 -2.390078 " transform="matrix(1.00005,0,0,-1.00003,171.984819,115.187976)"/>
<path style="fill:none;stroke-width:0.3985;stroke-linecap:butt;stroke-linejoin:miter;stroke:rgb(0%,0%,0%);stroke-opacity:1;stroke-miterlimit:10;" d="M 0.00121819 -56.29471 L 0.00121819 112.989274 " transform="matrix(1.00005,0,0,-1.00003,87.139407,115.187976)"/>
<path style="fill:none;stroke-width:0.3985;stroke-linecap:round;stroke-linejoin:round;stroke:rgb(0%,0%,0%);stroke-opacity:1;stroke-miterlimit:10;" d="M -2.070677 2.391724 C -1.691782 0.958202 -0.848058 0.278548 -0.000426768 0.00121819 C -0.848058 -0.280018 -1.691782 -0.955765 -2.070677 -2.389287 " transform="matrix(0,1.00003,1.00005,0,87.139407,171.684021)"/>
<path style="fill:none;stroke-width:0.3985;stroke-linecap:round;stroke-linejoin:round;stroke:rgb(0%,0%,0%);stroke-opacity:1;stroke-miterlimit:10;" d="M -2.07364 2.389287 C -1.694745 0.955765 -0.851021 0.280018 0.000516295 -0.00121819 C -0.851021 -0.278548 -1.694745 -0.958202 -2.07364 -2.391724 " transform="matrix(0,-1.00003,-1.00005,0,87.139407,1.99661)"/>
<path style="fill-rule:nonzero;fill:rgb(0%,0%,100%);fill-opacity:0.3;stroke-width:0.3985;stroke-linecap:butt;stroke-linejoin:miter;stroke:rgb(0%,0%,100%);stroke-opacity:0.3;stroke-miterlimit:10;" d="M -28.345021 -28.34633 L -56.695166 56.694087 L -28.345021 85.040893 L 28.347457 56.694087 L 56.693696 0.000475686 Z M -28.345021 -28.34633 " transform="matrix(1.00005,0,0,-1.00003,87.139407,115.187976)"/>
</g>
</svg>
