<?xml version="1.0" encoding="UTF-8"?>
<svg xmlns="http://www.w3.org/2000/svg" xmlns:xlink="http://www.w3.org/1999/xlink" width="174pt" height="178pt" viewBox="0 0 174 178" version="1.1">
<g id="surface1">
<path style="fill:none;stroke-width:0.3985;stroke-linecap:butt;stroke-linejoin:miter;stroke:rgb(79.998779%,79.998779%,79.998779%);stroke-opacity:1;stroke-miterlimit:10;" d="M -28.348375 -28.347311 L 141.733656 -28.347311 M -28.348375 -0.0010722 L 141.733656 -0.0010722 M -28.348375 28.345167 L 141.733656 28.345167 M -28.348375 56.695312 L 141.733656 56.695312 M -28.348375 85.041551 L 141.733656 85.041551 M -28.348375 113.38779 L 141.733656 113.38779 M -28.348375 141.72231 L 141.733656 141.72231 M -28.348375 -28.347311 L -28.348375 141.734029 M -0.00071875 -28.347311 L -0.00071875 141.734029 M 28.346937 -28.347311 L 28.346937 141.734029 M 56.694594 -28.347311 L 56.694594 141.734029 M 85.04225 -28.347311 L 85.04225 141.734029 M 113.386 -28.347311 L 113.386 141.734029 M 141.725844 -28.347311 L 141.725844 141.734029 " transform="matrix(1,0,0,-1.00005,30.239,148.303615)"/>
<path style="fill:none;stroke-width:0.3985;stroke-linecap:butt;stroke-linejoin:miter;stroke:rgb(0%,0%,0%);stroke-opacity:1;stroke-miterlimit:10;" d="M -27.949938 -0.0010722 L 141.335219 -0.0010722 " transform="matrix(1,0,0,-1.00005,30.239,148.303615)"/>
<path style="fill:none;stroke-width:0.3985;stroke-linecap:round;stroke-linejoin:round;stroke:rgb(0%,0%,0%);stroke-opacity:1;stroke-miterlimit:10;" d="M -2.072612 2.391578 C -1.693706 0.958056 -0.849956 0.278402 0.00160625 0.0010722 C -0.849956 -0.280164 -1.693706 -0.955911 -2.072612 -2.389433 " transform="matrix(-1,0,0,1.00005,2.09145,148.303615)"/>
<path style="fill:none;stroke-width:0.3985;stroke-linecap:round;stroke-linejoin:round;stroke:rgb(0%,0%,0%);stroke-opacity:1;stroke-miterlimit:10;" d="M -2.070665 2.389433 C -1.691759 0.955911 -0.851915 0.280164 -0.0003525 -0.0010722 C -0.851915 -0.278402 -1.691759 -0.958056 -2.070665 -2.391578 " transform="matrix(1,0,0,-1.00005,171.77379,148.303615)"/>
<path style="fill:none;stroke-width:0.3985;stroke-linecap:butt;stroke-linejoin:miter;stroke:rgb(0%,0%,0%);stroke-opacity:1;stroke-miterlimit:10;" d="M -0.00071875 -27.948894 L -0.00071875 141.335611 " transform="matrix(1,0,0,-1.00005,30.239,148.303615)"/>
<path style="fill:none;stroke-width:0.3985;stroke-linecap:round;stroke-linejoin:round;stroke:rgb(0%,0%,0%);stroke-opacity:1;stroke-miterlimit:10;" d="M -2.073563 2.389906 C -1.694675 0.956312 -0.850968 0.280531 0.000552345 -0.00071875 C -0.850968 -0.278063 -1.694675 -0.95775 -2.073563 -2.391344 " transform="matrix(0,1.00005,1,0,30.239,176.452573)"/>
<path style="fill:none;stroke-width:0.3985;stroke-linecap:round;stroke-linejoin:round;stroke:rgb(0%,0%,0%);stroke-opacity:1;stroke-miterlimit:10;" d="M -2.074085 2.391344 C -1.695198 0.95775 -0.85149 0.278063 0.000029759 0.00071875 C -0.85149 -0.280531 -1.695198 -0.956312 -2.074085 -2.389906 " transform="matrix(0,-1.00005,-1,0,30.239,6.761749)"/>
<path style="fill:none;stroke-width:1.99255;stroke-linecap:butt;stroke-linejoin:miter;stroke:rgb(0%,0%,0%);stroke-opacity:1;stroke-miterlimit:10;" d="M -28.348375 -12.187963 L 141.733656 145.70258 " transform="matrix(1,0,0,-1.00005,30.239,148.303615)"/>
<path style=" stroke:none;fill-rule:nonzero;fill:rgb(0%,0%,100%);fill-opacity:1;" d="M 60.855469 119.957031 C 60.855469 118.703125 59.839844 117.6875 58.585938 117.6875 C 57.332031 117.6875 56.316406 118.703125 56.316406 119.957031 C 56.316406 121.207031 57.332031 122.222656 58.585938 122.222656 C 59.839844 122.222656 60.855469 121.207031 60.855469 119.957031 Z M 60.855469 119.957031 "/>
<path style=" stroke:none;fill-rule:nonzero;fill:rgb(0%,0%,100%);fill-opacity:1;" d="M 89.199219 63.257812 C 89.199219 62.007812 88.183594 60.992188 86.933594 60.992188 C 85.679688 60.992188 84.664062 62.007812 84.664062 63.257812 C 84.664062 64.511719 85.679688 65.527344 86.933594 65.527344 C 88.183594 65.527344 89.199219 64.511719 89.199219 63.257812 Z M 89.199219 63.257812 "/>
<path style=" stroke:none;fill-rule:nonzero;fill:rgb(0%,0%,100%);fill-opacity:1;" d="M 145.894531 34.910156 C 145.894531 33.65625 144.878906 32.644531 143.625 32.644531 C 142.375 32.644531 141.359375 33.65625 141.359375 34.910156 C 141.359375 36.164062 142.375 37.179688 143.625 37.179688 C 144.878906 37.179688 145.894531 36.164062 145.894531 34.910156 Z M 145.894531 34.910156 "/>
</g>
</svg>
