<svg xmlns="http://www.w3.org/2000/svg" xmlns:xlink="http://www.w3.org/1999/xlink" xmlns:inkscape="http://www.inkscape.org/namespaces/inkscape" version="1.1" width="315" height="208" viewBox="0 0 315 208">
<defs>
<path id="font_1_1" d="M.2619934 .30778504C.2659912 .30778504 .2869873 .30778504 .2889862 .3067932H.32299806C.526001 .3067932 .598999 .40174867 .598999 .49667359 .598999 .63856509 .47099305 .6845703 .34199525 .6845703H.049987794C.03199768 .6845703 .015991211 .6845703 .015991211 .66656497 .015991211 .64956668 .034988405 .64956668 .042999269 .64956668 .09498596 .64956668 .09899902 .64157107 .09899902 .5926056V.09194946C.09899902 .04298401 .09498596 .034988405 .04399109 .034988405 .033996583 .034988405 .015991211 .034988405 .015991211 .017990113 .015991211 0 .03199768 0 .049987794 0H.31799317C.33599855 0 .35099793 0 .35099793 .017990113 .35099793 .034988405 .33399964 .034988405 .32299806 .034988405 .2659912 .034988405 .2619934 .04298401 .2619934 .09194946V.30778504M.4269867 .3527832C.45899964 .39474488 .46199037 .45770265 .46199037 .49768067 .46199037 .55062869 .45700074 .6035919 .43099977 .64056399 .48599244 .62757876 .56399539 .5975952 .56399539 .49667359 .56399539 .4267273 .5189972 .37576295 .4269867 .3527832M.2619934 .5955963C.2619934 .6155853 .2619934 .64956668 .32199098 .64956668 .3939972 .64956668 .4269867 .62257388 .4269867 .49768067 .4269867 .3547821 .37399293 .3427887 .31199647 .3427887H.2619934V.5955963M.12599182 .034988405C.13398743 .052978517 .13398743 .07696533 .13398743 .08995056V.5946045C.13398743 .6075897 .13398743 .63157656 .12599182 .64956668H.23999024C.22698975 .63357546 .22698975 .6135864 .22698975 .5986023V.08995056C.22698975 .079956058 .22698975 .052978517 .23498535 .034988405H.12599182Z"/>
<path id="font_2_2" d="M.5049896 .18203736H.47099305C.46798707 .16001892 .45799256 .100997928 .44499208 .09098816 .43699647 .084991458 .3600006 .084991458 .34599305 .084991458H.1619873C.2669983 .17803955 .3019867 .20603943 .3619995 .25306703 .43598939 .312088 .5049896 .374115 .5049896 .46914674 .5049896 .5900879 .39898683 .6640625 .2709961 .6640625 .14698792 .6640625 .06298828 .57710269 .06298828 .4851532 .06298828 .43414308 .10598755 .42915345 .115997318 .42915345 .13999939 .42915345 .16899109 .44615174 .16899109 .48214723 .16899109 .5001526 .1619873 .53515627 .10998535 .53515627 .14099121 .6060791 .20899964 .62805178 .2559967 .62805178 .35598756 .62805178 .4079895 .5501404 .4079895 .46914674 .4079895 .38212586 .34599305 .3130951 .31399537 .27708436L.07299805 .038986207C.06298828 .02999878 .06298828 .027999878 .06298828 0H.47499085L.5049896 .18203736Z"/>
<path id="font_1_2" d="M.2679901 .31362916H.3039856L.45399476 .08192444C.46398927 .06594849 .48799134 .026992798 .49899293 .011993408 .5059967 0 .5089874 0 .5319977 0H.66999819C.6879883 0 .7029877 0 .7029877 .017990113 .7029877 .025985718 .69699099 .032989503 .6879883 .034988405 .651001 .04298401 .60198977 .10890198 .5779877 .14085388 .57099917 .15083313 .5209961 .2167511 .45399476 .32463075 .54299929 .34062196 .6289978 .37861634 .6289978 .4975891 .6289978 .63656619 .48199464 .6845703 .3639984 .6845703H.049987794C.03199768 .6845703 .015991211 .6845703 .015991211 .66656497 .015991211 .64956668 .034988405 .64956668 .042999269 .64956668 .099990848 .64956668 .10499573 .64256289 .10499573 .5925751V.091918949C.10499573 .04197693 .099990848 .034988405 .042999269 .034988405 .034988405 .034988405 .015991211 .034988405 .015991211 .017990113 .015991211 0 .03199768 0 .049987794 0H.32398988C.34199525 0 .35699464 0 .35699464 .017990113 .35699464 .034988405 .33999635 .034988405 .32899476 .034988405 .27198792 .034988405 .2679901 .04298401 .2679901 .091918949V.31362916M.46099855 .36262513C.4889984 .39961244 .49198915 .4526062 .49198915 .4965973 .49198915 .5445862 .48599244 .59757998 .45399476 .63856509 .49499513 .6295624 .59399417 .5985718 .59399417 .4975891 .59399417 .43260194 .56399539 .3816223 .46099855 .36262513M.2679901 .59558108C.2679901 .61657717 .2679901 .64956668 .32998658 .64956668 .4149933 .64956668 .45700074 .614563 .45700074 .4965973 .45700074 .36761476 .42599488 .3486328 .2679901 .3486328V.59558108M.13198853 .034988405C.13999939 .052963258 .13999939 .08093262 .13999939 .089920047V.594574C.13999939 .6045685 .13999939 .6315613 .13198853 .64956668H.24598694C.23298645 .6335602 .23298645 .61357119 .23298645 .5985718V.089920047C.23298645 .079940799 .23298645 .052963258 .24099732 .034988405H.13198853M.34498597 .31362916C.35198976 .31462098 .35598756 .31562806 .3639984 .31562806 .3789978 .31562806 .40098573 .31762696 .41600038 .31962586 .43099977 .2956543 .5389862 .117889408 .621994 .034988405H.5249939L.34498597 .31362916Z"/>
<path id="font_2_3" d="M.272995 .33428956C.35099793 .33428956 .40699769 .2803192 .40699769 .1733551 .40699769 .04940796 .33499146 .012466431 .2769928 .012466431 .23699951 .012466431 .14898682 .0234375 .10699463 .082351688 .1539917 .084350589 .16499329 .11735535 .16499329 .13835144 .16499329 .17034912 .14099121 .19335938 .10998535 .19335938 .08198547 .19335938 .053985597 .17634583 .053985597 .13534546 .053985597 .041412355 .1579895-.01953125 .2789917-.01953125 .41799928-.01953125 .5139923 .07336426 .5139923 .1733551 .5139923 .2513275 .44999696 .32929994 .33999635 .35229493 .44499208 .39024354 .48298646 .4650879 .48298646 .5260773 .48298646 .60505679 .3919983 .6640625 .2809906 .6640625 .16999817 .6640625 .084991458 .61006167 .084991458 .5300751 .084991458 .49606324 .10699463 .47706605 .13699341 .47706605 .16799927 .47706605 .18798828 .5000763 .18798828 .5280762 .18798828 .5570679 .16799927 .57806399 .13699341 .5800781 .17199707 .62405398 .24099732 .63505557 .27799989 .63505557 .32299806 .63505557 .38598634 .6130676 .38598634 .5260773 .38598634 .48406983 .37199403 .43814088 .34599305 .4072113 .31298829 .36927796 .2849884 .3672943 .23498535 .36428834 .20999146 .3623047 .20799256 .3623047 .20298767 .3612976 .20098877 .3612976 .19299317 .3592987 .19299317 .34829713 .19299317 .33428956 .20199585 .33428956 .21899414 .33428956H.272995Z"/>
<path id="font_3_3" d="M.2939911 .64004519C.2939911 .66400149 .2939911 .6660156 .2709961 .6660156 .20899964 .60227969 .12098694 .60227969 .08898926 .60227969V.57128909C.10899353 .57128909 .16799927 .57128909 .21998596 .5972748V.07902527C.21998596 .042999269 .21699524 .0309906 .1269989 .0309906H.09498596V0C.12998963 .0029907227 .21699524 .0029907227 .25698854 .0029907227 .29699708 .0029907227 .38398744 .0029907227 .4189911 0V.0309906H.3869934C.29699708 .0309906 .2939911 .041992189 .2939911 .07902527V.64004519Z"/>
<path id="font_3_1" d="M.40899659 .23046875H.6879883C.70199587 .23046875 .72099307 .23046875 .72099307 .25045777 .72099307 .27046205 .70199587 .27046205 .6879883 .27046205H.40899659V.5500183C.40899659 .56399539 .40899659 .5830078 .3889923 .5830078 .36898805 .5830078 .36898805 .56399539 .36898805 .5500183V.27046205H.08898926C.07499695 .27046205 .055999757 .27046205 .055999757 .25045777 .055999757 .23046875 .07499695 .23046875 .08898926 .23046875H.36898805V-.05000305C.36898805-.06401062 .36898805-.08300781 .3889923-.08300781 .40899659-.08300781 .40899659-.06401062 .40899659-.05000305V.23046875Z"/>
<path id="font_3_4" d="M.1269989 .07699585 .23298645 .18003845C.3889923 .31811524 .44898988 .3721466 .44898988 .47216798 .44898988 .5860901 .35899354 .6660156 .23699951 .6660156 .12399292 .6660156 .049987794 .57411196 .049987794 .48516847 .049987794 .4291687 .099990848 .4291687 .102996829 .4291687 .11999512 .4291687 .15499878 .44117738 .15499878 .48217774 .15499878 .5081787 .13699341 .5341797 .101989749 .5341797 .09399414 .5341797 .09199524 .5341797 .08898926 .5331726 .11199951 .59806826 .1659851 .63500979 .22399903 .63500979 .31498719 .63500979 .35798646 .5541382 .35798646 .47216798 .35798646 .39215089 .30799867 .31311036 .25299073 .25108338L.06098938 .036987306C.049987794 .025985718 .049987794 .023986817 .049987794 0H.42099L.44898988 .17404175H.42399598C.4189911 .14402771 .4119873 .1000061 .4019928 .084991458 .394989 .07699585 .32899476 .07699585 .30699159 .07699585H.1269989Z"/>
<path id="font_4_5" d="M.33399964 .30233766C.33999635 .32835389 .36299134 .42037965 .43299867 .42037965 .43798829 .42037965 .46199037 .42037965 .48298646 .40734864 .45498658 .402359 .43499757 .37734986 .43499757 .35334779 .43499757 .33735658 .44599916 .31835938 .47299195 .31835938 .49499513 .31835938 .5269928 .3363495 .5269928 .37635804 .5269928 .42837525 .46798707 .4423828 .43399049 .4423828 .37599183 .4423828 .34098817 .38935853 .32899476 .36634828 .3039856 .43237306 .25 .4423828 .22099304 .4423828 .116989139 .4423828 .05999756 .3133545 .05999756 .28834535 .05999756 .27833558 .069992069 .27833558 .07199097 .27833558 .07998657 .27833558 .08299255 .28033448 .084991458 .28933717 .11898804 .39535523 .18499756 .42037965 .21899414 .42037965 .23799134 .42037965 .272995 .4113617 .272995 .35334779 .272995 .32235719 .2559967 .25532533 .21899414 .11528015 .20298767 .053268434 .16799927 .011245728 .12399292 .011245728 .117996219 .011245728 .09498596 .011245728 .07398987 .024276734 .09899902 .029266358 .12098694 .05027771 .12098694 .07827759 .12098694 .105270389 .09899902 .11328125 .083999637 .11328125 .053985597 .11328125 .0289917 .08728027 .0289917 .055267335 .0289917 .009246826 .07899475-.0107421879 .12298584-.0107421879 .18899536-.0107421879 .22499085 .059280397 .22799683 .0652771 .23999024 .028274537 .27598573-.0107421879 .33599855-.0107421879 .43899537-.0107421879 .49598695 .118270877 .49598695 .14328003 .49598695 .1532898 .4869995 .1532898 .48399354 .1532898 .47499085 .1532898 .47299195 .14929199 .47099305 .14228821 .43798829 .03527832 .36999513 .011245728 .33799745 .011245728 .29899598 .011245728 .2829895 .043273927 .2829895 .07727051 .2829895 .09927368 .2889862 .121276859 .2999878 .16529846L.33399964 .30233766Z"/>
<path id="font_5_1" d="M.6589966 .23046875C.6759949 .23046875 .69400027 .23046875 .69400027 .25045777 .69400027 .27046205 .6759949 .27046205 .6589966 .27046205H.117996219C.100997928 .27046205 .08299255 .27046205 .08299255 .25045777 .08299255 .23046875 .100997928 .23046875 .117996219 .23046875H.6589966Z"/>
<path id="font_3_5" d="M.2899933 .35191346C.37199403 .37893678 .42999269 .4490509 .42999269 .52809146 .42999269 .6100464 .34199525 .6660156 .24598694 .6660156 .14498902 .6660156 .068984989 .60606387 .068984989 .53009036 .068984989 .49710084 .09098816 .47808839 .11999512 .47808839 .15098572 .47808839 .17098999 .50009158 .17098999 .5290985 .17098999 .57910159 .12399292 .57910159 .10899353 .57910159 .13999939 .62802127 .20599365 .64100649 .24198914 .64100649 .2829895 .64100649 .33799745 .6190338 .33799745 .5290985 .33799745 .51708987 .33599855 .45906068 .30999757 .4149933 .27999879 .36691285 .24598694 .36390687 .22099304 .36291505 .21299744 .36190797 .18899536 .35990907 .18199158 .35990907 .17399597 .35890199 .16699219 .35791017 .16699219 .3479004 .16699219 .33691407 .17399597 .33691407 .19099427 .33691407H.23498535C.31698609 .33691407 .35398866 .2686615 .35398866 .17037964 .35398866 .034469606 .2849884 .0055389406 .24099732 .0055389406 .19799805 .0055389406 .12298584 .022491456 .08799744 .08137512 .12298584 .07637024 .1539917 .09837341 .1539917 .1363678 .1539917 .17237854 .1269989 .19238281 .09799194 .19238281 .07398987 .19238281 .041992189 .17837525 .041992189 .1343689 .041992189 .043441774 .1349945-.022460938 .24398804-.022460938 .3659973-.022460938 .45700074 .06838989 .45700074 .17037964 .45700074 .252594 .3939972 .33088685 .2899933 .35191346Z"/>
<path id="font_3_6" d="M.2939911 .16503906V.07800293C.2939911 .041992189 .2919922 .0309906 .21798706 .0309906H.19699097V0C.23799134 .0029907227 .2899933 .0029907227 .33198548 .0029907227 .37399293 .0029907227 .4269867 .0029907227 .46798707 0V.0309906H.44699098C.37298585 .0309906 .37098695 .041992189 .37098695 .07800293V.16503906H.47099305V.19602967H.37098695V.65075686C.37098695 .67074587 .37098695 .6767578 .35499574 .6767578 .34599305 .6767578 .34298707 .6767578 .33499146 .66474917L.027999878 .19602967V.16503906H.2939911M.2999878 .19602967H.055999757L.2999878 .5688019V.19602967Z"/>
<path id="font_3_7" d="M.44898988 .20022583C.44898988 .3193512 .36698915 .41944886 .25898744 .41944886 .21099854 .41944886 .16799927 .40345765 .13198853 .36842347V.5637665C.1519928 .5577698 .18499756 .55078127 .21699524 .55078127 .33999635 .55078127 .4099884 .6417694 .4099884 .6547699 .4099884 .6607666 .40699769 .6657715 .3999939 .6657715 .39898683 .6657715 .39698792 .6657715 .3919983 .66278079 .37199403 .6537781 .32299806 .6337738 .2559967 .6337738 .21598816 .6337738 .16999817 .6407776 .12298584 .6617737 .114990238 .66477969 .11299133 .66477969 .11099243 .66477969 .100997928 .66477969 .100997928 .6567688 .100997928 .6407776V.34439088C.100997928 .32637025 .100997928 .31835938 .114990238 .31835938 .12199402 .31835938 .12399292 .32136537 .12799073 .32736207 .13899231 .3433838 .17599488 .39746095 .25698854 .39746095 .30899049 .39746095 .33399964 .35139466 .34199525 .33337403 .35798646 .29632569 .3600006 .25727845 .3600006 .20722962 .3600006 .17222595 .3600006 .11222839 .33599855 .07035828 .31199647 .031463624 .2749939 .0055389406 .22898865 .0055389406 .1559906 .0055389406 .09899902 .058380128 .08198547 .11723328 .084991458 .1162262 .08799744 .115234378 .09899902 .115234378 .13198853 .115234378 .14898682 .14022827 .14898682 .16423035 .14898682 .18823242 .13198853 .21322632 .09899902 .21322632 .084991458 .21322632 .049987794 .20622254 .049987794 .16023255 .049987794 .07434082 .11898804-.022460938 .23098755-.022460938 .34700013-.022460938 .44898988 .073349 .44898988 .20022583Z"/>
<path id="font_4_2" d="M.37298585 .37835694C.35499574 .41537477 .32598878 .4423828 .2809906 .4423828 .1639862 .4423828 .039993287 .29533387 .039993287 .14929199 .039993287 .055267335 .09498596-.0107421879 .17298889-.0107421879 .19299317-.0107421879 .24299622-.0067443849 .30299378 .06427002 .31098939 .022247315 .34599305-.0107421879 .3939972-.0107421879 .42900086-.0107421879 .45199586 .012252808 .46798707 .044265748 .4850006 .08027649 .49798585 .14129639 .49798585 .14329529 .49798585 .1532898 .4889984 .1532898 .48599244 .1532898 .47599793 .1532898 .47499085 .14929199 .47200013 .13528443 .45498658 .07026672 .43699647 .011245728 .3959961 .011245728 .36898805 .011245728 .3659973 .037261964 .3659973 .057266237 .3659973 .07926941 .36799623 .08728027 .3789978 .13128662 .3899994 .17329407 .3919983 .18330384 .40098573 .22131348L.43699647 .36135865C.44400025 .38935853 .44400025 .39135743 .44400025 .39537049 .44400025 .41236878 .43199159 .42237855 .4149933 .42237855 .3909912 .42237855 .37599183 .4003601 .37298585 .37835694M.30799867 .119277957C.30299378 .10127258 .30299378 .09927368 .28799439 .08227539 .24398804 .027252198 .20298767 .011245728 .1749878 .011245728 .125 .011245728 .11099243 .06626892 .11099243 .105285648 .11099243 .1552887 .14299011 .27833558 .1659851 .32434083 .19699097 .38336183 .24198914 .42037965 .28199769 .42037965 .34700013 .42037965 .36099244 .3383484 .36099244 .33235169 .36099244 .32633973 .35899354 .32034303 .35798646 .31533814L.30799867 .119277957Z"/>
<path id="font_4_3" d="M.23899842 .68333438C.23899842 .6843262 .23899842 .69433596 .22599793 .69433596 .20298767 .69433596 .12998963 .6863251 .10398865 .6843262 .09599304 .68333438 .084991458 .6823273 .084991458 .6643219 .084991458 .6523285 .09399414 .6523285 .10899353 .6523285 .15699768 .6523285 .15899658 .6453247 .15899658 .6353302 .15899658 .6283264 .1499939 .5943451 .14498902 .573349L.06298828 .24731446C.050994874 .1973114 .04699707 .18130493 .04699707 .14628601 .04699707 .05126953 .099990848-.0107421879 .17399597-.0107421879 .2919922-.0107421879 .4149933 .1382904 .4149933 .28233338 .4149933 .37335206 .3619995 .4423828 .28199769 .4423828 .23599243 .4423828 .19499207 .41337586 .16499329 .38235475L.23899842 .68333438M.14498902 .30534364C.15098572 .3273468 .15098572 .3293457 .1599884 .3403473 .20899964 .405365 .2539978 .42037965 .27999879 .42037965 .31599427 .42037965 .34298707 .3903656 .34298707 .32633973 .34298707 .26733399 .30999757 .15229798 .2919922 .11428833 .25898744 .04725647 .21299744 .011245728 .17399597 .011245728 .13999939 .011245728 .10699463 .038253786 .10699463 .11227417 .10699463 .13128662 .10699463 .15029907 .12298584 .21331787L.14498902 .30534364Z"/>
<path id="font_4_4" d="M.3959961 .37998963C.37998963 .37998963 .3659973 .37998963 .35198976 .36598207 .33599855 .35098268 .33399964 .33398438 .33399964 .3269806 .33399964 .30297853 .35198976 .2919922 .37098695 .2919922 .3999939 .2919922 .4269867 .315979 .4269867 .35598756 .4269867 .40522767 .37998963 .4423828 .30899049 .4423828 .17399597 .4423828 .040985109 .2989807 .040985109 .15811157 .040985109 .06819153 .09899902-.0107421879 .20298767-.0107421879 .34599305-.0107421879 .42999269 .09516907 .42999269 .107162479 .42999269 .11315918 .42399598 .120147708 .41799928 .120147708 .41299439 .120147708 .41099549 .1181488 .40499879 .1101532 .32598878 .011245728 .21699524 .011245728 .20498657 .011245728 .14199829 .011245728 .114990238 .06021118 .114990238 .120147708 .114990238 .1611023 .1349945 .25801087 .16899109 .31999208 .19999695 .37698365 .25498963 .42037965 .30999757 .42037965 .34399415 .42037965 .38198854 .40724183 .3959961 .37998963Z"/>
<path id="font_6_1" d="M.32598878-1.7597656H.394989V-.029937745H.6589966V.0390625H.32598878V-1.7597656Z"/>
<path id="font_6_3" d="M.32598878-1.7587891H.6589966V-1.6898041H.394989V.040039064H.32598878V-1.7587891Z"/>
<path id="font_6_2" d="M.2709961-1.7597656H.33999635V.0390625H.0069885256V-.029937745H.2709961V-1.7597656Z"/>
<path id="font_6_4" d="M.2709961-1.6898041H.0069885256V-1.7587891H.33999635V.040039064H.2709961V-1.6898041Z"/>
<path id="font_3_2" d="M.45999146 .31976319C.45999146 .39982606 .45498658 .47988893 .41999818 .5539398 .37399293 .65000918 .2919922 .6660156 .25 .6660156 .18998719 .6660156 .116989139 .64001467 .07598877 .54693606 .04399109 .47789 .038986207 .39982606 .038986207 .31976319 .038986207 .24472046 .042999269 .15464783 .083999637 .07859802 .1269989-.0024719239 .19999695-.022460938 .24899292-.022460938 .30299378-.022460938 .3789978-.0014648438 .4229889 .09359741 .45498658 .16265869 .45999146 .2407074 .45999146 .31976319M.24899292-.00047302247C.20999146-.00047302247 .15098572 .024551392 .1329956 .12062073 .12199402 .18066406 .12199402 .2727356 .12199402 .3317871 .12199402 .39582826 .12199402 .46188355 .12998963 .5159149 .14898682 .63500979 .22399903 .64401248 .24899292 .64401248 .28199769 .64401248 .34799195 .6259918 .36698915 .52693179 .3769989 .47088624 .3769989 .39482118 .3769989 .3317871 .3769989 .25672914 .3769989 .18867493 .3659973 .12461853 .35099793 .029556275 .2939911-.00047302247 .24899292-.00047302247Z"/>
<path id="font_4_1" d="M.4269867 .6066284C.43399049 .63461306 .43798829 .64060977 .44999696 .6436157 .45899964 .6456146 .49198915 .6456146 .5130005 .6456146 .6139984 .6456146 .6589966 .6416168 .6589966 .56365969 .6589966 .54867556 .6549988 .50968936 .651001 .4837036 .6499939 .4797058 .647995 .4677124 .647995 .46472169 .647995 .45872499 .651001 .45173646 .6599884 .45173646 .67099 .45173646 .6729889 .45973207 .6749878 .4747162L.70199587 .64860537C.7029877 .65260317 .70399478 .6626129 .70399478 .66560366 .70399478 .6766052 .69400027 .6766052 .6769867 .6766052H.12199402C.09799194 .6766052 .09700012 .6756134 .08999634 .6566162L.02999878 .4807129C.0289917 .478714 .023986817 .46472169 .023986817 .46272279 .023986817 .45672608 .0289917 .45173646 .035995485 .45173646 .04598999 .45173646 .04699707 .45672608 .052993776 .4727173 .10699463 .6276245 .1329956 .6456146 .2809906 .6456146H.31999208C.34799195 .6456146 .34799195 .6416168 .34799195 .6336212 .34799195 .6276245 .34498597 .6156311 .34399415 .6126251L.20999146 .07896423C.20098877 .041992189 .19799805 .0309906 .09098816 .0309906 .054992677 .0309906 .04899597 .0309906 .04899597 .011993408 .04899597 0 .05999756 0 .06599426 0 .09298706 0 .12098694 .0019989014 .147995 .0019989014 .17599488 .0019989014 .20498657 .0029907227 .23298645 .0029907227 .26098634 .0029907227 .2889862 .0019989014 .31599427 .0019989014 .34498597 .0019989014 .375 0 .40299989 0 .41299439 0 .4249878 0 .4249878 .019989014 .4249878 .0309906 .4169922 .0309906 .3909912 .0309906 .3659973 .0309906 .35299684 .0309906 .32699586 .032989503 .2979889 .035995485 .2899933 .038986207 .2899933 .054977418 .2899933 .05596924 .2899933 .06097412 .2939911 .07595825L.4269867 .6066284Z"/>
<path id="font_7_1" d="M.74398806 .2263794C.7599945 .2263794 .7839966 .2263794 .7839966 .25038148 .7839966 .27539063 .7609863 .27539063 .74398806 .27539063H.147995C.13198853 .27539063 .10798645 .27539063 .10798645 .25138856 .10798645 .2263794 .1309967 .2263794 .147995 .2263794H.74398806Z"/>
<path id="font_2_1" d="M.33499146 .63612368C.33499146 .6630554 .33299256 .6640625 .30499269 .6640625 .24099732 .6014404 .1499939 .6004486 .10899353 .6004486V.5644531C.1329956 .5644531 .19898987 .5644531 .2539978 .592453V.08203125C.2539978 .04899597 .2539978 .035995485 .1539917 .035995485H.115997318V0C.13398743 .0009918213 .25698854 .0039978029 .2939911 .0039978029 .32499696 .0039978029 .45098878 .0009918213 .47299195 0V.035995485H.43499757C.33499146 .035995485 .33499146 .04899597 .33499146 .08203125V.63612368Z"/>
</defs>
<path transform="matrix(1.00008,0,0,-1.00003,1.8976364,174.40889)" d="M0 0V141.73404H141.73404V0ZM141.73404 141.73404" fill="#0000ff" fill-opacity=".3"/>
<path transform="matrix(1.00008,0,0,-1.00003,1.8976364,174.40889)" d="M170.08086 0V141.73404H311.8149V0ZM311.8149 141.73404" fill="#ffbfbf" fill-opacity=".5"/>
<use data-text="P" xlink:href="#font_1_1" transform="matrix(9.963397,0,0,-9.962899,10.79335,50.899187)"/>
<use data-text="2" xlink:href="#font_2_2" transform="matrix(6.974358,0,0,-6.9740097,16.881836,47.28308)"/>
<use data-text="R" xlink:href="#font_1_2" transform="matrix(9.963397,0,0,-9.962899,293.72999,50.899187)"/>
<use data-text="3" xlink:href="#font_2_3" transform="matrix(6.974358,0,0,-6.9740097,300.92555,47.28308)"/>
<use data-text="1" xlink:href="#font_3_3" transform="matrix(9.963397,0,0,-9.962899,45.1911,58.988428)"/>
<use data-text="+" xlink:href="#font_3_1" transform="matrix(9.963397,0,0,-9.962899,52.38468,58.988428)"/>
<use data-text="2" xlink:href="#font_3_4" transform="matrix(9.963397,0,0,-9.962899,62.33812,58.988428)"/>
<use data-text="x" xlink:href="#font_4_5" transform="matrix(9.963397,0,0,-9.962899,67.33187,58.988428)"/>
<use data-text="&#x2212;" xlink:href="#font_5_1" transform="matrix(9.963397,0,0,-9.962899,75.2405,58.988428)"/>
<use data-text="3" xlink:href="#font_3_5" transform="matrix(9.963397,0,0,-9.962899,85.2033,58.988428)"/>
<use data-text="x" xlink:href="#font_4_5" transform="matrix(9.963397,0,0,-9.962899,90.1857,58.988428)"/>
<use data-text="2" xlink:href="#font_2_2" transform="matrix(6.974358,0,0,-6.9740097,95.87914,55.372323)"/>
<use data-text="&#x2212;" xlink:href="#font_5_1" transform="matrix(9.963397,0,0,-9.962899,29.55085,97.83059)"/>
<use data-text="4" xlink:href="#font_3_6" transform="matrix(9.963397,0,0,-9.962899,37.29947,97.83059)"/>
<use data-text="x" xlink:href="#font_4_5" transform="matrix(9.963397,0,0,-9.962899,75.517528,126.17844)"/>
<use data-text="+" xlink:href="#font_3_1" transform="matrix(9.963397,0,0,-9.962899,83.425159,126.17844)"/>
<use data-text="5" xlink:href="#font_3_7" transform="matrix(9.963397,0,0,-9.962899,93.378589,126.17844)"/>
<use data-text="a" xlink:href="#font_4_2" transform="matrix(9.963397,0,0,-9.962899,31.562012,161.04048)"/>
<use data-text="+" xlink:href="#font_3_1" transform="matrix(9.963397,0,0,-9.962899,39.042619,161.04048)"/>
<use data-text="b" xlink:href="#font_4_3" transform="matrix(9.963397,0,0,-9.962899,49.00541,161.04048)"/>
<use data-text="x" xlink:href="#font_4_5" transform="matrix(9.963397,0,0,-9.962899,53.27971,161.04048)"/>
<use data-text="+" xlink:href="#font_3_1" transform="matrix(9.963397,0,0,-9.962899,61.190385,161.04048)"/>
<use data-text="c" xlink:href="#font_4_4" transform="matrix(9.963397,0,0,-9.962899,71.153179,161.04048)"/>
<use data-text="x" xlink:href="#font_4_5" transform="matrix(9.963397,0,0,-9.962899,75.45736,161.04048)"/>
<use data-text="2" xlink:href="#font_2_2" transform="matrix(6.974358,0,0,-6.9740097,81.15998,157.42438)"/>
<use data-text="&#xf8ee;" xlink:href="#font_6_1" transform="matrix(9.963397,0,0,-9.962899,229.85688,37.812776)"/>
<use data-text="&#xf8f0;" xlink:href="#font_6_3" transform="matrix(9.963397,0,0,-9.962899,229.85688,55.746324)"/>
<use data-text="1" xlink:href="#font_3_3" transform="matrix(9.963397,0,0,-9.962899,240.3737,45.78401)"/>
<use data-text="2" xlink:href="#font_3_4" transform="matrix(9.963397,0,0,-9.962899,240.3737,57.73938)"/>
<use data-text="&#x2212;" xlink:href="#font_5_1" transform="matrix(9.963397,0,0,-9.962899,236.4984,69.69473)"/>
<use data-text="3" xlink:href="#font_3_5" transform="matrix(9.963397,0,0,-9.962899,244.24802,69.69473)"/>
<use data-text="&#xf8f9;" xlink:href="#font_6_2" transform="matrix(9.963397,0,0,-9.962899,249.22942,37.812776)"/>
<use data-text="&#xf8fb;" xlink:href="#font_6_4" transform="matrix(9.963397,0,0,-9.962899,249.22942,55.746324)"/>
<use data-text="&#xf8ee;" xlink:href="#font_6_1" transform="matrix(9.963397,0,0,-9.962899,193.00293,66.16063)"/>
<use data-text="&#xf8f0;" xlink:href="#font_6_3" transform="matrix(9.963397,0,0,-9.962899,193.00293,84.09418)"/>
<use data-text="&#x2212;" xlink:href="#font_5_1" transform="matrix(9.963397,0,0,-9.962899,199.64446,74.13187)"/>
<use data-text="4" xlink:href="#font_3_6" transform="matrix(9.963397,0,0,-9.962899,207.39408,74.13187)"/>
<use data-text="0" xlink:href="#font_3_2" transform="matrix(9.963397,0,0,-9.962899,203.51976,86.087238)"/>
<use data-text="0" xlink:href="#font_3_2" transform="matrix(9.963397,0,0,-9.962899,203.51976,98.04259)"/>
<use data-text="&#xf8f9;" xlink:href="#font_6_2" transform="matrix(9.963397,0,0,-9.962899,212.37548,66.16063)"/>
<use data-text="&#xf8fb;" xlink:href="#font_6_4" transform="matrix(9.963397,0,0,-9.962899,212.37647,84.09418)"/>
<use data-text="&#xf8ee;" xlink:href="#font_6_1" transform="matrix(9.963397,0,0,-9.962899,247.90631,103.01273)"/>
<use data-text="&#xf8f0;" xlink:href="#font_6_3" transform="matrix(9.963397,0,0,-9.962899,247.90631,120.94628)"/>
<use data-text="5" xlink:href="#font_3_7" transform="matrix(9.963397,0,0,-9.962899,254.54785,110.98397)"/>
<use data-text="1" xlink:href="#font_3_3" transform="matrix(9.963397,0,0,-9.962899,254.54785,122.93934)"/>
<use data-text="0" xlink:href="#font_3_2" transform="matrix(9.963397,0,0,-9.962899,254.54785,134.89469)"/>
<use data-text="&#xf8f9;" xlink:href="#font_6_2" transform="matrix(9.963397,0,0,-9.962899,259.53025,103.01273)"/>
<use data-text="&#xf8fb;" xlink:href="#font_6_4" transform="matrix(9.963397,0,0,-9.962899,259.53025,120.94628)"/>
<use data-text="&#xf8ee;" xlink:href="#font_6_1" transform="matrix(9.963397,0,0,-9.962899,205.2399,134.19467)"/>
<use data-text="&#xf8f0;" xlink:href="#font_6_3" transform="matrix(9.963397,0,0,-9.962899,205.2399,152.12822)"/>
<use data-text="a" xlink:href="#font_4_2" transform="matrix(9.963397,0,0,-9.962899,211.88144,142.16591)"/>
<use data-text="b" xlink:href="#font_4_3" transform="matrix(9.963397,0,0,-9.962899,212.37747,154.12128)"/>
<use data-text="c" xlink:href="#font_4_4" transform="matrix(9.963397,0,0,-9.962899,212.35948,166.07663)"/>
<use data-text="&#xf8f9;" xlink:href="#font_6_2" transform="matrix(9.963397,0,0,-9.962899,217.14887,134.19467)"/>
<use data-text="&#xf8fb;" xlink:href="#font_6_4" transform="matrix(9.963397,0,0,-9.962899,217.14887,152.12822)"/>
<path transform="matrix(1.00008,0,0,-1.00003,1.8976364,174.40889)" stroke-width=".49814" stroke-linecap="butt" stroke-miterlimit="10" stroke-linejoin="miter" fill="none" stroke="#000000" d="M102.04868 119.0565C148.86093 127.31053 177.12735 127.31053 221.83022 119.4284"/>
<path transform="matrix(.9848788,.17363522,.17364389,-.98482957,223.7456,54.976884)" d="M2.14195 0-1.28517 1.71356 0 0-1.28517-1.71356"/>
<path transform="matrix(1.00008,0,0,-1.00003,1.8976364,174.40889)" stroke-width=".49814" stroke-linecap="butt" stroke-miterlimit="10" stroke-linejoin="miter" fill="none" stroke="#000000" d="M43.90102 79.37114C99.29268 89.13791 132.17847 100.47647 185.46074 91.0816"/>
<path transform="matrix(.9848788,.17363522,.17364389,-.98482957,187.3732,83.32453)" d="M2.14195 0-1.28517 1.71356 0 0-1.28517-1.71356"/>
<path transform="matrix(1.00008,0,0,-1.00003,1.8976364,174.40889)" stroke-width=".49814" stroke-linecap="butt" stroke-miterlimit="10" stroke-linejoin="miter" fill="none" stroke="#000000" d="M99.98625 51.02432C154.92047 60.71043 187.53469 63.54486 240.35951 54.23065"/>
<path transform="matrix(.9848788,.17363522,.17364389,-.98482957,242.27637,120.17659)" d="M2.14195 0-1.28517 1.71356 0 0-1.28517-1.71356"/>
<path transform="matrix(1.00008,0,0,-1.00003,1.8976364,174.40889)" stroke-width=".49814" stroke-linecap="butt" stroke-miterlimit="10" stroke-linejoin="miter" fill="none" stroke="#000000" d="M87.24544 17.00824C130.64333 24.66023 156.40837 30.3295 197.69687 23.04941"/>
<path transform="matrix(.9848788,.17363522,.17364389,-.98482957,199.61032,151.35878)" d="M2.14195 0-1.28517 1.71356 0 0-1.28517-1.71356"/>
<path transform="matrix(1.00008,0,0,-1.00003,1.8976364,174.40889)" stroke-width=".49814" stroke-linecap="butt" stroke-miterlimit="10" stroke-linejoin="miter" fill="none" stroke="#000000" d="M223.9396 116.22208C177.12735 107.96806 148.86093 107.96806 104.15807 115.85017"/>
<path transform="matrix(-.9848788,-.17363522,-.17364389,.98482957,106.06404,58.555253)" d="M2.14195 0-1.28517 1.71356 0 0-1.28517-1.71356"/>
<path transform="matrix(1.00008,0,0,-1.00003,1.8976364,174.40889)" stroke-width=".49814" stroke-linecap="butt" stroke-miterlimit="10" stroke-linejoin="miter" fill="none" stroke="#000000" d="M184.25424 87.87527C130.70157 78.43275 98.90773 67.09377 47.46445 76.16438"/>
<path transform="matrix(-.9848788,-.17363522,-.17364389,.98482957,49.365884,98.24223)" d="M2.14195 0-1.28517 1.71356 0 0-1.28517-1.71356"/>
<path transform="matrix(1.00008,0,0,-1.00003,1.8976364,174.40889)" stroke-width=".49814" stroke-linecap="butt" stroke-miterlimit="10" stroke-linejoin="miter" fill="none" stroke="#000000" d="M240.94788 51.02432C187.39519 41.58182 155.60135 38.74696 104.15807 47.81757"/>
<path transform="matrix(-.9848788,-.17363522,-.17364389,.98482957,106.06404,126.589908)" d="M2.14195 0-1.28517 1.71356 0 0-1.28517-1.71356"/>
<path transform="matrix(1.00008,0,0,-1.00003,1.8976364,174.40889)" stroke-width=".49814" stroke-linecap="butt" stroke-miterlimit="10" stroke-linejoin="miter" fill="none" stroke="#000000" d="M198.42766 19.84267C154.7112 12.1345 128.75688 6.46523 87.14981 13.80148"/>
<path transform="matrix(-.9848788,-.17363522,-.17364389,.98482957,89.05442,160.60701)" d="M2.14195 0-1.28517 1.71356 0 0-1.28517-1.71356"/>
<path transform="matrix(1.00008,0,0,-1.00003,1.8976364,174.40889)" stroke-width=".49814" stroke-linecap="butt" stroke-miterlimit="10" stroke-linejoin="miter" fill="none" stroke="#000000" d="M240.94788-2.83484C178.62096-25.52023 133.19393-25.52023 72.87976-3.56741"/>
<path transform="matrix(-.93975517,-.34202028,-.34203736,.93970826,74.783229,177.97641)" d="M2.14195 0-1.28517 1.71356 0 0-1.28517-1.71356"/>
<path transform="matrix(1.00008,0,0,-1.00003,1.8976364,174.40889)" stroke-width=".49814" stroke-linecap="butt" stroke-miterlimit="10" stroke-linejoin="miter" fill="none" stroke="#000000" d="M70.867 144.5689C133.19393 167.25429 178.62096 167.25429 238.9351 145.30146"/>
<path transform="matrix(.93975517,.34202028,.34203736,-.93970826,240.85187,29.103074)" d="M2.14195 0-1.28517 1.71356 0 0-1.28517-1.71356"/>
<use data-text="T" xlink:href="#font_4_1" transform="matrix(9.963397,0,0,-9.962899,154.21482,7.726883)"/>
<use data-text="T" xlink:href="#font_4_1" transform="matrix(9.963397,0,0,-9.962899,148.8664,206.81186)"/>
<use data-text="&#x2212;" xlink:href="#font_7_1" transform="matrix(6.974358,0,0,-6.9740097,156.07196,203.19576)"/>
<use data-text="1" xlink:href="#font_2_1" transform="matrix(6.974358,0,0,-6.9740097,162.29947,203.19576)"/>
</svg>
