<?xml version="1.0" encoding="UTF-8"?>
<svg xmlns="http://www.w3.org/2000/svg" xmlns:xlink="http://www.w3.org/1999/xlink" width="116pt" height="82pt" viewBox="0 0 116 82" version="1.1">
<g id="surface1">
<path style="fill:none;stroke-width:0.3985;stroke-linecap:butt;stroke-linejoin:miter;stroke:rgb(0%,0%,0%);stroke-opacity:1;stroke-miterlimit:10;" d="M -56.293411 -0.000543897 L 56.296961 -0.000543897 " transform="matrix(1.00003,0,0,-1.00006,57.791194,58.49555)"/>
<path style="fill:none;stroke-width:0.3985;stroke-linecap:round;stroke-linejoin:round;stroke:rgb(0%,0%,0%);stroke-opacity:1;stroke-miterlimit:10;" d="M -2.072177 2.391025 C -1.693282 0.957518 -0.849557 0.277871 -0.00192611 0.000543897 C -0.849557 -0.280689 -1.693282 -0.95643 -2.072177 -2.389938 " transform="matrix(-1.00003,0,0,1.00006,1.294949,58.49555)"/>
<path style="fill:none;stroke-width:0.3985;stroke-linecap:round;stroke-linejoin:round;stroke:rgb(0%,0%,0%);stroke-opacity:1;stroke-miterlimit:10;" d="M -2.072533 2.389938 C -1.693638 0.95643 -0.849913 0.280689 0.00162394 -0.000543897 C -0.849913 -0.277871 -1.693638 -0.957518 -2.072533 -2.391025 " transform="matrix(1.00003,0,0,-1.00006,114.287439,58.49555)"/>
<path style="fill:none;stroke-width:0.3985;stroke-linecap:butt;stroke-linejoin:miter;stroke:rgb(0%,0%,0%);stroke-opacity:1;stroke-miterlimit:10;" d="M 0.00177503 -22.280457 L 0.00177503 56.29686 " transform="matrix(1.00003,0,0,-1.00006,57.791194,58.49555)"/>
<path style="fill:none;stroke-width:0.3985;stroke-linecap:round;stroke-linejoin:round;stroke:rgb(0%,0%,0%);stroke-opacity:1;stroke-miterlimit:10;" d="M -2.07269 2.392328 C -1.693807 0.954871 -0.850108 0.27911 0.0014039 0.00177503 C -0.850108 -0.279467 -1.693807 -0.955228 -2.07269 -2.392684 " transform="matrix(0,1.00006,1.00003,0,57.791194,80.975159)"/>
<path style="fill:none;stroke-width:0.3985;stroke-linecap:round;stroke-linejoin:round;stroke:rgb(0%,0%,0%);stroke-opacity:1;stroke-miterlimit:10;" d="M -2.072578 2.392684 C -1.693694 0.955228 -0.849995 0.279467 0.00151631 -0.00177503 C -0.849995 -0.27911 -1.693694 -0.954871 -2.072578 -2.392328 " transform="matrix(0,-1.00006,-1.00003,0,57.791194,1.99761)"/>
<path style="fill:none;stroke-width:1.99255;stroke-linecap:butt;stroke-linejoin:miter;stroke:rgb(0%,0%,100%);stroke-opacity:1;stroke-miterlimit:10;" d="M 0.00177503 -0.000543897 L 42.254414 42.254733 " transform="matrix(1.00003,0,0,-1.00006,57.791194,58.49555)"/>
<path style=" stroke:none;fill-rule:nonzero;fill:rgb(0%,0%,100%);fill-opacity:1;" d="M 103.148438 13.136719 L 95.707031 15.617188 L 100.046875 16.238281 L 100.667969 20.578125 "/>
<path style="fill:none;stroke-width:1.99255;stroke-linecap:butt;stroke-linejoin:miter;stroke:rgb(100%,0%,0%);stroke-opacity:1;stroke-miterlimit:10;" d="M 0.00177503 -0.000543897 L -19.579669 19.576406 " transform="matrix(1.00003,0,0,-1.00006,57.791194,58.49555)"/>
<path style=" stroke:none;fill-rule:nonzero;fill:rgb(100%,0%,0%);fill-opacity:1;" d="M 35.113281 35.816406 L 37.59375 43.257812 L 38.210938 38.917969 L 42.550781 38.296875 "/>
</g>
</svg>
