<svg xmlns="http://www.w3.org/2000/svg" xmlns:xlink="http://www.w3.org/1999/xlink" xmlns:inkscape="http://www.inkscape.org/namespaces/inkscape" version="1.1" width="388" height="388" viewBox="0 0 388 388">
<defs>
<path id="font_1_5" d="M.48599244 .38136292C.48999024 .39537049 .48999024 .39736939 .48999024 .40437318 .48999024 .42237855 .47599793 .43138124 .46099855 .43138124 .45098878 .43138124 .43499757 .42536927 .42599488 .41036988 .42399598 .405365 .41600038 .37435914 .4119873 .35635377 .40499879 .33035279 .397995 .30334474 .3919983 .27633668L.34700013 .09628296C.34298707 .08126831 .2999878 .011245728 .23399353 .011245728 .18299866 .011245728 .17199707 .055267335 .17199707 .0922699 .17199707 .1382904 .18899536 .20030213 .22299195 .28833009 .23899842 .3293457 .24299622 .3403473 .24299622 .36035157 .24299622 .405365 .21099854 .4423828 .16099549 .4423828 .06599426 .4423828 .0289917 .29733277 .0289917 .28833009 .0289917 .27833558 .038986207 .27833558 .040985109 .27833558 .050994874 .27833558 .051986696 .28033448 .056991579 .29634095 .083999637 .3903656 .12399292 .42037965 .1579895 .42037965 .1659851 .42037965 .18299866 .42037965 .18299866 .3883667 .18299866 .36335755 .17298889 .3373413 .1659851 .31834413 .12599182 .21231079 .10798645 .1552887 .10798645 .10827637 .10798645 .019256592 .17098999-.0107421879 .22999573-.0107421879 .2689972-.0107421879 .30299378 .0062561037 .33099366 .03425598 .31799317-.017745972 .30599977-.06674194 .2659912-.11973572 .23999024-.15385437 .20199585-.18309021 .1559906-.18309021 .14199829-.18309021 .09700012-.18005371 .07998657-.14074707 .09599304-.14074707 .10899353-.14074707 .12298584-.1287384 .1329956-.11973572 .14299011-.10673523 .14299011-.08773804 .14299011-.056747438 .115997318-.052734376 .10598755-.052734376 .08299255-.052734376 .049987794-.068740848 .049987794-.11773682 .049987794-.16796875 .09399414-.20507813 .1559906-.20507813 .25898744-.20507813 .3619995-.11373901 .3899994-.00074768069L.48599244 .38136292Z"/>
<path id="font_1_6" d="M.1329956 .08345032C.18699646 .14138794 .21598816 .16636658 .2519989 .19732666 .2519989 .19833374 .31399537 .25128175 .34999085 .2872467 .44499208 .3803711 .46699525 .42837525 .46699525 .43237306 .46699525 .4423828 .45799256 .4423828 .45599366 .4423828 .44898988 .4423828 .44599916 .44036866 .44099427 .43138124 .41099549 .38337709 .3899994 .3671875 .3659973 .3671875 .34199525 .3671875 .32998658 .38237 .31498719 .3993683 .29599 .42237855 .2789917 .4423828 .24598694 .4423828 .17098999 .4423828 .125 .34918214 .125 .3282013 .125 .3231964 .12799073 .31721498 .13699341 .31721498 .1459961 .31721498 .147995 .3222046 .1499939 .3282013 .16899109 .37434388 .22698975 .37538148 .23498535 .37538148 .2559967 .37538148 .2749939 .36820985 .2979889 .36018373 .33799745 .34518434 .34899903 .34518434 .375 .34518434 .33898927 .30223084 .25498963 .2303009 .23599243 .21430969L.1459961 .13040161C.07798767 .06341553 .042999269 .0062561037 .042999269-.00074768069 .042999269-.0107421879 .052993776-.0107421879 .054992677-.0107421879 .06298828-.0107421879 .06498718-.008743286 .070999149 .002243042 .09399414 .037246705 .12399292 .064453128 .1559906 .064453128 .1789856 .064453128 .18899536 .055252077 .21398926 .026245118 .23098755 .0052490236 .24899292-.0107421879 .27799989-.0107421879 .3769989-.0107421879 .43499757 .1164093 .43499757 .14338684 .43499757 .14837647 .43099977 .15338135 .4229889 .15338135 .4139862 .15338135 .4119873 .14738465 .40899659 .14039612 .38598634 .07543945 .32199098 .056243898 .2889862 .056243898 .2689972 .056243898 .25099183 .06239319 .22999573 .06944275 .19599915 .08244324 .18099976 .08644104 .1599884 .08644104 .1579895 .08644104 .14199829 .08644104 .1329956 .08345032Z"/>
<path id="font_1_4" d="M.33399964 .30233766C.33999635 .32835389 .36299134 .42037965 .43299867 .42037965 .43798829 .42037965 .46199037 .42037965 .48298646 .40734864 .45498658 .402359 .43499757 .37734986 .43499757 .35334779 .43499757 .33735658 .44599916 .31835938 .47299195 .31835938 .49499513 .31835938 .5269928 .3363495 .5269928 .37635804 .5269928 .42837525 .46798707 .4423828 .43399049 .4423828 .37599183 .4423828 .34098817 .38935853 .32899476 .36634828 .3039856 .43237306 .25 .4423828 .22099304 .4423828 .116989139 .4423828 .05999756 .3133545 .05999756 .28834535 .05999756 .27833558 .069992069 .27833558 .07199097 .27833558 .07998657 .27833558 .08299255 .28033448 .084991458 .28933717 .11898804 .39535523 .18499756 .42037965 .21899414 .42037965 .23799134 .42037965 .272995 .4113617 .272995 .35334779 .272995 .32235719 .2559967 .25532533 .21899414 .11528015 .20298767 .053268434 .16799927 .011245728 .12399292 .011245728 .117996219 .011245728 .09498596 .011245728 .07398987 .024276734 .09899902 .029266358 .12098694 .05027771 .12098694 .07827759 .12098694 .105270389 .09899902 .11328125 .083999637 .11328125 .053985597 .11328125 .0289917 .08728027 .0289917 .055267335 .0289917 .009246826 .07899475-.0107421879 .12298584-.0107421879 .18899536-.0107421879 .22499085 .059280397 .22799683 .0652771 .23999024 .028274537 .27598573-.0107421879 .33599855-.0107421879 .43899537-.0107421879 .49598695 .118270877 .49598695 .14328003 .49598695 .1532898 .4869995 .1532898 .48399354 .1532898 .47499085 .1532898 .47299195 .14929199 .47099305 .14228821 .43798829 .03527832 .36999513 .011245728 .33799745 .011245728 .29899598 .011245728 .2829895 .043273927 .2829895 .07727051 .2829895 .09927368 .2889862 .121276859 .2999878 .16529846L.33399964 .30233766Z"/>
<path id="font_2_61" d="M.69400027 .25C.69400027 .2619934 .6859894 .2669983 .6749878 .27198792L.12098694 .5329895C.10798645 .5399933 .10598755 .5399933 .102996829 .5399933 .09199524 .5399933 .08299255 .5309906 .08299255 .519989 .08299255 .5109863 .08799744 .5049896 .101989749 .49798585L.6269989 .25 .101989749 .0019989014C.08799744-.005004883 .08299255-.011001587 .08299255-.020004273 .08299255-.03100586 .09199524-.040008546 .102996829-.040008546 .10598755-.040008546 .10798645-.040008546 .12098694-.03300476L.6749878 .22799683C.6859894 .23298645 .69400027 .23799134 .69400027 .25Z"/>
<path id="font_1_1" d="M.30299378 .3157959H.47299195C.61499026 .3157959 .7539978 .41973878 .7539978 .53167727 .7539978 .6086273 .6879883 .6826172 .5569916 .6826172H.23298645C.21398926 .6826172 .20298767 .6826172 .20298767 .66360476 .20298767 .6516113 .21199036 .6516113 .23199463 .6516113 .24499512 .6516113 .2630005 .65060427 .2749939 .6496124 .29100038 .6476135 .29699708 .64460757 .29699708 .6336212 .29699708 .6296234 .29599 .62661746 .29299928 .614624L.15899658 .07795715C.14898682 .038986207 .14698792 .0309906 .067993167 .0309906 .050994874 .0309906 .039993287 .0309906 .039993287 .011993408 .039993287 0 .051986696 0 .054992677 0 .08299255 0 .1539917 .0029907227 .18199158 .0029907227 .20298767 .0029907227 .22499085 .0019989014 .24598694 .0019989014 .2679901 .0019989014 .2899933 0 .31098939 0 .31799317 0 .33099366 0 .33099366 .019989014 .33099366 .0309906 .32199098 .0309906 .30299378 .0309906 .2659912 .0309906 .23799134 .0309906 .23799134 .048980714 .23799134 .054977418 .23999024 .05996704 .24099732 .065963748L.30299378 .3157959M.375 .6136322C.38398744 .64860537 .38598634 .6516113 .42900086 .6516113H.5249939C.60798647 .6516113 .6609955 .62461856 .6609955 .55566409 .6609955 .5166931 .6409912 .43074037 .60198977 .39476014 .5519867 .34977723 .49198915 .34179688 .44799806 .34179688H.30699159L.375 .6136322Z"/>
<path id="font_1_2" d="M.43798829 .0055236818C.59298709 .0644989 .73999026 .24256897 .73999026 .43579103 .73999026 .5969696 .6339874 .7050781 .4850006 .7050781 .2689972 .7050781 .04899597 .47784425 .04899597 .24456787 .04899597 .07847595 .16099549-.022460938 .30499269-.022460938 .32998658-.022460938 .3639984-.018463135 .40299989-.007461548 .39898683-.06939697 .39898683-.071380618 .39898683-.084365848 .39898683-.11634827 .39898683-.19433594 .48199464-.19433594 .6009979-.19433594 .6489868-.011474609 .6489868-.00047302247 .6489868 .0065307619 .6419983 .009521484 .6380005 .009521484 .6299896 .009521484 .6279907 .0045318605 .6259918-.0014648438 .60198977-.072387699 .5439911-.097335819 .5089874-.097335819 .46299745-.097335819 .44799806-.070388797 .43798829 .0055236818M.24899292 .013519287C.17098999 .044509889 .13699341 .12245178 .13699341 .21252442 .13699341 .2816162 .16299439 .4237671 .23899842 .5319061 .31199647 .63401797 .4059906 .68006899 .47898866 .68006899 .57899478 .68006899 .6519928 .6019745 .6519928 .4678192 .6519928 .3677063 .6009979 .13345337 .43299867 .039505006 .42799378 .07447815 .41799928 .14746094 .34498597 .14746094 .2919922 .14746094 .24299622 .097473148 .24299622 .04550171 .24299622 .025512696 .24899292 .014526367 .24899292 .013519287M.31098939 .002532959C.29699708 .002532959 .2649994 .002532959 .2649994 .04550171 .2649994 .08547974 .30299378 .12545777 .34498597 .12545777 .3869934 .12545777 .4059906 .10147095 .4059906 .040512086 .4059906 .025512696 .40499879 .024520874 .394989 .020523072 .36898805 .009521484 .33898927 .002532959 .31098939 .002532959Z"/>
<path id="font_1_3" d="M.375 .6136017C.3809967 .63760378 .38398744 .6476135 .40299989 .65060427 .4119873 .6516113 .44400025 .6516113 .46398927 .6516113 .5349884 .6516113 .6459961 .6516113 .6459961 .5525818 .6459961 .51856997 .6299896 .44955445 .59098818 .41055299 .5649872 .38453675 .5119934 .35253907 .42199708 .35253907H.30999757L.375 .6136017M.5189972 .33953858C.6199951 .3615265 .7389984 .43154908 .7389984 .5325775 .7389984 .61860659 .6489868 .6826172 .5179901 .6826172H.23298645C.21299744 .6826172 .20399475 .6826172 .20399475 .6626129 .20399475 .6516113 .21299744 .6516113 .23199463 .6516113 .23399353 .6516113 .25299073 .6516113 .269989 .6496124 .28799439 .6476135 .29699708 .64660647 .29699708 .63360598 .29699708 .62960818 .29599 .6266022 .29299928 .6145935L.15899658 .07752991C.14898682 .038528444 .14698792 .030532837 .067993167 .030532837 .049987794 .030532837 .040985109 .030532837 .040985109 .010528564 .040985109-.00047302247 .052993776-.00047302247 .054992677-.00047302247 .08299255-.00047302247 .15299988 .002532959 .18099976 .002532959 .20899964 .002532959 .27999879-.00047302247 .30799867-.00047302247 .31599427-.00047302247 .32798768-.00047302247 .32798768 .01953125 .32798768 .030532837 .31900025 .030532837 .2999878 .030532837 .2630005 .030532837 .23498535 .030532837 .23498535 .048538209 .23498535 .054534913 .23699951 .059524537 .23799134 .0655365L.3039856 .3305359H.4229889C.5139923 .3305359 .5319977 .27453614 .5319977 .23953247 .5319977 .22453308 .5239868 .19352722 .5179901 .17053223 .5109863 .14253235 .5019989 .105529788 .5019989 .08552551 .5019989-.022460938 .621994-.022460938 .6349945-.022460938 .7200012-.022460938 .7549896 .07853699 .7549896 .0925293 .7549896 .104537967 .74398806 .104537967 .7429962 .104537967 .73399356 .104537967 .7319946 .09753418 .7299957 .090530399 .7049866 .016525269 .6619873-.00047302247 .6389923-.00047302247 .60598757-.00047302247 .598999 .021530152 .598999 .060531618 .598999 .091537479 .6049957 .14253235 .60899356 .17453003 .61099246 .1885376 .61299136 .20753479 .61299136 .2215271 .61299136 .2985382 .54599 .3295288 .5189972 .33953858Z"/>
</defs>
<path transform="matrix(1.00002,0,0,-1.00003,192.43749,195.40947)" stroke-width=".3985" stroke-linecap="butt" stroke-miterlimit="10" stroke-linejoin="miter" fill="none" stroke="#000000" d="M-191.34085 0H190.94234"/>
<path transform="matrix(1.00002,0,0,-1.00003,383.58293,195.40947)" stroke-width=".3985" stroke-linecap="round" stroke-linejoin="round" fill="none" stroke="#000000" d="M-2.07224 2.39104C-1.69365 .95639-.84999 .27895 0 0-.84999-.27895-1.69365-.95639-2.07224-2.39104"/>
<use data-text="y" xlink:href="#font_1_5" transform="matrix(9.962799,0,0,-9.962899,381.16127,189.9523)"/>
<path transform="matrix(1.00002,0,0,-1.00003,192.43749,195.40947)" stroke-width=".3985" stroke-linecap="butt" stroke-miterlimit="10" stroke-linejoin="miter" fill="none" stroke="#000000" d="M0-191.34085V190.94234"/>
<path transform="matrix(0,-1.00003,-1.00002,-0,192.43749,4.2621309)" stroke-width=".3985" stroke-linecap="round" stroke-linejoin="round" fill="none" stroke="#000000" d="M-2.07224 2.39104C-1.69365 .95639-.84999 .27895 0 0-.84999-.27895-1.69365-.95639-2.07224-2.39104"/>
<use data-text="z" xlink:href="#font_1_6" transform="matrix(9.962799,0,0,-9.962899,195.95755,6.207794)"/>
<path transform="matrix(1.00002,0,0,-1.00003,192.43749,195.40947)" stroke-width=".3985" stroke-linecap="butt" stroke-miterlimit="10" stroke-linejoin="miter" fill="none" stroke="#000000" d="M114.80565 114.80565-114.52386-114.52386"/>
<path transform="matrix(-.70711418,.7071212,.70711418,.7071212,77.77043,310.07768)" stroke-width=".3985" stroke-linecap="round" stroke-linejoin="round" fill="none" stroke="#000000" d="M-2.07224 2.39104C-1.69365 .95639-.84999 .27895 0 0-.84999-.27895-1.69365-.95639-2.07224-2.39104"/>
<use data-text="x" xlink:href="#font_1_4" transform="matrix(9.962799,0,0,-9.962899,70.90704,319.1182)"/>
<use data-text="&#x003e;" xlink:href="#font_2_61" transform="matrix(9.962799,0,0,-9.962899,76.601169,319.1182)"/>
<path transform="matrix(1.00002,0,0,-1.00003,192.43749,195.40947)" stroke-width=".3985" stroke-linecap="butt" stroke-miterlimit="10" stroke-linejoin="miter" fill="none" stroke="#000000" d="M-184.25415-1.49442V1.49442"/>
<path transform="matrix(1.00002,0,0,-1.00003,192.43749,195.40947)" stroke-width=".3985" stroke-linecap="butt" stroke-miterlimit="10" stroke-linejoin="miter" fill="none" stroke="#000000" d="M-1.49442-184.25415H1.49442"/>
<path transform="matrix(1.00002,0,0,-1.00003,192.43749,195.40947)" stroke-width=".3985" stroke-linecap="butt" stroke-miterlimit="10" stroke-linejoin="miter" fill="none" stroke="#000000" d="M-110.5536-112.67952V-108.42767"/>
<path transform="matrix(1.00002,0,0,-1.00003,192.43749,195.40947)" stroke-width=".3985" stroke-linecap="butt" stroke-miterlimit="10" stroke-linejoin="miter" fill="none" stroke="#000000" d="M-170.08077-1.49442V1.49442"/>
<path transform="matrix(1.00002,0,0,-1.00003,192.43749,195.40947)" stroke-width=".3985" stroke-linecap="butt" stroke-miterlimit="10" stroke-linejoin="miter" fill="none" stroke="#000000" d="M-1.49442-170.08077H1.49442"/>
<path transform="matrix(1.00002,0,0,-1.00003,192.43749,195.40947)" stroke-width=".3985" stroke-linecap="butt" stroke-miterlimit="10" stroke-linejoin="miter" fill="none" stroke="#000000" d="M-102.04947-104.1754V-99.92355"/>
<path transform="matrix(1.00002,0,0,-1.00003,192.43749,195.40947)" stroke-width=".3985" stroke-linecap="butt" stroke-miterlimit="10" stroke-linejoin="miter" fill="none" stroke="#000000" d="M-155.90737-1.49442V1.49442"/>
<path transform="matrix(1.00002,0,0,-1.00003,192.43749,195.40947)" stroke-width=".3985" stroke-linecap="butt" stroke-miterlimit="10" stroke-linejoin="miter" fill="none" stroke="#000000" d="M-1.49442-155.90737H1.49442"/>
<path transform="matrix(1.00002,0,0,-1.00003,192.43749,195.40947)" stroke-width=".3985" stroke-linecap="butt" stroke-miterlimit="10" stroke-linejoin="miter" fill="none" stroke="#000000" d="M-93.54535-95.67126V-91.41943"/>
<path transform="matrix(1.00002,0,0,-1.00003,192.43749,195.40947)" stroke-width=".3985" stroke-linecap="butt" stroke-miterlimit="10" stroke-linejoin="miter" fill="none" stroke="#000000" d="M-141.73397-1.49442V1.49442"/>
<path transform="matrix(1.00002,0,0,-1.00003,192.43749,195.40947)" stroke-width=".3985" stroke-linecap="butt" stroke-miterlimit="10" stroke-linejoin="miter" fill="none" stroke="#000000" d="M-1.49442-141.73397H1.49442"/>
<path transform="matrix(1.00002,0,0,-1.00003,192.43749,195.40947)" stroke-width=".3985" stroke-linecap="butt" stroke-miterlimit="10" stroke-linejoin="miter" fill="none" stroke="#000000" d="M-85.04123-87.16714V-82.91531"/>
<path transform="matrix(1.00002,0,0,-1.00003,192.43749,195.40947)" stroke-width=".3985" stroke-linecap="butt" stroke-miterlimit="10" stroke-linejoin="miter" fill="none" stroke="#000000" d="M-127.56056-1.49442V1.49442"/>
<path transform="matrix(1.00002,0,0,-1.00003,192.43749,195.40947)" stroke-width=".3985" stroke-linecap="butt" stroke-miterlimit="10" stroke-linejoin="miter" fill="none" stroke="#000000" d="M-1.49442-127.56056H1.49442"/>
<path transform="matrix(1.00002,0,0,-1.00003,192.43749,195.40947)" stroke-width=".3985" stroke-linecap="butt" stroke-miterlimit="10" stroke-linejoin="miter" fill="none" stroke="#000000" d="M-76.53711-78.66302V-74.41118"/>
<path transform="matrix(1.00002,0,0,-1.00003,192.43749,195.40947)" stroke-width=".3985" stroke-linecap="butt" stroke-miterlimit="10" stroke-linejoin="miter" fill="none" stroke="#000000" d="M-113.38718-1.49442V1.49442"/>
<path transform="matrix(1.00002,0,0,-1.00003,192.43749,195.40947)" stroke-width=".3985" stroke-linecap="butt" stroke-miterlimit="10" stroke-linejoin="miter" fill="none" stroke="#000000" d="M-1.49442-113.38718H1.49442"/>
<path transform="matrix(1.00002,0,0,-1.00003,192.43749,195.40947)" stroke-width=".3985" stroke-linecap="butt" stroke-miterlimit="10" stroke-linejoin="miter" fill="none" stroke="#000000" d="M-68.03297-70.1589V-65.90706"/>
<path transform="matrix(1.00002,0,0,-1.00003,192.43749,195.40947)" stroke-width=".3985" stroke-linecap="butt" stroke-miterlimit="10" stroke-linejoin="miter" fill="none" stroke="#000000" d="M-99.21378-1.49442V1.49442"/>
<path transform="matrix(1.00002,0,0,-1.00003,192.43749,195.40947)" stroke-width=".3985" stroke-linecap="butt" stroke-miterlimit="10" stroke-linejoin="miter" fill="none" stroke="#000000" d="M-1.49442-99.21378H1.49442"/>
<path transform="matrix(1.00002,0,0,-1.00003,192.43749,195.40947)" stroke-width=".3985" stroke-linecap="butt" stroke-miterlimit="10" stroke-linejoin="miter" fill="none" stroke="#000000" d="M-59.52885-61.65479V-57.40294"/>
<path transform="matrix(1.00002,0,0,-1.00003,192.43749,195.40947)" stroke-width=".3985" stroke-linecap="butt" stroke-miterlimit="10" stroke-linejoin="miter" fill="none" stroke="#000000" d="M-85.04037-1.49442V1.49442"/>
<path transform="matrix(1.00002,0,0,-1.00003,192.43749,195.40947)" stroke-width=".3985" stroke-linecap="butt" stroke-miterlimit="10" stroke-linejoin="miter" fill="none" stroke="#000000" d="M-1.49442-85.04037H1.49442"/>
<path transform="matrix(1.00002,0,0,-1.00003,192.43749,195.40947)" stroke-width=".3985" stroke-linecap="butt" stroke-miterlimit="10" stroke-linejoin="miter" fill="none" stroke="#000000" d="M-51.02473-53.15065V-48.89882"/>
<path transform="matrix(1.00002,0,0,-1.00003,192.43749,195.40947)" stroke-width=".3985" stroke-linecap="butt" stroke-miterlimit="10" stroke-linejoin="miter" fill="none" stroke="#000000" d="M-70.86697-1.49442V1.49442"/>
<path transform="matrix(1.00002,0,0,-1.00003,192.43749,195.40947)" stroke-width=".3985" stroke-linecap="butt" stroke-miterlimit="10" stroke-linejoin="miter" fill="none" stroke="#000000" d="M-1.49442-70.86697H1.49442"/>
<path transform="matrix(1.00002,0,0,-1.00003,192.43749,195.40947)" stroke-width=".3985" stroke-linecap="butt" stroke-miterlimit="10" stroke-linejoin="miter" fill="none" stroke="#000000" d="M-42.52061-44.64653V-40.39468"/>
<path transform="matrix(1.00002,0,0,-1.00003,192.43749,195.40947)" stroke-width=".3985" stroke-linecap="butt" stroke-miterlimit="10" stroke-linejoin="miter" fill="none" stroke="#000000" d="M-56.69359-1.49442V1.49442"/>
<path transform="matrix(1.00002,0,0,-1.00003,192.43749,195.40947)" stroke-width=".3985" stroke-linecap="butt" stroke-miterlimit="10" stroke-linejoin="miter" fill="none" stroke="#000000" d="M-1.49442-56.69359H1.49442"/>
<path transform="matrix(1.00002,0,0,-1.00003,192.43749,195.40947)" stroke-width=".3985" stroke-linecap="butt" stroke-miterlimit="10" stroke-linejoin="miter" fill="none" stroke="#000000" d="M-34.01648-36.14241V-31.89056"/>
<path transform="matrix(1.00002,0,0,-1.00003,192.43749,195.40947)" stroke-width=".3985" stroke-linecap="butt" stroke-miterlimit="10" stroke-linejoin="miter" fill="none" stroke="#000000" d="M-42.52019-1.49442V1.49442"/>
<path transform="matrix(1.00002,0,0,-1.00003,192.43749,195.40947)" stroke-width=".3985" stroke-linecap="butt" stroke-miterlimit="10" stroke-linejoin="miter" fill="none" stroke="#000000" d="M-1.49442-42.52019H1.49442"/>
<path transform="matrix(1.00002,0,0,-1.00003,192.43749,195.40947)" stroke-width=".3985" stroke-linecap="butt" stroke-miterlimit="10" stroke-linejoin="miter" fill="none" stroke="#000000" d="M-25.51236-27.63829V-23.38644"/>
<path transform="matrix(1.00002,0,0,-1.00003,192.43749,195.40947)" stroke-width=".3985" stroke-linecap="butt" stroke-miterlimit="10" stroke-linejoin="miter" fill="none" stroke="#000000" d="M-28.34679-1.49442V1.49442"/>
<path transform="matrix(1.00002,0,0,-1.00003,192.43749,195.40947)" stroke-width=".3985" stroke-linecap="butt" stroke-miterlimit="10" stroke-linejoin="miter" fill="none" stroke="#000000" d="M-1.49442-28.34679H1.49442"/>
<path transform="matrix(1.00002,0,0,-1.00003,192.43749,195.40947)" stroke-width=".3985" stroke-linecap="butt" stroke-miterlimit="10" stroke-linejoin="miter" fill="none" stroke="#000000" d="M-17.00824-19.13416V-14.88232"/>
<path transform="matrix(1.00002,0,0,-1.00003,192.43749,195.40947)" stroke-width=".3985" stroke-linecap="butt" stroke-miterlimit="10" stroke-linejoin="miter" fill="none" stroke="#000000" d="M-14.17339-1.49442V1.49442"/>
<path transform="matrix(1.00002,0,0,-1.00003,192.43749,195.40947)" stroke-width=".3985" stroke-linecap="butt" stroke-miterlimit="10" stroke-linejoin="miter" fill="none" stroke="#000000" d="M-1.49442-14.17339H1.49442"/>
<path transform="matrix(1.00002,0,0,-1.00003,192.43749,195.40947)" stroke-width=".3985" stroke-linecap="butt" stroke-miterlimit="10" stroke-linejoin="miter" fill="none" stroke="#000000" d="M-8.50412-10.63004V-6.37819"/>
<path transform="matrix(1.00002,0,0,-1.00003,192.43749,195.40947)" stroke-width=".3985" stroke-linecap="butt" stroke-miterlimit="10" stroke-linejoin="miter" fill="none" stroke="#000000" d="M0-1.49442V1.49442"/>
<path transform="matrix(1.00002,0,0,-1.00003,192.43749,195.40947)" stroke-width=".3985" stroke-linecap="butt" stroke-miterlimit="10" stroke-linejoin="miter" fill="none" stroke="#000000" d="M-1.49442 0H1.49442"/>
<path transform="matrix(1.00002,0,0,-1.00003,192.43749,195.40947)" stroke-width=".3985" stroke-linecap="butt" stroke-miterlimit="10" stroke-linejoin="miter" fill="none" stroke="#000000" d="M0-2.12592V2.12592"/>
<path transform="matrix(1.00002,0,0,-1.00003,192.43749,195.40947)" stroke-width=".3985" stroke-linecap="butt" stroke-miterlimit="10" stroke-linejoin="miter" fill="none" stroke="#000000" d="M14.17339-1.49442V1.49442"/>
<path transform="matrix(1.00002,0,0,-1.00003,192.43749,195.40947)" stroke-width=".3985" stroke-linecap="butt" stroke-miterlimit="10" stroke-linejoin="miter" fill="none" stroke="#000000" d="M-1.49442 14.17339H1.49442"/>
<path transform="matrix(1.00002,0,0,-1.00003,192.43749,195.40947)" stroke-width=".3985" stroke-linecap="butt" stroke-miterlimit="10" stroke-linejoin="miter" fill="none" stroke="#000000" d="M8.50412 6.37819V10.63004"/>
<path transform="matrix(1.00002,0,0,-1.00003,192.43749,195.40947)" stroke-width=".3985" stroke-linecap="butt" stroke-miterlimit="10" stroke-linejoin="miter" fill="none" stroke="#000000" d="M28.34679-1.49442V1.49442"/>
<path transform="matrix(1.00002,0,0,-1.00003,192.43749,195.40947)" stroke-width=".3985" stroke-linecap="butt" stroke-miterlimit="10" stroke-linejoin="miter" fill="none" stroke="#000000" d="M-1.49442 28.34679H1.49442"/>
<path transform="matrix(1.00002,0,0,-1.00003,192.43749,195.40947)" stroke-width=".3985" stroke-linecap="butt" stroke-miterlimit="10" stroke-linejoin="miter" fill="none" stroke="#000000" d="M17.00824 14.88232V19.13416"/>
<path transform="matrix(1.00002,0,0,-1.00003,192.43749,195.40947)" stroke-width=".3985" stroke-linecap="butt" stroke-miterlimit="10" stroke-linejoin="miter" fill="none" stroke="#000000" d="M42.52019-1.49442V1.49442"/>
<path transform="matrix(1.00002,0,0,-1.00003,192.43749,195.40947)" stroke-width=".3985" stroke-linecap="butt" stroke-miterlimit="10" stroke-linejoin="miter" fill="none" stroke="#000000" d="M-1.49442 42.52019H1.49442"/>
<path transform="matrix(1.00002,0,0,-1.00003,192.43749,195.40947)" stroke-width=".3985" stroke-linecap="butt" stroke-miterlimit="10" stroke-linejoin="miter" fill="none" stroke="#000000" d="M25.51236 23.38644V27.63829"/>
<path transform="matrix(1.00002,0,0,-1.00003,192.43749,195.40947)" stroke-width=".3985" stroke-linecap="butt" stroke-miterlimit="10" stroke-linejoin="miter" fill="none" stroke="#000000" d="M56.69359-1.49442V1.49442"/>
<path transform="matrix(1.00002,0,0,-1.00003,192.43749,195.40947)" stroke-width=".3985" stroke-linecap="butt" stroke-miterlimit="10" stroke-linejoin="miter" fill="none" stroke="#000000" d="M-1.49442 56.69359H1.49442"/>
<path transform="matrix(1.00002,0,0,-1.00003,192.43749,195.40947)" stroke-width=".3985" stroke-linecap="butt" stroke-miterlimit="10" stroke-linejoin="miter" fill="none" stroke="#000000" d="M34.01648 31.89056V36.14241"/>
<path transform="matrix(1.00002,0,0,-1.00003,192.43749,195.40947)" stroke-width=".3985" stroke-linecap="butt" stroke-miterlimit="10" stroke-linejoin="miter" fill="none" stroke="#000000" d="M70.86697-1.49442V1.49442"/>
<path transform="matrix(1.00002,0,0,-1.00003,192.43749,195.40947)" stroke-width=".3985" stroke-linecap="butt" stroke-miterlimit="10" stroke-linejoin="miter" fill="none" stroke="#000000" d="M-1.49442 70.86697H1.49442"/>
<path transform="matrix(1.00002,0,0,-1.00003,192.43749,195.40947)" stroke-width=".3985" stroke-linecap="butt" stroke-miterlimit="10" stroke-linejoin="miter" fill="none" stroke="#000000" d="M42.52061 40.39468V44.64653"/>
<path transform="matrix(1.00002,0,0,-1.00003,192.43749,195.40947)" stroke-width=".3985" stroke-linecap="butt" stroke-miterlimit="10" stroke-linejoin="miter" fill="none" stroke="#000000" d="M85.04037-1.49442V1.49442"/>
<path transform="matrix(1.00002,0,0,-1.00003,192.43749,195.40947)" stroke-width=".3985" stroke-linecap="butt" stroke-miterlimit="10" stroke-linejoin="miter" fill="none" stroke="#000000" d="M-1.49442 85.04037H1.49442"/>
<path transform="matrix(1.00002,0,0,-1.00003,192.43749,195.40947)" stroke-width=".3985" stroke-linecap="butt" stroke-miterlimit="10" stroke-linejoin="miter" fill="none" stroke="#000000" d="M51.02473 48.89882V53.15065"/>
<path transform="matrix(1.00002,0,0,-1.00003,192.43749,195.40947)" stroke-width=".3985" stroke-linecap="butt" stroke-miterlimit="10" stroke-linejoin="miter" fill="none" stroke="#000000" d="M99.21378-1.49442V1.49442"/>
<path transform="matrix(1.00002,0,0,-1.00003,192.43749,195.40947)" stroke-width=".3985" stroke-linecap="butt" stroke-miterlimit="10" stroke-linejoin="miter" fill="none" stroke="#000000" d="M-1.49442 99.21378H1.49442"/>
<path transform="matrix(1.00002,0,0,-1.00003,192.43749,195.40947)" stroke-width=".3985" stroke-linecap="butt" stroke-miterlimit="10" stroke-linejoin="miter" fill="none" stroke="#000000" d="M59.52885 57.40294V61.65479"/>
<path transform="matrix(1.00002,0,0,-1.00003,192.43749,195.40947)" stroke-width=".3985" stroke-linecap="butt" stroke-miterlimit="10" stroke-linejoin="miter" fill="none" stroke="#000000" d="M113.38718-1.49442V1.49442"/>
<path transform="matrix(1.00002,0,0,-1.00003,192.43749,195.40947)" stroke-width=".3985" stroke-linecap="butt" stroke-miterlimit="10" stroke-linejoin="miter" fill="none" stroke="#000000" d="M-1.49442 113.38718H1.49442"/>
<path transform="matrix(1.00002,0,0,-1.00003,192.43749,195.40947)" stroke-width=".3985" stroke-linecap="butt" stroke-miterlimit="10" stroke-linejoin="miter" fill="none" stroke="#000000" d="M68.03297 65.90706V70.1589"/>
<path transform="matrix(1.00002,0,0,-1.00003,192.43749,195.40947)" stroke-width=".3985" stroke-linecap="butt" stroke-miterlimit="10" stroke-linejoin="miter" fill="none" stroke="#000000" d="M127.56056-1.49442V1.49442"/>
<path transform="matrix(1.00002,0,0,-1.00003,192.43749,195.40947)" stroke-width=".3985" stroke-linecap="butt" stroke-miterlimit="10" stroke-linejoin="miter" fill="none" stroke="#000000" d="M-1.49442 127.56056H1.49442"/>
<path transform="matrix(1.00002,0,0,-1.00003,192.43749,195.40947)" stroke-width=".3985" stroke-linecap="butt" stroke-miterlimit="10" stroke-linejoin="miter" fill="none" stroke="#000000" d="M76.53711 74.41118V78.66302"/>
<path transform="matrix(1.00002,0,0,-1.00003,192.43749,195.40947)" stroke-width=".3985" stroke-linecap="butt" stroke-miterlimit="10" stroke-linejoin="miter" fill="none" stroke="#000000" d="M141.73397-1.49442V1.49442"/>
<path transform="matrix(1.00002,0,0,-1.00003,192.43749,195.40947)" stroke-width=".3985" stroke-linecap="butt" stroke-miterlimit="10" stroke-linejoin="miter" fill="none" stroke="#000000" d="M-1.49442 141.73397H1.49442"/>
<path transform="matrix(1.00002,0,0,-1.00003,192.43749,195.40947)" stroke-width=".3985" stroke-linecap="butt" stroke-miterlimit="10" stroke-linejoin="miter" fill="none" stroke="#000000" d="M85.04123 82.91531V87.16714"/>
<path transform="matrix(1.00002,0,0,-1.00003,192.43749,195.40947)" stroke-width=".3985" stroke-linecap="butt" stroke-miterlimit="10" stroke-linejoin="miter" fill="none" stroke="#000000" d="M155.90737-1.49442V1.49442"/>
<path transform="matrix(1.00002,0,0,-1.00003,192.43749,195.40947)" stroke-width=".3985" stroke-linecap="butt" stroke-miterlimit="10" stroke-linejoin="miter" fill="none" stroke="#000000" d="M-1.49442 155.90737H1.49442"/>
<path transform="matrix(1.00002,0,0,-1.00003,192.43749,195.40947)" stroke-width=".3985" stroke-linecap="butt" stroke-miterlimit="10" stroke-linejoin="miter" fill="none" stroke="#000000" d="M93.54535 91.41943V95.67126"/>
<path transform="matrix(1.00002,0,0,-1.00003,192.43749,195.40947)" stroke-width=".3985" stroke-linecap="butt" stroke-miterlimit="10" stroke-linejoin="miter" fill="none" stroke="#000000" d="M170.08077-1.49442V1.49442"/>
<path transform="matrix(1.00002,0,0,-1.00003,192.43749,195.40947)" stroke-width=".3985" stroke-linecap="butt" stroke-miterlimit="10" stroke-linejoin="miter" fill="none" stroke="#000000" d="M-1.49442 170.08077H1.49442"/>
<path transform="matrix(1.00002,0,0,-1.00003,192.43749,195.40947)" stroke-width=".3985" stroke-linecap="butt" stroke-miterlimit="10" stroke-linejoin="miter" fill="none" stroke="#000000" d="M102.04947 99.92355V104.1754"/>
<path transform="matrix(1.00002,0,0,-1.00003,192.43749,195.40947)" stroke-width=".3985" stroke-linecap="butt" stroke-miterlimit="10" stroke-linejoin="miter" fill="none" stroke="#000000" d="M184.25415-1.49442V1.49442"/>
<path transform="matrix(1.00002,0,0,-1.00003,192.43749,195.40947)" stroke-width=".3985" stroke-linecap="butt" stroke-miterlimit="10" stroke-linejoin="miter" fill="none" stroke="#000000" d="M-1.49442 184.25415H1.49442"/>
<path transform="matrix(1.00002,0,0,-1.00003,192.43749,195.40947)" stroke-width=".3985" stroke-linecap="butt" stroke-miterlimit="10" stroke-linejoin="miter" fill="none" stroke="#000000" d="M110.5536 108.42767V112.67952"/>
<path transform="matrix(1.00002,0,0,-1.00003,192.43749,195.40947)" stroke-width=".3985" stroke-linecap="butt" stroke-dasharray="2.98883,2.98883" stroke-miterlimit="10" stroke-linejoin="miter" fill="none" stroke="#ff0000" d="M-42.52061-42.52061V99.21335L0 141.73397H70.86697L28.34636 99.21335V-42.52061Z"/>
<path transform="matrix(1.00002,0,0,-1.00003,192.43749,195.40947)" stroke-width=".3985" stroke-linecap="butt" stroke-dasharray="2.98883,2.98883" stroke-miterlimit="10" stroke-linejoin="miter" fill="none" stroke="#ff0000" d="M-42.52061 99.21335H28.34636"/>
<path transform="matrix(1.00002,0,0,-1.00003,192.43749,195.40947)" stroke-width=".3985" stroke-linecap="butt" stroke-dasharray="2.98883,2.98883" stroke-miterlimit="10" stroke-linejoin="miter" fill="none" stroke="#ff0000" d="M70.86697 141.73397V0L28.34636-42.52061"/>
<path transform="matrix(1.00002,0,0,-1.00003,192.43749,195.40947)" d="M30.45981 99.21335C30.45981 100.38057 29.51358 101.32678 28.34636 101.32678 27.17914 101.32678 26.23293 100.38057 26.23293 99.21335 26.23293 98.04613 27.17914 97.09991 28.34636 97.09991 29.51358 97.09991 30.45981 98.04613 30.45981 99.21335ZM28.34636 99.21335"/>
<use data-text="P" xlink:href="#font_1_1" transform="matrix(9.962799,0,0,-9.962899,226.61717,99.597599)"/>
<path transform="matrix(1.00002,0,0,-1.00003,192.43749,195.40947)" stroke-width=".3985" stroke-linecap="butt" stroke-dasharray="2.98883,2.98883" stroke-miterlimit="10" stroke-linejoin="miter" fill="none" stroke="#0000ff" d="M51.02473 51.02473V79.37152L0 28.34679H42.52019L93.54492 79.37152V51.02473Z"/>
<path transform="matrix(1.00002,0,0,-1.00003,192.43749,195.40947)" stroke-width=".3985" stroke-linecap="butt" stroke-dasharray="2.98883,2.98883" stroke-miterlimit="10" stroke-linejoin="miter" fill="none" stroke="#0000ff" d="M51.02473 79.37152H93.54492"/>
<path transform="matrix(1.00002,0,0,-1.00003,192.43749,195.40947)" stroke-width=".3985" stroke-linecap="butt" stroke-dasharray="2.98883,2.98883" stroke-miterlimit="10" stroke-linejoin="miter" fill="none" stroke="#0000ff" d="M42.52019 28.34679V0L93.54492 51.02473"/>
<path transform="matrix(1.00002,0,0,-1.00003,192.43749,195.40947)" d="M95.65837 79.37152C95.65837 80.53876 94.71214 81.48497 93.54492 81.48497 92.3777 81.48497 91.43149 80.53876 91.43149 79.37152 91.43149 78.2043 92.3777 77.25809 93.54492 77.25809 94.71214 77.25809 95.65837 78.2043 95.65837 79.37152ZM93.54492 79.37152"/>
<use data-text="Q" xlink:href="#font_1_2" transform="matrix(9.962799,0,0,-9.962899,291.81648,118.47116)"/>
<path transform="matrix(1.00002,0,0,-1.00003,192.43749,195.40947)" stroke-width=".3985" stroke-linecap="butt" stroke-dasharray="2.98883,2.98883" stroke-miterlimit="10" stroke-linejoin="miter" fill="none" stroke="#000000" d="M-25.51236-25.51236V-138.89954L0-113.38718H-70.86697L-96.37935-138.89954V-25.51236Z"/>
<path transform="matrix(1.00002,0,0,-1.00003,192.43749,195.40947)" stroke-width=".3985" stroke-linecap="butt" stroke-dasharray="2.98883,2.98883" stroke-miterlimit="10" stroke-linejoin="miter" fill="none" stroke="#000000" d="M-25.51236-138.89954H-96.37935"/>
<path transform="matrix(1.00002,0,0,-1.00003,192.43749,195.40947)" stroke-width=".3985" stroke-linecap="butt" stroke-dasharray="2.98883,2.98883" stroke-miterlimit="10" stroke-linejoin="miter" fill="none" stroke="#000000" d="M-70.86697-113.38718V0L-96.37935-25.51236"/>
<path transform="matrix(1.00002,0,0,-1.00003,192.43749,195.40947)" d="M-94.26591-138.89954C-94.26591-137.73232-95.21213-136.7861-96.37935-136.7861-97.54657-136.7861-98.49278-137.73232-98.49278-138.89954-98.49278-140.06676-97.54657-141.01299-96.37935-141.01299-95.21213-141.01299-94.26591-140.06676-94.26591-138.89954ZM-96.37935-138.89954"/>
<use data-text="R" xlink:href="#font_1_3" transform="matrix(9.962799,0,0,-9.962899,82.58229,337.71675)"/>
</svg>
