<?xml version="1.0" encoding="UTF-8"?>
<svg xmlns="http://www.w3.org/2000/svg" xmlns:xlink="http://www.w3.org/1999/xlink" width="93pt" height="94pt" viewBox="0 0 93 94" version="1.1">
<g id="surface1">
<path style="fill:none;stroke-width:0.3985;stroke-linecap:butt;stroke-linejoin:miter;stroke:rgb(0%,0%,0%);stroke-opacity:1;stroke-miterlimit:10;" d="M -44.958492 -0.00131528 L 44.95619 -0.00131528 " transform="matrix(1.00008,0,0,-1.00003,46.454276,47.154935)"/>
<path style="fill:none;stroke-width:0.3985;stroke-linecap:round;stroke-linejoin:round;stroke:rgb(0%,0%,0%);stroke-opacity:1;stroke-miterlimit:10;" d="M -2.072148 2.391869 C -1.693272 0.958318 -0.84959 0.278651 0.00190463 0.00131528 C -0.84959 -0.279926 -1.693272 -0.955687 -2.072148 -2.389238 " transform="matrix(-1.00008,0,0,1.00003,1.294874,47.154935)"/>
<path style="fill:none;stroke-width:0.3985;stroke-linecap:round;stroke-linejoin:round;stroke:rgb(0%,0%,0%);stroke-opacity:1;stroke-miterlimit:10;" d="M -2.070544 2.389238 C -1.695574 0.955687 -0.851892 0.279926 -0.000397181 -0.00131528 C -0.851892 -0.278651 -1.695574 -0.958318 -2.070544 -2.391869 " transform="matrix(1.00008,0,0,-1.00003,91.613678,47.154935)"/>
<path style="fill:none;stroke-width:0.3985;stroke-linecap:butt;stroke-linejoin:miter;stroke:rgb(0%,0%,0%);stroke-opacity:1;stroke-miterlimit:10;" d="M -0.00115091 -44.956998 L -0.00115091 44.958273 " transform="matrix(1.00008,0,0,-1.00003,46.454276,47.154935)"/>
<path style="fill:none;stroke-width:0.3985;stroke-linecap:round;stroke-linejoin:round;stroke:rgb(0%,0%,0%);stroke-opacity:1;stroke-miterlimit:10;" d="M -2.073736 2.389283 C -1.694841 0.955804 -0.851116 0.280077 0.000420634 -0.00115091 C -0.851116 -0.278472 -1.694841 -0.958106 -2.073736 -2.391585 " transform="matrix(0,1.00003,1.00008,0,46.454276,92.312079)"/>
<path style="fill:none;stroke-width:0.3985;stroke-linecap:round;stroke-linejoin:round;stroke:rgb(0%,0%,0%);stroke-opacity:1;stroke-miterlimit:10;" d="M -2.07246 2.391585 C -1.693565 0.958106 -0.849841 0.278472 0.00169621 0.00115091 C -0.849841 -0.280077 -1.693565 -0.955804 -2.07246 -2.389283 " transform="matrix(0,-1.00003,-1.00008,0,46.454276,1.99779)"/>
<path style="fill:none;stroke-width:1.99255;stroke-linecap:butt;stroke-linejoin:miter;stroke:rgb(0%,0%,100%);stroke-opacity:1;stroke-miterlimit:10;" d="M -0.00115091 -0.00131528 L 30.918251 30.915726 " transform="matrix(1.00008,0,0,-1.00003,46.454276,47.154935)"/>
<path style=" stroke:none;fill-rule:nonzero;fill:rgb(0%,0%,100%);fill-opacity:1;" d="M 80.472656 13.136719 L 73.035156 15.617188 L 77.375 16.238281 L 77.992188 20.578125 "/>
<path style="fill:none;stroke-width:1.99255;stroke-linecap:butt;stroke-linejoin:miter;stroke:rgb(0%,0%,0%);stroke-opacity:1;stroke-miterlimit:10;" d="M -0.00115091 -0.00131528 L 19.579314 -19.578853 " transform="matrix(1.00008,0,0,-1.00003,46.454276,47.154935)"/>
<path style=" stroke:none;fill-rule:nonzero;fill:rgb(0%,0%,0%);fill-opacity:1;" d="M 69.132812 69.832031 L 66.652344 62.394531 L 66.035156 66.734375 L 61.695312 67.351562 "/>
<path style="fill:none;stroke-width:1.99255;stroke-linecap:butt;stroke-linejoin:miter;stroke:rgb(100%,0%,0%);stroke-opacity:1;stroke-miterlimit:10;" d="M -0.00115091 -0.00131528 L -0.00115091 29.634514 " transform="matrix(1.00008,0,0,-1.00003,46.454276,47.154935)"/>
<path style=" stroke:none;fill-rule:nonzero;fill:rgb(100%,0%,0%);fill-opacity:1;" d="M 46.453125 13.136719 L 42.945312 20.152344 L 46.453125 17.519531 L 49.960938 20.152344 "/>
</g>
</svg>
