<?xml version="1.0" encoding="UTF-8"?>
<svg xmlns="http://www.w3.org/2000/svg" xmlns:xlink="http://www.w3.org/1999/xlink" width="162pt" height="162pt" viewBox="0 0 162 162" version="1.1">
<g id="surface1">
<path style="fill:none;stroke-width:0.3985;stroke-linecap:butt;stroke-linejoin:miter;stroke:rgb(79.998779%,79.998779%,79.998779%);stroke-opacity:1;stroke-miterlimit:10;" d="M -79.371912 -79.371937 L 79.371007 -79.371937 M -79.371912 -59.528584 L 79.371007 -59.528584 M -79.371912 -39.685231 L 79.371007 -39.685231 M -79.371912 -19.841878 L 79.371007 -19.841878 M -79.371912 0.00147558 L 79.371007 0.00147558 M -79.371912 19.840923 L 79.371007 19.840923 M -79.371912 39.684276 L 79.371007 39.684276 M -79.371912 59.527629 L 79.371007 59.527629 M -79.371912 79.36317 L 79.371007 79.36317 M -79.371912 -79.371937 L -79.371912 79.370982 M -59.528559 -79.371937 L -59.528559 79.370982 M -39.685206 -79.371937 L -39.685206 79.370982 M -19.841852 -79.371937 L -19.841852 79.370982 M 0.00150065 -79.371937 L 0.00150065 79.370982 M 19.840948 -79.371937 L 19.840948 79.370982 M 39.684301 -79.371937 L 39.684301 79.370982 M 59.527654 -79.371937 L 59.527654 79.370982 M 79.363195 -79.371937 L 79.363195 79.370982 " transform="matrix(1.00002,0,0,-1.00002,81.467249,80.966319)"/>
<path style="fill:none;stroke-width:0.3985;stroke-linecap:butt;stroke-linejoin:miter;stroke:rgb(0%,0%,0%);stroke-opacity:1;stroke-miterlimit:10;" d="M -78.973482 0.00147558 L 78.972577 0.00147558 " transform="matrix(1.00002,0,0,-1.00002,81.467249,80.966319)"/>
<path style="fill:none;stroke-width:0.3985;stroke-linecap:round;stroke-linejoin:round;stroke:rgb(0%,0%,0%);stroke-opacity:1;stroke-miterlimit:10;" d="M -2.07293 2.389102 C -1.694031 0.955537 -0.850298 0.279769 0.00124712 -0.00147558 C -0.850298 -0.278814 -1.694031 -0.954582 -2.07293 -2.392053 " transform="matrix(-1.00002,0,0,1.00002,2.294216,80.966319)"/>
<path style="fill:none;stroke-width:0.3985;stroke-linecap:round;stroke-linejoin:round;stroke:rgb(0%,0%,0%);stroke-opacity:1;stroke-miterlimit:10;" d="M -2.073835 2.392053 C -1.694936 0.954582 -0.851203 0.278814 0.000342244 0.00147558 C -0.851203 -0.279769 -1.694936 -0.955537 -2.073835 -2.389102 " transform="matrix(1.00002,0,0,-1.00002,160.640283,80.966319)"/>
<path style="fill:none;stroke-width:0.3985;stroke-linecap:butt;stroke-linejoin:miter;stroke:rgb(0%,0%,0%);stroke-opacity:1;stroke-miterlimit:10;" d="M 0.00150065 -78.973507 L 0.00150065 78.972552 " transform="matrix(1.00002,0,0,-1.00002,81.467249,80.966319)"/>
<path style="fill:none;stroke-width:0.3985;stroke-linecap:round;stroke-linejoin:round;stroke:rgb(0%,0%,0%);stroke-opacity:1;stroke-miterlimit:10;" d="M -2.072905 2.392078 C -1.694006 0.954607 -0.850273 0.278839 0.00127219 0.00150065 C -0.850273 -0.279744 -1.694006 -0.955511 -2.072905 -2.392983 " transform="matrix(0,1.00002,1.00002,0,81.467249,160.139353)"/>
<path style="fill:none;stroke-width:0.3985;stroke-linecap:round;stroke-linejoin:round;stroke:rgb(0%,0%,0%);stroke-opacity:1;stroke-miterlimit:10;" d="M -2.07386 2.392983 C -1.694961 0.955511 -0.851228 0.279744 0.000317175 -0.00150065 C -0.851228 -0.278839 -1.694961 -0.954607 -2.07386 -2.392078 " transform="matrix(0,-1.00002,-1.00002,0,81.467249,1.793286)"/>
<path style="fill-rule:nonzero;fill:rgb(0%,0%,100%);fill-opacity:0.3;stroke-width:0.3985;stroke-linecap:butt;stroke-linejoin:miter;stroke:rgb(0%,0%,100%);stroke-opacity:0.3;stroke-miterlimit:10;" d="M 0.00150065 0.00147558 L 79.371007 0.00147558 L 79.371007 79.370982 L 0.00150065 79.370982 Z M 0.00150065 0.00147558 " transform="matrix(1.00002,0,0,-1.00002,81.467249,80.966319)"/>
<path style="fill:none;stroke-width:1.99255;stroke-linecap:butt;stroke-linejoin:miter;stroke:rgb(100%,0%,0%);stroke-opacity:1;stroke-miterlimit:10;" d="M 0.00150065 0.00147558 L 35.76641 17.88393 " transform="matrix(1.00002,0,0,-1.00002,81.467249,80.966319)"/>
<path style=" stroke:none;fill-rule:nonzero;fill:rgb(100%,0%,0%);fill-opacity:1;" d="M 121.152344 61.125 L 113.3125 61.125 L 117.234375 63.082031 L 116.449219 67.398438 "/>
<path style="fill:none;stroke-width:1.99255;stroke-linecap:butt;stroke-linejoin:miter;stroke:rgb(0%,0%,100%);stroke-opacity:1;stroke-miterlimit:10;" d="M 0.00150065 0.00147558 L 18.458163 55.371462 " transform="matrix(1.00002,0,0,-1.00002,81.467249,80.966319)"/>
<path style=" stroke:none;fill-rule:nonzero;fill:rgb(0%,0%,100%);fill-opacity:1;" d="M 101.308594 21.4375 L 95.765625 26.980469 L 99.925781 25.59375 L 102.417969 29.199219 "/>
<path style="fill:none;stroke-width:1.99255;stroke-linecap:butt;stroke-linejoin:miter;stroke:rgb(0%,0%,0%);stroke-opacity:1;stroke-miterlimit:10;" d="M 0.00150065 0.00147558 L 56.8988 75.86324 " transform="matrix(1.00002,0,0,-1.00002,81.467249,80.966319)"/>
<path style=" stroke:none;fill-rule:nonzero;fill:rgb(0%,0%,0%);fill-opacity:1;" d="M 140.996094 1.59375 L 133.984375 5.101562 L 138.367188 5.101562 L 139.59375 9.308594 "/>
</g>
</svg>
