<?xml version="1.0" encoding="UTF-8"?>
<svg xmlns="http://www.w3.org/2000/svg" xmlns:xlink="http://www.w3.org/1999/xlink" width="106pt" height="151pt" viewBox="0 0 106 151" version="1.1">
<g id="surface1">
<path style="fill:none;stroke-width:0.3985;stroke-linecap:butt;stroke-linejoin:miter;stroke:rgb(79.998779%,79.998779%,79.998779%);stroke-opacity:1;stroke-miterlimit:10;" d="M 0.00116334 0.00153517 L 102.048883 0.00153517 M 0.00116334 11.336906 L 102.048883 11.336906 M 0.00116334 22.676183 L 102.048883 22.676183 M 0.00116334 34.015459 L 102.048883 34.015459 M 0.00116334 45.354736 L 102.048883 45.354736 M 0.00116334 56.694013 L 102.048883 56.694013 M 0.00116334 68.029384 L 102.048883 68.029384 M 0.00116334 79.368661 L 102.048883 79.368661 M 0.00116334 90.707937 L 102.048883 90.707937 M 0.00116334 102.047214 L 102.048883 102.047214 M 0.00116334 113.386491 L 102.048883 113.386491 M 0.00116334 124.725768 L 102.048883 124.725768 M 0.00116334 136.061138 L 102.048883 136.061138 M 0.00116334 147.396509 L 102.048883 147.396509 M 0.00116334 0.00153517 L 0.00116334 147.400415 M 11.336761 0.00153517 L 11.336761 147.400415 M 22.676264 0.00153517 L 22.676264 147.400415 M 34.015768 0.00153517 L 34.015768 147.400415 M 45.355271 0.00153517 L 45.355271 147.400415 M 56.690869 0.00153517 L 56.690869 147.400415 M 68.030372 0.00153517 L 68.030372 147.400415 M 79.369876 0.00153517 L 79.369876 147.400415 M 90.70938 0.00153517 L 90.70938 147.400415 M 102.041071 0.00153517 L 102.041071 147.400415 " transform="matrix(1.00003,0,0,-1.00005,2.096493,149.20466)"/>
<path style="fill-rule:nonzero;fill:rgb(100%,100%,100%);fill-opacity:1;stroke-width:0.3985;stroke-linecap:butt;stroke-linejoin:miter;stroke:rgb(100%,100%,100%);stroke-opacity:1;stroke-miterlimit:10;" d="M 11.336761 11.336906 L 26.758173 68.029384 L 75.287967 68.029384 L 90.70938 11.336906 L 79.369876 11.336906 L 67.010872 56.694013 L 35.035269 56.694013 L 22.676264 11.336906 Z M 11.336761 11.336906 " transform="matrix(1.00003,0,0,-1.00005,2.096493,149.20466)"/>
<path style="fill-rule:nonzero;fill:rgb(100%,100%,100%);fill-opacity:1;stroke-width:0.3985;stroke-linecap:butt;stroke-linejoin:miter;stroke:rgb(100%,100%,100%);stroke-opacity:1;stroke-miterlimit:10;" d="M 26.758173 68.029384 L 45.355271 136.061138 L 56.690869 136.061138 L 75.287967 68.029384 L 63.948464 68.029384 L 51.02307 115.312176 L 38.097677 68.029384 Z M 26.758173 68.029384 " transform="matrix(1.00003,0,0,-1.00005,2.096493,149.20466)"/>
<path style="fill:none;stroke-width:1.99255;stroke-linecap:butt;stroke-linejoin:miter;stroke:rgb(0%,0%,100%);stroke-opacity:1;stroke-miterlimit:10;" d="M 11.336761 11.336906 L 45.355271 136.061138 " transform="matrix(1.00003,0,0,-1.00005,2.096493,149.20466)"/>
<path style="fill:none;stroke-width:1.99255;stroke-linecap:butt;stroke-linejoin:miter;stroke:rgb(0%,0%,100%);stroke-opacity:1;stroke-miterlimit:10;" d="M 56.690869 136.061138 L 45.355271 136.061138 " transform="matrix(1.00003,0,0,-1.00005,2.096493,149.20466)"/>
<path style="fill:none;stroke-width:1.99255;stroke-linecap:butt;stroke-linejoin:miter;stroke:rgb(0%,0%,100%);stroke-opacity:1;stroke-miterlimit:10;" d="M 56.690869 136.061138 L 90.70938 11.336906 " transform="matrix(1.00003,0,0,-1.00005,2.096493,149.20466)"/>
<path style="fill:none;stroke-width:1.99255;stroke-linecap:butt;stroke-linejoin:miter;stroke:rgb(0%,0%,100%);stroke-opacity:1;stroke-miterlimit:10;" d="M 90.70938 11.336906 L 79.369876 11.336906 " transform="matrix(1.00003,0,0,-1.00005,2.096493,149.20466)"/>
<path style="fill:none;stroke-width:1.99255;stroke-linecap:butt;stroke-linejoin:miter;stroke:rgb(0%,0%,100%);stroke-opacity:1;stroke-miterlimit:10;" d="M 79.369876 11.336906 L 67.010872 56.694013 " transform="matrix(1.00003,0,0,-1.00005,2.096493,149.20466)"/>
<path style="fill:none;stroke-width:1.99255;stroke-linecap:butt;stroke-linejoin:miter;stroke:rgb(0%,0%,100%);stroke-opacity:1;stroke-miterlimit:10;" d="M 67.010872 56.694013 L 35.035269 56.694013 " transform="matrix(1.00003,0,0,-1.00005,2.096493,149.20466)"/>
<path style="fill:none;stroke-width:1.99255;stroke-linecap:butt;stroke-linejoin:miter;stroke:rgb(0%,0%,100%);stroke-opacity:1;stroke-miterlimit:10;" d="M 35.035269 56.694013 L 22.676264 11.336906 " transform="matrix(1.00003,0,0,-1.00005,2.096493,149.20466)"/>
<path style="fill:none;stroke-width:1.99255;stroke-linecap:butt;stroke-linejoin:miter;stroke:rgb(0%,0%,100%);stroke-opacity:1;stroke-miterlimit:10;" d="M 11.336761 11.336906 L 22.676264 11.336906 " transform="matrix(1.00003,0,0,-1.00005,2.096493,149.20466)"/>
<path style="fill:none;stroke-width:1.99255;stroke-linecap:butt;stroke-linejoin:miter;stroke:rgb(0%,0%,100%);stroke-opacity:1;stroke-miterlimit:10;" d="M 51.02307 115.312176 L 38.097677 68.029384 " transform="matrix(1.00003,0,0,-1.00005,2.096493,149.20466)"/>
<path style="fill:none;stroke-width:1.99255;stroke-linecap:butt;stroke-linejoin:miter;stroke:rgb(0%,0%,100%);stroke-opacity:1;stroke-miterlimit:10;" d="M 51.02307 115.312176 L 63.948464 68.029384 " transform="matrix(1.00003,0,0,-1.00005,2.096493,149.20466)"/>
<path style="fill:none;stroke-width:1.99255;stroke-linecap:butt;stroke-linejoin:miter;stroke:rgb(0%,0%,100%);stroke-opacity:1;stroke-miterlimit:10;" d="M 38.097677 68.029384 L 63.948464 68.029384 " transform="matrix(1.00003,0,0,-1.00005,2.096493,149.20466)"/>
<path style=" stroke:none;fill-rule:nonzero;fill:rgb(0%,0%,0%);fill-opacity:1;" d="M 15.703125 137.867188 C 15.703125 136.613281 14.6875 135.597656 13.433594 135.597656 C 12.183594 135.597656 11.167969 136.613281 11.167969 137.867188 C 11.167969 139.117188 12.183594 140.132812 13.433594 140.132812 C 14.6875 140.132812 15.703125 139.117188 15.703125 137.867188 Z M 15.703125 137.867188 "/>
<path style=" stroke:none;fill-rule:nonzero;fill:rgb(0%,0%,0%);fill-opacity:1;" d="M 49.71875 13.136719 C 49.71875 11.882812 48.703125 10.867188 47.453125 10.867188 C 46.199219 10.867188 45.183594 11.882812 45.183594 13.136719 C 45.183594 14.386719 46.199219 15.402344 47.453125 15.402344 C 48.703125 15.402344 49.71875 14.386719 49.71875 13.136719 Z M 49.71875 13.136719 "/>
<path style=" stroke:none;fill-rule:nonzero;fill:rgb(0%,0%,0%);fill-opacity:1;" d="M 61.058594 13.136719 C 61.058594 11.882812 60.042969 10.867188 58.789062 10.867188 C 57.539062 10.867188 56.523438 11.882812 56.523438 13.136719 C 56.523438 14.386719 57.539062 15.402344 58.789062 15.402344 C 60.042969 15.402344 61.058594 14.386719 61.058594 13.136719 Z M 61.058594 13.136719 "/>
<path style=" stroke:none;fill-rule:nonzero;fill:rgb(0%,0%,0%);fill-opacity:1;" d="M 95.074219 137.867188 C 95.074219 136.613281 94.058594 135.597656 92.808594 135.597656 C 91.554688 135.597656 90.539062 136.613281 90.539062 137.867188 C 90.539062 139.117188 91.554688 140.132812 92.808594 140.132812 C 94.058594 140.132812 95.074219 139.117188 95.074219 137.867188 Z M 95.074219 137.867188 "/>
<path style=" stroke:none;fill-rule:nonzero;fill:rgb(0%,0%,0%);fill-opacity:1;" d="M 83.738281 137.867188 C 83.738281 136.613281 82.722656 135.597656 81.46875 135.597656 C 80.214844 135.597656 79.199219 136.613281 79.199219 137.867188 C 79.199219 139.117188 80.214844 140.132812 81.46875 140.132812 C 82.722656 140.132812 83.738281 139.117188 83.738281 137.867188 Z M 83.738281 137.867188 "/>
<path style=" stroke:none;fill-rule:nonzero;fill:rgb(0%,0%,0%);fill-opacity:1;" d="M 71.378906 92.507812 C 71.378906 91.257812 70.363281 90.242188 69.109375 90.242188 C 67.855469 90.242188 66.839844 91.257812 66.839844 92.507812 C 66.839844 93.761719 67.855469 94.777344 69.109375 94.777344 C 70.363281 94.777344 71.378906 93.761719 71.378906 92.507812 Z M 71.378906 92.507812 "/>
<path style=" stroke:none;fill-rule:nonzero;fill:rgb(0%,0%,0%);fill-opacity:1;" d="M 39.402344 92.507812 C 39.402344 91.257812 38.386719 90.242188 37.132812 90.242188 C 35.882812 90.242188 34.867188 91.257812 34.867188 92.507812 C 34.867188 93.761719 35.882812 94.777344 37.132812 94.777344 C 38.386719 94.777344 39.402344 93.761719 39.402344 92.507812 Z M 39.402344 92.507812 "/>
<path style=" stroke:none;fill-rule:nonzero;fill:rgb(0%,0%,0%);fill-opacity:1;" d="M 27.042969 137.867188 C 27.042969 136.613281 26.027344 135.597656 24.773438 135.597656 C 23.523438 135.597656 22.507812 136.613281 22.507812 137.867188 C 22.507812 139.117188 23.523438 140.132812 24.773438 140.132812 C 26.027344 140.132812 27.042969 139.117188 27.042969 137.867188 Z M 27.042969 137.867188 "/>
<path style=" stroke:none;fill-rule:nonzero;fill:rgb(0%,0%,0%);fill-opacity:1;" d="M 55.390625 33.886719 C 55.390625 32.632812 54.375 31.617188 53.121094 31.617188 C 51.867188 31.617188 50.855469 32.632812 50.855469 33.886719 C 50.855469 35.136719 51.867188 36.152344 53.121094 36.152344 C 54.375 36.152344 55.390625 35.136719 55.390625 33.886719 Z M 55.390625 33.886719 "/>
<path style=" stroke:none;fill-rule:nonzero;fill:rgb(0%,0%,0%);fill-opacity:1;" d="M 42.464844 81.171875 C 42.464844 79.917969 41.449219 78.902344 40.195312 78.902344 C 38.941406 78.902344 37.925781 79.917969 37.925781 81.171875 C 37.925781 82.421875 38.941406 83.4375 40.195312 83.4375 C 41.449219 83.4375 42.464844 82.421875 42.464844 81.171875 Z M 42.464844 81.171875 "/>
<path style=" stroke:none;fill-rule:nonzero;fill:rgb(0%,0%,0%);fill-opacity:1;" d="M 68.316406 81.171875 C 68.316406 79.917969 67.300781 78.902344 66.046875 78.902344 C 64.796875 78.902344 63.78125 79.917969 63.78125 81.171875 C 63.78125 82.421875 64.796875 83.4375 66.046875 83.4375 C 67.300781 83.4375 68.316406 82.421875 68.316406 81.171875 Z M 68.316406 81.171875 "/>
</g>
</svg>
