<svg xmlns="http://www.w3.org/2000/svg" xmlns:xlink="http://www.w3.org/1999/xlink" xmlns:inkscape="http://www.inkscape.org/namespaces/inkscape" version="1.1" width="258" height="128" viewBox="0 0 258 128">
<defs>
<path id="font_1_46" d="M.70700076 .33580018C.70700076 .52568057 .57199099 .6826172 .40098573 .6826172H.034988405V.6516113H.05899048C.13598633 .6516113 .13798523 .64060977 .13798523 .6046295V.07795715C.13798523 .041992189 .13598633 .0309906 .05899048 .0309906H.034988405V0H.40098573C.56900027 0 .70700076 .1479187 .70700076 .33580018M.6069946 .33580018C.6069946 .22486878 .58799746 .16490174 .5519867 .11593628 .5319977 .08895874 .47499085 .0309906 .37399293 .0309906H.272995C.22599793 .0309906 .22399903 .037994386 .22399903 .07096863V.6116333C.22399903 .64460757 .22599793 .6516113 .272995 .6516113H.37298585C.43499757 .6516113 .5039978 .6296234 .5549927 .55867007 .59799197 .49969483 .6069946 .41375733 .6069946 .33580018Z"/>
<path id="font_1_81" d="M.47099305 .21424866C.47099305 .34223939 .37098695 .4482422 .25 .4482422 .125 .4482422 .027999878 .3392334 .027999878 .21424866 .027999878 .085250858 .13198853-.0107421879 .24899292-.0107421879 .36999513-.0107421879 .47099305 .087249759 .47099305 .21424866M.3880005 .22224427C.3880005 .18624878 .3880005 .13224793 .3659973 .08824158 .34399415 .04324341 .2999878 .014251709 .25 .014251709 .20698548 .014251709 .16299439 .035247804 .13598633 .08125305 .11099243 .12524414 .11099243 .18624878 .11099243 .22224427 .11099243 .26124574 .11099243 .31523133 .1349945 .35923768 .1619873 .40522767 .20899964 .426239 .24899292 .426239 .29299928 .426239 .33599855 .40423585 .3619995 .36123658 .3880005 .3182373 .3880005 .26023866 .3880005 .22224427Z"/>
<path id="font_1_75" d="M.8129883 0V.0309906C.7609863 .0309906 .73599246 .0309906 .7350006 .061019899V.25221253C.7350006 .3383026 .7350006 .36932374 .70399478 .405365 .6899872 .42237855 .6569977 .4423828 .598999 .4423828 .5149994 .4423828 .47099305 .38233949 .45399476 .34429933 .43998719 .43138124 .3659973 .4423828 .32099916 .4423828 .24798584 .4423828 .20098877 .39935304 .17298889 .33729554V.4423828L.03199768 .43066407V.3996582C.101989749 .3996582 .10998535 .39266969 .10998535 .34370423V.07595825C.10998535 .0309906 .09899902 .0309906 .03199768 .0309906V0L.14498902 .0029907227 .25698854 0V.0309906C.18998719 .0309906 .1789856 .0309906 .1789856 .07595825V.25978089C.1789856 .36431886 .25 .42037965 .31399537 .42037965 .3769989 .42037965 .3880005 .36631776 .3880005 .30926515V.076034549C.3880005 .0309906 .3769989 .0309906 .30999757 .0309906V0L.4229889 .0029907227 .5349884 0V.0309906C.46798707 .0309906 .45700074 .0309906 .45700074 .076034549V.2602234C.45700074 .36431886 .5279999 .42037965 .59199526 .42037965 .6549988 .42037965 .66600039 .36631776 .66600039 .30926515V.076034549C.66600039 .0309906 .6549988 .0309906 .58799746 .0309906V0L.70098879 .0029907227 .8129883 0Z"/>
<path id="font_1_28" d="M.48298646 .08912659V.14511109H.45799256V.08912659C.45799256 .03112793 .43299867 .025131226 .42199708 .025131226 .3889923 .025131226 .3849945 .070129398 .3849945 .07511902V.27508546C.3849945 .31707765 .3849945 .3560791 .34899903 .39312745 .30999757 .43223573 .2599945 .4482422 .21199036 .4482422 .12998963 .4482422 .06098938 .40115357 .06098938 .335083 .06098938 .30508424 .08099365 .28808595 .10699463 .28808595 .1349945 .28808595 .15299988 .30807496 .15299988 .33407594 .15299988 .3460846 .147995 .37908937 .101989749 .38008119 .1289978 .41519166 .17799378 .426239 .20999146 .426239 .25898744 .426239 .31599427 .38710023 .31599427 .29808045V.26107789C.2649994 .25808717 .19499207 .25508119 .13198853 .22509766 .056991579 .19110108 .03199768 .13911438 .03199768 .09512329 .03199768 .014251709 .1289978-.0107421879 .19198609-.0107421879 .2579956-.0107421879 .3039856 .029251099 .32299806 .07624817 .32699586 .036132814 .35398866-.005859375 .40098573-.005859375 .42199708-.005859375 .48298646 .008132935 .48298646 .08912659M.31599427 .14013672C.31599427 .04525757 .24398804 .011245728 .19898987 .011245728 .1499939 .011245728 .10899353 .04624939 .10899353 .09625244 .10899353 .15124512 .15098572 .23425293 .31599427 .24024964V.14013672Z"/>
<path id="font_1_66" d="M.24699402 0V.0309906C.18099976 .0309906 .1769867 .035995485 .1769867 .075042728V.4423828L.036987306 .43066407V.3996582C.101989749 .3996582 .11099243 .3936615 .11099243 .3447113V.07595825C.11099243 .0309906 .099990848 .0309906 .032989503 .0309906V0L.14299011 .0029907227C.17799378 .0029907227 .21299744 .0009918213 .24699402 0M.19198609 .603775C.19198609 .6307678 .16899109 .6567688 .13899231 .6567688 .10499573 .6567688 .084991458 .6287689 .084991458 .603775 .084991458 .57676699 .10798645 .55078127 .13798523 .55078127 .17199707 .55078127 .19198609 .5787811 .19198609 .603775Z"/>
<path id="font_1_77" d="M.5349884 0V.0309906C.48298646 .0309906 .45799256 .0309906 .45700074 .061019899V.25221253C.45700074 .3383026 .45700074 .36932374 .42599488 .405365 .4119873 .42237855 .3789978 .4423828 .32099916 .4423828 .24798584 .4423828 .20098877 .39935304 .17298889 .33729554V.4423828L.03199768 .43066407V.3996582C.101989749 .3996582 .10998535 .39266969 .10998535 .34370423V.07595825C.10998535 .0309906 .09899902 .0309906 .03199768 .0309906V0L.14498902 .0029907227 .25698854 0V.0309906C.18998719 .0309906 .1789856 .0309906 .1789856 .07595825V.25978089C.1789856 .36431886 .25 .42037965 .31399537 .42037965 .3769989 .42037965 .3880005 .36631776 .3880005 .30926515V.076034549C.3880005 .0309906 .3769989 .0309906 .30999757 .0309906V0L.4229889 .0029907227 .5349884 0Z"/>
<path id="font_1_55" d="M.35699464 .63479617C.35699464 .6717987 .31999208 .7050781 .2669983 .7050781 .19699097 .7050781 .11199951 .65179446 .11199951 .5457611V.43066407H.032989503V.3996582H.11199951V.07595825C.11199951 .0309906 .100997928 .0309906 .033996583 .0309906V0L.147995 .0029907227C.18798828 .0029907227 .23498535 .0029907227 .2749939 0V.0309906H.2539978C.17999268 .0309906 .17799378 .04197693 .17799378 .07795715V.3996582H.2919922V.43066407H.1749878V.5467529C.1749878 .63479617 .22299195 .68307498 .2669983 .68307498 .269989 .68307498 .2849884 .68307498 .2999878 .675827 .28799439 .6717987 .269989 .6587982 .269989 .6338043 .269989 .61079409 .28599549 .5907898 .31298829 .5907898 .34199525 .5907898 .35699464 .61079409 .35699464 .63479617Z"/>
<path id="font_2_1" d="M.4269867 .6066284C.43399049 .63461306 .43798829 .64060977 .44999696 .6436157 .45899964 .6456146 .49198915 .6456146 .5130005 .6456146 .6139984 .6456146 .6589966 .6416168 .6589966 .56365969 .6589966 .54867556 .6549988 .50968936 .651001 .4837036 .6499939 .4797058 .647995 .4677124 .647995 .46472169 .647995 .45872499 .651001 .45173646 .6599884 .45173646 .67099 .45173646 .6729889 .45973207 .6749878 .4747162L.70199587 .64860537C.7029877 .65260317 .70399478 .6626129 .70399478 .66560366 .70399478 .6766052 .69400027 .6766052 .6769867 .6766052H.12199402C.09799194 .6766052 .09700012 .6756134 .08999634 .6566162L.02999878 .4807129C.0289917 .478714 .023986817 .46472169 .023986817 .46272279 .023986817 .45672608 .0289917 .45173646 .035995485 .45173646 .04598999 .45173646 .04699707 .45672608 .052993776 .4727173 .10699463 .6276245 .1329956 .6456146 .2809906 .6456146H.31999208C.34799195 .6456146 .34799195 .6416168 .34799195 .6336212 .34799195 .6276245 .34498597 .6156311 .34399415 .6126251L.20999146 .07896423C.20098877 .041992189 .19799805 .0309906 .09098816 .0309906 .054992677 .0309906 .04899597 .0309906 .04899597 .011993408 .04899597 0 .05999756 0 .06599426 0 .09298706 0 .12098694 .0019989014 .147995 .0019989014 .17599488 .0019989014 .20498657 .0029907227 .23298645 .0029907227 .26098634 .0029907227 .2889862 .0019989014 .31599427 .0019989014 .34498597 .0019989014 .375 0 .40299989 0 .41299439 0 .4249878 0 .4249878 .019989014 .4249878 .0309906 .4169922 .0309906 .3909912 .0309906 .3659973 .0309906 .35299684 .0309906 .32699586 .032989503 .2979889 .035995485 .2899933 .038986207 .2899933 .054977418 .2899933 .05596924 .2899933 .06097412 .2939911 .07595825L.4269867 .6066284Z"/>
<path id="font_1_42" d="M.6649933 .23271179C.6649933 .24272156 .6649933 .24972534 .6519928 .24972534 .6409912 .24972534 .6409912 .24372864 .6399994 .23371887 .6319885 .09059143 .5249939 .008529663 .41600038 .008529663 .35499574 .008529663 .15899658 .042556764 .15899658 .34080506 .15899658 .64004519 .35398866 .67407229 .4149933 .67407229 .5239868 .67407229 .61299136 .58299258 .6329956 .4368744 .6349945 .42286683 .6349945 .41986085 .6489868 .41986085 .6649933 .41986085 .6649933 .42286683 .6649933 .44387818V.68107607C.6649933 .69807437 .6649933 .7050781 .6539917 .7050781 .6499939 .7050781 .6459961 .7050781 .6380005 .69306948L.58799746 .61901858C.5509949 .6550598 .5 .7050781 .4039917 .7050781 .21699524 .7050781 .055999757 .5459595 .055999757 .34179688 .055999757 .1346283 .21798706-.022460938 .4039917-.022460938 .5669861-.022460938 .6649933 .116622928 .6649933 .23271179Z"/>
<path id="font_1_47" d="M.5269928 0V.0309906C.45700074 .0309906 .44898988 .038009645 .44898988 .0871582V.69433596L.30499269 .6826172V.6516113C.375 .6516113 .3829956 .64463809 .3829956 .59580996V.38035584C.35398866 .41636659 .31098939 .4423828 .25698854 .4423828 .13899231 .4423828 .033996583 .3443451 .033996583 .21531677 .033996583 .088272098 .13198853-.0107421879 .24598694-.0107421879 .30999757-.0107421879 .35499574 .023254395 .37998963 .055267335V-.0107421879L.5269928 0M.37998963 .117996219C.37998963 .099990848 .37998963 .09799194 .36898805 .08099365 .33898927 .033218385 .2939911 .011245728 .25099183 .011245728 .20599365 .011245728 .16999817 .037216188 .1459961 .075164798 .11999512 .1161499 .116989139 .17320252 .116989139 .21421814 .116989139 .25125123 .11898804 .31129457 .147995 .35632325 .16899109 .38734437 .20698548 .42037965 .26098634 .42037965 .29599 .42037965 .33799745 .405365 .36898805 .3603363 .37998963 .34332276 .37998963 .34132386 .37998963 .32330323V.117996219Z"/>
<path id="font_3_1" d="M.5059967 .37631227C.5119934 .39031983 .5159912 .3973236 .5799866 .3973236V.44433595C.5549927 .44232179 .526001 .44132997 .5009918 .44132997 .47599793 .44132997 .43099977 .44332887 .4099884 .44433595V.3973236C.42900086 .3973236 .45799256 .3943329 .45799256 .38632203 .45799256 .3853302 .45700074 .38331605 .45298768 .37431336L.33699037 .12416077 .20999146 .3973236H.2639923V.44433595C.23098755 .44232179 .14099121 .44132997 .13999939 .44132997 .11199951 .44132997 .066986087 .44332887 .025985718 .44433595V.3973236H.08999634L.2649994 .021087647C.2769928-.00390625 .2899933-.00390625 .30299378-.00390625 .31999208-.00390625 .32998658-.00091552737 .33999635 .020080567L.5059967 .37631227Z"/>
<path id="font_2_2" d="M.2869873 .68333438C.2869873 .6843262 .2869873 .69433596 .27398683 .69433596 .25099183 .69433596 .17799378 .6863251 .1519928 .6843262 .14399719 .68333438 .1329956 .6823273 .1329956 .6643219 .1329956 .6523285 .14199829 .6523285 .15699768 .6523285 .20498657 .6523285 .20698548 .6453247 .20698548 .6353302L.20399475 .6153412 .05899048 .039260866C.054992677 .025253296 .054992677 .023254395 .054992677 .01725769 .054992677-.0057525637 .07499695-.0107421879 .083999637-.0107421879 .09700012-.0107421879 .11199951-.0017547608 .117996219 .010253906 .12298584 .019256592 .16799927 .20431519 .17399597 .22932434 .20799256 .22631836 .2899933 .21031189 .2899933 .14428711 .2899933 .13729859 .2899933 .13328552 .2869873 .123291019 .2849884 .11128235 .2829895 .09927368 .2829895 .088272098 .2829895 .029251099 .32299806-.0107421879 .375-.0107421879 .40499879-.0107421879 .43199159 .0052490236 .45399476 .042266847 .47898866 .08627319 .48999024 .14129639 .48999024 .14329529 .48999024 .1532898 .48098756 .1532898 .47799684 .1532898 .46798707 .1532898 .46699525 .14929199 .46398927 .13528443 .44400025 .06227112 .42099 .011245728 .3769989 .011245728 .35798646 .011245728 .34498597 .022247315 .34498597 .058273317 .34498597 .07527161 .34899903 .09828186 .35299684 .11428833 .35699464 .13128662 .35699464 .13528443 .35699464 .14529419 .35699464 .21031189 .2939911 .23931885 .20899964 .2503357 .23999024 .26834107 .27198792 .30033876 .29499818 .32435609 .34298707 .37734986 .3889923 .42037965 .43798829 .42037965 .44400025 .42037965 .44499208 .42037965 .44699098 .41937257 .45899964 .41737367 .45999146 .41737367 .46798707 .4113617 .46998597 .4103546 .46998597 .40934754 .47200013 .40734864 .42399598 .4043579 .4149933 .36535646 .4149933 .35334779 .4149933 .33735658 .42599488 .31835938 .45298768 .31835938 .47898866 .31835938 .5079956 .3403473 .5079956 .37934876 .5079956 .40934754 .4850006 .4423828 .43998719 .4423828 .4119873 .4423828 .3659973 .43437196 .2939911 .35435487 .2599945 .3163452 .22099304 .27633668 .18299866 .26133729L.2869873 .68333438Z"/>
<path id="font_4_1" d="M.33099366-.2400055C.33099366-.23701477 .33099366-.23500061 .31399537-.21800232 .18899536-.0920105 .15699768 .09700012 .15699768 .25 .15699768 .42399598 .19499207 .59799197 .31799317 .72299197 .33099366 .73498538 .33099366 .7369995 .33099366 .73999026 .33099366 .746994 .32699586 .75 .32099916 .75 .31098939 .75 .22099304 .6819916 .1619873 .5549927 .11099243 .44499208 .09899902 .33399964 .09899902 .25 .09899902 .17199707 .10998535 .050994874 .16499329-.06201172 .22499085-.18501282 .31098939-.25 .32099916-.25 .32699586-.25 .33099366-.24700928 .33099366-.2400055Z"/>
<path id="font_4_2" d="M.2889862 .25C.2889862 .32798768 .27799989 .44898988 .22299195 .56199648 .16299439 .68499758 .07699585 .75 .066986087 .75 .06098938 .75 .056991579 .74598696 .056991579 .73999026 .056991579 .7369995 .056991579 .73498538 .07598877 .71699526 .17399597 .6179962 .23098755 .45899964 .23098755 .25 .23098755 .07899475 .19400025-.09700012 .069992069-.2230072 .056991579-.23500061 .056991579-.23701477 .056991579-.2400055 .056991579-.2460022 .06098938-.25 .066986087-.25 .07699585-.25 .16699219-.18200684 .22599793-.055007936 .2769928 .054992677 .2889862 .16600037 .2889862 .25Z"/>
<path id="font_4_3" d="M.68699648 .32714845C.70199587 .32714845 .72099307 .32714845 .72099307 .34713746 .72099307 .36714173 .70199587 .36714173 .6879883 .36714173H.08898926C.07499695 .36714173 .055999757 .36714173 .055999757 .34713746 .055999757 .32714845 .07499695 .32714845 .08999634 .32714845H.68699648M.6879883 .13284302C.70199587 .13284302 .72099307 .13284302 .72099307 .15284729 .72099307 .17285156 .70199587 .17285156 .68699648 .17285156H.08999634C.07499695 .17285156 .055999757 .17285156 .055999757 .15284729 .055999757 .13284302 .07499695 .13284302 .08898926 .13284302H.6879883Z"/>
</defs>
<path transform="matrix(1.0001,0,0,-1.00002,-26.452549,154.78086)" d="M28.3468 28.3468V141.73404H113.38724V28.3468ZM113.38724 141.73404" fill="#0000ff" fill-opacity=".3"/>
<path transform="matrix(1.0001,0,0,-1.00002,-26.452549,154.78086)" d="M198.42766 28.3468V141.73404H283.4681V28.3468ZM283.4681 141.73404" fill="#ff0000" fill-opacity=".2"/>
<use data-text="D" xlink:href="#font_1_46" transform="matrix(9.963596,0,0,-9.962799,16.391736,7.9969027)"/>
<use data-text="o" xlink:href="#font_1_81" transform="matrix(9.963596,0,0,-9.962799,24.003926,7.9969027)"/>
<use data-text="m" xlink:href="#font_1_75" transform="matrix(9.963596,0,0,-9.962799,28.985718,7.9969027)"/>
<use data-text="a" xlink:href="#font_1_28" transform="matrix(9.963596,0,0,-9.962799,37.285394,7.9969027)"/>
<use data-text="i" xlink:href="#font_1_66" transform="matrix(9.963596,0,0,-9.962799,42.26719,7.9969027)"/>
<use data-text="n" xlink:href="#font_1_77" transform="matrix(9.963596,0,0,-9.962799,45.03707,7.9969027)"/>
<use data-text="o" xlink:href="#font_1_81" transform="matrix(9.963596,0,0,-9.962799,53.894708,7.9969027)"/>
<use data-text="f" xlink:href="#font_1_55" transform="matrix(9.963596,0,0,-9.962799,58.876504,7.9969027)"/>
<use data-text="T" xlink:href="#font_2_1" transform="matrix(9.963596,0,0,-9.962799,65.24362,7.9969027)"/>
<use data-text="C" xlink:href="#font_1_42" transform="matrix(9.963596,0,0,-9.962799,181.29924,7.94191)"/>
<use data-text="o" xlink:href="#font_1_81" transform="matrix(9.963596,0,0,-9.962799,188.49295,7.94191)"/>
<use data-text="d" xlink:href="#font_1_47" transform="matrix(9.963596,0,0,-9.962799,193.75373,7.94191)"/>
<use data-text="o" xlink:href="#font_1_81" transform="matrix(9.963596,0,0,-9.962799,199.29349,7.94191)"/>
<use data-text="m" xlink:href="#font_1_75" transform="matrix(9.963596,0,0,-9.962799,204.2753,7.94191)"/>
<use data-text="a" xlink:href="#font_1_28" transform="matrix(9.963596,0,0,-9.962799,212.57497,7.94191)"/>
<use data-text="i" xlink:href="#font_1_66" transform="matrix(9.963596,0,0,-9.962799,217.55677,7.94191)"/>
<use data-text="n" xlink:href="#font_1_77" transform="matrix(9.963596,0,0,-9.962799,220.32665,7.94191)"/>
<use data-text="o" xlink:href="#font_1_81" transform="matrix(9.963596,0,0,-9.962799,229.18428,7.94191)"/>
<use data-text="f" xlink:href="#font_1_55" transform="matrix(9.963596,0,0,-9.962799,234.16608,7.94191)"/>
<use data-text="T" xlink:href="#font_2_1" transform="matrix(9.963596,0,0,-9.962799,240.53318,7.94191)"/>
<use data-text="v" xlink:href="#font_3_1" transform="matrix(9.963596,0,0,-9.962799,41.318227,29.431344)"/>
<use data-text="k" xlink:href="#font_2_2" transform="matrix(9.963596,0,0,-9.962799,38.56795,115.71907)"/>
<use data-text="v" xlink:href="#font_3_1" transform="matrix(9.963596,0,0,-9.962799,44.0685,115.71907)"/>
<use data-text="T" xlink:href="#font_2_1" transform="matrix(9.963596,0,0,-9.962799,218.11292,29.708352)"/>
<use data-text="(" xlink:href="#font_4_1" transform="matrix(9.963596,0,0,-9.962799,225.31964,29.708352)"/>
<use data-text="v" xlink:href="#font_3_1" transform="matrix(9.963596,0,0,-9.962799,229.19403,29.708352)"/>
<use data-text=")" xlink:href="#font_4_2" transform="matrix(9.963596,0,0,-9.962799,235.40065,29.708352)"/>
<use data-text="T" xlink:href="#font_2_1" transform="matrix(9.963596,0,0,-9.962799,181.21323,114.75005)"/>
<use data-text="(" xlink:href="#font_4_1" transform="matrix(9.963596,0,0,-9.962799,188.41996,114.75005)"/>
<use data-text="k" xlink:href="#font_2_2" transform="matrix(9.963596,0,0,-9.962799,192.29433,114.75005)"/>
<use data-text="v" xlink:href="#font_3_1" transform="matrix(9.963596,0,0,-9.962799,197.79488,114.75005)"/>
<use data-text=")" xlink:href="#font_4_2" transform="matrix(9.963596,0,0,-9.962799,204.0015,114.75005)"/>
<use data-text="=" xlink:href="#font_4_3" transform="matrix(9.963596,0,0,-9.962799,210.62729,114.75005)"/>
<use data-text="k" xlink:href="#font_2_2" transform="matrix(9.963596,0,0,-9.962799,221.16123,114.75005)"/>
<use data-text="T" xlink:href="#font_2_1" transform="matrix(9.963596,0,0,-9.962799,226.65116,114.75005)"/>
<use data-text="(" xlink:href="#font_4_1" transform="matrix(9.963596,0,0,-9.962799,233.8685,114.75005)"/>
<use data-text="v" xlink:href="#font_3_1" transform="matrix(9.963596,0,0,-9.962799,237.74289,114.75005)"/>
<use data-text=")" xlink:href="#font_4_2" transform="matrix(9.963596,0,0,-9.962799,243.9495,114.75005)"/>
<path transform="matrix(1.0001,0,0,-1.00002,-26.452549,154.78086)" stroke-width=".99628" stroke-linecap="butt" stroke-miterlimit="10" stroke-linejoin="miter" fill="none" stroke="#ff0000" d="M77.48979 127.56062H238.13199"/>
<path transform="matrix(1.0001,0,0,-1.00002,211.70326,27.217675)" d="M2.8892 0-1.73352 2.31136 0 0-1.73352-2.31136" fill="#ff0000"/>
<path transform="matrix(1.0001,0,0,-1.00002,-26.452549,154.78086)" stroke-width=".99628" stroke-linecap="butt" stroke-miterlimit="10" stroke-linejoin="miter" fill="none" stroke="#0000ff" d="M80.23994 42.5202H201.23624"/>
<path transform="matrix(1.0001,0,0,-1.00002,174.80382,112.2598)" d="M2.8892 0-1.73352 2.31136 0 0-1.73352-2.31136" fill="#0000ff"/>
<path transform="matrix(1.0001,0,0,-1.00002,-26.452549,154.78086)" stroke-width=".99628" stroke-linecap="butt" stroke-miterlimit="10" stroke-linejoin="miter" fill="none" stroke="#0000ff" d="M70.867 121.82687V52.38852"/>
<path transform="matrix(0,1.00002,1.0001,0,44.421537,102.39128)" d="M2.8892 0-1.73352 2.31136 0 0-1.73352-2.31136" fill="#0000ff"/>
<path transform="matrix(1.0001,0,0,-1.00002,-26.452549,154.78086)" stroke-width=".99628" stroke-linecap="butt" stroke-miterlimit="10" stroke-linejoin="miter" fill="none" stroke="#ff0000" d="M255.12128 119.05942V51.76408"/>
<path transform="matrix(0,1.00002,1.0001,0,228.69425,103.01573)" d="M2.8892 0-1.73352 2.31136 0 0-1.73352-2.31136" fill="#ff0000"/>
</svg>
