<svg xmlns="http://www.w3.org/2000/svg" xmlns:xlink="http://www.w3.org/1999/xlink" xmlns:inkscape="http://www.inkscape.org/namespaces/inkscape" version="1.1" width="240" height="230" viewBox="0 0 240 230">
<defs>
<path id="font_1_1" d="M.25-2.3587189H.5130005V-2.303711H.30499269V-.0146484379H.5130005V.04034424H.25V-2.3587189Z"/>
<path id="font_2_2" d="M.1269989 .07699585 .23298645 .18003845C.3889923 .31811524 .44898988 .3721466 .44898988 .47216798 .44898988 .5860901 .35899354 .6660156 .23699951 .6660156 .12399292 .6660156 .049987794 .57411196 .049987794 .48516847 .049987794 .4291687 .099990848 .4291687 .102996829 .4291687 .11999512 .4291687 .15499878 .44117738 .15499878 .48217774 .15499878 .5081787 .13699341 .5341797 .101989749 .5341797 .09399414 .5341797 .09199524 .5341797 .08898926 .5331726 .11199951 .59806826 .1659851 .63500979 .22399903 .63500979 .31498719 .63500979 .35798646 .5541382 .35798646 .47216798 .35798646 .39215089 .30799867 .31311036 .25299073 .25108338L.06098938 .036987306C.049987794 .025985718 .049987794 .023986817 .049987794 0H.42099L.44898988 .17404175H.42399598C.4189911 .14402771 .4119873 .1000061 .4019928 .084991458 .394989 .07699585 .32899476 .07699585 .30699159 .07699585H.1269989Z"/>
<path id="font_2_1" d="M.2939911 .64004519C.2939911 .66400149 .2939911 .6660156 .2709961 .6660156 .20899964 .60227969 .12098694 .60227969 .08898926 .60227969V.57128909C.10899353 .57128909 .16799927 .57128909 .21998596 .5972748V.07902527C.21998596 .042999269 .21699524 .0309906 .1269989 .0309906H.09498596V0C.12998963 .0029907227 .21699524 .0029907227 .25698854 .0029907227 .29699708 .0029907227 .38398744 .0029907227 .4189911 0V.0309906H.3869934C.29699708 .0309906 .2939911 .041992189 .2939911 .07902527V.64004519Z"/>
<path id="font_1_2" d="M.22200012-2.303711H.01399231V-2.3587189H.2769928V.04034424H.01399231V-.0146484379H.22200012V-2.303711Z"/>
<path id="font_3_1" d="M.37298585 .37835694C.35499574 .41537477 .32598878 .4423828 .2809906 .4423828 .1639862 .4423828 .039993287 .29533387 .039993287 .14929199 .039993287 .055267335 .09498596-.0107421879 .17298889-.0107421879 .19299317-.0107421879 .24299622-.0067443849 .30299378 .06427002 .31098939 .022247315 .34599305-.0107421879 .3939972-.0107421879 .42900086-.0107421879 .45199586 .012252808 .46798707 .044265748 .4850006 .08027649 .49798585 .14129639 .49798585 .14329529 .49798585 .1532898 .4889984 .1532898 .48599244 .1532898 .47599793 .1532898 .47499085 .14929199 .47200013 .13528443 .45498658 .07026672 .43699647 .011245728 .3959961 .011245728 .36898805 .011245728 .3659973 .037261964 .3659973 .057266237 .3659973 .07926941 .36799623 .08728027 .3789978 .13128662 .3899994 .17329407 .3919983 .18330384 .40098573 .22131348L.43699647 .36135865C.44400025 .38935853 .44400025 .39135743 .44400025 .39537049 .44400025 .41236878 .43199159 .42237855 .4149933 .42237855 .3909912 .42237855 .37599183 .4003601 .37298585 .37835694M.30799867 .119277957C.30299378 .10127258 .30299378 .09927368 .28799439 .08227539 .24398804 .027252198 .20298767 .011245728 .1749878 .011245728 .125 .011245728 .11099243 .06626892 .11099243 .105285648 .11099243 .1552887 .14299011 .27833558 .1659851 .32434083 .19699097 .38336183 .24198914 .42037965 .28199769 .42037965 .34700013 .42037965 .36099244 .3383484 .36099244 .33235169 .36099244 .32633973 .35899354 .32034303 .35798646 .31533814L.30799867 .119277957Z"/>
<path id="font_2_4" d="M.68699648 .32714845C.70199587 .32714845 .72099307 .32714845 .72099307 .34713746 .72099307 .36714173 .70199587 .36714173 .6879883 .36714173H.08898926C.07499695 .36714173 .055999757 .36714173 .055999757 .34713746 .055999757 .32714845 .07499695 .32714845 .08999634 .32714845H.68699648M.6879883 .13284302C.70199587 .13284302 .72099307 .13284302 .72099307 .15284729 .72099307 .17285156 .70199587 .17285156 .68699648 .17285156H.08999634C.07499695 .17285156 .055999757 .17285156 .055999757 .15284729 .055999757 .13284302 .07499695 .13284302 .08898926 .13284302H.6879883Z"/>
<path id="font_2_3" d="M.2899933 .35191346C.37199403 .37893678 .42999269 .4490509 .42999269 .52809146 .42999269 .6100464 .34199525 .6660156 .24598694 .6660156 .14498902 .6660156 .068984989 .60606387 .068984989 .53009036 .068984989 .49710084 .09098816 .47808839 .11999512 .47808839 .15098572 .47808839 .17098999 .50009158 .17098999 .5290985 .17098999 .57910159 .12399292 .57910159 .10899353 .57910159 .13999939 .62802127 .20599365 .64100649 .24198914 .64100649 .2829895 .64100649 .33799745 .6190338 .33799745 .5290985 .33799745 .51708987 .33599855 .45906068 .30999757 .4149933 .27999879 .36691285 .24598694 .36390687 .22099304 .36291505 .21299744 .36190797 .18899536 .35990907 .18199158 .35990907 .17399597 .35890199 .16699219 .35791017 .16699219 .3479004 .16699219 .33691407 .17399597 .33691407 .19099427 .33691407H.23498535C.31698609 .33691407 .35398866 .2686615 .35398866 .17037964 .35398866 .034469606 .2849884 .0055389406 .24099732 .0055389406 .19799805 .0055389406 .12298584 .022491456 .08799744 .08137512 .12298584 .07637024 .1539917 .09837341 .1539917 .1363678 .1539917 .17237854 .1269989 .19238281 .09799194 .19238281 .07398987 .19238281 .041992189 .17837525 .041992189 .1343689 .041992189 .043441774 .1349945-.022460938 .24398804-.022460938 .3659973-.022460938 .45700074 .06838989 .45700074 .17037964 .45700074 .252594 .3939972 .33088685 .2899933 .35191346Z"/>
</defs>
<path transform="matrix(1,0,0,-1.00002,114.481998,115.09001)" stroke-width=".3985" stroke-linecap="butt" stroke-miterlimit="10" stroke-linejoin="miter" fill="none" stroke="#000000" d="M-112.98872 0H112.98872"/>
<path transform="matrix(-1,-0,0,1.00002,1.2940216,115.09001)" stroke-width=".3985" stroke-linecap="round" stroke-linejoin="round" fill="none" stroke="#000000" d="M-2.07224 2.39104C-1.69365 .95639-.84999 .27895 0 0-.84999-.27895-1.69365-.95639-2.07224-2.39104"/>
<path transform="matrix(1,0,0,-1.00002,227.66997,115.09001)" stroke-width=".3985" stroke-linecap="round" stroke-linejoin="round" fill="none" stroke="#000000" d="M-2.07224 2.39104C-1.69365 .95639-.84999 .27895 0 0-.84999-.27895-1.69365-.95639-2.07224-2.39104"/>
<path transform="matrix(1,0,0,-1.00002,114.481998,115.09001)" stroke-width=".3985" stroke-linecap="butt" stroke-miterlimit="10" stroke-linejoin="miter" fill="none" stroke="#000000" d="M0-112.98872V112.98872"/>
<path transform="matrix(0,1.00002,1,0,114.481998,228.28025)" stroke-width=".3985" stroke-linecap="round" stroke-linejoin="round" fill="none" stroke="#000000" d="M-2.07224 2.39104C-1.69365 .95639-.84999 .27895 0 0-.84999-.27895-1.69365-.95639-2.07224-2.39104"/>
<path transform="matrix(0,-1.00002,-1,-0,114.481998,1.8997727)" stroke-width=".3985" stroke-linecap="round" stroke-linejoin="round" fill="none" stroke="#000000" d="M-2.07224 2.39104C-1.69365 .95639-.84999 .27895 0 0-.84999-.27895-1.69365-.95639-2.07224-2.39104"/>
<path transform="matrix(1,0,0,-1.00002,114.481998,115.09001)" stroke-width=".99628" stroke-linecap="butt" stroke-miterlimit="10" stroke-linejoin="miter" fill="none" stroke="#0000ff" d="M0 0 26.30382 26.30382"/>
<path transform="matrix(.7071,-.70711418,-.7071,-.70711418,140.78582,88.78567)" d="M2.8892 0-1.73352 2.31136 0 0-1.73352-2.31136" fill="#0000ff"/>
<path transform="matrix(1,0,0,-1.00002,114.481998,115.09001)" stroke-width=".99628" stroke-linecap="butt" stroke-miterlimit="10" stroke-linejoin="miter" fill="none" stroke="#0000ff" d="M0 0 54.65063 54.65063"/>
<path transform="matrix(.7071,-.70711418,-.7071,-.70711418,169.13263,60.438287)" d="M2.8892 0-1.73352 2.31136 0 0-1.73352-2.31136" fill="#0000ff"/>
<path transform="matrix(1,0,0,-1.00002,114.481998,115.09001)" stroke-width=".99628" stroke-linecap="butt" stroke-miterlimit="10" stroke-linejoin="miter" fill="none" stroke="#0000ff" d="M0 0 82.99744 82.99744"/>
<path transform="matrix(.7071,-.70711418,-.7071,-.70711418,197.47943,32.09091)" d="M2.8892 0-1.73352 2.31136 0 0-1.73352-2.31136" fill="#0000ff"/>
<path transform="matrix(1,0,0,-1.00002,114.481998,115.09001)" stroke-width=".99628" stroke-linecap="butt" stroke-miterlimit="10" stroke-linejoin="miter" fill="none" stroke="#0000ff" d="M0 0-26.30382-26.30382"/>
<path transform="matrix(-.7071,.70711418,.7071,.70711418,88.17818,141.39437)" d="M2.8892 0-1.73352 2.31136 0 0-1.73352-2.31136" fill="#0000ff"/>
<path transform="matrix(1,0,0,-1.00002,114.481998,115.09001)" stroke-width=".99628" stroke-linecap="butt" stroke-miterlimit="10" stroke-linejoin="miter" fill="none" stroke="#0000ff" d="M0 0-54.65063-54.65063"/>
<path transform="matrix(-.7071,.70711418,.7071,.70711418,59.831365,169.74173)" d="M2.8892 0-1.73352 2.31136 0 0-1.73352-2.31136" fill="#0000ff"/>
<path transform="matrix(1,0,0,-1.00002,114.481998,115.09001)" stroke-width=".99628" stroke-linecap="butt" stroke-miterlimit="10" stroke-linejoin="miter" fill="none" stroke="#0000ff" d="M0 0-82.99744-82.99744"/>
<path transform="matrix(-.7071,.70711418,.7071,.70711418,31.484559,198.08911)" d="M2.8892 0-1.73352 2.31136 0 0-1.73352-2.31136" fill="#0000ff"/>
<use data-text="[" xlink:href="#font_1_1" transform="matrix(9.9626,0,0,-9.962799,157.726,4.3167879)" fill="#0000ff"/>
<use data-text="2" xlink:href="#font_2_2" transform="matrix(9.9626,0,0,-9.962799,162.984,12.287949)" fill="#0000ff"/>
<use data-text="1" xlink:href="#font_2_1" transform="matrix(9.9626,0,0,-9.962799,177.91793,12.287949)" fill="#0000ff"/>
<use data-text="1" xlink:href="#font_2_1" transform="matrix(9.9626,0,0,-9.962799,162.984,24.243187)" fill="#0000ff"/>
<use data-text="2" xlink:href="#font_2_2" transform="matrix(9.9626,0,0,-9.962799,177.91793,24.243187)" fill="#0000ff"/>
<use data-text="]" xlink:href="#font_1_2" transform="matrix(9.9626,0,0,-9.962799,182.909,4.3167879)" fill="#0000ff"/>
<use data-text="[" xlink:href="#font_1_1" transform="matrix(9.9626,0,0,-9.962799,189.81308,4.3167879)" fill="#0000ff"/>
<use data-text="a" xlink:href="#font_3_1" transform="matrix(9.9626,0,0,-9.962799,195.086,12.287949)" fill="#0000ff"/>
<use data-text="a" xlink:href="#font_3_1" transform="matrix(9.9626,0,0,-9.962799,195.086,24.243187)" fill="#0000ff"/>
<use data-text="]" xlink:href="#font_1_2" transform="matrix(9.9626,0,0,-9.962799,200.352,4.3167879)" fill="#0000ff"/>
<use data-text="=" xlink:href="#font_2_4" transform="matrix(9.9626,0,0,-9.962799,208.377,18.365067)" fill="#0000ff"/>
<use data-text="3" xlink:href="#font_2_3" transform="matrix(9.9626,0,0,-9.962799,218.87758,18.365067)" fill="#0000ff"/>
<use data-text="[" xlink:href="#font_1_1" transform="matrix(9.9626,0,0,-9.962799,225.53499,4.31678)" fill="#0000ff"/>
<use data-text="a" xlink:href="#font_3_1" transform="matrix(9.9626,0,0,-9.962799,230.79299,12.287941)" fill="#0000ff"/>
<use data-text="a" xlink:href="#font_3_1" transform="matrix(9.9626,0,0,-9.962799,230.79299,24.24318)" fill="#0000ff"/>
<use data-text="]" xlink:href="#font_1_2" transform="matrix(9.9626,0,0,-9.962799,236.05898,4.31678)" fill="#0000ff"/>
</svg>
