<svg xmlns="http://www.w3.org/2000/svg" xmlns:xlink="http://www.w3.org/1999/xlink" xmlns:inkscape="http://www.inkscape.org/namespaces/inkscape" version="1.1" width="315" height="145" viewBox="0 0 315 145">
<defs>
<path id="font_1_1" d="M.26098634 .5926056C.26098634 .64157107 .2639923 .64956668 .31599427 .64956668 .32699586 .64956668 .34399415 .64956668 .34399415 .66656497 .34399415 .6845703 .32899476 .6845703 .31098939 .6845703H.04798889C.02999878 .6845703 .01399231 .6845703 .01399231 .66656497 .01399231 .64956668 .032989503 .64956668 .040985109 .64956668 .09799194 .64956668 .101989749 .64157107 .101989749 .5926056V.09194946C.101989749 .04498291 .09899902 .034988405 .04598999 .034988405 .0309906 .034988405 .01399231 .034988405 .01399231 .017990113 .01399231 0 .02999878 0 .04798889 0H.5779877C.5970001 0 .60598757 0 .6100006 .0129852299 .61099246 .015991211 .6389923 .20187378 .6389923 .20587158 .6389923 .21685791 .6299896 .2238617 .621994 .2238617 .6139984 .2238617 .60598757 .21786499 .60398867 .20986939 .59799197 .18089295 .58699038 .13192749 .5039978 .079956058 .43998719 .038986207 .3889923 .034988405 .35598756 .034988405H.3039856C.27999879 .034988405 .26098634 .034988405 .26098634 .10194397V.5926056M.13699341 .5946045C.13699341 .6065979 .13699341 .63157656 .1289978 .64956668H.23399353C.22599793 .63157656 .22599793 .6075897 .22599793 .5946045V.09994507C.22599793 .063964847 .23298645 .04399109 .23699951 .034988405H.1289978C.13699341 .052978517 .13699341 .07795715 .13699341 .08995056V.5946045M.5779877 .034988405H.5V.035995485C.54499819 .06097412 .57099917 .08595276 .58799746 .10295105L.5779877 .034988405Z"/>
<path id="font_1_2" d="M.2679901 .31362916H.3039856L.45399476 .08192444C.46398927 .06594849 .48799134 .026992798 .49899293 .011993408 .5059967 0 .5089874 0 .5319977 0H.66999819C.6879883 0 .7029877 0 .7029877 .017990113 .7029877 .025985718 .69699099 .032989503 .6879883 .034988405 .651001 .04298401 .60198977 .10890198 .5779877 .14085388 .57099917 .15083313 .5209961 .2167511 .45399476 .32463075 .54299929 .34062196 .6289978 .37861634 .6289978 .4975891 .6289978 .63656619 .48199464 .6845703 .3639984 .6845703H.049987794C.03199768 .6845703 .015991211 .6845703 .015991211 .66656497 .015991211 .64956668 .034988405 .64956668 .042999269 .64956668 .099990848 .64956668 .10499573 .64256289 .10499573 .5925751V.091918949C.10499573 .04197693 .099990848 .034988405 .042999269 .034988405 .034988405 .034988405 .015991211 .034988405 .015991211 .017990113 .015991211 0 .03199768 0 .049987794 0H.32398988C.34199525 0 .35699464 0 .35699464 .017990113 .35699464 .034988405 .33999635 .034988405 .32899476 .034988405 .27198792 .034988405 .2679901 .04298401 .2679901 .091918949V.31362916M.46099855 .36262513C.4889984 .39961244 .49198915 .4526062 .49198915 .4965973 .49198915 .5445862 .48599244 .59757998 .45399476 .63856509 .49499513 .6295624 .59399417 .5985718 .59399417 .4975891 .59399417 .43260194 .56399539 .3816223 .46099855 .36262513M.2679901 .59558108C.2679901 .61657717 .2679901 .64956668 .32998658 .64956668 .4149933 .64956668 .45700074 .614563 .45700074 .4965973 .45700074 .36761476 .42599488 .3486328 .2679901 .3486328V.59558108M.13198853 .034988405C.13999939 .052963258 .13999939 .08093262 .13999939 .089920047V.594574C.13999939 .6045685 .13999939 .6315613 .13198853 .64956668H.24598694C.23298645 .6335602 .23298645 .61357119 .23298645 .5985718V.089920047C.23298645 .079940799 .23298645 .052963258 .24099732 .034988405H.13198853M.34498597 .31362916C.35198976 .31462098 .35598756 .31562806 .3639984 .31562806 .3789978 .31562806 .40098573 .31762696 .41600038 .31962586 .43099977 .2956543 .5389862 .117889408 .621994 .034988405H.5249939L.34498597 .31362916Z"/>
<path id="font_2_1" d="M.5049896 .18203736H.47099305C.46798707 .16001892 .45799256 .100997928 .44499208 .09098816 .43699647 .084991458 .3600006 .084991458 .34599305 .084991458H.1619873C.2669983 .17803955 .3019867 .20603943 .3619995 .25306703 .43598939 .312088 .5049896 .374115 .5049896 .46914674 .5049896 .5900879 .39898683 .6640625 .2709961 .6640625 .14698792 .6640625 .06298828 .57710269 .06298828 .4851532 .06298828 .43414308 .10598755 .42915345 .115997318 .42915345 .13999939 .42915345 .16899109 .44615174 .16899109 .48214723 .16899109 .5001526 .1619873 .53515627 .10998535 .53515627 .14099121 .6060791 .20899964 .62805178 .2559967 .62805178 .35598756 .62805178 .4079895 .5501404 .4079895 .46914674 .4079895 .38212586 .34599305 .3130951 .31399537 .27708436L.07299805 .038986207C.06298828 .02999878 .06298828 .027999878 .06298828 0H.47499085L.5049896 .18203736Z"/>
<path id="font_3_1" d="M.33099366-.2400055C.33099366-.23701477 .33099366-.23500061 .31399537-.21800232 .18899536-.0920105 .15699768 .09700012 .15699768 .25 .15699768 .42399598 .19499207 .59799197 .31799317 .72299197 .33099366 .73498538 .33099366 .7369995 .33099366 .73999026 .33099366 .746994 .32699586 .75 .32099916 .75 .31098939 .75 .22099304 .6819916 .1619873 .5549927 .11099243 .44499208 .09899902 .33399964 .09899902 .25 .09899902 .17199707 .10998535 .050994874 .16499329-.06201172 .22499085-.18501282 .31098939-.25 .32099916-.25 .32699586-.25 .33099366-.24700928 .33099366-.2400055Z"/>
<path id="font_4_3" d="M.08799744 .059265138C.084991458 .044265748 .07899475 .021255494 .07899475 .01625061 .07899475-.0017547608 .09298706-.0107421879 .10798645-.0107421879 .11999512-.0107421879 .13798523-.002746582 .14498902 .01725769 .1459961 .019256592 .1579895 .06626892 .1639862 .091278079L.18598938 .18130493C.19198609 .2033081 .19799805 .22531128 .20298767 .24832154 .20698548 .26531983 .21499634 .29434205 .21598816 .29833985 .23098755 .3293457 .28399659 .42037965 .3789978 .42037965 .42399598 .42037965 .43299867 .38336183 .43299867 .35035707 .43299867 .3253479 .42599488 .29733277 .41799928 .26733399L.3899994 .1512909 .36999513 .07527161C.3659973 .055267335 .35699464 .021255494 .35699464 .01625061 .35699464-.0017547608 .37098695-.0107421879 .38598634-.0107421879 .4169922-.0107421879 .4229889 .014251709 .43099977 .04626465 .44499208 .10227966 .48199464 .24832154 .4909973 .28733827 .49398805 .30033876 .5469971 .42037965 .6559906 .42037965 .69898989 .42037965 .70999148 .3863678 .70999148 .35035707 .70999148 .29333497 .66799929 .17930603 .647995 .12628174 .6389923 .10227966 .6349945 .091278079 .6349945 .0712738 .6349945 .024261475 .66999819-.0107421879 .71699526-.0107421879 .8109894-.0107421879 .84799197 .13528443 .84799197 .14329529 .84799197 .1532898 .83898928 .1532898 .83599856 .1532898 .82598879 .1532898 .82598879 .15029907 .82099917 .13528443 .80599978 .08227539 .7739868 .011245728 .71899417 .011245728 .70199587 .011245728 .69499209 .021255494 .69499209 .044265748 .69499209 .0692749 .70399478 .09327698 .71299746 .11528015 .7319946 .16729737 .7739868 .27833558 .7739868 .3353424 .7739868 .4003601 .73399356 .4423828 .6589966 .4423828 .58399966 .4423828 .5329895 .3983612 .49598695 .34535218 .49499513 .35835267 .49198915 .3923645 .46398927 .41636659 .43899537 .43737794 .40699769 .4423828 .38198854 .4423828 .2919922 .4423828 .24299622 .37835694 .22599793 .35534669 .22099304 .41236878 .1789856 .4423828 .13398743 .4423828 .08799744 .4423828 .068984989 .4033661 .05999756 .38536073 .041992189 .35035707 .0289917 .29133607 .0289917 .28833009 .0289917 .27833558 .038986207 .27833558 .040985109 .27833558 .050994874 .27833558 .051986696 .2793274 .057998659 .30133058 .07499695 .37236024 .09498596 .42037965 .1309967 .42037965 .14698792 .42037965 .1619873 .41236878 .1619873 .37435914 .1619873 .35334779 .15899658 .3423462 .1459961 .29032899L.08799744 .059265138Z"/>
<path id="font_4_5" d="M.33399964 .30233766C.33999635 .32835389 .36299134 .42037965 .43299867 .42037965 .43798829 .42037965 .46199037 .42037965 .48298646 .40734864 .45498658 .402359 .43499757 .37734986 .43499757 .35334779 .43499757 .33735658 .44599916 .31835938 .47299195 .31835938 .49499513 .31835938 .5269928 .3363495 .5269928 .37635804 .5269928 .42837525 .46798707 .4423828 .43399049 .4423828 .37599183 .4423828 .34098817 .38935853 .32899476 .36634828 .3039856 .43237306 .25 .4423828 .22099304 .4423828 .116989139 .4423828 .05999756 .3133545 .05999756 .28834535 .05999756 .27833558 .069992069 .27833558 .07199097 .27833558 .07998657 .27833558 .08299255 .28033448 .084991458 .28933717 .11898804 .39535523 .18499756 .42037965 .21899414 .42037965 .23799134 .42037965 .272995 .4113617 .272995 .35334779 .272995 .32235719 .2559967 .25532533 .21899414 .11528015 .20298767 .053268434 .16799927 .011245728 .12399292 .011245728 .117996219 .011245728 .09498596 .011245728 .07398987 .024276734 .09899902 .029266358 .12098694 .05027771 .12098694 .07827759 .12098694 .105270389 .09899902 .11328125 .083999637 .11328125 .053985597 .11328125 .0289917 .08728027 .0289917 .055267335 .0289917 .009246826 .07899475-.0107421879 .12298584-.0107421879 .18899536-.0107421879 .22499085 .059280397 .22799683 .0652771 .23999024 .028274537 .27598573-.0107421879 .33599855-.0107421879 .43899537-.0107421879 .49598695 .118270877 .49598695 .14328003 .49598695 .1532898 .4869995 .1532898 .48399354 .1532898 .47499085 .1532898 .47299195 .14929199 .47099305 .14228821 .43798829 .03527832 .36999513 .011245728 .33799745 .011245728 .29899598 .011245728 .2829895 .043273927 .2829895 .07727051 .2829895 .09927368 .2889862 .121276859 .2999878 .16529846L.33399964 .30233766Z"/>
<path id="font_3_3" d="M.40899659 .23046875H.6879883C.70199587 .23046875 .72099307 .23046875 .72099307 .25045777 .72099307 .27046205 .70199587 .27046205 .6879883 .27046205H.40899659V.5500183C.40899659 .56399539 .40899659 .5830078 .3889923 .5830078 .36898805 .5830078 .36898805 .56399539 .36898805 .5500183V.27046205H.08898926C.07499695 .27046205 .055999757 .27046205 .055999757 .25045777 .055999757 .23046875 .07499695 .23046875 .08898926 .23046875H.36898805V-.05000305C.36898805-.06401062 .36898805-.08300781 .3889923-.08300781 .40899659-.08300781 .40899659-.06401062 .40899659-.05000305V.23046875Z"/>
<path id="font_4_1" d="M.23899842 .68333438C.23899842 .6843262 .23899842 .69433596 .22599793 .69433596 .20298767 .69433596 .12998963 .6863251 .10398865 .6843262 .09599304 .68333438 .084991458 .6823273 .084991458 .6643219 .084991458 .6523285 .09399414 .6523285 .10899353 .6523285 .15699768 .6523285 .15899658 .6453247 .15899658 .6353302 .15899658 .6283264 .1499939 .5943451 .14498902 .573349L.06298828 .24731446C.050994874 .1973114 .04699707 .18130493 .04699707 .14628601 .04699707 .05126953 .099990848-.0107421879 .17399597-.0107421879 .2919922-.0107421879 .4149933 .1382904 .4149933 .28233338 .4149933 .37335206 .3619995 .4423828 .28199769 .4423828 .23599243 .4423828 .19499207 .41337586 .16499329 .38235475L.23899842 .68333438M.14498902 .30534364C.15098572 .3273468 .15098572 .3293457 .1599884 .3403473 .20899964 .405365 .2539978 .42037965 .27999879 .42037965 .31599427 .42037965 .34298707 .3903656 .34298707 .32633973 .34298707 .26733399 .30999757 .15229798 .2919922 .11428833 .25898744 .04725647 .21299744 .011245728 .17399597 .011245728 .13999939 .011245728 .10699463 .038253786 .10699463 .11227417 .10699463 .13128662 .10699463 .15029907 .12298584 .21331787L.14498902 .30534364Z"/>
<path id="font_3_2" d="M.2889862 .25C.2889862 .32798768 .27799989 .44898988 .22299195 .56199648 .16299439 .68499758 .07699585 .75 .066986087 .75 .06098938 .75 .056991579 .74598696 .056991579 .73999026 .056991579 .7369995 .056991579 .73498538 .07598877 .71699526 .17399597 .6179962 .23098755 .45899964 .23098755 .25 .23098755 .07899475 .19400025-.09700012 .069992069-.2230072 .056991579-.23500061 .056991579-.23701477 .056991579-.2400055 .056991579-.2460022 .06098938-.25 .066986087-.25 .07699585-.25 .16699219-.18200684 .22599793-.055007936 .2769928 .054992677 .2889862 .16600037 .2889862 .25Z"/>
<path id="font_4_4" d="M.45199586 .43138124C.45199586 .43537904 .44898988 .44137574 .44198609 .44137574 .43099977 .44137574 .3909912 .4013672 .37399293 .37236024 .35198976 .42637635 .31298829 .4423828 .2809906 .4423828 .16299439 .4423828 .039993287 .29434205 .039993287 .14929199 .039993287 .05126953 .09899902-.0107421879 .17199707-.0107421879 .21499634-.0107421879 .2539978 .013244629 .2899933 .04925537 .2809906 .014251709 .24798584-.1211853 .24499512-.1302185 .23699951-.1583252 .22898865-.16233826 .17298889-.16334534 .1599884-.16334534 .1499939-.16334534 .1499939-.18334961 .1499939-.18434143 .1499939-.19433594 .16299439-.19433594 .19499207-.19433594 .22999573-.19134522 .2630005-.19134522 .29699708-.19134522 .33299256-.19433594 .3659973-.19433594 .37098695-.19433594 .38398744-.19433594 .38398744-.17434693 .38398744-.16334534 .37399293-.16334534 .35798646-.16334534 .30999757-.16334534 .30999757-.15631104 .30999757-.14727783 .30999757-.14025879 .31199647-.13423157 .31399537-.12519837L.45199586 .43138124M.1749878 .011245728C.114990238 .011245728 .11099243 .088272098 .11099243 .105285648 .11099243 .1532898 .13999939 .2623291 .15699768 .30433656 .18798828 .37835694 .23999024 .42037965 .2809906 .42037965 .34599305 .42037965 .3600006 .33935548 .3600006 .33235169 .3600006 .32633973 .30499269 .107284549 .3019867 .103271488 .2869873 .07527161 .23098755 .011245728 .1749878 .011245728Z"/>
<path id="font_4_2" d="M.3959961 .37998963C.37998963 .37998963 .3659973 .37998963 .35198976 .36598207 .33599855 .35098268 .33399964 .33398438 .33399964 .3269806 .33399964 .30297853 .35198976 .2919922 .37098695 .2919922 .3999939 .2919922 .4269867 .315979 .4269867 .35598756 .4269867 .40522767 .37998963 .4423828 .30899049 .4423828 .17399597 .4423828 .040985109 .2989807 .040985109 .15811157 .040985109 .06819153 .09899902-.0107421879 .20298767-.0107421879 .34599305-.0107421879 .42999269 .09516907 .42999269 .107162479 .42999269 .11315918 .42399598 .120147708 .41799928 .120147708 .41299439 .120147708 .41099549 .1181488 .40499879 .1101532 .32598878 .011245728 .21699524 .011245728 .20498657 .011245728 .14199829 .011245728 .114990238 .06021118 .114990238 .120147708 .114990238 .1611023 .1349945 .25801087 .16899109 .31999208 .19999695 .37698365 .25498963 .42037965 .30999757 .42037965 .34399415 .42037965 .38198854 .40724183 .3959961 .37998963Z"/>
<path id="font_3_4" d="M.68699648 .32714845C.70199587 .32714845 .72099307 .32714845 .72099307 .34713746 .72099307 .36714173 .70199587 .36714173 .6879883 .36714173H.08898926C.07499695 .36714173 .055999757 .36714173 .055999757 .34713746 .055999757 .32714845 .07499695 .32714845 .08999634 .32714845H.68699648M.6879883 .13284302C.70199587 .13284302 .72099307 .13284302 .72099307 .15284729 .72099307 .17285156 .70199587 .17285156 .68699648 .17285156H.08999634C.07499695 .17285156 .055999757 .17285156 .055999757 .15284729 .055999757 .13284302 .07499695 .13284302 .08898926 .13284302H.6879883Z"/>
<path id="font_5_1" d="M.25-2.3587189H.5130005V-2.303711H.30499269V-.0146484379H.5130005V.04034424H.25V-2.3587189Z"/>
<path id="font_5_2" d="M.22200012-2.303711H.01399231V-2.3587189H.2769928V.04034424H.01399231V-.0146484379H.22200012V-2.303711Z"/>
</defs>
<path transform="matrix(1.00008,0,0,-1.00009,1.8976364,143.34546)" d="M0 0V141.73404H141.73404V0ZM141.73404 141.73404" fill="#0000ff" fill-opacity=".3"/>
<path transform="matrix(1.00008,0,0,-1.00009,1.8976364,143.34546)" d="M170.08086 0V141.73404H311.8149V0ZM311.8149 141.73404" fill="#ffbfbf" fill-opacity=".5"/>
<use data-text="L" xlink:href="#font_1_1" transform="matrix(9.963397,0,0,-9.963496,12.750504,19.205292)"/>
<use data-text="R" xlink:href="#font_1_2" transform="matrix(9.963397,0,0,-9.963496,293.72999,19.828347)"/>
<use data-text="2" xlink:href="#font_2_1" transform="matrix(6.974358,0,0,-6.9744279,300.92555,16.213028)"/>
<use data-text="(" xlink:href="#font_3_1" transform="matrix(9.963397,0,0,-9.963496,15.814751,60.788026)"/>
<use data-text="m" xlink:href="#font_4_3" transform="matrix(9.963397,0,0,-9.963496,19.689064,60.788026)"/>
<use data-text="x" xlink:href="#font_4_5" transform="matrix(9.963397,0,0,-9.963496,28.43692,60.788026)"/>
<use data-text="+" xlink:href="#font_3_3" transform="matrix(9.963397,0,0,-9.963496,36.34539,60.788026)"/>
<use data-text="b" xlink:href="#font_4_1" transform="matrix(9.963397,0,0,-9.963496,46.30919,60.788026)"/>
<use data-text=")" xlink:href="#font_3_2" transform="matrix(9.963397,0,0,-9.963496,50.584535,60.788026)"/>
<use data-text="+" xlink:href="#font_3_3" transform="matrix(9.963397,0,0,-9.963496,56.6622,60.788026)"/>
<use data-text="(" xlink:href="#font_3_1" transform="matrix(9.963397,0,0,-9.963496,66.61565,60.788026)"/>
<use data-text="q" xlink:href="#font_4_4" transform="matrix(9.963397,0,0,-9.963496,70.512119,60.788026)"/>
<use data-text="x" xlink:href="#font_4_5" transform="matrix(9.963397,0,0,-9.963496,75.304508,60.788026)"/>
<use data-text="+" xlink:href="#font_3_3" transform="matrix(9.963397,0,0,-9.963496,83.22514,60.788026)"/>
<use data-text="c" xlink:href="#font_4_2" transform="matrix(9.963397,0,0,-9.963496,93.188938,60.788026)"/>
<use data-text=")" xlink:href="#font_3_2" transform="matrix(9.963397,0,0,-9.963496,97.50029,60.788026)"/>
<use data-text="(" xlink:href="#font_3_1" transform="matrix(9.963397,0,0,-9.963496,18.66198,117.48713)"/>
<use data-text="m" xlink:href="#font_4_3" transform="matrix(9.963397,0,0,-9.963496,22.536293,117.48713)"/>
<use data-text="+" xlink:href="#font_3_3" transform="matrix(9.963397,0,0,-9.963496,33.49817,117.48713)"/>
<use data-text="q" xlink:href="#font_4_4" transform="matrix(9.963397,0,0,-9.963496,43.46196,117.48713)"/>
<use data-text=")" xlink:href="#font_3_2" transform="matrix(9.963397,0,0,-9.963496,48.26734,117.48713)"/>
<use data-text="x" xlink:href="#font_4_5" transform="matrix(9.963397,0,0,-9.963496,52.141656,117.48713)"/>
<use data-text="+" xlink:href="#font_3_3" transform="matrix(9.963397,0,0,-9.963496,60.050287,117.48713)"/>
<use data-text="(" xlink:href="#font_3_1" transform="matrix(9.963397,0,0,-9.963496,70.00372,117.48713)"/>
<use data-text="b" xlink:href="#font_4_1" transform="matrix(9.963397,0,0,-9.963496,73.8884,117.48713)"/>
<use data-text="+" xlink:href="#font_3_3" transform="matrix(9.963397,0,0,-9.963496,80.377918,117.48713)"/>
<use data-text="c" xlink:href="#font_4_2" transform="matrix(9.963397,0,0,-9.963496,90.341709,117.48713)"/>
<use data-text=")" xlink:href="#font_3_2" transform="matrix(9.963397,0,0,-9.963496,94.65306,117.48713)"/>
<use data-text="=" xlink:href="#font_3_4" transform="matrix(0,-9.963496,-9.963397,-0,60.423318,90.52172)"/>
<use data-text="=" xlink:href="#font_3_4" transform="matrix(0,-9.963496,-9.963397,-0,244.69205,90.52172)"/>
<use data-text="[" xlink:href="#font_5_1" transform="matrix(9.963397,0,0,-9.963496,219.48206,46.73976)"/>
<use data-text="m" xlink:href="#font_4_3" transform="matrix(9.963397,0,0,-9.963496,224.74048,54.71048)"/>
<use data-text="b" xlink:href="#font_4_1" transform="matrix(9.963397,0,0,-9.963496,226.97666,66.66655)"/>
<use data-text="]" xlink:href="#font_5_2" transform="matrix(9.963397,0,0,-9.963496,233.48818,46.739755)"/>
<use data-text="+" xlink:href="#font_3_3" transform="matrix(9.963397,0,0,-9.963496,240.96077,60.78801)"/>
<use data-text="[" xlink:href="#font_5_1" transform="matrix(9.963397,0,0,-9.963496,250.92456,46.739755)"/>
<use data-text="q" xlink:href="#font_4_4" transform="matrix(9.963397,0,0,-9.963496,256.18299,54.710474)"/>
<use data-text="c" xlink:href="#font_4_2" transform="matrix(9.963397,0,0,-9.963496,256.42903,66.66655)"/>
<use data-text="]" xlink:href="#font_5_2" transform="matrix(9.963397,0,0,-9.963496,260.98838,46.739755)"/>
<use data-text="[" xlink:href="#font_5_1" transform="matrix(9.963397,0,0,-9.963496,224.74045,97.769359)"/>
<use data-text="m" xlink:href="#font_4_3" transform="matrix(9.963397,0,0,-9.963496,229.99887,105.740077)"/>
<use data-text="+" xlink:href="#font_3_3" transform="matrix(9.963397,0,0,-9.963496,240.96076,105.740077)"/>
<use data-text="q" xlink:href="#font_4_4" transform="matrix(9.963397,0,0,-9.963496,250.92456,105.740077)"/>
<use data-text="b" xlink:href="#font_4_1" transform="matrix(9.963397,0,0,-9.963496,232.48108,117.696147)"/>
<use data-text="+" xlink:href="#font_3_3" transform="matrix(9.963397,0,0,-9.963496,238.97159,117.696147)"/>
<use data-text="c" xlink:href="#font_4_2" transform="matrix(9.963397,0,0,-9.963496,248.93439,117.696147)"/>
<use data-text="]" xlink:href="#font_5_2" transform="matrix(9.963397,0,0,-9.963496,255.72893,97.76935)"/>
<path transform="matrix(1.00008,0,0,-1.00009,1.8976364,143.34546)" stroke-width=".49814" stroke-linecap="butt" stroke-miterlimit="10" stroke-linejoin="miter" fill="none" stroke="#000000" d="M102.04868 85.04042C143.41759 92.33467 168.3973 92.33467 207.65682 85.41232"/>
<path transform="matrix(.9848788,.17364563,.17364389,-.9848886,209.57108,57.92543)" d="M2.14195 0-1.28517 1.71356 0 0-1.28517-1.71356"/>
<path transform="matrix(1.00008,0,0,-1.00009,1.8976364,143.34546)" stroke-width=".49814" stroke-linecap="butt" stroke-miterlimit="10" stroke-linejoin="miter" fill="none" stroke="#000000" d="M100.14398 28.3468C146.08673 36.44751 173.36264 42.11679 217.196 34.38797"/>
<path transform="matrix(.9848788,.17364563,.17364389,-.9848886,219.11103,108.95438)" d="M2.14195 0-1.28517 1.71356 0 0-1.28517-1.71356"/>
<path transform="matrix(1.00008,0,0,-1.00009,1.8976364,143.34546)" stroke-width=".49814" stroke-linecap="butt" stroke-miterlimit="10" stroke-linejoin="miter" fill="none" stroke="#000000" d="M209.7662 82.20555C168.3973 74.91132 143.41759 74.91132 104.15807 81.83365"/>
<path transform="matrix(-.9848788,-.17364563,-.17364389,.9848886,106.06404,61.504465)" d="M2.14195 0-1.28517 1.71356 0 0-1.28517-1.71356"/>
<path transform="matrix(1.00008,0,0,-1.00009,1.8976364,143.34546)" stroke-width=".49814" stroke-linecap="butt" stroke-miterlimit="10" stroke-linejoin="miter" fill="none" stroke="#000000" d="M218.27034 31.18166C173.46108 23.2808 146.85793 17.61108 104.15807 25.14003"/>
<path transform="matrix(-.9848788,-.17364563,-.17364389,.9848886,106.06404,118.203189)" d="M2.14195 0-1.28517 1.71356 0 0-1.28517-1.71356"/>
</svg>
