<svg xmlns="http://www.w3.org/2000/svg" xmlns:xlink="http://www.w3.org/1999/xlink" xmlns:inkscape="http://www.inkscape.org/namespaces/inkscape" version="1.1" width="209" height="102" viewBox="0 0 209 102">
<defs>
<path id="font_1_1" d="M.116989139 .44433595H.041992189V.3973236H.116989139V.04699707H.04798889V0C.08299255 .0009918213 .12799073 .0029907227 .17399597 .0029907227 .21199036 .0029907227 .27598573 .0029907227 .31199647 0V.04699707H.22499085V.3973236H.33999635V.44433595H.21899414V.54525759C.21899414 .65519717 .29499818 .6641846 .31999208 .6641846 .32499696 .6641846 .32998658 .6641846 .33699037 .66218569 .32199098 .65119937 .31399537 .63220217 .31399537 .6132202 .31399537 .57025149 .34899903 .5512543 .375 .5512543 .40499879 .5512543 .43699647 .57225039 .43699647 .6132202 .43699647 .65519717 .40098573 .7001953 .32299806 .7001953 .22499085 .7001953 .116989139 .65818789 .116989139 .54525759V.44433595Z"/>
<path id="font_2_1" d="M.33499146 .63612368C.33499146 .6630554 .33299256 .6640625 .30499269 .6640625 .24099732 .6014404 .1499939 .6004486 .10899353 .6004486V.5644531C.1329956 .5644531 .19898987 .5644531 .2539978 .592453V.08203125C.2539978 .04899597 .2539978 .035995485 .1539917 .035995485H.115997318V0C.13398743 .0009918213 .25698854 .0039978029 .2939911 .0039978029 .32499696 .0039978029 .45098878 .0009918213 .47299195 0V.035995485H.43499757C.33499146 .035995485 .33499146 .04899597 .33499146 .08203125V.63612368Z"/>
<path id="font_3_1" d="M.9169922 .5666046C.94200137 .61061099 .96598818 .64660647 1.0289917 .6516113 1.0379944 .65260317 1.0479889 .65260317 1.0479889 .6716156 1.0479889 .6756134 1.0439911 .6826172 1.0359955 .6826172 1.0119934 .6826172 .98399356 .6796112 .95899966 .6796112 .9249878 .6796112 .8880005 .6826172 .8549957 .6826172 .848999 .6826172 .83599856 .6826172 .83599856 .66360476 .83599856 .65260317 .8450012 .6516113 .8509979 .6516113 .875 .65060427 .9099884 .64260867 .9099884 .61260989 .9099884 .6016083 .9049988 .5935974 .8969879 .5796051L.6269989 .108551029 .58999636 .604599C.58898928 .6246033 .58699038 .65060427 .6599884 .6516113 .6769867 .6516113 .68699648 .6516113 .68699648 .6716156 .68699648 .6816101 .6759949 .6826172 .6719971 .6826172 .6319885 .6826172 .58999636 .6796112 .5499878 .6796112 .5269928 .6796112 .46798707 .6826172 .44499208 .6826172 .43899537 .6826172 .42599488 .6826172 .42599488 .6626129 .42599488 .6516113 .43598939 .6516113 .44999696 .6516113 .49398805 .6516113 .5009918 .6456146 .5029907 .6266022L.5089874 .54959109 .2559967 .108551029 .21798706 .6156006C.21798706 .62760928 .21798706 .65060427 .2939911 .6516113 .3039856 .6516113 .31498719 .6516113 .31498719 .6716156 .31498719 .6826172 .30299378 .6826172 .30099488 .6826172 .26098634 .6826172 .21899414 .6796112 .17799378 .6796112 .14299011 .6796112 .10699463 .6826172 .07299805 .6826172 .067993167 .6826172 .054992677 .6826172 .054992677 .66360476 .054992677 .6516113 .06399536 .6516113 .07998657 .6516113 .12998963 .6516113 .1309967 .64260867 .1329956 .61460879L.17799378 .0035247803C.1789856-.014465332 .17999268-.022460938 .19400025-.022460938 .20599365-.022460938 .20899964-.016464234 .21798706-.0014648438L.5119934 .5085907 .548996 .0035247803C.5509949-.017471314 .5529938-.022460938 .5649872-.022460938 .5779877-.022460938 .58399966-.012466431 .58898928-.0034637452L.9169922 .5666046Z"/>
<path id="font_2_2" d="M.5049896 .18203736H.47099305C.46798707 .16001892 .45799256 .100997928 .44499208 .09098816 .43699647 .084991458 .3600006 .084991458 .34599305 .084991458H.1619873C.2669983 .17803955 .3019867 .20603943 .3619995 .25306703 .43598939 .312088 .5049896 .374115 .5049896 .46914674 .5049896 .5900879 .39898683 .6640625 .2709961 .6640625 .14698792 .6640625 .06298828 .57710269 .06298828 .4851532 .06298828 .43414308 .10598755 .42915345 .115997318 .42915345 .13999939 .42915345 .16899109 .44615174 .16899109 .48214723 .16899109 .5001526 .1619873 .53515627 .10998535 .53515627 .14099121 .6060791 .20899964 .62805178 .2559967 .62805178 .35598756 .62805178 .4079895 .5501404 .4079895 .46914674 .4079895 .38212586 .34599305 .3130951 .31399537 .27708436L.07299805 .038986207C.06298828 .02999878 .06298828 .027999878 .06298828 0H.47499085L.5049896 .18203736Z"/>
<path id="font_1_3" d="M.34599305 .2461853 .46299745 .37631227C.47599793 .39031983 .48199464 .3973236 .5649872 .3973236V.44433595C.5299988 .44232179 .47799684 .44132997 .47299195 .44132997 .44799806 .44132997 .397995 .44332887 .36999513 .44433595V.3973236C.38398744 .3973236 .3959961 .3953247 .4079895 .38832093 .4039917 .38230897 .4039917 .38031007 .3999939 .37631227L.31599427 .2822113 .21798706 .3973236H.2579956V.44433595C.23199463 .44332887 .16899109 .44132997 .13699341 .44132997 .10499573 .44132997 .05999756 .44332887 .026992798 .44433595V.3973236H.09799194L.2539978 .21315003 .12298584 .06600952C.10598755 .04699707 .069992069 .04699707 .021987915 .04699707V0C.056991579 .0019989014 .10899353 .0029907227 .11399841 .0029907227 .13899231 .0029907227 .19699097 .0009918213 .21699524 0V.04699707C.19898987 .04699707 .17999268 .052001954 .17999268 .057998659 .17999268 .059005739 .17999268 .05999756 .18699646 .06800842L.28399659 .17712403 .3939972 .04699707H.35499574V0C.3809967 .0009918213 .44198609 .0029907227 .47499085 .0029907227 .5069885 .0029907227 .5519867 .0009918213 .58499148 0V.04699707H.5139923L.34599305 .2461853Z"/>
<path id="font_1_2" d="M.7369995 .37631227C.74198916 .389328 .74598696 .3973236 .8049927 .3973236V.44433595C.7819977 .44232179 .7519989 .44132997 .7279968 .44132997 .70098879 .44132997 .6539917 .44332887 .6319885 .44433595V.3973236C.6409912 .3973236 .6899872 .3963318 .6899872 .3853302 .6899872 .38232423 .68699648 .37631227 .6859894 .37332154L.58099368 .11715698 .46699525 .3973236H.522995V.44433595C.4909973 .44332887 .43899537 .44132997 .40899659 .44132997 .36698915 .44132997 .32499696 .44332887 .30899049 .44433595V.3973236H.36799623C.3889923 .3473053 .3889923 .34529115 .3889923 .34429933 .3889923 .34028626 .38598634 .33428956 .3849945 .33128358L.30599977 .13916016 .20098877 .3973236H.25698854V.44433595C.21598816 .44232179 .1749878 .44132997 .13398743 .44132997 .102996829 .44132997 .05899048 .44332887 .024993897 .44433595V.3973236H.083999637L.23699951 .023086548C.24398804 .006088257 .24798584-.00390625 .272995-.00390625 .2979889-.00390625 .3019867 .006088257 .30899049 .023086548L.4149933 .28225709 .5209961 .023086548C.5279999 .006088257 .5319977-.00390625 .5569916-.00390625 .58200076-.00390625 .58599856 .006088257 .59298709 .023086548L.7369995 .37631227Z"/>
<path id="font_4_2" d="M.68699648 .32714845C.70199587 .32714845 .72099307 .32714845 .72099307 .34713746 .72099307 .36714173 .70199587 .36714173 .6879883 .36714173H.08898926C.07499695 .36714173 .055999757 .36714173 .055999757 .34713746 .055999757 .32714845 .07499695 .32714845 .08999634 .32714845H.68699648M.6879883 .13284302C.70199587 .13284302 .72099307 .13284302 .72099307 .15284729 .72099307 .17285156 .70199587 .17285156 .68699648 .17285156H.08999634C.07499695 .17285156 .055999757 .17285156 .055999757 .15284729 .055999757 .13284302 .07499695 .13284302 .08898926 .13284302H.6879883Z"/>
<path id="font_5_84" d="M.5209961 .21636963C.5209961 .34336854 .42399598 .4423828 .31199647 .4423828 .23399353 .4423828 .19198609 .39837647 .17199707 .3763733V.4423828L.027999878 .43066407V.3996582C.09899902 .3996582 .10598755 .3936615 .10598755 .34973146V-.117996219C.10598755-.16308594 .09498596-.16308594 .027999878-.16308594V-.1940918L.13999939-.19110108 .25299073-.1940918V-.16308594C.18598938-.16308594 .1749878-.16308594 .1749878-.117996219V.050186159 .059173585C.17999268 .04319763 .22200012-.0107421879 .2979889-.0107421879 .4169922-.0107421879 .5209961 .087127689 .5209961 .21594239V.21636963M.43798829 .21594239C.43798829 .09512329 .36799623 .011245728 .2939911 .011245728 .2539978 .011245728 .21598816 .031219483 .18899536 .07215881 .1749878 .09312439 .1749878 .09411621 .1749878 .114089969V.33674623C.20399475 .38838197 .25299073 .41737367 .3039856 .41737367 .3769989 .41737367 .43798829 .32937623 .43798829 .21636963V.21594239Z"/>
<path id="font_5_96" d="M.3639984 .38137818C.3639984 .41337586 .33299256 .4423828 .2899933 .4423828 .21699524 .4423828 .18099976 .37538148 .16699219 .3323822V.4423828L.027999878 .43066407V.3996582C.09799194 .3996582 .10598755 .39266969 .10598755 .34370423V.07595825C.10598755 .0309906 .09498596 .0309906 .027999878 .0309906V0L.14199829 .0029907227C.18199158 .0029907227 .22898865 .0029907227 .2689972 0V.0309906H.24798584C.17399597 .0309906 .17199707 .04197693 .17199707 .07795715V.23181153C.17199707 .33137513 .21398926 .42037965 .2899933 .42037965 .29699708 .42037965 .29899598 .42037965 .30099488 .41937257 .2979889 .41838075 .27799989 .40637208 .27799989 .3803711 .27799989 .35237123 .29899598 .33737184 .32099916 .33737184 .33898927 .33737184 .3639984 .3493805 .3639984 .38137818Z"/>
<path id="font_5_81" d="M.47099305 .21424866C.47099305 .34223939 .37098695 .4482422 .25 .4482422 .125 .4482422 .027999878 .3392334 .027999878 .21424866 .027999878 .085250858 .13198853-.0107421879 .24899292-.0107421879 .36999513-.0107421879 .47099305 .087249759 .47099305 .21424866M.3880005 .22224427C.3880005 .18624878 .3880005 .13224793 .3659973 .08824158 .34399415 .04324341 .2999878 .014251709 .25 .014251709 .20698548 .014251709 .16299439 .035247804 .13598633 .08125305 .11099243 .12524414 .11099243 .18624878 .11099243 .22224427 .11099243 .26124574 .11099243 .31523133 .1349945 .35923768 .1619873 .40522767 .20899964 .426239 .24899292 .426239 .29299928 .426239 .33599855 .40423585 .3619995 .36123658 .3880005 .3182373 .3880005 .26023866 .3880005 .22224427Z"/>
<path id="font_5_68" d="M.20999146-.049972536V.4423828L.057998659 .43138124V.40037538C.1349945 .40037538 .14399719 .39337159 .14399719 .34432984V-.051971437C.14399719-.09700012 .1349945-.18309021 .070999149-.18309021 .06599426-.18309021 .042999269-.18309021 .016998291-.17001343 .03199768-.16600037 .051986696-.1519928 .051986696-.125 .051986696-.09899902 .033996583-.07899475 .005996704-.07899475-.022003174-.07899475-.040008546-.09899902-.040008546-.125-.040008546-.17704773 .015991211-.20507813 .07299805-.20507813 .147995-.20507813 .20999146-.14100647 .20999146-.049972536M.20999146 .6042175C.20999146 .6312256 .18699646 .65722659 .15699768 .65722659 .12298584 .65722659 .102996829 .6292114 .102996829 .6042175 .102996829 .57722476 .12599182 .55122378 .1559906 .55122378 .18998719 .55122378 .20999146 .57922366 .20999146 .6042175Z"/>
<path id="font_6_1" d="M1.0359955 .5647125 1.0540009 .590683C1.074997 .61764529 1.098999 .64260867 1.147995 .64660647 1.1589966 .6476135 1.17099 .64860537 1.17099 .6686096 1.17099 .6756134 1.1649933 .6826172 1.1569977 .6826172 1.1339874 .6826172 1.1049957 .6786041 1.0809937 .6786041 1.04599 .6786041 1.0029907 .6826172 .9700012 .6826172 .96499636 .6826172 .94898989 .6826172 .94898989 .660614 .94898989 .6476135 .96299746 .64660647 .96699526 .64660647 .9889984 .6456146 1.0219879 .6396179 1.0219879 .61164858 1.0219879 .60066226 1.0110016 .5826874 1.0069885 .57569888L.72499087 .11331177 .66999819 .61764529C.66999819 .6456146 .7279968 .64660647 .73999026 .64660647 .7529907 .64660647 .7669983 .64660647 .7669983 .6686096 .7669983 .6696167 .7659912 .6826172 .75 .6826172 .73098757 .6826172 .70700076 .680603 .6879883 .6796112 .66799929 .6786041 .6419983 .6786041 .621994 .6786041 .598999 .6786041 .5399933 .6826172 .5169983 .6826172 .5119934 .6826172 .49699403 .6826172 .49699403 .660614 .49699403 .64660647 .5099945 .64660647 .522995 .64660647 .56599429 .64660647 .57099917 .6396179 .57398989 .6296234 .57499697 .62364199 .57699587 .5956726 .58099368 .5647125L.30599977 .11331177 .25299073 .60266116C.25299073 .60665896 .25099183 .6166382 .25099183 .61764529 .25099183 .64660647 .31298829 .64660647 .32099916 .64660647 .33399964 .64660647 .34799195 .64660647 .34799195 .6686096 .34799195 .6726074 .34498597 .6826172 .33198548 .6826172 .30299378 .6826172 .23199463 .6786041 .20298767 .6786041 .16999817 .6786041 .12799073 .6826172 .09799194 .6826172 .08799744 .6826172 .07798767 .6786041 .07798767 .66160586 .07798767 .64660647 .08999634 .64660647 .10598755 .64660647 .15299988 .64660647 .15299988 .64060977 .1559906 .61564639L.22299195 .007446289C.22499085-.012542725 .22599793-.01953125 .24398804-.01953125 .26098634-.01953125 .2679901-.010543823 .27398683 .00045776368L.58599856 .5137787 .6409912 .006454468C.6429901-.014541626 .647995-.01953125 .6629944-.01953125 .6799927-.01953125 .6859894-.010543823 .69299319 .0014648438L1.0359955 .5647125Z"/>
<path id="font_7_1" d="M.25498963 .38832093H.3829956V.44433595H.24798584V.5383148C.24798584 .5553131 .24798584 .6542969 .35798646 .6542969 .36898805 .6542969 .36898805 .6532898 .36898805 .6522827 .36898805 .6512909 .36799623 .649292 .3659973 .6472931 .3619995 .6412964 .35398866 .626297 .35398866 .6062927 .35398866 .55830386 .3929901 .53730776 .42199708 .53730776 .45498658 .53730776 .4909973 .56030276 .4909973 .6062927 .4909973 .6522827 .44999696 .70028689 .36499024 .70028689 .24899292 .70028689 .1349945 .6532898 .1349945 .5403137V.44433595H.051986696V.38832093H.1349945V.055999757H.067993167V0C.07199097 0 .14898682 .0039978029 .19599915 .0039978029 .23498535 .0039978029 .33198548 0 .33898927 0V.055999757H.25498963V.38832093Z"/>
<path id="font_8_1" d="M.397995 .63591006C.397995 .6660156 .394989 .6660156 .3619995 .6660156 .29100038 .6016083 .17999268 .6016083 .1599884 .6016083H.14299011V.5576172H.1599884C.18299866 .5576172 .24798584 .5606079 .30599977 .58561709V.08596802C.30599977 .054977418 .30599977 .04399109 .19999695 .04399109H.1499939V0C.20498657 .0039978029 .2939911 .0039978029 .35198976 .0039978029 .4099884 .0039978029 .49899293 .0039978029 .55400088 0V.04399109H.5039978C.397995 .04399109 .397995 .054977418 .397995 .08596802V.63591006Z"/>
<path id="font_4_1" d="M.40899659 .23046875H.6879883C.70199587 .23046875 .72099307 .23046875 .72099307 .25045777 .72099307 .27046205 .70199587 .27046205 .6879883 .27046205H.40899659V.5500183C.40899659 .56399539 .40899659 .5830078 .3889923 .5830078 .36898805 .5830078 .36898805 .56399539 .36898805 .5500183V.27046205H.08898926C.07499695 .27046205 .055999757 .27046205 .055999757 .25045777 .055999757 .23046875 .07499695 .23046875 .08898926 .23046875H.36898805V-.05000305C.36898805-.06401062 .36898805-.08300781 .3889923-.08300781 .40899659-.08300781 .40899659-.06401062 .40899659-.05000305V.23046875Z"/>
<path id="font_8_2" d="M.58898928 .19296265H.5469971C.5439911 .17396546 .5339966 .11198425 .5179901 .101989749 .5099945 .09599304 .42599488 .09599304 .41099549 .09599304H.21499634C.2809906 .14497376 .35499574 .20095825 .4149933 .24093628 .5049896 .30291749 .58898928 .36090089 .58898928 .46687318 .58898928 .59495547 .46798707 .6660156 .32499696 .6660156 .18998719 .6660156 .09098816 .58795168 .09098816 .48986817 .09098816 .4378662 .1349945 .42886354 .14898682 .42886354 .17599488 .42886354 .20799256 .4468689 .20799256 .48786927 .20799256 .52386477 .18199158 .543869 .15098572 .546875 .1789856 .59194949 .23699951 .6220093 .3039856 .6220093 .40098573 .6220093 .48199464 .5639038 .48199464 .4658661 .48199464 .3818817 .42399598 .31791688 .34700013 .2529297L.102996829 .04598999C.09298706 .036987306 .09199524 .036987306 .09098816 .02999878V0H.55599978L.58898928 .19296265Z"/>
</defs>
<g>
<path transform="matrix(1,0,0,-1.00005,68.563,34.844995)" d="M0 0H113.38766L69.73404-43.6536H-43.6536Z" fill="#0000ff" fill-opacity=".2"/>
<path transform="matrix(1,0,0,-1.00005,68.563,34.844995)" stroke-width=".3985" stroke-linecap="butt" stroke-miterlimit="10" stroke-linejoin="miter" fill="none" stroke="#0000ff" stroke-opacity=".2" d="M0 0H113.38766L69.73404-43.6536H-43.6536Z"/>
</g>
<path transform="matrix(1,0,0,-1.00005,68.563,34.844995)" stroke-width="1.13385" stroke-linecap="butt" stroke-miterlimit="10" stroke-linejoin="miter" fill="none" stroke="#0000ff" d="M0 0H132.96962"/>
<path transform="matrix(1,0,0,-1.00005,201.53263,34.844995)" d="M3.09557 0-1.85735 2.47646 0 0-1.85735-2.47646" fill="#0000ff"/>
<path transform="matrix(1,0,0,-1.00005,68.563,34.844995)" stroke-width="1.13385" stroke-linecap="butt" stroke-miterlimit="10" stroke-linejoin="miter" fill="none" stroke="#0000ff" d="M0 0-50.19542-50.19542"/>
<path transform="matrix(-.7071,.7071353,.7071,.7071353,18.367604,85.0429)" d="M3.09557 0-1.85735 2.47646 0 0-1.85735-2.47646" fill="#0000ff"/>
<use data-text="f" xlink:href="#font_1_1" transform="matrix(9.9626,0,0,-9.963098,200.644,26.310566)"/>
<use data-text="1" xlink:href="#font_2_1" transform="matrix(6.9738,0,0,-6.9741489,204.145,27.804642)"/>
<use data-text="W" xlink:href="#font_3_1" transform="matrix(9.9626,0,0,-9.963098,137.436,71.460819)"/>
<use data-text="f" xlink:href="#font_1_1" transform="matrix(9.9626,0,0,-9.963098,1.1690064,89.94474)"/>
<use data-text="2" xlink:href="#font_2_2" transform="matrix(6.9738,0,0,-6.9741489,4.6700136,91.43881)"/>
<use data-text="x" xlink:href="#font_1_3" transform="matrix(9.9626,0,0,-9.963098,93.43301,11.248816)"/>
<use data-text="w" xlink:href="#font_1_2" transform="matrix(9.9626,0,0,-9.963098,83.679,58.364168)"/>
<path transform="matrix(1,0,0,-1.00005,68.563,34.844995)" stroke-width=".56693" stroke-linecap="butt" stroke-dasharray="2.98883,2.98883" stroke-miterlimit="10" stroke-linejoin="miter" fill="none" stroke="#000000" d="M55.78723 33.1097V-34.92287"/>
<path transform="matrix(1,0,0,-1.00005,68.563,34.844995)" stroke-width=".56693" stroke-linecap="butt" stroke-dasharray="2.98883,2.98883" stroke-miterlimit="10" stroke-linejoin="miter" fill="none" stroke="#000000" d="M-34.92287-34.92287H55.78723"/>
<path transform="matrix(1,0,0,-1.00005,68.563,34.844995)" stroke-width=".56693" stroke-linecap="butt" stroke-dasharray="2.98883,2.98883" stroke-miterlimit="10" stroke-linejoin="miter" fill="none" stroke="#000000" d="M55.78723-34.92287 90.71013 0"/>
<path transform="matrix(1,0,0,-1.00005,68.563,34.844995)" stroke-width="4.252" stroke-linecap="butt" stroke-miterlimit="10" stroke-linejoin="miter" fill="none" stroke="#000000" stroke-opacity=".4" d="M0 0-29.42665-29.42665"/>
<path transform="matrix(-.7071,.7071353,.7071,.7071353,39.136365,64.2731)" d="M7.77284 0-4.6637 6.21828 0 0-4.6637-6.21828" fill-opacity=".4"/>
<path transform="matrix(1,0,0,-1.00005,68.563,34.844995)" stroke-width="4.252" stroke-linecap="butt" stroke-miterlimit="10" stroke-linejoin="miter" fill="none" stroke="#000000" stroke-opacity=".4" d="M0 0H82.93727"/>
<path transform="matrix(1,0,0,-1.00005,151.50028,34.844995)" d="M7.77284 0-4.6637 6.21828 0 0-4.6637-6.21828" fill-opacity=".4"/>
<path transform="matrix(1,0,0,-1.00005,68.563,34.844995)" stroke-width="2.26773" stroke-linecap="butt" stroke-miterlimit="10" stroke-linejoin="miter" fill="none" stroke="#ff0000" d="M0 0 51.6628 30.66182"/>
<path transform="matrix(.85991,-.5103855,-.51036,-.859953,120.225788,4.1816618)" d="M4.79637 0-2.87782 3.8371 0 0-2.87782-3.8371" fill="#ff0000"/>
<path transform="matrix(1,0,0,-1.00005,68.563,34.844995)" stroke-width="4.252" stroke-linecap="butt" stroke-miterlimit="10" stroke-linejoin="miter" fill="none" stroke="#ff0000" stroke-opacity=".2" d="M0 0 49.199-30.79866"/>
<path transform="matrix(.8476,.53062656,.5306,-.8476423,117.76199,65.645198)" d="M7.77284 0-4.6637 6.21828 0 0-4.6637-6.21828" fill="#ff0000" fill-opacity=".2"/>
<use data-text="w" xlink:href="#font_1_2" transform="matrix(9.9626,0,0,-9.963098,39.416,97.303119)"/>
<use data-text="=" xlink:href="#font_4_2" transform="matrix(9.9626,0,0,-9.963098,50.617006,97.303119)"/>
<use data-text="p" xlink:href="#font_5_84" transform="matrix(9.9626,0,0,-9.963098,61.13301,97.303119)"/>
<use data-text="r" xlink:href="#font_5_96" transform="matrix(9.9626,0,0,-9.963098,66.67221,97.303119)"/>
<use data-text="o" xlink:href="#font_5_81" transform="matrix(9.9626,0,0,-9.963098,70.577548,97.303119)"/>
<use data-text="j" xlink:href="#font_5_68" transform="matrix(9.9626,0,0,-9.963098,75.83778,97.303119)"/>
<use data-text="W" xlink:href="#font_6_1" transform="matrix(6.9738,0,0,-6.9741489,78.88701,99.84325)"/>
<use data-text="x" xlink:href="#font_1_3" transform="matrix(9.9626,0,0,-9.963098,87.95001,97.303119)"/>
<use data-text="=" xlink:href="#font_4_2" transform="matrix(9.9626,0,0,-9.963098,96.76401,97.303119)"/>
<use data-text="p" xlink:href="#font_5_84" transform="matrix(9.9626,0,0,-9.963098,107.280017,97.303119)"/>
<use data-text="r" xlink:href="#font_5_96" transform="matrix(9.9626,0,0,-9.963098,112.819217,97.303119)"/>
<use data-text="o" xlink:href="#font_5_81" transform="matrix(9.9626,0,0,-9.963098,116.72455,97.303119)"/>
<use data-text="j" xlink:href="#font_5_68" transform="matrix(9.9626,0,0,-9.963098,121.98479,97.303119)"/>
<use data-text="f" xlink:href="#font_7_1" transform="matrix(6.9738,0,0,-6.9741489,125.03401,99.84325)"/>
<use data-text="1" xlink:href="#font_8_1" transform="matrix(4.9813,0,0,-4.981549,127.81401,100.840297)"/>
<use data-text="x" xlink:href="#font_1_3" transform="matrix(9.9626,0,0,-9.963098,132.20001,97.303119)"/>
<use data-text="+" xlink:href="#font_4_1" transform="matrix(9.9626,0,0,-9.963098,140.461,97.303119)"/>
<use data-text="p" xlink:href="#font_5_84" transform="matrix(9.9626,0,0,-9.963098,150.423,97.303119)"/>
<use data-text="r" xlink:href="#font_5_96" transform="matrix(9.9626,0,0,-9.963098,155.96222,97.303119)"/>
<use data-text="o" xlink:href="#font_5_81" transform="matrix(9.9626,0,0,-9.963098,159.86756,97.303119)"/>
<use data-text="j" xlink:href="#font_5_68" transform="matrix(9.9626,0,0,-9.963098,165.1278,97.303119)"/>
<use data-text="f" xlink:href="#font_7_1" transform="matrix(6.9738,0,0,-6.9741489,168.177,99.84325)"/>
<use data-text="2" xlink:href="#font_8_2" transform="matrix(4.9813,0,0,-4.981549,170.956,100.840297)"/>
<use data-text="x" xlink:href="#font_1_3" transform="matrix(9.9626,0,0,-9.963098,175.34299,97.303119)"/>
</svg>
