<svg xmlns="http://www.w3.org/2000/svg" xmlns:xlink="http://www.w3.org/1999/xlink" xmlns:inkscape="http://www.inkscape.org/namespaces/inkscape" version="1.1" width="139" height="94" viewBox="0 0 139 94">
<g>
<path transform="matrix(1.00009,0,0,-1.00002,46.75357,91.80754)" d="M0 0-45.35506 45.35506 45.35506 90.71013 90.71013 45.35506Z" fill="#0000ff" fill-opacity=".3"/>
<path transform="matrix(1.00009,0,0,-1.00002,46.75357,91.80754)" stroke-width=".3985" stroke-linecap="butt" stroke-miterlimit="10" stroke-linejoin="miter" fill="none" stroke="#0000ff" stroke-opacity=".3" d="M0 0-45.35506 45.35506 45.35506 90.71013 90.71013 45.35506Z"/>
</g>
<path transform="matrix(1.00009,0,0,-1.00002,46.75357,91.80754)" stroke-width=".99628" stroke-linecap="butt" stroke-miterlimit="10" stroke-linejoin="miter" fill="none" stroke="#ff0000" d="M0 0 42.77104 21.38554"/>
<path transform="matrix(.8944405,-.44717894,-.44721023,-.89437797,89.52845,70.421588)" d="M2.8892 0-1.73352 2.31136 0 0-1.73352-2.31136" fill="#ff0000"/>
<path transform="matrix(1.00009,0,0,-1.00002,46.75357,91.80754)" stroke-width=".99628" stroke-linecap="butt" stroke-dasharray="2.98883,2.98883" stroke-miterlimit="10" stroke-linejoin="miter" fill="none" stroke="#ff0000" d="M0 0 88.12611 44.06308"/>
<path transform="matrix(.8944405,-.44717894,-.44721023,-.89437797,134.8876,47.7436)" d="M2.8892 0-1.73352 2.31136 0 0-1.73352-2.31136" fill="#ff0000"/>
<path transform="matrix(1.00009,0,0,-1.00002,46.75357,91.80754)" stroke-width=".99628" stroke-linecap="butt" stroke-miterlimit="10" stroke-linejoin="miter" fill="none" stroke="#0000ff" d="M0 0-43.31207 43.31207"/>
<path transform="matrix(-.70716366,-.70711418,-.70716366,.70711418,3.437603,48.494607)" d="M2.8892 0-1.73352 2.31136 0 0-1.73352-2.31136" fill="#0000ff"/>
<path transform="matrix(1.00009,0,0,-1.00002,46.75357,91.80754)" stroke-width=".99628" stroke-linecap="butt" stroke-miterlimit="10" stroke-linejoin="miter" fill="none" stroke="#000000" d="M0 0 44.06308 88.12611"/>
<path transform="matrix(.44721023,-.89437797,-.8944405,-.44717894,90.8206,3.6796799)" d="M2.8892 0-1.73352 2.31136 0 0-1.73352-2.31136"/>
</svg>
