<?xml version="1.0" encoding="UTF-8"?>
<svg xmlns="http://www.w3.org/2000/svg" xmlns:xlink="http://www.w3.org/1999/xlink" width="140pt" height="140pt" viewBox="0 0 140 140" version="1.1">
<g id="surface1">
<path style="fill:none;stroke-width:0.3985;stroke-linecap:butt;stroke-linejoin:miter;stroke:rgb(79.998779%,79.998779%,79.998779%);stroke-opacity:1;stroke-miterlimit:10;" d="M -45.356405 -45.355531 L 90.711011 -45.355531 M -45.356405 -22.676524 L 90.711011 -22.676524 M -45.356405 -0.00142335 L 90.711011 -0.00142335 M -45.356405 22.677584 L 90.711011 22.677584 M -45.356405 45.356591 L 90.711011 45.356591 M -45.356405 68.031692 L 90.711011 68.031692 M -45.356405 90.702887 L 90.711011 90.702887 M -45.356405 -45.355531 L -45.356405 90.710699 M -22.677851 -45.355531 L -22.677851 90.710699 M 0.000702465 -45.355531 L 0.000702465 90.710699 M 22.679256 -45.355531 L 22.679256 90.710699 M 45.353904 -45.355531 L 45.353904 90.710699 M 68.032457 -45.355531 L 68.032457 90.710699 M 90.703199 -45.355531 L 90.703199 90.710699 " transform="matrix(1.00005,0,0,-1.00003,47.452423,92.510295)"/>
<path style="fill:none;stroke-width:0.3985;stroke-linecap:butt;stroke-linejoin:miter;stroke:rgb(0%,0%,0%);stroke-opacity:1;stroke-miterlimit:10;" d="M -44.957987 -0.00142335 L 90.312593 -0.00142335 " transform="matrix(1.00005,0,0,-1.00003,47.452423,92.510295)"/>
<path style="fill:none;stroke-width:0.3985;stroke-linecap:round;stroke-linejoin:round;stroke:rgb(0%,0%,0%);stroke-opacity:1;stroke-miterlimit:10;" d="M -2.072709 2.391977 C -1.693822 0.95452 -0.850114 0.278759 0.00140589 0.00142335 C -0.850114 -0.279818 -1.693822 -0.955579 -2.072709 -2.38913 " transform="matrix(-1.00005,0,0,1.00003,2.294375,92.510295)"/>
<path style="fill:none;stroke-width:0.3985;stroke-linecap:round;stroke-linejoin:round;stroke:rgb(0%,0%,0%);stroke-opacity:1;stroke-miterlimit:10;" d="M -2.073173 2.38913 C -1.694286 0.955579 -0.850578 0.279818 0.00094191 -0.00142335 C -0.850578 -0.278759 -1.694286 -0.95452 -2.073173 -2.391977 " transform="matrix(1.00005,0,0,-1.00003,137.967808,92.510295)"/>
<path style="fill:none;stroke-width:0.3985;stroke-linecap:butt;stroke-linejoin:miter;stroke:rgb(0%,0%,0%);stroke-opacity:1;stroke-miterlimit:10;" d="M 0.000702465 -44.957106 L 0.000702465 90.312273 " transform="matrix(1.00005,0,0,-1.00003,47.452423,92.510295)"/>
<path style="fill:none;stroke-width:0.3985;stroke-linecap:round;stroke-linejoin:round;stroke:rgb(0%,0%,0%);stroke-opacity:1;stroke-miterlimit:10;" d="M -2.073628 2.391208 C -1.694733 0.957686 -0.851008 0.278032 0.0005287 0.000702465 C -0.851008 -0.280533 -1.694733 -0.956281 -2.073628 -2.389803 " transform="matrix(0,1.00003,1.00005,0,47.452423,137.66744)"/>
<path style="fill:none;stroke-width:0.3985;stroke-linecap:round;stroke-linejoin:round;stroke:rgb(0%,0%,0%);stroke-opacity:1;stroke-miterlimit:10;" d="M -2.07353 2.389803 C -1.694635 0.956281 -0.850911 0.280533 0.000626265 -0.000702465 C -0.850911 -0.278032 -1.694635 -0.957686 -2.07353 -2.391208 " transform="matrix(0,-1.00003,-1.00005,0,47.452423,1.99672)"/>
<path style=" stroke:none;fill-rule:nonzero;fill:rgb(0%,0%,0%);fill-opacity:1;" d="M 49.71875 115.1875 C 49.71875 113.9375 48.703125 112.921875 47.453125 112.921875 C 46.199219 112.921875 45.183594 113.9375 45.183594 115.1875 C 45.183594 116.441406 46.199219 117.457031 47.453125 117.457031 C 48.703125 117.457031 49.71875 116.441406 49.71875 115.1875 Z M 49.71875 115.1875 "/>
<path style=" stroke:none;fill-rule:nonzero;fill:rgb(0%,0%,0%);fill-opacity:1;" d="M 72.398438 115.1875 C 72.398438 113.9375 71.382812 112.921875 70.132812 112.921875 C 68.878906 112.921875 67.863281 113.9375 67.863281 115.1875 C 67.863281 116.441406 68.878906 117.457031 70.132812 117.457031 C 71.382812 117.457031 72.398438 116.441406 72.398438 115.1875 Z M 72.398438 115.1875 "/>
<path style=" stroke:none;fill-rule:nonzero;fill:rgb(0%,0%,0%);fill-opacity:1;" d="M 95.078125 115.1875 C 95.078125 113.9375 94.0625 112.921875 92.808594 112.921875 C 91.558594 112.921875 90.542969 113.9375 90.542969 115.1875 C 90.542969 116.441406 91.558594 117.457031 92.808594 117.457031 C 94.0625 117.457031 95.078125 116.441406 95.078125 115.1875 Z M 95.078125 115.1875 "/>
<path style=" stroke:none;fill-rule:nonzero;fill:rgb(100%,0%,0%);fill-opacity:1;" d="M 49.71875 92.511719 C 49.71875 91.257812 48.703125 90.242188 47.453125 90.242188 C 46.199219 90.242188 45.183594 91.257812 45.183594 92.511719 C 45.183594 93.761719 46.199219 94.777344 47.453125 94.777344 C 48.703125 94.777344 49.71875 93.761719 49.71875 92.511719 Z M 49.71875 92.511719 "/>
<path style=" stroke:none;fill-rule:nonzero;fill:rgb(100%,0%,0%);fill-opacity:1;" d="M 72.398438 92.511719 C 72.398438 91.257812 71.382812 90.242188 70.132812 90.242188 C 68.878906 90.242188 67.863281 91.257812 67.863281 92.511719 C 67.863281 93.761719 68.878906 94.777344 70.132812 94.777344 C 71.382812 94.777344 72.398438 93.761719 72.398438 92.511719 Z M 72.398438 92.511719 "/>
<path style=" stroke:none;fill-rule:nonzero;fill:rgb(100%,0%,0%);fill-opacity:1;" d="M 95.078125 92.511719 C 95.078125 91.257812 94.0625 90.242188 92.808594 90.242188 C 91.558594 90.242188 90.542969 91.257812 90.542969 92.511719 C 90.542969 93.761719 91.558594 94.777344 92.808594 94.777344 C 94.0625 94.777344 95.078125 93.761719 95.078125 92.511719 Z M 95.078125 92.511719 "/>
<path style=" stroke:none;fill-rule:nonzero;fill:rgb(0%,0%,100%);fill-opacity:1;" d="M 49.71875 69.832031 C 49.71875 68.578125 48.703125 67.5625 47.453125 67.5625 C 46.199219 67.5625 45.183594 68.578125 45.183594 69.832031 C 45.183594 71.085938 46.199219 72.101562 47.453125 72.101562 C 48.703125 72.101562 49.71875 71.085938 49.71875 69.832031 Z M 49.71875 69.832031 "/>
<path style=" stroke:none;fill-rule:nonzero;fill:rgb(0%,0%,100%);fill-opacity:1;" d="M 72.398438 69.832031 C 72.398438 68.578125 71.382812 67.5625 70.132812 67.5625 C 68.878906 67.5625 67.863281 68.578125 67.863281 69.832031 C 67.863281 71.085938 68.878906 72.101562 70.132812 72.101562 C 71.382812 72.101562 72.398438 71.085938 72.398438 69.832031 Z M 72.398438 69.832031 "/>
<path style=" stroke:none;fill-rule:nonzero;fill:rgb(0%,0%,100%);fill-opacity:1;" d="M 95.078125 69.832031 C 95.078125 68.578125 94.0625 67.5625 92.808594 67.5625 C 91.558594 67.5625 90.542969 68.578125 90.542969 69.832031 C 90.542969 71.085938 91.558594 72.101562 92.808594 72.101562 C 94.0625 72.101562 95.078125 71.085938 95.078125 69.832031 Z M 95.078125 69.832031 "/>
<path style=" stroke:none;fill-rule:nonzero;fill:rgb(50%,50%,50%);fill-opacity:1;" d="M 49.71875 47.152344 C 49.71875 45.902344 48.703125 44.886719 47.453125 44.886719 C 46.199219 44.886719 45.183594 45.902344 45.183594 47.152344 C 45.183594 48.40625 46.199219 49.421875 47.453125 49.421875 C 48.703125 49.421875 49.71875 48.40625 49.71875 47.152344 Z M 49.71875 47.152344 "/>
<path style=" stroke:none;fill-rule:nonzero;fill:rgb(50%,50%,50%);fill-opacity:1;" d="M 72.398438 47.152344 C 72.398438 45.902344 71.382812 44.886719 70.132812 44.886719 C 68.878906 44.886719 67.863281 45.902344 67.863281 47.152344 C 67.863281 48.40625 68.878906 49.421875 70.132812 49.421875 C 71.382812 49.421875 72.398438 48.40625 72.398438 47.152344 Z M 72.398438 47.152344 "/>
<path style=" stroke:none;fill-rule:nonzero;fill:rgb(50%,50%,50%);fill-opacity:1;" d="M 95.078125 47.152344 C 95.078125 45.902344 94.0625 44.886719 92.808594 44.886719 C 91.558594 44.886719 90.542969 45.902344 90.542969 47.152344 C 90.542969 48.40625 91.558594 49.421875 92.808594 49.421875 C 94.0625 49.421875 95.078125 48.40625 95.078125 47.152344 Z M 95.078125 47.152344 "/>
<path style=" stroke:none;fill-rule:nonzero;fill:rgb(100%,50%,0%);fill-opacity:1;" d="M 49.71875 24.476562 C 49.71875 23.222656 48.703125 22.207031 47.453125 22.207031 C 46.199219 22.207031 45.183594 23.222656 45.183594 24.476562 C 45.183594 25.726562 46.199219 26.742188 47.453125 26.742188 C 48.703125 26.742188 49.71875 25.726562 49.71875 24.476562 Z M 49.71875 24.476562 "/>
<path style=" stroke:none;fill-rule:nonzero;fill:rgb(100%,50%,0%);fill-opacity:1;" d="M 72.398438 24.476562 C 72.398438 23.222656 71.382812 22.207031 70.132812 22.207031 C 68.878906 22.207031 67.863281 23.222656 67.863281 24.476562 C 67.863281 25.726562 68.878906 26.742188 70.132812 26.742188 C 71.382812 26.742188 72.398438 25.726562 72.398438 24.476562 Z M 72.398438 24.476562 "/>
<path style=" stroke:none;fill-rule:nonzero;fill:rgb(100%,50%,0%);fill-opacity:1;" d="M 95.078125 24.476562 C 95.078125 23.222656 94.0625 22.207031 92.808594 22.207031 C 91.558594 22.207031 90.542969 23.222656 90.542969 24.476562 C 90.542969 25.726562 91.558594 26.742188 92.808594 26.742188 C 94.0625 26.742188 95.078125 25.726562 95.078125 24.476562 Z M 95.078125 24.476562 "/>
</g>
</svg>
