<?xml version="1.0" encoding="UTF-8"?>
<svg xmlns="http://www.w3.org/2000/svg" xmlns:xlink="http://www.w3.org/1999/xlink" width="140pt" height="140pt" viewBox="0 0 140 140" version="1.1">
<g id="surface1">
<path style="fill:none;stroke-width:0.3985;stroke-linecap:butt;stroke-linejoin:miter;stroke:rgb(79.998779%,79.998779%,79.998779%);stroke-opacity:1;stroke-miterlimit:10;" d="M -45.356405 -45.355531 L 90.711011 -45.355531 M -45.356405 -22.676524 L 90.711011 -22.676524 M -45.356405 -0.00142335 L 90.711011 -0.00142335 M -45.356405 22.677584 L 90.711011 22.677584 M -45.356405 45.356591 L 90.711011 45.356591 M -45.356405 68.031692 L 90.711011 68.031692 M -45.356405 90.702887 L 90.711011 90.702887 M -45.356405 -45.355531 L -45.356405 90.710699 M -22.677851 -45.355531 L -22.677851 90.710699 M 0.000702465 -45.355531 L 0.000702465 90.710699 M 22.679256 -45.355531 L 22.679256 90.710699 M 45.353904 -45.355531 L 45.353904 90.710699 M 68.032457 -45.355531 L 68.032457 90.710699 M 90.703199 -45.355531 L 90.703199 90.710699 " transform="matrix(1.00005,0,0,-1.00003,47.452423,92.510295)"/>
<path style="fill:none;stroke-width:0.3985;stroke-linecap:butt;stroke-linejoin:miter;stroke:rgb(0%,0%,0%);stroke-opacity:1;stroke-miterlimit:10;" d="M -44.957987 -0.00142335 L 90.312593 -0.00142335 " transform="matrix(1.00005,0,0,-1.00003,47.452423,92.510295)"/>
<path style="fill:none;stroke-width:0.3985;stroke-linecap:round;stroke-linejoin:round;stroke:rgb(0%,0%,0%);stroke-opacity:1;stroke-miterlimit:10;" d="M -2.072709 2.391977 C -1.693822 0.95452 -0.850114 0.278759 0.00140589 0.00142335 C -0.850114 -0.279818 -1.693822 -0.955579 -2.072709 -2.38913 " transform="matrix(-1.00005,0,0,1.00003,2.294375,92.510295)"/>
<path style="fill:none;stroke-width:0.3985;stroke-linecap:round;stroke-linejoin:round;stroke:rgb(0%,0%,0%);stroke-opacity:1;stroke-miterlimit:10;" d="M -2.073173 2.38913 C -1.694286 0.955579 -0.850578 0.279818 0.00094191 -0.00142335 C -0.850578 -0.278759 -1.694286 -0.95452 -2.073173 -2.391977 " transform="matrix(1.00005,0,0,-1.00003,137.967808,92.510295)"/>
<path style="fill:none;stroke-width:0.3985;stroke-linecap:butt;stroke-linejoin:miter;stroke:rgb(0%,0%,0%);stroke-opacity:1;stroke-miterlimit:10;" d="M 0.000702465 -44.957106 L 0.000702465 90.312273 " transform="matrix(1.00005,0,0,-1.00003,47.452423,92.510295)"/>
<path style="fill:none;stroke-width:0.3985;stroke-linecap:round;stroke-linejoin:round;stroke:rgb(0%,0%,0%);stroke-opacity:1;stroke-miterlimit:10;" d="M -2.073628 2.391208 C -1.694733 0.957686 -0.851008 0.278032 0.0005287 0.000702465 C -0.851008 -0.280533 -1.694733 -0.956281 -2.073628 -2.389803 " transform="matrix(0,1.00003,1.00005,0,47.452423,137.66744)"/>
<path style="fill:none;stroke-width:0.3985;stroke-linecap:round;stroke-linejoin:round;stroke:rgb(0%,0%,0%);stroke-opacity:1;stroke-miterlimit:10;" d="M -2.07353 2.389803 C -1.694635 0.956281 -0.850911 0.280533 0.000626265 -0.000702465 C -0.850911 -0.278032 -1.694635 -0.957686 -2.07353 -2.391208 " transform="matrix(0,-1.00003,-1.00005,0,47.452423,1.99672)"/>
<path style=" stroke:none;fill-rule:nonzero;fill:rgb(0%,0%,0%);fill-opacity:1;" d="M 38.382812 115.1875 C 38.382812 113.9375 37.367188 112.921875 36.113281 112.921875 C 34.859375 112.921875 33.84375 113.9375 33.84375 115.1875 C 33.84375 116.441406 34.859375 117.457031 36.113281 117.457031 C 37.367188 117.457031 38.382812 116.441406 38.382812 115.1875 Z M 38.382812 115.1875 "/>
<path style=" stroke:none;fill-rule:nonzero;fill:rgb(0%,0%,0%);fill-opacity:1;" d="M 61.058594 115.1875 C 61.058594 113.9375 60.042969 112.921875 58.792969 112.921875 C 57.539062 112.921875 56.523438 113.9375 56.523438 115.1875 C 56.523438 116.441406 57.539062 117.457031 58.792969 117.457031 C 60.042969 117.457031 61.058594 116.441406 61.058594 115.1875 Z M 61.058594 115.1875 "/>
<path style=" stroke:none;fill-rule:nonzero;fill:rgb(0%,0%,0%);fill-opacity:1;" d="M 83.738281 115.1875 C 83.738281 113.9375 82.722656 112.921875 81.46875 112.921875 C 80.21875 112.921875 79.203125 113.9375 79.203125 115.1875 C 79.203125 116.441406 80.21875 117.457031 81.46875 117.457031 C 82.722656 117.457031 83.738281 116.441406 83.738281 115.1875 Z M 83.738281 115.1875 "/>
<path style=" stroke:none;fill-rule:nonzero;fill:rgb(100%,0%,0%);fill-opacity:1;" d="M 49.71875 92.511719 C 49.71875 91.257812 48.703125 90.242188 47.453125 90.242188 C 46.199219 90.242188 45.183594 91.257812 45.183594 92.511719 C 45.183594 93.761719 46.199219 94.777344 47.453125 94.777344 C 48.703125 94.777344 49.71875 93.761719 49.71875 92.511719 Z M 49.71875 92.511719 "/>
<path style=" stroke:none;fill-rule:nonzero;fill:rgb(100%,0%,0%);fill-opacity:1;" d="M 72.398438 92.511719 C 72.398438 91.257812 71.382812 90.242188 70.132812 90.242188 C 68.878906 90.242188 67.863281 91.257812 67.863281 92.511719 C 67.863281 93.761719 68.878906 94.777344 70.132812 94.777344 C 71.382812 94.777344 72.398438 93.761719 72.398438 92.511719 Z M 72.398438 92.511719 "/>
<path style=" stroke:none;fill-rule:nonzero;fill:rgb(100%,0%,0%);fill-opacity:1;" d="M 95.078125 92.511719 C 95.078125 91.257812 94.0625 90.242188 92.808594 90.242188 C 91.558594 90.242188 90.542969 91.257812 90.542969 92.511719 C 90.542969 93.761719 91.558594 94.777344 92.808594 94.777344 C 94.0625 94.777344 95.078125 93.761719 95.078125 92.511719 Z M 95.078125 92.511719 "/>
<path style=" stroke:none;fill-rule:nonzero;fill:rgb(0%,0%,100%);fill-opacity:1;" d="M 61.058594 69.832031 C 61.058594 68.578125 60.042969 67.5625 58.792969 67.5625 C 57.539062 67.5625 56.523438 68.578125 56.523438 69.832031 C 56.523438 71.085938 57.539062 72.101562 58.792969 72.101562 C 60.042969 72.101562 61.058594 71.085938 61.058594 69.832031 Z M 61.058594 69.832031 "/>
<path style=" stroke:none;fill-rule:nonzero;fill:rgb(0%,0%,100%);fill-opacity:1;" d="M 83.738281 69.832031 C 83.738281 68.578125 82.722656 67.5625 81.46875 67.5625 C 80.21875 67.5625 79.203125 68.578125 79.203125 69.832031 C 79.203125 71.085938 80.21875 72.101562 81.46875 72.101562 C 82.722656 72.101562 83.738281 71.085938 83.738281 69.832031 Z M 83.738281 69.832031 "/>
<path style=" stroke:none;fill-rule:nonzero;fill:rgb(0%,0%,100%);fill-opacity:1;" d="M 106.417969 69.832031 C 106.417969 68.578125 105.402344 67.5625 104.148438 67.5625 C 102.894531 67.5625 101.882812 68.578125 101.882812 69.832031 C 101.882812 71.085938 102.894531 72.101562 104.148438 72.101562 C 105.402344 72.101562 106.417969 71.085938 106.417969 69.832031 Z M 106.417969 69.832031 "/>
<path style=" stroke:none;fill-rule:nonzero;fill:rgb(50%,50%,50%);fill-opacity:1;" d="M 72.398438 47.152344 C 72.398438 45.902344 71.382812 44.886719 70.132812 44.886719 C 68.878906 44.886719 67.863281 45.902344 67.863281 47.152344 C 67.863281 48.40625 68.878906 49.421875 70.132812 49.421875 C 71.382812 49.421875 72.398438 48.40625 72.398438 47.152344 Z M 72.398438 47.152344 "/>
<path style=" stroke:none;fill-rule:nonzero;fill:rgb(50%,50%,50%);fill-opacity:1;" d="M 95.078125 47.152344 C 95.078125 45.902344 94.0625 44.886719 92.808594 44.886719 C 91.558594 44.886719 90.542969 45.902344 90.542969 47.152344 C 90.542969 48.40625 91.558594 49.421875 92.808594 49.421875 C 94.0625 49.421875 95.078125 48.40625 95.078125 47.152344 Z M 95.078125 47.152344 "/>
<path style=" stroke:none;fill-rule:nonzero;fill:rgb(50%,50%,50%);fill-opacity:1;" d="M 117.757812 47.152344 C 117.757812 45.902344 116.742188 44.886719 115.488281 44.886719 C 114.234375 44.886719 113.21875 45.902344 113.21875 47.152344 C 113.21875 48.40625 114.234375 49.421875 115.488281 49.421875 C 116.742188 49.421875 117.757812 48.40625 117.757812 47.152344 Z M 117.757812 47.152344 "/>
<path style=" stroke:none;fill-rule:nonzero;fill:rgb(100%,50%,0%);fill-opacity:1;" d="M 83.738281 24.476562 C 83.738281 23.222656 82.722656 22.207031 81.46875 22.207031 C 80.21875 22.207031 79.203125 23.222656 79.203125 24.476562 C 79.203125 25.726562 80.21875 26.742188 81.46875 26.742188 C 82.722656 26.742188 83.738281 25.726562 83.738281 24.476562 Z M 83.738281 24.476562 "/>
<path style=" stroke:none;fill-rule:nonzero;fill:rgb(100%,50%,0%);fill-opacity:1;" d="M 106.417969 24.476562 C 106.417969 23.222656 105.402344 22.207031 104.148438 22.207031 C 102.894531 22.207031 101.882812 23.222656 101.882812 24.476562 C 101.882812 25.726562 102.894531 26.742188 104.148438 26.742188 C 105.402344 26.742188 106.417969 25.726562 106.417969 24.476562 Z M 106.417969 24.476562 "/>
<path style=" stroke:none;fill-rule:nonzero;fill:rgb(100%,50%,0%);fill-opacity:1;" d="M 129.097656 24.476562 C 129.097656 23.222656 128.082031 22.207031 126.828125 22.207031 C 125.574219 22.207031 124.558594 23.222656 124.558594 24.476562 C 124.558594 25.726562 125.574219 26.742188 126.828125 26.742188 C 128.082031 26.742188 129.097656 25.726562 129.097656 24.476562 Z M 129.097656 24.476562 "/>
</g>
</svg>
