<svg xmlns="http://www.w3.org/2000/svg" xmlns:xlink="http://www.w3.org/1999/xlink" xmlns:inkscape="http://www.inkscape.org/namespaces/inkscape" version="1.1" width="159" height="80" viewBox="0 0 159 80">
<defs>
<path id="font_1_1" d="M.21398926 .40118409V.69433596L.036987306 .6863251V.639328C.09899902 .639328 .10598755 .639328 .10598755 .600296V0H.15299988L.20199585 .056015016C.20999146 .04814148 .25898744-.005859375 .34799195-.005859375 .49699403-.005859375 .59999087 .08413696 .59999087 .22315979 .59999087 .35617066 .5059967 .4501953 .36099244 .4501953 .28799439 .4501953 .23799134 .42118836 .21398926 .40118409M.21998596 .09902954V.3501587C.24699402 .3851776 .29499818 .41418458 .34999085 .41418458 .47200013 .41418458 .47200013 .29312135 .47200013 .22309876 .47200013 .17607117 .47200013 .12104797 .44599916 .08201599 .4169922 .041000368 .37098695 .02999878 .33898927 .02999878 .2689972 .02999878 .22999573 .08403015 .21998596 .09902954Z"/>
<path id="font_2_1" d="M.6589966 .23046875C.6759949 .23046875 .69400027 .23046875 .69400027 .25045777 .69400027 .27046205 .6759949 .27046205 .6589966 .27046205H.117996219C.100997928 .27046205 .08299255 .27046205 .08299255 .25045777 .08299255 .23046875 .100997928 .23046875 .117996219 .23046875H.6589966Z"/>
<path id="font_3_1" d="M.1789856 .114868167C.13899231 .047973634 .099990848 .033981325 .055999757 .0309906 .04399109 .02999878 .034988405 .02999878 .034988405 .010986328 .034988405 .004989624 .039993287 0 .04798889 0 .07499695 0 .10598755 .0029907227 .13398743 .0029907227 .16699219 .0029907227 .20199585 0 .23399353 0 .23999024 0 .25299073 0 .25299073 .018997193 .25299073 .02999878 .24398804 .0309906 .23699951 .0309906 .21398926 .032989503 .18998719 .04096985 .18998719 .06593323 .18998719 .077926639 .19599915 .088897708 .20399475 .102890018L.27999879 .23068238H.5309906C.5329895 .2097168 .5469971 .07392883 .5469971 .063949588 .5469971 .033981325 .49499513 .0309906 .47499085 .0309906 .46099855 .0309906 .45098878 .0309906 .45098878 .010986328 .45098878 0 .46299745 0 .46499635 0 .5059967 0 .548996 .0029907227 .58999636 .0029907227 .61499026 .0029907227 .6779938 0 .7029877 0 .70899966 0 .72099307 0 .72099307 .019989014 .72099307 .0309906 .71099856 .0309906 .69799807 .0309906 .6359863 .0309906 .6359863 .037979127 .6329956 .06694031L.57199099 .691803C.56999209 .71180728 .56999209 .7158203 .5529938 .7158203 .5369873 .7158203 .5329895 .7088165 .5269928 .69880679L.1789856 .114868167M.29899598 .26168824 .49598695 .5917816 .5279999 .26168824H.29899598Z"/>
<path id="font_1_2" d="M.44898988 .4013214C.45700074 .412323 .45899964 .4143219 .45899964 .42332459 .45899964 .44433595 .44499208 .44433595 .4269867 .44433595H.05999756L.04798889 .26919557H.09498596C.100997928 .3722992 .13198853 .4083252 .23498535 .4083252H.31999208L.040985109 .04399109C.03199768 .032989503 .03199768 .0309906 .03199768 .021987915 .03199768 0 .04499817 0 .06399536 0H.44400025L.46199037 .20213318H.4149933C.4059906 .1010437 .3899994 .039993287 .2579956 .039993287H.17199707L.44898988 .4013214Z"/>
</defs>
<g>
<path transform="matrix(1.00002,0,0,-1.00002,44.70273,34.83542)" d="M0 0H113.38766L69.73404-43.6536H-43.6536Z" fill="#0000ff" fill-opacity=".2"/>
<path transform="matrix(1.00002,0,0,-1.00002,44.70273,34.83542)" stroke-width=".3985" stroke-linecap="butt" stroke-miterlimit="10" stroke-linejoin="miter" fill="none" stroke="#0000ff" stroke-opacity=".2" d="M0 0H113.38766L69.73404-43.6536H-43.6536Z"/>
</g>
<use data-text="b" xlink:href="#font_1_1" transform="matrix(9.962799,0,0,-9.962799,108.608,24.272208)"/>
<use data-text="&#x2212;" xlink:href="#font_2_1" transform="matrix(9.962799,0,0,-9.962799,117.18619,24.272208)"/>
<use data-text="A" xlink:href="#font_3_1" transform="matrix(9.962799,0,0,-9.962799,127.14938,24.272208)"/>
<use data-text="z" xlink:href="#font_1_2" transform="matrix(9.962799,0,0,-9.962799,134.62154,24.272208)"/>
<use data-text="b" xlink:href="#font_1_1" transform="matrix(9.962799,0,0,-9.962799,69.41422,11.239946)"/>
<use data-text="A" xlink:href="#font_3_1" transform="matrix(9.962799,0,0,-9.962799,57.75399,58.35389)"/>
<use data-text="z" xlink:href="#font_1_2" transform="matrix(9.962799,0,0,-9.962799,65.22614,58.35389)"/>
<path transform="matrix(1.00002,0,0,-1.00002,44.70273,34.83542)" stroke-width="4.252" stroke-linecap="butt" stroke-miterlimit="10" stroke-linejoin="miter" fill="none" stroke="#0000ff" stroke-opacity=".5" d="M55.78723-34.92287V25.33684"/>
<path transform="matrix(0,-1.00002,-1.00002,-0,100.49107,9.498072)" d="M7.77284 0-4.6637 6.21828 0 0-4.6637-6.21828" fill="#0000ff" fill-opacity=".5"/>
<path transform="matrix(1.00002,0,0,-1.00002,44.70273,34.83542)" stroke-width="2.26773" stroke-linecap="butt" stroke-miterlimit="10" stroke-linejoin="miter" fill="none" stroke="#000000" d="M0 0-18.8989-39.33067"/>
<path transform="matrix(-.43307869,.90130808,.90130808,.43307869,25.80347,74.16687)" d="M4.79637 0-2.87782 3.8371 0 0-2.87782-3.8371"/>
<path transform="matrix(1.00002,0,0,-1.00002,44.70273,34.83542)" stroke-width="2.26773" stroke-linecap="butt" stroke-miterlimit="10" stroke-linejoin="miter" fill="none" stroke="#000000" d="M0 0 99.87747-8.33199"/>
<path transform="matrix(.99649998,.08313166,.08313166,-.99649998,144.58219,43.167558)" d="M4.79637 0-2.87782 3.8371 0 0-2.87782-3.8371"/>
<path transform="matrix(1.00002,0,0,-1.00002,44.70273,34.83542)" stroke-width="2.26773" stroke-linecap="butt" stroke-miterlimit="10" stroke-linejoin="miter" fill="none" stroke="#ff0000" d="M0 0 51.6628 30.66182"/>
<path transform="matrix(.85992726,-.5103702,-.5103702,-.85992726,96.36655,4.173004)" d="M4.79637 0-2.87782 3.8371 0 0-2.87782-3.8371" fill="#ff0000"/>
<path transform="matrix(1.00002,0,0,-1.00002,44.70273,34.83542)" stroke-width="4.252" stroke-linecap="butt" stroke-miterlimit="10" stroke-linejoin="miter" fill="none" stroke="#ff0000" stroke-opacity=".2" d="M0 0 49.199-30.79866"/>
<path transform="matrix(.847617,.5306106,.5306106,-.847617,93.9027,65.6347)" d="M7.77284 0-4.6637 6.21828 0 0-4.6637-6.21828" fill="#ff0000" fill-opacity=".2"/>
</svg>
