<?xml version="1.0" encoding="UTF-8"?>
<svg xmlns="http://www.w3.org/2000/svg" xmlns:xlink="http://www.w3.org/1999/xlink" width="162pt" height="162pt" viewBox="0 0 162 162" version="1.1">
<g id="surface1">
<path style="fill:none;stroke-width:0.3985;stroke-linecap:butt;stroke-linejoin:miter;stroke:rgb(79.998779%,79.998779%,79.998779%);stroke-opacity:1;stroke-miterlimit:10;" d="M -79.371912 -79.370063 L 79.371007 -79.370063 M -79.371912 -59.526313 L 79.371007 -59.526313 M -79.371912 -39.686469 L 79.371007 -39.686469 M -79.371912 -19.842719 L 79.371007 -19.842719 M -79.371912 0.00103125 L 79.371007 0.00103125 M -79.371912 19.840875 L 79.371007 19.840875 M -79.371912 39.684625 L 79.371007 39.684625 M -79.371912 59.528375 L 79.371007 59.528375 M -79.371912 79.364312 L 79.371007 79.364312 M -79.371912 -79.370063 L -79.371912 79.372125 M -59.528559 -79.370063 L -59.528559 79.372125 M -39.685206 -79.370063 L -39.685206 79.372125 M -19.841852 -79.370063 L -19.841852 79.372125 M 0.00150065 -79.370063 L 0.00150065 79.372125 M 19.840948 -79.370063 L 19.840948 79.372125 M 39.684301 -79.370063 L 39.684301 79.372125 M 59.527654 -79.370063 L 59.527654 79.372125 M 79.363195 -79.370063 L 79.363195 79.372125 " transform="matrix(1.00002,0,0,-1,81.467249,81.169)"/>
<path style="fill:none;stroke-width:0.3985;stroke-linecap:butt;stroke-linejoin:miter;stroke:rgb(0%,0%,0%);stroke-opacity:1;stroke-miterlimit:10;" d="M -78.973482 0.00103125 L 78.972577 0.00103125 " transform="matrix(1.00002,0,0,-1,81.467249,81.169)"/>
<path style="fill:none;stroke-width:0.3985;stroke-linecap:round;stroke-linejoin:round;stroke:rgb(0%,0%,0%);stroke-opacity:1;stroke-miterlimit:10;" d="M -2.07293 2.389594 C -1.694031 0.956 -0.850298 0.280219 0.00124712 -0.00103125 C -0.850298 -0.278375 -1.694031 -0.958062 -2.07293 -2.391656 " transform="matrix(-1.00002,0,0,1,2.294216,81.169)"/>
<path style="fill:none;stroke-width:0.3985;stroke-linecap:round;stroke-linejoin:round;stroke:rgb(0%,0%,0%);stroke-opacity:1;stroke-miterlimit:10;" d="M -2.073835 2.391656 C -1.694936 0.958062 -0.851203 0.278375 0.000342244 0.00103125 C -0.851203 -0.280219 -1.694936 -0.956 -2.073835 -2.389594 " transform="matrix(1.00002,0,0,-1,160.640283,81.169)"/>
<path style="fill:none;stroke-width:0.3985;stroke-linecap:butt;stroke-linejoin:miter;stroke:rgb(0%,0%,0%);stroke-opacity:1;stroke-miterlimit:10;" d="M 0.00150065 -78.971625 L 0.00150065 78.973687 " transform="matrix(1.00002,0,0,-1,81.467249,81.169)"/>
<path style="fill:none;stroke-width:0.3985;stroke-linecap:round;stroke-linejoin:round;stroke:rgb(0%,0%,0%);stroke-opacity:1;stroke-miterlimit:10;" d="M -2.070919 2.392078 C -1.692012 0.954607 -0.848262 0.278839 -0.00060625 0.00150065 C -0.848262 -0.279744 -1.692012 -0.955511 -2.070919 -2.392983 " transform="matrix(0,1,1.00002,0,81.467249,160.34045)"/>
<path style="fill:none;stroke-width:0.3985;stroke-linecap:round;stroke-linejoin:round;stroke:rgb(0%,0%,0%);stroke-opacity:1;stroke-miterlimit:10;" d="M -2.072762 2.392983 C -1.693856 0.955511 -0.850106 0.279744 0.00145625 -0.00150065 C -0.850106 -0.278839 -1.693856 -0.954607 -2.072762 -2.392078 " transform="matrix(0,-1,-1.00002,0,81.467249,1.99755)"/>
<path style="fill-rule:nonzero;fill:rgb(0%,0%,100%);fill-opacity:0.3;stroke-width:0.3985;stroke-linecap:butt;stroke-linejoin:miter;stroke:rgb(0%,0%,100%);stroke-opacity:0.3;stroke-miterlimit:10;" d="M 0.00150065 0.00103125 L 79.371007 0.00103125 L 79.371007 79.372125 L 0.00150065 79.372125 Z M 0.00150065 0.00103125 " transform="matrix(1.00002,0,0,-1,81.467249,81.169)"/>
<path style="fill-rule:nonzero;fill:rgb(0%,0%,100%);fill-opacity:0.3;stroke-width:0.3985;stroke-linecap:butt;stroke-linejoin:miter;stroke:rgb(0%,0%,100%);stroke-opacity:0.3;stroke-miterlimit:10;" d="M 0.00150065 0.00103125 L -79.371912 0.00103125 L -79.371912 -79.370063 L 0.00150065 -79.370063 Z M 0.00150065 0.00103125 " transform="matrix(1.00002,0,0,-1,81.467249,81.169)"/>
</g>
</svg>
