<svg xmlns="http://www.w3.org/2000/svg" xmlns:xlink="http://www.w3.org/1999/xlink" xmlns:inkscape="http://www.inkscape.org/namespaces/inkscape" version="1.1" width="81" height="82" viewBox="0 0 81 82">
<g>
<path transform="matrix(1.00002,0,0,-1.00003,22.875306,58.494279)" d="M0 0H56.69362V56.69362H0Z" fill="#0000ff" fill-opacity=".3"/>
<path transform="matrix(1.00002,0,0,-1.00003,22.875306,58.494279)" stroke-width=".3985" stroke-linecap="butt" stroke-miterlimit="10" stroke-linejoin="miter" fill="none" stroke="#0000ff" stroke-opacity=".3" d="M0 0H56.69362V56.69362H0Z"/>
</g>
<g>
<path transform="matrix(1.00002,0,0,-1.00003,22.875306,58.494279)" d="M0 0-21.82672-21.82672V34.86688L0 56.69362Z" fill="#ff0000" fill-opacity=".3"/>
<path transform="matrix(1.00002,0,0,-1.00003,22.875306,58.494279)" stroke-width=".3985" stroke-linecap="butt" stroke-miterlimit="10" stroke-linejoin="miter" fill="none" stroke="#ff0000" stroke-opacity=".3" d="M0 0-21.82672-21.82672V34.86688L0 56.69362Z"/>
</g>
<g>
<path transform="matrix(1.00002,0,0,-1.00003,22.875306,58.494279)" d="M0 0-21.82672-21.82672H34.86688L56.69362 0Z" fill="#7f807f" fill-opacity=".5"/>
<path transform="matrix(1.00002,0,0,-1.00003,22.875306,58.494279)" stroke-width=".3985" stroke-linecap="butt" stroke-miterlimit="10" stroke-linejoin="miter" fill="none" stroke="#7f807f" stroke-opacity=".5" d="M0 0-21.82672-21.82672H34.86688L56.69362 0Z"/>
</g>
<path transform="matrix(1.00002,0,0,-1.00003,22.875306,58.494279)" d="M2.83484 0C2.83484 1.56564 1.56564 2.83484 0 2.83484-1.56564 2.83484-2.83484 1.56564-2.83484 0-2.83484-1.56564-1.56564-2.83484 0-2.83484 1.56564-2.83484 2.83484-1.56564 2.83484 0ZM0 0"/>
</svg>
