<?xml version="1.0" encoding="UTF-8"?>
<svg xmlns="http://www.w3.org/2000/svg" xmlns:xlink="http://www.w3.org/1999/xlink" width="138pt" height="139pt" viewBox="0 0 138 139" version="1.1">
<g id="surface1">
<path style="fill:none;stroke-width:0.3985;stroke-linecap:butt;stroke-linejoin:miter;stroke:rgb(0%,0%,0%);stroke-opacity:1;stroke-miterlimit:10;" d="M -44.957987 -0.00142335 L 90.312593 -0.00142335 " transform="matrix(1.00005,0,0,-1.00003,46.452423,92.510295)"/>
<path style="fill:none;stroke-width:0.3985;stroke-linecap:round;stroke-linejoin:round;stroke:rgb(0%,0%,0%);stroke-opacity:1;stroke-miterlimit:10;" d="M -2.072709 2.391977 C -1.693822 0.95452 -0.850114 0.278759 0.00140589 0.00142335 C -0.850114 -0.279818 -1.693822 -0.955579 -2.072709 -2.38913 " transform="matrix(-1.00005,0,0,1.00003,1.294375,92.510295)"/>
<path style="fill:none;stroke-width:0.3985;stroke-linecap:round;stroke-linejoin:round;stroke:rgb(0%,0%,0%);stroke-opacity:1;stroke-miterlimit:10;" d="M -2.073173 2.38913 C -1.694286 0.955579 -0.850578 0.279818 0.00094191 -0.00142335 C -0.850578 -0.278759 -1.694286 -0.95452 -2.073173 -2.391977 " transform="matrix(1.00005,0,0,-1.00003,136.967808,92.510295)"/>
<path style="fill:none;stroke-width:0.3985;stroke-linecap:butt;stroke-linejoin:miter;stroke:rgb(0%,0%,0%);stroke-opacity:1;stroke-miterlimit:10;" d="M 0.000702465 -44.957106 L 0.000702465 90.312273 " transform="matrix(1.00005,0,0,-1.00003,46.452423,92.510295)"/>
<path style="fill:none;stroke-width:0.3985;stroke-linecap:round;stroke-linejoin:round;stroke:rgb(0%,0%,0%);stroke-opacity:1;stroke-miterlimit:10;" d="M -2.073628 2.391208 C -1.694733 0.957686 -0.851008 0.278032 0.0005287 0.000702465 C -0.851008 -0.280533 -1.694733 -0.956281 -2.073628 -2.389803 " transform="matrix(0,1.00003,1.00005,0,46.452423,137.66744)"/>
<path style="fill:none;stroke-width:0.3985;stroke-linecap:round;stroke-linejoin:round;stroke:rgb(0%,0%,0%);stroke-opacity:1;stroke-miterlimit:10;" d="M -2.07353 2.389803 C -1.694635 0.956281 -0.850911 0.280533 0.000626265 -0.000702465 C -0.850911 -0.278032 -1.694635 -0.957686 -2.07353 -2.391208 " transform="matrix(0,-1.00003,-1.00005,0,46.452423,1.99672)"/>
<path style="fill:none;stroke-width:0.3985;stroke-linecap:butt;stroke-linejoin:miter;stroke:rgb(0%,0%,0%);stroke-opacity:1;stroke-dasharray:2.98883,2.98883;stroke-miterlimit:10;" d="M -45.356405 -22.676524 L 90.711011 -22.676524 " transform="matrix(1.00005,0,0,-1.00003,46.452423,92.510295)"/>
<path style="fill:none;stroke-width:0.3985;stroke-linecap:butt;stroke-linejoin:miter;stroke:rgb(0%,0%,0%);stroke-opacity:1;stroke-dasharray:2.98883,2.98883;stroke-miterlimit:10;" d="M -45.356405 22.677584 L 90.711011 22.677584 " transform="matrix(1.00005,0,0,-1.00003,46.452423,92.510295)"/>
<path style="fill:none;stroke-width:0.3985;stroke-linecap:butt;stroke-linejoin:miter;stroke:rgb(0%,0%,0%);stroke-opacity:1;stroke-dasharray:2.98883,2.98883;stroke-miterlimit:10;" d="M -45.356405 45.356591 L 90.711011 45.356591 " transform="matrix(1.00005,0,0,-1.00003,46.452423,92.510295)"/>
<path style="fill:none;stroke-width:0.3985;stroke-linecap:butt;stroke-linejoin:miter;stroke:rgb(0%,0%,0%);stroke-opacity:1;stroke-dasharray:2.98883,2.98883;stroke-miterlimit:10;" d="M -45.356405 68.031692 L 90.711011 68.031692 " transform="matrix(1.00005,0,0,-1.00003,46.452423,92.510295)"/>
<path style=" stroke:none;fill-rule:nonzero;fill:rgb(0%,0%,0%);fill-opacity:1;" d="M 48.71875 115.1875 C 48.71875 113.9375 47.703125 112.921875 46.453125 112.921875 C 45.199219 112.921875 44.183594 113.9375 44.183594 115.1875 C 44.183594 116.441406 45.199219 117.457031 46.453125 117.457031 C 47.703125 117.457031 48.71875 116.441406 48.71875 115.1875 Z M 48.71875 115.1875 "/>
<path style=" stroke:none;fill-rule:nonzero;fill:rgb(0%,0%,0%);fill-opacity:1;" d="M 71.398438 115.1875 C 71.398438 113.9375 70.382812 112.921875 69.132812 112.921875 C 67.878906 112.921875 66.863281 113.9375 66.863281 115.1875 C 66.863281 116.441406 67.878906 117.457031 69.132812 117.457031 C 70.382812 117.457031 71.398438 116.441406 71.398438 115.1875 Z M 71.398438 115.1875 "/>
<path style=" stroke:none;fill-rule:nonzero;fill:rgb(0%,0%,0%);fill-opacity:1;" d="M 94.078125 115.1875 C 94.078125 113.9375 93.0625 112.921875 91.808594 112.921875 C 90.558594 112.921875 89.542969 113.9375 89.542969 115.1875 C 89.542969 116.441406 90.558594 117.457031 91.808594 117.457031 C 93.0625 117.457031 94.078125 116.441406 94.078125 115.1875 Z M 94.078125 115.1875 "/>
<path style=" stroke:none;fill-rule:nonzero;fill:rgb(100%,0%,0%);fill-opacity:1;" d="M 48.71875 92.511719 C 48.71875 91.257812 47.703125 90.242188 46.453125 90.242188 C 45.199219 90.242188 44.183594 91.257812 44.183594 92.511719 C 44.183594 93.761719 45.199219 94.777344 46.453125 94.777344 C 47.703125 94.777344 48.71875 93.761719 48.71875 92.511719 Z M 48.71875 92.511719 "/>
<path style=" stroke:none;fill-rule:nonzero;fill:rgb(100%,0%,0%);fill-opacity:1;" d="M 71.398438 92.511719 C 71.398438 91.257812 70.382812 90.242188 69.132812 90.242188 C 67.878906 90.242188 66.863281 91.257812 66.863281 92.511719 C 66.863281 93.761719 67.878906 94.777344 69.132812 94.777344 C 70.382812 94.777344 71.398438 93.761719 71.398438 92.511719 Z M 71.398438 92.511719 "/>
<path style=" stroke:none;fill-rule:nonzero;fill:rgb(100%,0%,0%);fill-opacity:1;" d="M 94.078125 92.511719 C 94.078125 91.257812 93.0625 90.242188 91.808594 90.242188 C 90.558594 90.242188 89.542969 91.257812 89.542969 92.511719 C 89.542969 93.761719 90.558594 94.777344 91.808594 94.777344 C 93.0625 94.777344 94.078125 93.761719 94.078125 92.511719 Z M 94.078125 92.511719 "/>
<path style=" stroke:none;fill-rule:nonzero;fill:rgb(0%,0%,100%);fill-opacity:1;" d="M 48.71875 69.832031 C 48.71875 68.578125 47.703125 67.5625 46.453125 67.5625 C 45.199219 67.5625 44.183594 68.578125 44.183594 69.832031 C 44.183594 71.085938 45.199219 72.101562 46.453125 72.101562 C 47.703125 72.101562 48.71875 71.085938 48.71875 69.832031 Z M 48.71875 69.832031 "/>
<path style=" stroke:none;fill-rule:nonzero;fill:rgb(0%,0%,100%);fill-opacity:1;" d="M 71.398438 69.832031 C 71.398438 68.578125 70.382812 67.5625 69.132812 67.5625 C 67.878906 67.5625 66.863281 68.578125 66.863281 69.832031 C 66.863281 71.085938 67.878906 72.101562 69.132812 72.101562 C 70.382812 72.101562 71.398438 71.085938 71.398438 69.832031 Z M 71.398438 69.832031 "/>
<path style=" stroke:none;fill-rule:nonzero;fill:rgb(0%,0%,100%);fill-opacity:1;" d="M 94.078125 69.832031 C 94.078125 68.578125 93.0625 67.5625 91.808594 67.5625 C 90.558594 67.5625 89.542969 68.578125 89.542969 69.832031 C 89.542969 71.085938 90.558594 72.101562 91.808594 72.101562 C 93.0625 72.101562 94.078125 71.085938 94.078125 69.832031 Z M 94.078125 69.832031 "/>
<path style=" stroke:none;fill-rule:nonzero;fill:rgb(50%,50%,50%);fill-opacity:1;" d="M 48.71875 47.152344 C 48.71875 45.902344 47.703125 44.886719 46.453125 44.886719 C 45.199219 44.886719 44.183594 45.902344 44.183594 47.152344 C 44.183594 48.40625 45.199219 49.421875 46.453125 49.421875 C 47.703125 49.421875 48.71875 48.40625 48.71875 47.152344 Z M 48.71875 47.152344 "/>
<path style=" stroke:none;fill-rule:nonzero;fill:rgb(50%,50%,50%);fill-opacity:1;" d="M 71.398438 47.152344 C 71.398438 45.902344 70.382812 44.886719 69.132812 44.886719 C 67.878906 44.886719 66.863281 45.902344 66.863281 47.152344 C 66.863281 48.40625 67.878906 49.421875 69.132812 49.421875 C 70.382812 49.421875 71.398438 48.40625 71.398438 47.152344 Z M 71.398438 47.152344 "/>
<path style=" stroke:none;fill-rule:nonzero;fill:rgb(50%,50%,50%);fill-opacity:1;" d="M 94.078125 47.152344 C 94.078125 45.902344 93.0625 44.886719 91.808594 44.886719 C 90.558594 44.886719 89.542969 45.902344 89.542969 47.152344 C 89.542969 48.40625 90.558594 49.421875 91.808594 49.421875 C 93.0625 49.421875 94.078125 48.40625 94.078125 47.152344 Z M 94.078125 47.152344 "/>
<path style=" stroke:none;fill-rule:nonzero;fill:rgb(100%,50%,0%);fill-opacity:1;" d="M 48.71875 24.476562 C 48.71875 23.222656 47.703125 22.207031 46.453125 22.207031 C 45.199219 22.207031 44.183594 23.222656 44.183594 24.476562 C 44.183594 25.726562 45.199219 26.742188 46.453125 26.742188 C 47.703125 26.742188 48.71875 25.726562 48.71875 24.476562 Z M 48.71875 24.476562 "/>
<path style=" stroke:none;fill-rule:nonzero;fill:rgb(100%,50%,0%);fill-opacity:1;" d="M 71.398438 24.476562 C 71.398438 23.222656 70.382812 22.207031 69.132812 22.207031 C 67.878906 22.207031 66.863281 23.222656 66.863281 24.476562 C 66.863281 25.726562 67.878906 26.742188 69.132812 26.742188 C 70.382812 26.742188 71.398438 25.726562 71.398438 24.476562 Z M 71.398438 24.476562 "/>
<path style=" stroke:none;fill-rule:nonzero;fill:rgb(100%,50%,0%);fill-opacity:1;" d="M 94.078125 24.476562 C 94.078125 23.222656 93.0625 22.207031 91.808594 22.207031 C 90.558594 22.207031 89.542969 23.222656 89.542969 24.476562 C 89.542969 25.726562 90.558594 26.742188 91.808594 26.742188 C 93.0625 26.742188 94.078125 25.726562 94.078125 24.476562 Z M 94.078125 24.476562 "/>
</g>
</svg>
