<svg xmlns="http://www.w3.org/2000/svg" xmlns:xlink="http://www.w3.org/1999/xlink" xmlns:inkscape="http://www.inkscape.org/namespaces/inkscape" version="1.1" width="256" height="195" viewBox="0 0 256 195">
<defs>
<path id="font_1_1" d="M.32598878-1.7597656H.394989V-.029937745H.6589966V.0390625H.32598878V-1.7597656Z"/>
<path id="font_1_3" d="M.32598878-1.7587891H.6589966V-1.6898041H.394989V.040039064H.32598878V-1.7587891Z"/>
<path id="font_2_2" d="M.2939911 .64004519C.2939911 .66400149 .2939911 .6660156 .2709961 .6660156 .20899964 .60227969 .12098694 .60227969 .08898926 .60227969V.57128909C.10899353 .57128909 .16799927 .57128909 .21998596 .5972748V.07902527C.21998596 .042999269 .21699524 .0309906 .1269989 .0309906H.09498596V0C.12998963 .0029907227 .21699524 .0029907227 .25698854 .0029907227 .29699708 .0029907227 .38398744 .0029907227 .4189911 0V.0309906H.3869934C.29699708 .0309906 .2939911 .041992189 .2939911 .07902527V.64004519Z"/>
<path id="font_2_3" d="M.1269989 .07699585 .23298645 .18003845C.3889923 .31811524 .44898988 .3721466 .44898988 .47216798 .44898988 .5860901 .35899354 .6660156 .23699951 .6660156 .12399292 .6660156 .049987794 .57411196 .049987794 .48516847 .049987794 .4291687 .099990848 .4291687 .102996829 .4291687 .11999512 .4291687 .15499878 .44117738 .15499878 .48217774 .15499878 .5081787 .13699341 .5341797 .101989749 .5341797 .09399414 .5341797 .09199524 .5341797 .08898926 .5331726 .11199951 .59806826 .1659851 .63500979 .22399903 .63500979 .31498719 .63500979 .35798646 .5541382 .35798646 .47216798 .35798646 .39215089 .30799867 .31311036 .25299073 .25108338L.06098938 .036987306C.049987794 .025985718 .049987794 .023986817 .049987794 0H.42099L.44898988 .17404175H.42399598C.4189911 .14402771 .4119873 .1000061 .4019928 .084991458 .394989 .07699585 .32899476 .07699585 .30699159 .07699585H.1269989Z"/>
<path id="font_3_1" d="M.6589966 .23046875C.6759949 .23046875 .69400027 .23046875 .69400027 .25045777 .69400027 .27046205 .6759949 .27046205 .6589966 .27046205H.117996219C.100997928 .27046205 .08299255 .27046205 .08299255 .25045777 .08299255 .23046875 .100997928 .23046875 .117996219 .23046875H.6589966Z"/>
<path id="font_2_4" d="M.2899933 .35191346C.37199403 .37893678 .42999269 .4490509 .42999269 .52809146 .42999269 .6100464 .34199525 .6660156 .24598694 .6660156 .14498902 .6660156 .068984989 .60606387 .068984989 .53009036 .068984989 .49710084 .09098816 .47808839 .11999512 .47808839 .15098572 .47808839 .17098999 .50009158 .17098999 .5290985 .17098999 .57910159 .12399292 .57910159 .10899353 .57910159 .13999939 .62802127 .20599365 .64100649 .24198914 .64100649 .2829895 .64100649 .33799745 .6190338 .33799745 .5290985 .33799745 .51708987 .33599855 .45906068 .30999757 .4149933 .27999879 .36691285 .24598694 .36390687 .22099304 .36291505 .21299744 .36190797 .18899536 .35990907 .18199158 .35990907 .17399597 .35890199 .16699219 .35791017 .16699219 .3479004 .16699219 .33691407 .17399597 .33691407 .19099427 .33691407H.23498535C.31698609 .33691407 .35398866 .2686615 .35398866 .17037964 .35398866 .034469606 .2849884 .0055389406 .24099732 .0055389406 .19799805 .0055389406 .12298584 .022491456 .08799744 .08137512 .12298584 .07637024 .1539917 .09837341 .1539917 .1363678 .1539917 .17237854 .1269989 .19238281 .09799194 .19238281 .07398987 .19238281 .041992189 .17837525 .041992189 .1343689 .041992189 .043441774 .1349945-.022460938 .24398804-.022460938 .3659973-.022460938 .45700074 .06838989 .45700074 .17037964 .45700074 .252594 .3939972 .33088685 .2899933 .35191346Z"/>
<path id="font_2_5" d="M.44898988 .20022583C.44898988 .3193512 .36698915 .41944886 .25898744 .41944886 .21099854 .41944886 .16799927 .40345765 .13198853 .36842347V.5637665C.1519928 .5577698 .18499756 .55078127 .21699524 .55078127 .33999635 .55078127 .4099884 .6417694 .4099884 .6547699 .4099884 .6607666 .40699769 .6657715 .3999939 .6657715 .39898683 .6657715 .39698792 .6657715 .3919983 .66278079 .37199403 .6537781 .32299806 .6337738 .2559967 .6337738 .21598816 .6337738 .16999817 .6407776 .12298584 .6617737 .114990238 .66477969 .11299133 .66477969 .11099243 .66477969 .100997928 .66477969 .100997928 .6567688 .100997928 .6407776V.34439088C.100997928 .32637025 .100997928 .31835938 .114990238 .31835938 .12199402 .31835938 .12399292 .32136537 .12799073 .32736207 .13899231 .3433838 .17599488 .39746095 .25698854 .39746095 .30899049 .39746095 .33399964 .35139466 .34199525 .33337403 .35798646 .29632569 .3600006 .25727845 .3600006 .20722962 .3600006 .17222595 .3600006 .11222839 .33599855 .07035828 .31199647 .031463624 .2749939 .0055389406 .22898865 .0055389406 .1559906 .0055389406 .09899902 .058380128 .08198547 .11723328 .084991458 .1162262 .08799744 .115234378 .09899902 .115234378 .13198853 .115234378 .14898682 .14022827 .14898682 .16423035 .14898682 .18823242 .13198853 .21322632 .09899902 .21322632 .084991458 .21322632 .049987794 .20622254 .049987794 .16023255 .049987794 .07434082 .11898804-.022460938 .23098755-.022460938 .34700013-.022460938 .44898988 .073349 .44898988 .20022583Z"/>
<path id="font_1_2" d="M.2709961-1.7597656H.33999635V.0390625H.0069885256V-.029937745H.2709961V-1.7597656Z"/>
<path id="font_1_4" d="M.2709961-1.6898041H.0069885256V-1.7587891H.33999635V.040039064H.2709961V-1.6898041Z"/>
<path id="font_2_1" d="M.45999146 .31976319C.45999146 .39982606 .45498658 .47988893 .41999818 .5539398 .37399293 .65000918 .2919922 .6660156 .25 .6660156 .18998719 .6660156 .116989139 .64001467 .07598877 .54693606 .04399109 .47789 .038986207 .39982606 .038986207 .31976319 .038986207 .24472046 .042999269 .15464783 .083999637 .07859802 .1269989-.0024719239 .19999695-.022460938 .24899292-.022460938 .30299378-.022460938 .3789978-.0014648438 .4229889 .09359741 .45498658 .16265869 .45999146 .2407074 .45999146 .31976319M.24899292-.00047302247C.20999146-.00047302247 .15098572 .024551392 .1329956 .12062073 .12199402 .18066406 .12199402 .2727356 .12199402 .3317871 .12199402 .39582826 .12199402 .46188355 .12998963 .5159149 .14898682 .63500979 .22399903 .64401248 .24899292 .64401248 .28199769 .64401248 .34799195 .6259918 .36698915 .52693179 .3769989 .47088624 .3769989 .39482118 .3769989 .3317871 .3769989 .25672914 .3769989 .18867493 .3659973 .12461853 .35099793 .029556275 .2939911-.00047302247 .24899292-.00047302247Z"/>
<path id="font_2_7" d="M.16299439 .4569702C.116989139 .486969 .11299133 .52098086 .11299133 .5379791 .11299133 .598999 .17799378 .64100649 .24899292 .64100649 .32199098 .64100649 .38598634 .58898928 .38598634 .51698306 .38598634 .45996095 .34700013 .4119568 .2869873 .37695313L.16299439 .4569702M.30899049 .36193849C.3809967 .3989563 .42999269 .45095826 .42999269 .51698306 .42999269 .6090088 .34098817 .6660156 .25 .6660156 .1499939 .6660156 .068984989 .59199526 .068984989 .49897767 .068984989 .4809723 .070999149 .43595887 .11299133 .38894654 .12399292 .37695313 .16099549 .35194398 .18598938 .33494569 .12799073 .30592347 .041992189 .24984741 .041992189 .15072632 .041992189 .04458618 .14399719-.022460938 .24899292-.022460938 .3619995-.022460938 .45700074 .06060791 .45700074 .16773987 .45700074 .20379639 .44599916 .24885559 .4079895 .2909088 .3889923 .31193543 .37298585 .3219452 .30899049 .36193849M.20899964 .3199463 .33198548 .24183655C.3600006 .2228241 .40699769 .19277954 .40699769 .13169861 .40699769 .05760193 .33198548 .0055389406 .25 .0055389406 .1639862 .0055389406 .09199524 .067611698 .09199524 .15072632 .09199524 .20880127 .12399292 .27288819 .20899964 .3199463Z"/>
<path id="font_2_6" d="M.13198853 .327713V.35173036C.13198853 .6047821 .2559967 .64100649 .30699159 .64100649 .33099366 .64100649 .37298585 .634964 .394989 .6007538 .37998963 .6007538 .33999635 .6007538 .33999635 .5557556 .33999635 .524765 .3639984 .5097656 .38598634 .5097656 .4019928 .5097656 .43199159 .51875308 .43199159 .5577545 .43199159 .6178589 .3880005 .6660156 .30499269 .6660156 .1769867 .6660156 .041992189 .5367584 .041992189 .31570436 .041992189 .048553468 .1579895-.022460938 .25099183-.022460938 .3619995-.022460938 .45700074 .07156372 .45700074 .2036438 .45700074 .33070375 .36799623 .4267578 .25698854 .4267578 .18899536 .4267578 .1519928 .37573243 .13198853 .327713M.25099183 .0055389406C.18798828 .0055389406 .1579895 .06556702 .1519928 .080566409 .13398743 .127594 .13398743 .2076416 .13398743 .22564698 .13398743 .30369569 .1659851 .40374757 .2559967 .40374757 .27198792 .40374757 .31799317 .40374757 .34899903 .34172059 .36698915 .30470277 .36698915 .2536621 .36698915 .20463562 .36698915 .15661621 .36698915 .10658264 .34999085 .0705719 .31999208 .010528564 .27398683 .0055389406 .25099183 .0055389406Z"/>
<path id="font_4_95" d="M.7319946 .08753967C.7319946 .09353638 .7319946 .104537967 .71899417 .104537967 .70799258 .104537967 .70799258 .09555054 .70700076 .08854675 .70098879 .017532349 .66600039-.00047302247 .6409912-.00047302247 .59199526-.00047302247 .58399966 .05053711 .56999209 .14355469L.5569916 .22355652C.5389862 .28756715 .48999024 .3205719 .43499757 .3395691 .5319977 .36357118 .6100006 .4245758 .6100006 .502594 .6100006 .5986023 .49598695 .6826172 .34899903 .6826172H.034988405V.6516113H.05899048C.13598633 .6516113 .13798523 .64060977 .13798523 .604599V.077545169C.13798523 .04197693 .13598633 .0309906 .05899048 .0309906H.034988405V0C.070999149 .0029907227 .14199829 .0029907227 .18099976 .0029907227 .21998596 .0029907227 .29100038 .0029907227 .32699586 0V.0309906H.30299378C.22599793 .0309906 .22399903 .04197693 .22399903 .077926639V.3305359H.33898927C.35499574 .3305359 .39698792 .3305359 .43199159 .29658509 .46998597 .26063539 .46998597 .22969055 .46998597 .16279602 .46998597 .09788513 .46998597 .05795288 .5109863 .019989014 .5519867-.016464234 .6069946-.022460938 .6369934-.022460938 .71499636-.022460938 .7319946 .059524537 .7319946 .087524417V.08753967M.5069885 .5025635C.5069885 .43354798 .48298646 .35253907 .33499146 .35253907H.22399903V.6116028C.22399903 .6345978 .22399903 .64660647 .24598694 .6496124 .2559967 .6516113 .2849884 .6516113 .30499269 .6516113 .394989 .6516113 .5069885 .6476135 .5069885 .5025635Z"/>
<path id="font_4_81" d="M.47099305 .21424866C.47099305 .34223939 .37098695 .4482422 .25 .4482422 .125 .4482422 .027999878 .3392334 .027999878 .21424866 .027999878 .085250858 .13198853-.0107421879 .24899292-.0107421879 .36999513-.0107421879 .47099305 .087249759 .47099305 .21424866M.3880005 .22224427C.3880005 .18624878 .3880005 .13224793 .3659973 .08824158 .34399415 .04324341 .2999878 .014251709 .25 .014251709 .20698548 .014251709 .16299439 .035247804 .13598633 .08125305 .11099243 .12524414 .11099243 .18624878 .11099243 .22224427 .11099243 .26124574 .11099243 .31523133 .1349945 .35923768 .1619873 .40522767 .20899964 .426239 .24899292 .426239 .29299928 .426239 .33599855 .40423585 .3619995 .36123658 .3880005 .3182373 .3880005 .26023866 .3880005 .22224427Z"/>
<path id="font_4_114" d="M.7029877 .3996582V.43066407C.68099978 .4286499 .6519928 .42765809 .6299896 .42765809L.5369873 .43066407V.3996582C.57299807 .39866639 .59498599 .38075257 .59498599 .35176087 .59498599 .34576417 .59498599 .34376527 .58999636 .33078004L.49899293 .07513428 .3999939 .35375978C.3959961 .36575318 .394989 .36775209 .394989 .37275697 .394989 .3996582 .43399049 .3996582 .45399476 .3996582V.43066407L.34999085 .42765809C.31999208 .42765809 .29100038 .4286499 .26098634 .43066407V.3996582C.2979889 .3996582 .31399537 .39767457 .32398988 .38476563 .32899476 .37875367 .33999635 .34877015 .34700013 .3297882L.26098634 .08811951 .1659851 .3547516C.16099549 .36676026 .16099549 .36875917 .16099549 .37275697 .16099549 .3996582 .19999695 .3996582 .21998596 .3996582V.43066407L.11099243 .42765809 .017990113 .43066407V.3996582C.067993167 .3996582 .07998657 .39668275 .09199524 .36476136L.21798706 .01121521C.22299195-.0027618409 .22599793-.0107421879 .23899842-.0107421879 .2519989-.0107421879 .2539978-.004760742 .25898744 .009216309L.3600006 .2918396 .46199037 .008224487C.46598817-.0027618409 .46899415-.0107421879 .48199464-.0107421879 .49499513-.0107421879 .49798585-.0017547608 .5019989 .008224487L.61898806 .3357849C.6369934 .38575746 .66799929 .39866639 .7029877 .3996582Z"/>
<path id="font_4_64" d="M.27598573 .18710327V.24511719H.010986328V.18710327H.27598573Z"/>
<path id="font_4_49" d="M.6519928 .2579193H.6269989C.60198977 .10397339 .57899478 .0309906 .40699769 .0309906H.27398683C.22698975 .0309906 .22499085 .037994386 .22499085 .07098389V.33789063H.31498719C.4119873 .33789063 .4229889 .30589295 .4229889 .220932H.44799806V.48606874H.4229889C.4229889 .39994813 .4119873 .36888124 .31498719 .36888124H.22499085V.6087799C.22499085 .6416931 .22698975 .64868167 .27398683 .64868167H.40299989C.55599978 .64868167 .58299258 .59381106 .598999 .45507813H.6239929L.59599307 .6796875H.032989503V.64868167H.056991579C.13398743 .64868167 .13598633 .6377106 .13598633 .6017914V.07797241C.13598633 .041992189 .13398743 .0309906 .056991579 .0309906H.032989503V0H.6100006L.6519928 .2579193Z"/>
<path id="font_4_43" d="M.4149933 .119140628C.4149933 .12911988 .40499879 .12911988 .4019928 .12911988 .3929901 .12911988 .3909912 .12512207 .3889923 .119140628 .3600006 .026229859 .29499818 .014251709 .2579956 .014251709 .20498657 .014251709 .116989139 .0572052 .116989139 .21801758 .116989139 .38093568 .19898987 .42323304 .2519989 .42323304 .26098634 .42323304 .32398988 .42222596 .35899354 .38594056 .31799317 .38293458 .31199647 .3529358 .31199647 .3399353 .31199647 .31393434 .32998658 .2939453 .35798646 .2939453 .38398744 .2939453 .4039917 .3109436 .4039917 .34094239 .4039917 .40911866 .32798768 .4482422 .25099183 .4482422 .12599182 .4482422 .033996583 .3399353 .033996583 .21601868 .033996583 .08816528 .1329956-.0107421879 .24899292-.0107421879 .3829956-.0107421879 .4149933 .10914612 .4149933 .119140628Z"/>
<path id="font_4_63" d="M.5349884 0V.0309906C.48298646 .0309906 .45799256 .0309906 .45700074 .061019899V.25221253C.45700074 .3383026 .45700074 .36932374 .42599488 .405365 .4119873 .42237855 .3789978 .4423828 .32099916 .4423828 .23699951 .4423828 .19299317 .38233949 .1769867 .34629823H.17599488V.69433596L.03199768 .6826172V.6516113C.101989749 .6516113 .10998535 .64463809 .10998535 .59580996V.076034549C.10998535 .0309906 .09899902 .0309906 .03199768 .0309906V0L.14498902 .0029907227 .25698854 0V.0309906C.18998719 .0309906 .1789856 .0309906 .1789856 .076034549V.2602234C.1789856 .36431886 .25 .42037965 .31399537 .42037965 .3769989 .42037965 .3880005 .36631776 .3880005 .30926515V.076034549C.3880005 .0309906 .3769989 .0309906 .30999757 .0309906V0L.4229889 .0029907227 .5349884 0Z"/>
<path id="font_4_50" d="M.4149933 .11933899C.4149933 .12934876 .40699769 .13134766 .4019928 .13134766 .3929901 .13134766 .3909912 .12535095 .3889923 .11734009 .35398866 .014251709 .2639923 .014251709 .2539978 .014251709 .20399475 .014251709 .1639862 .044281007 .14099121 .08131409 .11099243 .12934876 .11099243 .19540406 .11099243 .23144531H.3899994C.4119873 .23144531 .4149933 .23144531 .4149933 .2524414 .4149933 .35131837 .36099244 .4482422 .23599243 .4482422 .11999512 .4482422 .027999878 .34532167 .027999878 .22042847 .027999878 .08631897 .1329956-.0107421879 .24798584-.0107421879 .36999513-.0107421879 .4149933 .10032654 .4149933 .11933899M.34899903 .2524414H.11199951C.117996219 .40126039 .20199585 .426239 .23599243 .426239 .33898927 .426239 .34899903 .2913971 .34899903 .2524414Z"/>
<path id="font_4_72" d="M.25498963 0V.0309906C.18798828 .0309906 .1769867 .0309906 .1769867 .07601929V.69433596L.032989503 .6826172V.6516113C.102996829 .6516113 .11099243 .64460757 .11099243 .5956421V.07595825C.11099243 .0309906 .099990848 .0309906 .032989503 .0309906V0L.14399719 .0029907227 .25498963 0Z"/>
<path id="font_4_77" d="M.5349884 0V.0309906C.48298646 .0309906 .45799256 .0309906 .45700074 .061019899V.25221253C.45700074 .3383026 .45700074 .36932374 .42599488 .405365 .4119873 .42237855 .3789978 .4423828 .32099916 .4423828 .24798584 .4423828 .20098877 .39935304 .17298889 .33729554V.4423828L.03199768 .43066407V.3996582C.101989749 .3996582 .10998535 .39266969 .10998535 .34370423V.07595825C.10998535 .0309906 .09899902 .0309906 .03199768 .0309906V0L.14498902 .0029907227 .25698854 0V.0309906C.18998719 .0309906 .1789856 .0309906 .1789856 .07595825V.25978089C.1789856 .36431886 .25 .42037965 .31399537 .42037965 .3769989 .42037965 .3880005 .36631776 .3880005 .30926515V.076034549C.3880005 .0309906 .3769989 .0309906 .30999757 .0309906V0L.4229889 .0029907227 .5349884 0Z"/>
<path id="font_4_54" d="M.6100006 .45477296 .58200076 .6796875H.032989503V.64868167H.056991579C.13398743 .64868167 .13598633 .63768008 .13598633 .6016998V.07797241C.13598633 .041992189 .13398743 .0309906 .056991579 .0309906H.032989503V0C.067993167 .0029907227 .1459961 .0029907227 .18499756 .0029907227 .22599793 .0029907227 .31698609 .0029907227 .35299684 0V.0309906H.31999208C.22499085 .031188965 .22499085 .044189454 .22499085 .079193118V.3251953H.31098939C.40699769 .3251953 .4169922 .29318238 .4169922 .20819092H.44198609V.4731903H.4169922C.4169922 .38919068 .40699769 .3561859 .31098939 .3561859H.22499085V.6091919C.22499085 .64167788 .22698975 .64868167 .27398683 .64868167H.3939972C.5439911 .64868167 .56900027 .5926819 .58499148 .4546814L.6100006 .45477296Z"/>
<path id="font_4_96" d="M.3639984 .38137818C.3639984 .41337586 .33299256 .4423828 .2899933 .4423828 .21699524 .4423828 .18099976 .37538148 .16699219 .3323822V.4423828L.027999878 .43066407V.3996582C.09799194 .3996582 .10598755 .39266969 .10598755 .34370423V.07595825C.10598755 .0309906 .09498596 .0309906 .027999878 .0309906V0L.14199829 .0029907227C.18199158 .0029907227 .22898865 .0029907227 .2689972 0V.0309906H.24798584C.17399597 .0309906 .17199707 .04197693 .17199707 .07795715V.23181153C.17199707 .33137513 .21398926 .42037965 .2899933 .42037965 .29699708 .42037965 .29899598 .42037965 .30099488 .41937257 .2979889 .41838075 .27799989 .40637208 .27799989 .3803711 .27799989 .35237123 .29899598 .33737184 .32099916 .33737184 .33898927 .33737184 .3639984 .3493805 .3639984 .38137818Z"/>
<path id="font_4_75" d="M.8129883 0V.0309906C.7609863 .0309906 .73599246 .0309906 .7350006 .061019899V.25221253C.7350006 .3383026 .7350006 .36932374 .70399478 .405365 .6899872 .42237855 .6569977 .4423828 .598999 .4423828 .5149994 .4423828 .47099305 .38233949 .45399476 .34429933 .43998719 .43138124 .3659973 .4423828 .32099916 .4423828 .24798584 .4423828 .20098877 .39935304 .17298889 .33729554V.4423828L.03199768 .43066407V.3996582C.101989749 .3996582 .10998535 .39266969 .10998535 .34370423V.07595825C.10998535 .0309906 .09899902 .0309906 .03199768 .0309906V0L.14498902 .0029907227 .25698854 0V.0309906C.18998719 .0309906 .1789856 .0309906 .1789856 .07595825V.25978089C.1789856 .36431886 .25 .42037965 .31399537 .42037965 .3769989 .42037965 .3880005 .36631776 .3880005 .30926515V.076034549C.3880005 .0309906 .3769989 .0309906 .30999757 .0309906V0L.4229889 .0029907227 .5349884 0V.0309906C.46798707 .0309906 .45700074 .0309906 .45700074 .076034549V.2602234C.45700074 .36431886 .5279999 .42037965 .59199526 .42037965 .6549988 .42037965 .66600039 .36631776 .66600039 .30926515V.076034549C.66600039 .0309906 .6549988 .0309906 .58799746 .0309906V0L.70098879 .0029907227 .8129883 0Z"/>
<path id="font_4_98" d="M.3600006 .12823487C.3600006 .18122864 .32998658 .21122742 .31799317 .22323609 .2849884 .25523377 .24598694 .26322938 .20399475 .27124024 .147995 .28224183 .08099365 .29522706 .08099365 .35324098 .08099365 .38822938 .10699463 .42922975 .19299317 .42922975 .30299378 .42922975 .30799867 .3392334 .30999757 .30822755 .31098939 .2992401 .32199098 .2992401 .32199098 .2992401 .33499146 .2992401 .33499146 .30422975 .33499146 .32322694V.4242401C.33499146 .4412384 .33499146 .4482422 .32398988 .4482422 .31900025 .4482422 .31698609 .4482422 .3039856 .43623353 .30099488 .43223573 .29100038 .42323304 .2869873 .42022706 .24899292 .4482422 .20799256 .4482422 .19299317 .4482422 .070999149 .4482422 .032989503 .38124085 .032989503 .3252411 .032989503 .29023744 .04899597 .26223756 .07598877 .24023438 .10798645 .2142334 .13598633 .2082367 .20799256 .19422913 .22999573 .19021607 .31199647 .17422486 .31199647 .10221863 .31199647 .051223756 .2769928 .011245728 .19898987 .011245728 .114990238 .011245728 .07899475 .068222049 .05999756 .1532135 .056991579 .16621399 .055999757 .17021179 .04598999 .17021179 .032989503 .17021179 .032989503 .16322327 .032989503 .1452179V.013214111C.032989503-.003753662 .032989503-.0107421879 .04399109-.0107421879 .04899597-.0107421879 .049987794-.009750366 .068984989 .009246826 .070999149 .011245728 .070999149 .013214111 .08898926 .032226564 .1329956-.009750366 .17799378-.0107421879 .19898987-.0107421879 .31399537-.0107421879 .3600006 .05621338 .3600006 .1282196V.12823487Z"/>
<path id="font_4_47" d="M.5269928 0V.0309906C.45700074 .0309906 .44898988 .038009645 .44898988 .0871582V.69433596L.30499269 .6826172V.6516113C.375 .6516113 .3829956 .64463809 .3829956 .59580996V.38035584C.35398866 .41636659 .31098939 .4423828 .25698854 .4423828 .13899231 .4423828 .033996583 .3443451 .033996583 .21531677 .033996583 .088272098 .13198853-.0107421879 .24598694-.0107421879 .30999757-.0107421879 .35499574 .023254395 .37998963 .055267335V-.0107421879L.5269928 0M.37998963 .117996219C.37998963 .099990848 .37998963 .09799194 .36898805 .08099365 .33898927 .033218385 .2939911 .011245728 .25099183 .011245728 .20599365 .011245728 .16999817 .037216188 .1459961 .075164798 .11999512 .1161499 .116989139 .17320252 .116989139 .21421814 .116989139 .25125123 .11898804 .31129457 .147995 .35632325 .16899109 .38734437 .20698548 .42037965 .26098634 .42037965 .29599 .42037965 .33799745 .405365 .36898805 .3603363 .37998963 .34332276 .37998963 .34132386 .37998963 .32330323V.117996219Z"/>
<path id="font_4_109" d="M.5349884 0V.0309906C.46499635 .0309906 .45700074 .037994386 .45700074 .08705139V.4423828L.30999757 .43066407V.3996582C.37998963 .3996582 .3880005 .39266969 .3880005 .34373475V.16601563C.3880005 .07910156 .33999635 .011245728 .2669983 .011245728 .18299866 .011245728 .1789856 .058135988 .1789856 .11009216V.4423828L.03199768 .43066407V.3996582C.10998535 .3996582 .10998535 .39666749 .10998535 .3078003V.15802002C.10998535 .080093387 .10998535-.0107421879 .2619934-.0107421879 .31799317-.0107421879 .3619995 .017242432 .3909912 .07910156V-.0107421879L.5349884 0Z"/>
</defs>
<use data-text="&#xf8ee;" xlink:href="#font_1_1" transform="matrix(9.963496,0,0,-9.963098,80.49716,2.318468)"/>
<use data-text="&#xf8f0;" xlink:href="#font_1_3" transform="matrix(9.963496,0,0,-9.963098,80.49716,20.252366)"/>
<use data-text="1" xlink:href="#font_2_2" transform="matrix(9.963496,0,0,-9.963098,95.995548,10.289866)"/>
<use data-text="2" xlink:href="#font_2_3" transform="matrix(9.963496,0,0,-9.963098,118.68242,10.289866)"/>
<use data-text="&#x2212;" xlink:href="#font_3_1" transform="matrix(9.963496,0,0,-9.963098,137.51029,10.289866)"/>
<use data-text="3" xlink:href="#font_2_4" transform="matrix(9.963496,0,0,-9.963098,145.25998,10.289866)"/>
<path transform="matrix(1.00009,0,0,-1.00005,-136.16434,15.482125)" stroke-width=".3985" stroke-linecap="butt" stroke-miterlimit="10" stroke-linejoin="miter" fill="none" stroke="#000000" d="M291.362 1.606V13.561"/>
<use data-text="1" xlink:href="#font_2_2" transform="matrix(9.963496,0,0,-9.963098,160.20532,10.2898659)"/>
<use data-text="&#x2212;" xlink:href="#font_3_1" transform="matrix(9.963496,0,0,-9.963098,92.121189,22.245463)"/>
<use data-text="5" xlink:href="#font_2_5" transform="matrix(9.963496,0,0,-9.963098,99.87088,22.245463)"/>
<use data-text="2" xlink:href="#font_2_3" transform="matrix(9.963496,0,0,-9.963098,118.68196,22.245463)"/>
<use data-text="&#x2212;" xlink:href="#font_3_1" transform="matrix(9.963496,0,0,-9.963098,137.51026,22.245463)"/>
<use data-text="3" xlink:href="#font_2_4" transform="matrix(9.963496,0,0,-9.963098,145.25995,22.245463)"/>
<path transform="matrix(1.00009,0,0,-1.00005,-136.16434,15.482125)" stroke-width=".3985" stroke-linecap="butt" stroke-miterlimit="10" stroke-linejoin="miter" fill="none" stroke="#000000" d="M291.362-10.349V1.606"/>
<use data-text="1" xlink:href="#font_2_2" transform="matrix(9.963496,0,0,-9.963098,160.20532,22.245463)"/>
<use data-text="1" xlink:href="#font_2_2" transform="matrix(9.963496,0,0,-9.963098,95.99553,34.20106)"/>
<use data-text="&#x2212;" xlink:href="#font_3_1" transform="matrix(9.963496,0,0,-9.963098,114.81622,34.20106)"/>
<use data-text="2" xlink:href="#font_2_3" transform="matrix(9.963496,0,0,-9.963098,122.56592,34.20106)"/>
<use data-text="1" xlink:href="#font_2_2" transform="matrix(9.963496,0,0,-9.963098,141.37699,34.20106)"/>
<path transform="matrix(1.00009,0,0,-1.00005,-136.16434,15.482125)" stroke-width=".3985" stroke-linecap="butt" stroke-miterlimit="10" stroke-linejoin="miter" fill="none" stroke="#000000" d="M291.362-22.305V-10.349"/>
<use data-text="1" xlink:href="#font_2_2" transform="matrix(9.963496,0,0,-9.963098,160.20532,34.20106)"/>
<use data-text="&#xf8f9;" xlink:href="#font_1_2" transform="matrix(9.963496,0,0,-9.963098,170.16922,2.318468)"/>
<use data-text="&#xf8fb;" xlink:href="#font_1_4" transform="matrix(9.963496,0,0,-9.963098,170.16922,20.252366)"/>
<use data-text="&#xf8ee;" xlink:href="#font_1_1" transform="matrix(9.963496,0,0,-9.963098,-1.7832337,73.189)"/>
<use data-text="&#xf8f0;" xlink:href="#font_1_3" transform="matrix(9.963496,0,0,-9.963098,-1.7832337,91.1229)"/>
<use data-text="1" xlink:href="#font_2_2" transform="matrix(9.963496,0,0,-9.963098,9.840805,81.1604)"/>
<use data-text="2" xlink:href="#font_2_3" transform="matrix(9.963496,0,0,-9.963098,27.276917,81.1604)"/>
<use data-text="&#x2212;" xlink:href="#font_3_1" transform="matrix(9.963496,0,0,-9.963098,47.204164,81.1604)"/>
<use data-text="3" xlink:href="#font_2_4" transform="matrix(9.963496,0,0,-9.963098,54.953859,81.1604)"/>
<path transform="matrix(1.00009,0,0,-1.00005,-218.44474,86.35266)" stroke-width=".3985" stroke-linecap="butt" stroke-miterlimit="10" stroke-linejoin="miter" fill="none" stroke="#000000" d="M285.827 1.606V13.561"/>
<use data-text="1" xlink:href="#font_2_2" transform="matrix(9.963496,0,0,-9.963098,72.389469,81.1604)"/>
<use data-text="0" xlink:href="#font_2_1" transform="matrix(9.963496,0,0,-9.963098,9.84082,93.116)"/>
<use data-text="1" xlink:href="#font_2_2" transform="matrix(9.963496,0,0,-9.963098,24.786072,93.116)"/>
<use data-text="2" xlink:href="#font_2_3" transform="matrix(9.963496,0,0,-9.963098,29.767807,93.116)"/>
<use data-text="&#x2212;" xlink:href="#font_3_1" transform="matrix(9.963496,0,0,-9.963098,44.71295,93.116)"/>
<use data-text="1" xlink:href="#font_2_2" transform="matrix(9.963496,0,0,-9.963098,52.462648,93.116)"/>
<use data-text="8" xlink:href="#font_2_7" transform="matrix(9.963496,0,0,-9.963098,57.444398,93.116)"/>
<path transform="matrix(1.00009,0,0,-1.00005,-218.44474,86.35266)" stroke-width=".3985" stroke-linecap="butt" stroke-miterlimit="10" stroke-linejoin="miter" fill="none" stroke="#000000" d="M285.827-10.349V1.606"/>
<use data-text="6" xlink:href="#font_2_6" transform="matrix(9.963496,0,0,-9.963098,72.389469,93.116)"/>
<use data-text="0" xlink:href="#font_2_1" transform="matrix(9.963496,0,0,-9.963098,9.84082,105.071598)"/>
<use data-text="0" xlink:href="#font_2_1" transform="matrix(9.963496,0,0,-9.963098,27.276932,105.071598)"/>
<use data-text="&#x2212;" xlink:href="#font_3_1" transform="matrix(9.963496,0,0,-9.963098,47.204164,105.071598)"/>
<use data-text="2" xlink:href="#font_2_3" transform="matrix(9.963496,0,0,-9.963098,54.953859,105.071598)"/>
<path transform="matrix(1.00009,0,0,-1.00005,-218.44474,86.35266)" stroke-width=".3985" stroke-linecap="butt" stroke-miterlimit="10" stroke-linejoin="miter" fill="none" stroke="#000000" d="M285.827-22.305V-10.349"/>
<use data-text="2" xlink:href="#font_2_3" transform="matrix(9.963496,0,0,-9.963098,72.389469,105.071598)"/>
<use data-text="&#xf8f9;" xlink:href="#font_1_2" transform="matrix(9.963496,0,0,-9.963098,82.35336,73.189)"/>
<use data-text="&#xf8fb;" xlink:href="#font_1_4" transform="matrix(9.963496,0,0,-9.963098,82.35336,91.1229)"/>
<use data-text="&#xf8ee;" xlink:href="#font_1_1" transform="matrix(9.963496,0,0,-9.963098,169.41916,73.189)"/>
<use data-text="&#xf8f0;" xlink:href="#font_1_3" transform="matrix(9.963496,0,0,-9.963098,169.41916,91.1229)"/>
<use data-text="1" xlink:href="#font_2_2" transform="matrix(9.963496,0,0,-9.963098,181.04322,81.1604)"/>
<use data-text="&#x2212;" xlink:href="#font_3_1" transform="matrix(9.963496,0,0,-9.963098,195.98856,81.1604)"/>
<use data-text="2" xlink:href="#font_2_3" transform="matrix(9.963496,0,0,-9.963098,203.73825,81.1604)"/>
<use data-text="1" xlink:href="#font_2_2" transform="matrix(9.963496,0,0,-9.963098,222.54932,81.1604)"/>
<path transform="matrix(1.00009,0,0,-1.00005,-47.242334,86.35266)" stroke-width=".3985" stroke-linecap="butt" stroke-miterlimit="10" stroke-linejoin="miter" fill="none" stroke="#000000" d="M283.613 1.606V13.561"/>
<use data-text="1" xlink:href="#font_2_2" transform="matrix(9.963496,0,0,-9.963098,241.37763,81.1604)"/>
<use data-text="0" xlink:href="#font_2_1" transform="matrix(9.963496,0,0,-9.963098,181.04322,93.116)"/>
<use data-text="&#x2212;" xlink:href="#font_3_1" transform="matrix(9.963496,0,0,-9.963098,195.98856,93.116)"/>
<use data-text="8" xlink:href="#font_2_7" transform="matrix(9.963496,0,0,-9.963098,203.73825,93.116)"/>
<use data-text="2" xlink:href="#font_2_3" transform="matrix(9.963496,0,0,-9.963098,222.54932,93.116)"/>
<path transform="matrix(1.00009,0,0,-1.00005,-47.242334,86.35266)" stroke-width=".3985" stroke-linecap="butt" stroke-miterlimit="10" stroke-linejoin="miter" fill="none" stroke="#000000" d="M283.613-10.349V1.606"/>
<use data-text="6" xlink:href="#font_2_6" transform="matrix(9.963496,0,0,-9.963098,241.37763,93.116)"/>
<use data-text="0" xlink:href="#font_2_1" transform="matrix(9.963496,0,0,-9.963098,181.04322,105.071598)"/>
<use data-text="0" xlink:href="#font_2_1" transform="matrix(9.963496,0,0,-9.963098,199.85428,105.071598)"/>
<use data-text="&#x2212;" xlink:href="#font_3_1" transform="matrix(9.963496,0,0,-9.963098,218.6836,105.071598)"/>
<use data-text="3" xlink:href="#font_2_4" transform="matrix(9.963496,0,0,-9.963098,226.43228,105.071598)"/>
<path transform="matrix(1.00009,0,0,-1.00005,-47.242334,86.35266)" stroke-width=".3985" stroke-linecap="butt" stroke-miterlimit="10" stroke-linejoin="miter" fill="none" stroke="#000000" d="M283.613-22.305V-10.349"/>
<use data-text="3" xlink:href="#font_2_4" transform="matrix(9.963496,0,0,-9.963098,241.37763,105.071598)"/>
<use data-text="&#xf8f9;" xlink:href="#font_1_2" transform="matrix(9.963496,0,0,-9.963098,251.34156,73.189)"/>
<use data-text="&#xf8fb;" xlink:href="#font_1_4" transform="matrix(9.963496,0,0,-9.963098,251.34156,91.1229)"/>
<use data-text="R" xlink:href="#font_4_95" transform="matrix(9.963496,0,0,-9.963098,117.380489,84.07354)" fill="#7f807f"/>
<use data-text="o" xlink:href="#font_4_81" transform="matrix(9.963496,0,0,-9.963098,124.713619,84.07354)" fill="#7f807f"/>
<use data-text="w" xlink:href="#font_4_114" transform="matrix(9.963496,0,0,-9.963098,129.42633,84.07354)" fill="#7f807f"/>
<use data-text="-" xlink:href="#font_4_64" transform="matrix(9.963496,0,0,-9.963098,136.62,84.07354)" fill="#7f807f"/>
<use data-text="E" xlink:href="#font_4_49" transform="matrix(9.963496,0,0,-9.963098,111.56197,94.19705)" fill="#7f807f"/>
<use data-text="c" xlink:href="#font_4_43" transform="matrix(9.963496,0,0,-9.963098,118.347118,94.19705)" fill="#7f807f"/>
<use data-text="h" xlink:href="#font_4_63" transform="matrix(9.963496,0,0,-9.963098,122.491939,94.19705)" fill="#7f807f"/>
<use data-text="e" xlink:href="#font_4_50" transform="matrix(9.963496,0,0,-9.963098,128.03165,94.19705)" fill="#7f807f"/>
<use data-text="l" xlink:href="#font_4_72" transform="matrix(9.963496,0,0,-9.963098,132.45545,94.19705)" fill="#7f807f"/>
<use data-text="o" xlink:href="#font_4_81" transform="matrix(9.963496,0,0,-9.963098,135.22528,94.19705)" fill="#7f807f"/>
<use data-text="n" xlink:href="#font_4_77" transform="matrix(9.963496,0,0,-9.963098,140.20703,94.19705)" fill="#7f807f"/>
<use data-text="F" xlink:href="#font_4_54" transform="matrix(9.963496,0,0,-9.963098,115.25831,104.06954)" fill="#7f807f"/>
<use data-text="o" xlink:href="#font_4_81" transform="matrix(9.963496,0,0,-9.963098,120.94746,104.06954)" fill="#7f807f"/>
<use data-text="r" xlink:href="#font_4_96" transform="matrix(9.963496,0,0,-9.963098,125.92921,104.06954)" fill="#7f807f"/>
<use data-text="m" xlink:href="#font_4_75" transform="matrix(9.963496,0,0,-9.963098,129.8349,104.06954)" fill="#7f807f"/>
<use data-text="s" xlink:href="#font_4_98" transform="matrix(9.963496,0,0,-9.963098,138.13449,104.06954)" fill="#7f807f"/>
<use data-text="&#xf8ee;" xlink:href="#font_1_1" transform="matrix(9.963496,0,0,-9.963098,88.245868,144.05956)"/>
<use data-text="&#xf8f0;" xlink:href="#font_1_3" transform="matrix(9.963496,0,0,-9.963098,88.245868,161.99344)"/>
<use data-text="1" xlink:href="#font_2_2" transform="matrix(9.963496,0,0,-9.963098,99.8699,152.03095)"/>
<use data-text="0" xlink:href="#font_2_1" transform="matrix(9.963496,0,0,-9.963098,114.815158,152.03095)"/>
<use data-text="0" xlink:href="#font_2_1" transform="matrix(9.963496,0,0,-9.963098,129.76036,152.03095)"/>
<path transform="matrix(1.00009,0,0,-1.00005,-128.41564,157.2232)" stroke-width=".3985" stroke-linecap="butt" stroke-miterlimit="10" stroke-linejoin="miter" fill="none" stroke="#000000" d="M268.116 1.606V13.561"/>
<use data-text="0" xlink:href="#font_2_1" transform="matrix(9.963496,0,0,-9.963098,148.5803,152.03095)"/>
<use data-text="0" xlink:href="#font_2_1" transform="matrix(9.963496,0,0,-9.963098,99.86992,163.98654)"/>
<use data-text="1" xlink:href="#font_2_2" transform="matrix(9.963496,0,0,-9.963098,114.81517,163.98654)"/>
<use data-text="0" xlink:href="#font_2_1" transform="matrix(9.963496,0,0,-9.963098,129.76039,163.98654)"/>
<path transform="matrix(1.00009,0,0,-1.00005,-128.41564,157.2232)" stroke-width=".3985" stroke-linecap="butt" stroke-miterlimit="10" stroke-linejoin="miter" fill="none" stroke="#000000" d="M268.116-10.349V1.606"/>
<use data-text="&#x2212;" xlink:href="#font_3_1" transform="matrix(9.963496,0,0,-9.963098,144.70592,163.98654)"/>
<use data-text="1" xlink:href="#font_2_2" transform="matrix(9.963496,0,0,-9.963098,152.45561,163.98654)"/>
<use data-text="0" xlink:href="#font_2_1" transform="matrix(9.963496,0,0,-9.963098,99.86989,175.94214)"/>
<use data-text="0" xlink:href="#font_2_1" transform="matrix(9.963496,0,0,-9.963098,114.81514,175.94214)"/>
<use data-text="1" xlink:href="#font_2_2" transform="matrix(9.963496,0,0,-9.963098,129.76036,175.94214)"/>
<path transform="matrix(1.00009,0,0,-1.00005,-128.41564,157.2232)" stroke-width=".3985" stroke-linecap="butt" stroke-miterlimit="10" stroke-linejoin="miter" fill="none" stroke="#000000" d="M268.116-22.305V-10.349"/>
<use data-text="&#x2212;" xlink:href="#font_3_1" transform="matrix(9.963496,0,0,-9.963098,144.70592,175.94214)"/>
<use data-text="1" xlink:href="#font_2_2" transform="matrix(9.963496,0,0,-9.963098,152.45561,175.94214)"/>
<use data-text="&#xf8f9;" xlink:href="#font_1_2" transform="matrix(9.963496,0,0,-9.963098,162.41854,144.05956)"/>
<use data-text="&#xf8fb;" xlink:href="#font_1_4" transform="matrix(9.963496,0,0,-9.963098,162.41854,161.99344)"/>
<use data-text="R" xlink:href="#font_4_95" transform="matrix(9.963496,0,0,-9.963098,66.92494,193.29001)" fill="#7f807f"/>
<use data-text="e" xlink:href="#font_4_50" transform="matrix(9.963496,0,0,-9.963098,74.25807,193.29001)" fill="#7f807f"/>
<use data-text="d" xlink:href="#font_4_47" transform="matrix(9.963496,0,0,-9.963098,78.68187,193.29001)" fill="#7f807f"/>
<use data-text="u" xlink:href="#font_4_109" transform="matrix(9.963496,0,0,-9.963098,84.22157,193.29001)" fill="#7f807f"/>
<use data-text="c" xlink:href="#font_4_43" transform="matrix(9.963496,0,0,-9.963098,89.76128,193.29001)" fill="#7f807f"/>
<use data-text="e" xlink:href="#font_4_50" transform="matrix(9.963496,0,0,-9.963098,94.185077,193.29001)" fill="#7f807f"/>
<use data-text="d" xlink:href="#font_4_47" transform="matrix(9.963496,0,0,-9.963098,98.60887,193.29001)" fill="#7f807f"/>
<use data-text="R" xlink:href="#font_4_95" transform="matrix(9.963496,0,0,-9.963098,107.466388,193.29001)" fill="#7f807f"/>
<use data-text="o" xlink:href="#font_4_81" transform="matrix(9.963496,0,0,-9.963098,114.799549,193.29001)" fill="#7f807f"/>
<use data-text="w" xlink:href="#font_4_114" transform="matrix(9.963496,0,0,-9.963098,119.51228,193.29001)" fill="#7f807f"/>
<use data-text="-" xlink:href="#font_4_64" transform="matrix(9.963496,0,0,-9.963098,126.70592,193.29001)" fill="#7f807f"/>
<use data-text="E" xlink:href="#font_4_49" transform="matrix(9.963496,0,0,-9.963098,130.02376,193.29001)" fill="#7f807f"/>
<use data-text="c" xlink:href="#font_4_43" transform="matrix(9.963496,0,0,-9.963098,136.80892,193.29001)" fill="#7f807f"/>
<use data-text="h" xlink:href="#font_4_63" transform="matrix(9.963496,0,0,-9.963098,140.95372,193.29001)" fill="#7f807f"/>
<use data-text="e" xlink:href="#font_4_50" transform="matrix(9.963496,0,0,-9.963098,146.49346,193.29001)" fill="#7f807f"/>
<use data-text="l" xlink:href="#font_4_72" transform="matrix(9.963496,0,0,-9.963098,150.91725,193.29001)" fill="#7f807f"/>
<use data-text="o" xlink:href="#font_4_81" transform="matrix(9.963496,0,0,-9.963098,153.68709,193.29001)" fill="#7f807f"/>
<use data-text="n" xlink:href="#font_4_77" transform="matrix(9.963496,0,0,-9.963098,158.66881,193.29001)" fill="#7f807f"/>
<use data-text="F" xlink:href="#font_4_54" transform="matrix(9.963496,0,0,-9.963098,167.51644,193.29001)" fill="#7f807f"/>
<use data-text="o" xlink:href="#font_4_81" transform="matrix(9.963496,0,0,-9.963098,173.20558,193.29001)" fill="#7f807f"/>
<use data-text="r" xlink:href="#font_4_96" transform="matrix(9.963496,0,0,-9.963098,178.18733,193.29001)" fill="#7f807f"/>
<use data-text="m" xlink:href="#font_4_75" transform="matrix(9.963496,0,0,-9.963098,182.09304,193.29001)" fill="#7f807f"/>
<path transform="matrix(1.00009,0,0,-1.00005,128.6545,19.853344)" stroke-width=".49814" stroke-linecap="butt" stroke-miterlimit="10" stroke-linejoin="miter" fill="none" stroke="#000000" d="M-51.67328 0C-75.0336 0-85.04042-26.05373-85.04042-47.27208"/>
<path transform="matrix(0,1.00005,1.00009,0,43.606424,67.127788)" d="M2.14195 0-1.28517 1.71356 0 0-1.28517-1.71356"/>
<path transform="matrix(1.00009,0,0,-1.00005,128.6545,19.853344)" stroke-width=".49814" stroke-linecap="butt" stroke-miterlimit="10" stroke-linejoin="miter" fill="none" stroke="#000000" d="M0-21.45296C0-36.50462-20.61095-38.84084-20.61095-51.75053"/>
<path transform="matrix(0,1.00005,1.00009,0,108.04169,71.60646)" d="M2.14195 0-1.28517 1.71356 0 0-1.28517-1.71356"/>
<path transform="matrix(1.00009,0,0,-1.00005,128.6545,19.853344)" stroke-width=".49814" stroke-linecap="butt" stroke-miterlimit="10" stroke-linejoin="miter" fill="none" stroke="#000000" d="M0-21.45296C0-36.50462 20.61095-38.84084 20.61095-51.75053"/>
<path transform="matrix(0,1.00005,1.00009,0,149.2673,71.60646)" d="M2.14195 0-1.28517 1.71356 0 0-1.28517-1.71356"/>
<path transform="matrix(1.00009,0,0,-1.00005,128.6545,19.853344)" stroke-width=".49814" stroke-linecap="butt" stroke-miterlimit="10" stroke-linejoin="miter" fill="none" stroke="#000000" d="M0-21.45296C0-34.10335 0-41.24211 0-51.75053"/>
<path transform="matrix(0,1.00005,1.00009,0,128.6545,71.60646)" d="M2.14195 0-1.28517 1.71356 0 0-1.28517-1.71356"/>
<path transform="matrix(1.00009,0,0,-1.00005,128.6545,19.853344)" stroke-width=".49814" stroke-linecap="butt" stroke-miterlimit="10" stroke-linejoin="miter" fill="none" stroke="#000000" d="M51.67328 0C75.0336 0 85.04042-26.05373 85.04042-47.27208"/>
<path transform="matrix(0,1.00005,1.00009,0,213.70258,67.127788)" d="M2.14195 0-1.28517 1.71356 0 0-1.28517-1.71356"/>
<path transform="matrix(1.00009,0,0,-1.00005,128.6545,19.853344)" stroke-width=".49814" stroke-linecap="butt" stroke-miterlimit="10" stroke-linejoin="miter" fill="none" stroke="#0000ff" d="M-85.04042-92.31998C-85.04042-117.45908-69.06354-141.73404-46.06639-141.73404"/>
<path transform="matrix(1.00009,0,0,-1.00005,82.583957,161.59447)" d="M2.14195 0-1.28517 1.71356 0 0-1.28517-1.71356" fill="#0000ff"/>
<path transform="matrix(1.00009,0,0,-1.00005,128.6545,19.853344)" stroke-width=".49814" stroke-linecap="butt" stroke-miterlimit="10" stroke-linejoin="miter" fill="none" stroke="#ff0000" d="M85.04042-92.31998C85.04042-117.45908 69.06354-141.73404 46.06639-141.73404"/>
<path transform="matrix(-1.00009,-0,0,1.00005,174.72504,161.59447)" d="M2.14195 0-1.28517 1.71356 0 0-1.28517-1.71356" fill="#ff0000"/>
</svg>
