<svg xmlns="http://www.w3.org/2000/svg" xmlns:xlink="http://www.w3.org/1999/xlink" xmlns:inkscape="http://www.inkscape.org/namespaces/inkscape" version="1.1" width="48" height="48" viewBox="0 0 48 48">
<path transform="matrix(1.00005,0,0,-1.00002,1.3951645,46.45263)" stroke-width=".99628" stroke-linecap="butt" stroke-miterlimit="10" stroke-linejoin="miter" fill="none" stroke="#0000ff" d="M0 0 43.31207 43.31207"/>
<path transform="matrix(.7071353,-.70711418,-.7071353,-.70711418,44.709398,3.1396943)" d="M2.8892 0-1.73352 2.31136 0 0-1.73352-2.31136" fill="#0000ff"/>
<path transform="matrix(1.00005,0,0,-1.00002,1.3951645,46.45263)" stroke-width=".99628" stroke-linecap="butt" stroke-miterlimit="10" stroke-linejoin="miter" fill="none" stroke="#ff0000" d="M0 0 20.63454 20.63454"/>
<path transform="matrix(.7071353,-.70711418,-.7071353,-.70711418,22.030735,25.817675)" d="M2.8892 0-1.73352 2.31136 0 0-1.73352-2.31136" fill="#ff0000"/>
<path transform="matrix(1.00005,0,0,-1.00002,1.3951645,46.45263)" stroke-width=".99628" stroke-linecap="butt" stroke-miterlimit="10" stroke-linejoin="miter" fill="none" stroke="#000000" d="M0 0 9.29578 9.29578"/>
<path transform="matrix(.7071353,-.70711418,-.7071353,-.70711418,10.691409,37.156663)" d="M2.8892 0-1.73352 2.31136 0 0-1.73352-2.31136"/>
</svg>
