<?xml version="1.0" encoding="UTF-8"?>
<svg xmlns="http://www.w3.org/2000/svg" xmlns:xlink="http://www.w3.org/1999/xlink" width="138pt" height="139pt" viewBox="0 0 138 139" version="1.1">
<g id="surface1">
<path style="fill:none;stroke-width:0.3985;stroke-linecap:butt;stroke-linejoin:miter;stroke:rgb(0%,0%,0%);stroke-opacity:1;stroke-miterlimit:10;" d="M -44.957987 -0.00142335 L 90.312593 -0.00142335 " transform="matrix(1.00005,0,0,-1.00003,46.452423,92.510295)"/>
<path style="fill:none;stroke-width:0.3985;stroke-linecap:round;stroke-linejoin:round;stroke:rgb(0%,0%,0%);stroke-opacity:1;stroke-miterlimit:10;" d="M -2.072709 2.391977 C -1.693822 0.95452 -0.850114 0.278759 0.00140589 0.00142335 C -0.850114 -0.279818 -1.693822 -0.955579 -2.072709 -2.38913 " transform="matrix(-1.00005,0,0,1.00003,1.294375,92.510295)"/>
<path style="fill:none;stroke-width:0.3985;stroke-linecap:round;stroke-linejoin:round;stroke:rgb(0%,0%,0%);stroke-opacity:1;stroke-miterlimit:10;" d="M -2.073173 2.38913 C -1.694286 0.955579 -0.850578 0.279818 0.00094191 -0.00142335 C -0.850578 -0.278759 -1.694286 -0.95452 -2.073173 -2.391977 " transform="matrix(1.00005,0,0,-1.00003,136.967808,92.510295)"/>
<path style="fill:none;stroke-width:0.3985;stroke-linecap:butt;stroke-linejoin:miter;stroke:rgb(0%,0%,0%);stroke-opacity:1;stroke-miterlimit:10;" d="M 0.000702465 -44.957106 L 0.000702465 90.312273 " transform="matrix(1.00005,0,0,-1.00003,46.452423,92.510295)"/>
<path style="fill:none;stroke-width:0.3985;stroke-linecap:round;stroke-linejoin:round;stroke:rgb(0%,0%,0%);stroke-opacity:1;stroke-miterlimit:10;" d="M -2.073628 2.391208 C -1.694733 0.957686 -0.851008 0.278032 0.0005287 0.000702465 C -0.851008 -0.280533 -1.694733 -0.956281 -2.073628 -2.389803 " transform="matrix(0,1.00003,1.00005,0,46.452423,137.66744)"/>
<path style="fill:none;stroke-width:0.3985;stroke-linecap:round;stroke-linejoin:round;stroke:rgb(0%,0%,0%);stroke-opacity:1;stroke-miterlimit:10;" d="M -2.07353 2.389803 C -1.694635 0.956281 -0.850911 0.280533 0.000626265 -0.000702465 C -0.850911 -0.278032 -1.694635 -0.957686 -2.07353 -2.391208 " transform="matrix(0,-1.00003,-1.00005,0,46.452423,1.99672)"/>
<path style="fill:none;stroke-width:0.3985;stroke-linecap:butt;stroke-linejoin:miter;stroke:rgb(0%,0%,0%);stroke-opacity:1;stroke-dasharray:2.98883,2.98883;stroke-miterlimit:10;" d="M -45.356405 -22.676524 L 90.711011 -22.676524 " transform="matrix(1.00005,0,0,-1.00003,46.452423,92.510295)"/>
<path style="fill:none;stroke-width:0.3985;stroke-linecap:butt;stroke-linejoin:miter;stroke:rgb(0%,0%,0%);stroke-opacity:1;stroke-dasharray:2.98883,2.98883;stroke-miterlimit:10;" d="M -45.356405 22.677584 L 90.711011 22.677584 " transform="matrix(1.00005,0,0,-1.00003,46.452423,92.510295)"/>
<path style="fill:none;stroke-width:0.3985;stroke-linecap:butt;stroke-linejoin:miter;stroke:rgb(0%,0%,0%);stroke-opacity:1;stroke-dasharray:2.98883,2.98883;stroke-miterlimit:10;" d="M -45.356405 45.356591 L 90.711011 45.356591 " transform="matrix(1.00005,0,0,-1.00003,46.452423,92.510295)"/>
<path style="fill:none;stroke-width:0.3985;stroke-linecap:butt;stroke-linejoin:miter;stroke:rgb(0%,0%,0%);stroke-opacity:1;stroke-dasharray:2.98883,2.98883;stroke-miterlimit:10;" d="M -45.356405 68.031692 L 90.711011 68.031692 " transform="matrix(1.00005,0,0,-1.00003,46.452423,92.510295)"/>
<path style=" stroke:none;fill-rule:nonzero;fill:rgb(0%,0%,0%);fill-opacity:1;" d="M 37.382812 115.1875 C 37.382812 113.9375 36.367188 112.921875 35.113281 112.921875 C 33.859375 112.921875 32.84375 113.9375 32.84375 115.1875 C 32.84375 116.441406 33.859375 117.457031 35.113281 117.457031 C 36.367188 117.457031 37.382812 116.441406 37.382812 115.1875 Z M 37.382812 115.1875 "/>
<path style=" stroke:none;fill-rule:nonzero;fill:rgb(0%,0%,0%);fill-opacity:1;" d="M 60.058594 115.1875 C 60.058594 113.9375 59.042969 112.921875 57.792969 112.921875 C 56.539062 112.921875 55.523438 113.9375 55.523438 115.1875 C 55.523438 116.441406 56.539062 117.457031 57.792969 117.457031 C 59.042969 117.457031 60.058594 116.441406 60.058594 115.1875 Z M 60.058594 115.1875 "/>
<path style=" stroke:none;fill-rule:nonzero;fill:rgb(0%,0%,0%);fill-opacity:1;" d="M 82.738281 115.1875 C 82.738281 113.9375 81.722656 112.921875 80.46875 112.921875 C 79.21875 112.921875 78.203125 113.9375 78.203125 115.1875 C 78.203125 116.441406 79.21875 117.457031 80.46875 117.457031 C 81.722656 117.457031 82.738281 116.441406 82.738281 115.1875 Z M 82.738281 115.1875 "/>
<path style=" stroke:none;fill-rule:nonzero;fill:rgb(100%,0%,0%);fill-opacity:1;" d="M 48.71875 92.511719 C 48.71875 91.257812 47.703125 90.242188 46.453125 90.242188 C 45.199219 90.242188 44.183594 91.257812 44.183594 92.511719 C 44.183594 93.761719 45.199219 94.777344 46.453125 94.777344 C 47.703125 94.777344 48.71875 93.761719 48.71875 92.511719 Z M 48.71875 92.511719 "/>
<path style=" stroke:none;fill-rule:nonzero;fill:rgb(100%,0%,0%);fill-opacity:1;" d="M 71.398438 92.511719 C 71.398438 91.257812 70.382812 90.242188 69.132812 90.242188 C 67.878906 90.242188 66.863281 91.257812 66.863281 92.511719 C 66.863281 93.761719 67.878906 94.777344 69.132812 94.777344 C 70.382812 94.777344 71.398438 93.761719 71.398438 92.511719 Z M 71.398438 92.511719 "/>
<path style=" stroke:none;fill-rule:nonzero;fill:rgb(100%,0%,0%);fill-opacity:1;" d="M 94.078125 92.511719 C 94.078125 91.257812 93.0625 90.242188 91.808594 90.242188 C 90.558594 90.242188 89.542969 91.257812 89.542969 92.511719 C 89.542969 93.761719 90.558594 94.777344 91.808594 94.777344 C 93.0625 94.777344 94.078125 93.761719 94.078125 92.511719 Z M 94.078125 92.511719 "/>
<path style=" stroke:none;fill-rule:nonzero;fill:rgb(0%,0%,100%);fill-opacity:1;" d="M 60.058594 69.832031 C 60.058594 68.578125 59.042969 67.5625 57.792969 67.5625 C 56.539062 67.5625 55.523438 68.578125 55.523438 69.832031 C 55.523438 71.085938 56.539062 72.101562 57.792969 72.101562 C 59.042969 72.101562 60.058594 71.085938 60.058594 69.832031 Z M 60.058594 69.832031 "/>
<path style=" stroke:none;fill-rule:nonzero;fill:rgb(0%,0%,100%);fill-opacity:1;" d="M 82.738281 69.832031 C 82.738281 68.578125 81.722656 67.5625 80.46875 67.5625 C 79.21875 67.5625 78.203125 68.578125 78.203125 69.832031 C 78.203125 71.085938 79.21875 72.101562 80.46875 72.101562 C 81.722656 72.101562 82.738281 71.085938 82.738281 69.832031 Z M 82.738281 69.832031 "/>
<path style=" stroke:none;fill-rule:nonzero;fill:rgb(0%,0%,100%);fill-opacity:1;" d="M 105.417969 69.832031 C 105.417969 68.578125 104.402344 67.5625 103.148438 67.5625 C 101.894531 67.5625 100.882812 68.578125 100.882812 69.832031 C 100.882812 71.085938 101.894531 72.101562 103.148438 72.101562 C 104.402344 72.101562 105.417969 71.085938 105.417969 69.832031 Z M 105.417969 69.832031 "/>
<path style=" stroke:none;fill-rule:nonzero;fill:rgb(50%,50%,50%);fill-opacity:1;" d="M 71.398438 47.152344 C 71.398438 45.902344 70.382812 44.886719 69.132812 44.886719 C 67.878906 44.886719 66.863281 45.902344 66.863281 47.152344 C 66.863281 48.40625 67.878906 49.421875 69.132812 49.421875 C 70.382812 49.421875 71.398438 48.40625 71.398438 47.152344 Z M 71.398438 47.152344 "/>
<path style=" stroke:none;fill-rule:nonzero;fill:rgb(50%,50%,50%);fill-opacity:1;" d="M 94.078125 47.152344 C 94.078125 45.902344 93.0625 44.886719 91.808594 44.886719 C 90.558594 44.886719 89.542969 45.902344 89.542969 47.152344 C 89.542969 48.40625 90.558594 49.421875 91.808594 49.421875 C 93.0625 49.421875 94.078125 48.40625 94.078125 47.152344 Z M 94.078125 47.152344 "/>
<path style=" stroke:none;fill-rule:nonzero;fill:rgb(50%,50%,50%);fill-opacity:1;" d="M 116.757812 47.152344 C 116.757812 45.902344 115.742188 44.886719 114.488281 44.886719 C 113.234375 44.886719 112.21875 45.902344 112.21875 47.152344 C 112.21875 48.40625 113.234375 49.421875 114.488281 49.421875 C 115.742188 49.421875 116.757812 48.40625 116.757812 47.152344 Z M 116.757812 47.152344 "/>
<path style=" stroke:none;fill-rule:nonzero;fill:rgb(100%,50%,0%);fill-opacity:1;" d="M 82.738281 24.476562 C 82.738281 23.222656 81.722656 22.207031 80.46875 22.207031 C 79.21875 22.207031 78.203125 23.222656 78.203125 24.476562 C 78.203125 25.726562 79.21875 26.742188 80.46875 26.742188 C 81.722656 26.742188 82.738281 25.726562 82.738281 24.476562 Z M 82.738281 24.476562 "/>
<path style=" stroke:none;fill-rule:nonzero;fill:rgb(100%,50%,0%);fill-opacity:1;" d="M 105.417969 24.476562 C 105.417969 23.222656 104.402344 22.207031 103.148438 22.207031 C 101.894531 22.207031 100.882812 23.222656 100.882812 24.476562 C 100.882812 25.726562 101.894531 26.742188 103.148438 26.742188 C 104.402344 26.742188 105.417969 25.726562 105.417969 24.476562 Z M 105.417969 24.476562 "/>
<path style=" stroke:none;fill-rule:nonzero;fill:rgb(100%,50%,0%);fill-opacity:1;" d="M 128.097656 24.476562 C 128.097656 23.222656 127.082031 22.207031 125.828125 22.207031 C 124.574219 22.207031 123.558594 23.222656 123.558594 24.476562 C 123.558594 25.726562 124.574219 26.742188 125.828125 26.742188 C 127.082031 26.742188 128.097656 25.726562 128.097656 24.476562 Z M 128.097656 24.476562 "/>
</g>
</svg>
