<svg xmlns="http://www.w3.org/2000/svg" xmlns:xlink="http://www.w3.org/1999/xlink" xmlns:inkscape="http://www.inkscape.org/namespaces/inkscape" version="1.1" width="140" height="139" viewBox="0 0 140 139">
<path transform="matrix(1.00005,0,0,-1.00003,47.452409,92.5103)" stroke-width=".3985" stroke-linecap="butt" stroke-miterlimit="10" stroke-linejoin="miter" fill="none" stroke="#cccccc" d="M-45.35506-45.35506H90.71013M-45.35506-22.67752H90.71013M-45.35506 0H90.71013M-45.35506 22.67752H90.71013M-45.35506 45.35506H90.71013M-45.35506 68.0326H90.71013M-45.35506 90.70215H90.71013M-45.35506-45.35506V90.71013M-22.67752-45.35506V90.71013M0-45.35506V90.71013M22.67752-45.35506V90.71013M45.35506-45.35506V90.71013M68.0326-45.35506V90.71013M90.70215-45.35506V90.71013M90.71013 90.71013"/>
<path transform="matrix(1.00005,0,0,-1.00003,47.452409,92.5103)" stroke-width=".3985" stroke-linecap="butt" stroke-miterlimit="10" stroke-linejoin="miter" fill="none" stroke="#000000" d="M-44.95654 0H90.31161"/>
<path transform="matrix(-1.00005,-0,0,1.00003,2.294365,92.5103)" stroke-width=".3985" stroke-linecap="round" stroke-linejoin="round" fill="none" stroke="#000000" d="M-2.07224 2.39104C-1.69365 .95639-.84999 .27895 0 0-.84999-.27895-1.69365-.95639-2.07224-2.39104"/>
<path transform="matrix(1.00005,0,0,-1.00003,137.96779,92.5103)" stroke-width=".3985" stroke-linecap="round" stroke-linejoin="round" fill="none" stroke="#000000" d="M-2.07224 2.39104C-1.69365 .95639-.84999 .27895 0 0-.84999-.27895-1.69365-.95639-2.07224-2.39104"/>
<path transform="matrix(1.00005,0,0,-1.00003,47.452409,92.5103)" stroke-width=".3985" stroke-linecap="butt" stroke-miterlimit="10" stroke-linejoin="miter" fill="none" stroke="#000000" d="M0-44.95654V90.31161"/>
<path transform="matrix(0,1.00003,1.00005,0,47.452409,137.66745)" stroke-width=".3985" stroke-linecap="round" stroke-linejoin="round" fill="none" stroke="#000000" d="M-2.07224 2.39104C-1.69365 .95639-.84999 .27895 0 0-.84999-.27895-1.69365-.95639-2.07224-2.39104"/>
<path transform="matrix(0,-1.00003,-1.00005,-0,47.452409,1.996727)" stroke-width=".3985" stroke-linecap="round" stroke-linejoin="round" fill="none" stroke="#000000" d="M-2.07224 2.39104C-1.69365 .95639-.84999 .27895 0 0-.84999-.27895-1.69365-.95639-2.07224-2.39104"/>
<path transform="matrix(1.00005,0,0,-1.00003,47.452409,92.5103)" d="M-9.07088-22.67752C-9.07088-21.42499-10.08623-20.40964-11.33876-20.40964-12.59128-20.40964-13.60663-21.42499-13.60663-22.67752-13.60663-23.93004-12.59128-24.94539-11.33876-24.94539-10.08623-24.94539-9.07088-23.93004-9.07088-22.67752ZM-11.33876-22.67752"/>
<path transform="matrix(1.00005,0,0,-1.00003,47.452409,92.5103)" d="M13.60663-22.67752C13.60663-21.42499 12.59128-20.40964 11.33876-20.40964 10.08623-20.40964 9.07088-21.42499 9.07088-22.67752 9.07088-23.93004 10.08623-24.94539 11.33876-24.94539 12.59128-24.94539 13.60663-23.93004 13.60663-22.67752ZM11.33876-22.67752"/>
<path transform="matrix(1.00005,0,0,-1.00003,47.452409,92.5103)" d="M36.28415-22.67752C36.28415-21.42499 35.2688-20.40964 34.01628-20.40964 32.76375-20.40964 31.7484-21.42499 31.7484-22.67752 31.7484-23.93004 32.76375-24.94539 34.01628-24.94539 35.2688-24.94539 36.28415-23.93004 36.28415-22.67752ZM34.01628-22.67752"/>
<path transform="matrix(1.00005,0,0,-1.00003,47.452409,92.5103)" d="M2.26787 0C2.26787 1.25252 1.25252 2.26787 0 2.26787-1.25252 2.26787-2.26787 1.25252-2.26787 0-2.26787-1.25252-1.25252-2.26787 0-2.26787 1.25252-2.26787 2.26787-1.25252 2.26787 0ZM0 0" fill="#ff0000"/>
<path transform="matrix(1.00005,0,0,-1.00003,47.452409,92.5103)" d="M24.94539 0C24.94539 1.25252 23.93004 2.26787 22.67752 2.26787 21.42499 2.26787 20.40964 1.25252 20.40964 0 20.40964-1.25252 21.42499-2.26787 22.67752-2.26787 23.93004-2.26787 24.94539-1.25252 24.94539 0ZM22.67752 0" fill="#ff0000"/>
<path transform="matrix(1.00005,0,0,-1.00003,47.452409,92.5103)" d="M47.62292 0C47.62292 1.25252 46.60757 2.26787 45.35506 2.26787 44.10252 2.26787 43.08717 1.25252 43.08717 0 43.08717-1.25252 44.10252-2.26787 45.35506-2.26787 46.60757-2.26787 47.62292-1.25252 47.62292 0ZM45.35506 0" fill="#ff0000"/>
<path transform="matrix(1.00005,0,0,-1.00003,47.452409,92.5103)" d="M13.60663 22.67752C13.60663 23.93004 12.59128 24.94539 11.33876 24.94539 10.08623 24.94539 9.07088 23.93004 9.07088 22.67752 9.07088 21.42499 10.08623 20.40964 11.33876 20.40964 12.59128 20.40964 13.60663 21.42499 13.60663 22.67752ZM11.33876 22.67752" fill="#0000ff"/>
<path transform="matrix(1.00005,0,0,-1.00003,47.452409,92.5103)" d="M36.28415 22.67752C36.28415 23.93004 35.2688 24.94539 34.01628 24.94539 32.76375 24.94539 31.7484 23.93004 31.7484 22.67752 31.7484 21.42499 32.76375 20.40964 34.01628 20.40964 35.2688 20.40964 36.28415 21.42499 36.28415 22.67752ZM34.01628 22.67752" fill="#0000ff"/>
<path transform="matrix(1.00005,0,0,-1.00003,47.452409,92.5103)" d="M58.96169 22.67752C58.96169 23.93004 57.94633 24.94539 56.69382 24.94539 55.44128 24.94539 54.42593 23.93004 54.42593 22.67752 54.42593 21.42499 55.44128 20.40964 56.69382 20.40964 57.94633 20.40964 58.96169 21.42499 58.96169 22.67752ZM56.69382 22.67752" fill="#0000ff"/>
<path transform="matrix(1.00005,0,0,-1.00003,47.452409,92.5103)" d="M24.94539 45.35506C24.94539 46.60757 23.93004 47.62292 22.67752 47.62292 21.42499 47.62292 20.40964 46.60757 20.40964 45.35506 20.40964 44.10252 21.42499 43.08717 22.67752 43.08717 23.93004 43.08717 24.94539 44.10252 24.94539 45.35506ZM22.67752 45.35506" fill="#7f807f"/>
<path transform="matrix(1.00005,0,0,-1.00003,47.452409,92.5103)" d="M47.62292 45.35506C47.62292 46.60757 46.60757 47.62292 45.35506 47.62292 44.10252 47.62292 43.08717 46.60757 43.08717 45.35506 43.08717 44.10252 44.10252 43.08717 45.35506 43.08717 46.60757 43.08717 47.62292 44.10252 47.62292 45.35506ZM45.35506 45.35506" fill="#7f807f"/>
<path transform="matrix(1.00005,0,0,-1.00003,47.452409,92.5103)" d="M70.30046 45.35506C70.30046 46.60757 69.28511 47.62292 68.0326 47.62292 66.78006 47.62292 65.76471 46.60757 65.76471 45.35506 65.76471 44.10252 66.78006 43.08717 68.0326 43.08717 69.28511 43.08717 70.30046 44.10252 70.30046 45.35506ZM68.0326 45.35506" fill="#7f807f"/>
<path transform="matrix(1.00005,0,0,-1.00003,47.452409,92.5103)" d="M36.28415 68.0326C36.28415 69.28511 35.2688 70.30046 34.01628 70.30046 32.76375 70.30046 31.7484 69.28511 31.7484 68.0326 31.7484 66.78006 32.76375 65.76471 34.01628 65.76471 35.2688 65.76471 36.28415 66.78006 36.28415 68.0326ZM34.01628 68.0326" fill="#ff8000"/>
<path transform="matrix(1.00005,0,0,-1.00003,47.452409,92.5103)" d="M58.96169 68.0326C58.96169 69.28511 57.94633 70.30046 56.69382 70.30046 55.44128 70.30046 54.42593 69.28511 54.42593 68.0326 54.42593 66.78006 55.44128 65.76471 56.69382 65.76471 57.94633 65.76471 58.96169 66.78006 58.96169 68.0326ZM56.69382 68.0326" fill="#ff8000"/>
<path transform="matrix(1.00005,0,0,-1.00003,47.452409,92.5103)" d="M81.63922 68.0326C81.63922 69.28511 80.62387 70.30046 79.37135 70.30046 78.11882 70.30046 77.10347 69.28511 77.10347 68.0326 77.10347 66.78006 78.11882 65.76471 79.37135 65.76471 80.62387 65.76471 81.63922 66.78006 81.63922 68.0326ZM79.37135 68.0326" fill="#ff8000"/>
</svg>
