<svg xmlns="http://www.w3.org/2000/svg" xmlns:xlink="http://www.w3.org/1999/xlink" xmlns:inkscape="http://www.inkscape.org/namespaces/inkscape" version="1.1" width="216" height="216" viewBox="0 0 216 216">
<defs>
<path id="font_1_1" d="M.33099366-.2400055C.33099366-.23701477 .33099366-.23500061 .31399537-.21800232 .18899536-.0920105 .15699768 .09700012 .15699768 .25 .15699768 .42399598 .19499207 .59799197 .31799317 .72299197 .33099366 .73498538 .33099366 .7369995 .33099366 .73999026 .33099366 .746994 .32699586 .75 .32099916 .75 .31098939 .75 .22099304 .6819916 .1619873 .5549927 .11099243 .44499208 .09899902 .33399964 .09899902 .25 .09899902 .17199707 .10998535 .050994874 .16499329-.06201172 .22499085-.18501282 .31098939-.25 .32099916-.25 .32699586-.25 .33099366-.24700928 .33099366-.2400055Z"/>
<path id="font_2_4" d="M.33399964 .30233766C.33999635 .32835389 .36299134 .42037965 .43299867 .42037965 .43798829 .42037965 .46199037 .42037965 .48298646 .40734864 .45498658 .402359 .43499757 .37734986 .43499757 .35334779 .43499757 .33735658 .44599916 .31835938 .47299195 .31835938 .49499513 .31835938 .5269928 .3363495 .5269928 .37635804 .5269928 .42837525 .46798707 .4423828 .43399049 .4423828 .37599183 .4423828 .34098817 .38935853 .32899476 .36634828 .3039856 .43237306 .25 .4423828 .22099304 .4423828 .116989139 .4423828 .05999756 .3133545 .05999756 .28834535 .05999756 .27833558 .069992069 .27833558 .07199097 .27833558 .07998657 .27833558 .08299255 .28033448 .084991458 .28933717 .11898804 .39535523 .18499756 .42037965 .21899414 .42037965 .23799134 .42037965 .272995 .4113617 .272995 .35334779 .272995 .32235719 .2559967 .25532533 .21899414 .11528015 .20298767 .053268434 .16799927 .011245728 .12399292 .011245728 .117996219 .011245728 .09498596 .011245728 .07398987 .024276734 .09899902 .029266358 .12098694 .05027771 .12098694 .07827759 .12098694 .105270389 .09899902 .11328125 .083999637 .11328125 .053985597 .11328125 .0289917 .08728027 .0289917 .055267335 .0289917 .009246826 .07899475-.0107421879 .12298584-.0107421879 .18899536-.0107421879 .22499085 .059280397 .22799683 .0652771 .23999024 .028274537 .27598573-.0107421879 .33599855-.0107421879 .43899537-.0107421879 .49598695 .118270877 .49598695 .14328003 .49598695 .1532898 .4869995 .1532898 .48399354 .1532898 .47499085 .1532898 .47299195 .14929199 .47099305 .14228821 .43798829 .03527832 .36999513 .011245728 .33799745 .011245728 .29899598 .011245728 .2829895 .043273927 .2829895 .07727051 .2829895 .09927368 .2889862 .121276859 .2999878 .16529846L.33399964 .30233766Z"/>
<path id="font_3_1" d="M.32398988 .6253052C.32398988 .64131167 .31199647 .66329959 .28399659 .66329959 .25698854 .66329959 .22799683 .6372986 .22799683 .6083069 .22799683 .5913086 .24099732 .5703125 .2679901 .5703125 .29699708 .5703125 .32398988 .5983124 .32398988 .6253052M.11999512 .117263797C.115997318 .104263309 .11099243 .09225464 .11099243 .07525635 .11099243 .02822876 .15098572-.009765625 .20599365-.009765625 .30599977-.009765625 .34999085 .12828064 .34999085 .14328003 .34999085 .15628052 .33699037 .15628052 .33399964 .15628052 .31999208 .15628052 .31900025 .15028382 .31498719 .13928223 .2919922 .059249879 .24798584 .018234253 .20899964 .018234253 .18899536 .018234253 .18399048 .031234742 .18399048 .053237916 .18399048 .07624817 .19099427 .09526062 .19999695 .117263797 .20999146 .14428711 .22099304 .17129517 .23199463 .1973114 .24099732 .22131348 .2769928 .3123474 .2809906 .32435609 .28399659 .33436585 .2869873 .3463745 .2869873 .35636903 .2869873 .4033966 .24699402 .44140626 .19198609 .44140626 .09298706 .44140626 .04699707 .3053589 .04699707 .28834535 .04699707 .27534486 .06098938 .27534486 .06399536 .27534486 .07798767 .27534486 .07899475 .28033448 .08198547 .29135133 .10798645 .37738038 .1519928 .4133911 .18899536 .4133911 .20498657 .4133911 .21398926 .4053955 .21398926 .37838746 .21398926 .3553772 .20799256 .34036256 .18299866 .27833558L.11999512 .117263797Z"/>
<path id="font_2_1" d="M.20298767 .0009918213C.20298767 .066986087 .17799378 .10598755 .13899231 .10598755 .10598755 .10598755 .085998538 .08099365 .085998538 .052993776 .085998538 .025985718 .10598755 0 .13899231 0 .15098572 0 .1639862 .0039978029 .17399597 .0129852299 .1769867 .01499939 .17799378 .015991211 .1789856 .015991211 .17999268 .015991211 .18099976 .01499939 .18099976 .0009918213 .18099976-.07316589 .1459961-.13328552 .11299133-.16635132 .101989749-.17736817 .101989749-.17936707 .101989749-.18237305 .101989749-.18936157 .10699463-.19335938 .11199951-.19335938 .12298584-.19335938 .20298767-.116256717 .20298767 .0009918213Z"/>
<path id="font_2_5" d="M.48599244 .38136292C.48999024 .39537049 .48999024 .39736939 .48999024 .40437318 .48999024 .42237855 .47599793 .43138124 .46099855 .43138124 .45098878 .43138124 .43499757 .42536927 .42599488 .41036988 .42399598 .405365 .41600038 .37435914 .4119873 .35635377 .40499879 .33035279 .397995 .30334474 .3919983 .27633668L.34700013 .09628296C.34298707 .08126831 .2999878 .011245728 .23399353 .011245728 .18299866 .011245728 .17199707 .055267335 .17199707 .0922699 .17199707 .1382904 .18899536 .20030213 .22299195 .28833009 .23899842 .3293457 .24299622 .3403473 .24299622 .36035157 .24299622 .405365 .21099854 .4423828 .16099549 .4423828 .06599426 .4423828 .0289917 .29733277 .0289917 .28833009 .0289917 .27833558 .038986207 .27833558 .040985109 .27833558 .050994874 .27833558 .051986696 .28033448 .056991579 .29634095 .083999637 .3903656 .12399292 .42037965 .1579895 .42037965 .1659851 .42037965 .18299866 .42037965 .18299866 .3883667 .18299866 .36335755 .17298889 .3373413 .1659851 .31834413 .12599182 .21231079 .10798645 .1552887 .10798645 .10827637 .10798645 .019256592 .17098999-.0107421879 .22999573-.0107421879 .2689972-.0107421879 .30299378 .0062561037 .33099366 .03425598 .31799317-.017745972 .30599977-.06674194 .2659912-.11973572 .23999024-.15385437 .20199585-.18309021 .1559906-.18309021 .14199829-.18309021 .09700012-.18005371 .07998657-.14074707 .09599304-.14074707 .10899353-.14074707 .12298584-.1287384 .1329956-.11973572 .14299011-.10673523 .14299011-.08773804 .14299011-.056747438 .115997318-.052734376 .10598755-.052734376 .08299255-.052734376 .049987794-.068740848 .049987794-.11773682 .049987794-.16796875 .09399414-.20507813 .1559906-.20507813 .25898744-.20507813 .3619995-.11373901 .3899994-.00074768069L.48599244 .38136292Z"/>
<path id="font_1_2" d="M.2889862 .25C.2889862 .32798768 .27799989 .44898988 .22299195 .56199648 .16299439 .68499758 .07699585 .75 .066986087 .75 .06098938 .75 .056991579 .74598696 .056991579 .73999026 .056991579 .7369995 .056991579 .73498538 .07598877 .71699526 .17399597 .6179962 .23098755 .45899964 .23098755 .25 .23098755 .07899475 .19400025-.09700012 .069992069-.2230072 .056991579-.23500061 .056991579-.23701477 .056991579-.2400055 .056991579-.2460022 .06098938-.25 .066986087-.25 .07699585-.25 .16699219-.18200684 .22599793-.055007936 .2769928 .054992677 .2889862 .16600037 .2889862 .25Z"/>
<path id="font_2_2" d="M.37298585 .37835694C.35499574 .41537477 .32598878 .4423828 .2809906 .4423828 .1639862 .4423828 .039993287 .29533387 .039993287 .14929199 .039993287 .055267335 .09498596-.0107421879 .17298889-.0107421879 .19299317-.0107421879 .24299622-.0067443849 .30299378 .06427002 .31098939 .022247315 .34599305-.0107421879 .3939972-.0107421879 .42900086-.0107421879 .45199586 .012252808 .46798707 .044265748 .4850006 .08027649 .49798585 .14129639 .49798585 .14329529 .49798585 .1532898 .4889984 .1532898 .48599244 .1532898 .47599793 .1532898 .47499085 .14929199 .47200013 .13528443 .45498658 .07026672 .43699647 .011245728 .3959961 .011245728 .36898805 .011245728 .3659973 .037261964 .3659973 .057266237 .3659973 .07926941 .36799623 .08728027 .3789978 .13128662 .3899994 .17329407 .3919983 .18330384 .40098573 .22131348L.43699647 .36135865C.44400025 .38935853 .44400025 .39135743 .44400025 .39537049 .44400025 .41236878 .43199159 .42237855 .4149933 .42237855 .3909912 .42237855 .37599183 .4003601 .37298585 .37835694M.30799867 .119277957C.30299378 .10127258 .30299378 .09927368 .28799439 .08227539 .24398804 .027252198 .20298767 .011245728 .1749878 .011245728 .125 .011245728 .11099243 .06626892 .11099243 .105285648 .11099243 .1552887 .14299011 .27833558 .1659851 .32434083 .19699097 .38336183 .24198914 .42037965 .28199769 .42037965 .34700013 .42037965 .36099244 .3383484 .36099244 .33235169 .36099244 .32633973 .35899354 .32034303 .35798646 .31533814L.30799867 .119277957Z"/>
<path id="font_1_3" d="M.40899659 .23046875H.6879883C.70199587 .23046875 .72099307 .23046875 .72099307 .25045777 .72099307 .27046205 .70199587 .27046205 .6879883 .27046205H.40899659V.5500183C.40899659 .56399539 .40899659 .5830078 .3889923 .5830078 .36898805 .5830078 .36898805 .56399539 .36898805 .5500183V.27046205H.08898926C.07499695 .27046205 .055999757 .27046205 .055999757 .25045777 .055999757 .23046875 .07499695 .23046875 .08898926 .23046875H.36898805V-.05000305C.36898805-.06401062 .36898805-.08300781 .3889923-.08300781 .40899659-.08300781 .40899659-.06401062 .40899659-.05000305V.23046875Z"/>
<path id="font_2_3" d="M.23899842 .68333438C.23899842 .6843262 .23899842 .69433596 .22599793 .69433596 .20298767 .69433596 .12998963 .6863251 .10398865 .6843262 .09599304 .68333438 .084991458 .6823273 .084991458 .6643219 .084991458 .6523285 .09399414 .6523285 .10899353 .6523285 .15699768 .6523285 .15899658 .6453247 .15899658 .6353302 .15899658 .6283264 .1499939 .5943451 .14498902 .573349L.06298828 .24731446C.050994874 .1973114 .04699707 .18130493 .04699707 .14628601 .04699707 .05126953 .099990848-.0107421879 .17399597-.0107421879 .2919922-.0107421879 .4149933 .1382904 .4149933 .28233338 .4149933 .37335206 .3619995 .4423828 .28199769 .4423828 .23599243 .4423828 .19499207 .41337586 .16499329 .38235475L.23899842 .68333438M.14498902 .30534364C.15098572 .3273468 .15098572 .3293457 .1599884 .3403473 .20899964 .405365 .2539978 .42037965 .27999879 .42037965 .31599427 .42037965 .34298707 .3903656 .34298707 .32633973 .34298707 .26733399 .30999757 .15229798 .2919922 .11428833 .25898744 .04725647 .21299744 .011245728 .17399597 .011245728 .13999939 .011245728 .10699463 .038253786 .10699463 .11227417 .10699463 .13128662 .10699463 .15029907 .12298584 .21331787L.14498902 .30534364Z"/>
<path id="font_4_1" d="M.6589966 .23046875C.6759949 .23046875 .69400027 .23046875 .69400027 .25045777 .69400027 .27046205 .6759949 .27046205 .6589966 .27046205H.117996219C.100997928 .27046205 .08299255 .27046205 .08299255 .25045777 .08299255 .23046875 .100997928 .23046875 .117996219 .23046875H.6589966Z"/>
</defs>
<path transform="matrix(1.00002,0,0,-1.00002,44.413537,171.67714)" stroke-width=".3985" stroke-linecap="butt" stroke-miterlimit="10" stroke-linejoin="miter" fill="none" stroke="#cccccc" d="M-42.5202-42.5202H170.08086M-42.5202 0H170.08086M-42.5202 42.5202H170.08086M-42.5202 85.04042H170.08086M-42.5202 127.56062H170.08086M-42.5202 170.0659H170.08086M-42.5202-42.5202V170.08086M0-42.5202V170.08086M42.5202-42.5202V170.08086M85.04042-42.5202V170.08086M127.56062-42.5202V170.08086M170.0659-42.5202V170.08086M170.08086 170.08086"/>
<path transform="matrix(1.00002,0,0,-1.00002,44.413537,171.67714)" stroke-width="1.99255" stroke-linecap="butt" stroke-miterlimit="10" stroke-linejoin="miter" fill="none" stroke="#000000" d="M-42.5202-42.5202 116.93057 170.08086"/>
<path transform="matrix(1.00002,0,0,-1.00002,44.413537,171.67714)" d="M88.4421 42.5202C88.4421 44.39891 86.91913 45.92188 85.04042 45.92188 83.16171 45.92188 81.63875 44.39891 81.63875 42.5202 81.63875 40.6415 83.16171 39.11853 85.04042 39.11853 86.91913 39.11853 88.4421 40.6415 88.4421 42.5202ZM85.04042 42.5202" fill="#0000ff"/>
<use data-text="(" xlink:href="#font_1_1" transform="matrix(9.962799,0,0,-9.962799,132.97531,140.14852)" fill="#0000ff"/>
<use data-text="x" xlink:href="#font_2_4" transform="matrix(9.962799,0,0,-9.962799,136.84938,140.14852)" fill="#0000ff"/>
<use data-text="i" xlink:href="#font_3_1" transform="matrix(6.97394,0,0,-6.97394,142.54349,141.64354)" fill="#0000ff"/>
<use data-text="," xlink:href="#font_2_1" transform="matrix(9.962799,0,0,-9.962799,145.86057,140.14852)" fill="#0000ff"/>
<use data-text="y" xlink:href="#font_2_5" transform="matrix(9.962799,0,0,-9.962799,150.2741,140.14852)" fill="#0000ff"/>
<use data-text="i" xlink:href="#font_3_1" transform="matrix(6.97394,0,0,-6.97394,155.17275,141.64354)" fill="#0000ff"/>
<use data-text=")" xlink:href="#font_1_2" transform="matrix(9.962799,0,0,-9.962799,158.4898,140.14852)" fill="#0000ff"/>
<path transform="matrix(1.00002,0,0,-1.00002,44.413537,171.67714)" d="M88.4421 127.56062C88.4421 129.43933 86.91913 130.9623 85.04042 130.9623 83.16171 130.9623 81.63875 129.43933 81.63875 127.56062 81.63875 125.68193 83.16171 124.15895 85.04042 124.15895 86.91913 124.15895 88.4421 125.68193 88.4421 127.56062ZM85.04042 127.56062" fill="#ff0000"/>
<use data-text="(" xlink:href="#font_1_1" transform="matrix(9.962799,0,0,-9.962799,74.01813,38.10347)" fill="#ff0000"/>
<use data-text="x" xlink:href="#font_2_4" transform="matrix(9.962799,0,0,-9.962799,77.892208,38.10347)" fill="#ff0000"/>
<use data-text="i" xlink:href="#font_3_1" transform="matrix(6.97394,0,0,-6.97394,83.58631,39.598497)" fill="#ff0000"/>
<use data-text="," xlink:href="#font_2_1" transform="matrix(9.962799,0,0,-9.962799,86.90339,38.10347)" fill="#ff0000"/>
<use data-text="a" xlink:href="#font_2_2" transform="matrix(9.962799,0,0,-9.962799,91.31692,38.10347)" fill="#ff0000"/>
<use data-text="x" xlink:href="#font_2_4" transform="matrix(9.962799,0,0,-9.962799,96.57728,38.10347)" fill="#ff0000"/>
<use data-text="i" xlink:href="#font_3_1" transform="matrix(6.97394,0,0,-6.97394,102.291698,39.598497)" fill="#ff0000"/>
<use data-text="+" xlink:href="#font_1_3" transform="matrix(9.962799,0,0,-9.962799,107.8218,38.10347)" fill="#ff0000"/>
<use data-text="b" xlink:href="#font_2_3" transform="matrix(9.962799,0,0,-9.962799,117.784999,38.10347)" fill="#ff0000"/>
<use data-text=")" xlink:href="#font_1_2" transform="matrix(9.962799,0,0,-9.962799,122.06109,38.10347)" fill="#ff0000"/>
<path transform="matrix(1.00002,0,0,-1.00002,44.413537,171.67714)" stroke-width=".49814" stroke-linecap="butt" stroke-dasharray="2.98883,2.98883" stroke-miterlimit="10" stroke-linejoin="miter" fill="none" stroke="#000000" d="M85.04042 42.5202V127.56062"/>
<use data-text="y" xlink:href="#font_2_5" transform="matrix(9.962799,0,0,-9.962799,134.04433,89.12548)"/>
<use data-text="i" xlink:href="#font_3_1" transform="matrix(6.97394,0,0,-6.97394,138.9284,90.62051)"/>
<use data-text="&#x2212;" xlink:href="#font_4_1" transform="matrix(9.962799,0,0,-9.962799,144.45954,89.12548)"/>
<use data-text="(" xlink:href="#font_1_1" transform="matrix(9.962799,0,0,-9.962799,154.42176,89.12548)"/>
<use data-text="a" xlink:href="#font_2_2" transform="matrix(9.962799,0,0,-9.962799,158.29682,89.12548)"/>
<use data-text="x" xlink:href="#font_2_4" transform="matrix(9.962799,0,0,-9.962799,163.55719,89.12548)"/>
<use data-text="i" xlink:href="#font_3_1" transform="matrix(6.97394,0,0,-6.97394,169.25705,90.62051)"/>
<use data-text="+" xlink:href="#font_1_3" transform="matrix(9.962799,0,0,-9.962799,174.78815,89.12548)"/>
<use data-text="b" xlink:href="#font_2_3" transform="matrix(9.962799,0,0,-9.962799,184.75037,89.12548)"/>
<use data-text=")" xlink:href="#font_1_2" transform="matrix(9.962799,0,0,-9.962799,189.02646,89.12548)"/>
</svg>
