<svg xmlns="http://www.w3.org/2000/svg" xmlns:xlink="http://www.w3.org/1999/xlink" xmlns:inkscape="http://www.inkscape.org/namespaces/inkscape" version="1.1" width="187" height="169" viewBox="0 0 187 169">
<defs>
<path id="font_1_2" d="M.48599244 .38136292C.48999024 .39537049 .48999024 .39736939 .48999024 .40437318 .48999024 .42237855 .47599793 .43138124 .46099855 .43138124 .45098878 .43138124 .43499757 .42536927 .42599488 .41036988 .42399598 .405365 .41600038 .37435914 .4119873 .35635377 .40499879 .33035279 .397995 .30334474 .3919983 .27633668L.34700013 .09628296C.34298707 .08126831 .2999878 .011245728 .23399353 .011245728 .18299866 .011245728 .17199707 .055267335 .17199707 .0922699 .17199707 .1382904 .18899536 .20030213 .22299195 .28833009 .23899842 .3293457 .24299622 .3403473 .24299622 .36035157 .24299622 .405365 .21099854 .4423828 .16099549 .4423828 .06599426 .4423828 .0289917 .29733277 .0289917 .28833009 .0289917 .27833558 .038986207 .27833558 .040985109 .27833558 .050994874 .27833558 .051986696 .28033448 .056991579 .29634095 .083999637 .3903656 .12399292 .42037965 .1579895 .42037965 .1659851 .42037965 .18299866 .42037965 .18299866 .3883667 .18299866 .36335755 .17298889 .3373413 .1659851 .31834413 .12599182 .21231079 .10798645 .1552887 .10798645 .10827637 .10798645 .019256592 .17098999-.0107421879 .22999573-.0107421879 .2689972-.0107421879 .30299378 .0062561037 .33099366 .03425598 .31799317-.017745972 .30599977-.06674194 .2659912-.11973572 .23999024-.15385437 .20199585-.18309021 .1559906-.18309021 .14199829-.18309021 .09700012-.18005371 .07998657-.14074707 .09599304-.14074707 .10899353-.14074707 .12298584-.1287384 .1329956-.11973572 .14299011-.10673523 .14299011-.08773804 .14299011-.056747438 .115997318-.052734376 .10598755-.052734376 .08299255-.052734376 .049987794-.068740848 .049987794-.11773682 .049987794-.16796875 .09399414-.20507813 .1559906-.20507813 .25898744-.20507813 .3619995-.11373901 .3899994-.00074768069L.48599244 .38136292Z"/>
<path id="font_1_3" d="M.1329956 .08345032C.18699646 .14138794 .21598816 .16636658 .2519989 .19732666 .2519989 .19833374 .31399537 .25128175 .34999085 .2872467 .44499208 .3803711 .46699525 .42837525 .46699525 .43237306 .46699525 .4423828 .45799256 .4423828 .45599366 .4423828 .44898988 .4423828 .44599916 .44036866 .44099427 .43138124 .41099549 .38337709 .3899994 .3671875 .3659973 .3671875 .34199525 .3671875 .32998658 .38237 .31498719 .3993683 .29599 .42237855 .2789917 .4423828 .24598694 .4423828 .17098999 .4423828 .125 .34918214 .125 .3282013 .125 .3231964 .12799073 .31721498 .13699341 .31721498 .1459961 .31721498 .147995 .3222046 .1499939 .3282013 .16899109 .37434388 .22698975 .37538148 .23498535 .37538148 .2559967 .37538148 .2749939 .36820985 .2979889 .36018373 .33799745 .34518434 .34899903 .34518434 .375 .34518434 .33898927 .30223084 .25498963 .2303009 .23599243 .21430969L.1459961 .13040161C.07798767 .06341553 .042999269 .0062561037 .042999269-.00074768069 .042999269-.0107421879 .052993776-.0107421879 .054992677-.0107421879 .06298828-.0107421879 .06498718-.008743286 .070999149 .002243042 .09399414 .037246705 .12399292 .064453128 .1559906 .064453128 .1789856 .064453128 .18899536 .055252077 .21398926 .026245118 .23098755 .0052490236 .24899292-.0107421879 .27799989-.0107421879 .3769989-.0107421879 .43499757 .1164093 .43499757 .14338684 .43499757 .14837647 .43099977 .15338135 .4229889 .15338135 .4139862 .15338135 .4119873 .14738465 .40899659 .14039612 .38598634 .07543945 .32199098 .056243898 .2889862 .056243898 .2689972 .056243898 .25099183 .06239319 .22999573 .06944275 .19599915 .08244324 .18099976 .08644104 .1599884 .08644104 .1579895 .08644104 .14199829 .08644104 .1329956 .08345032Z"/>
<path id="font_1_1" d="M.33399964 .30233766C.33999635 .32835389 .36299134 .42037965 .43299867 .42037965 .43798829 .42037965 .46199037 .42037965 .48298646 .40734864 .45498658 .402359 .43499757 .37734986 .43499757 .35334779 .43499757 .33735658 .44599916 .31835938 .47299195 .31835938 .49499513 .31835938 .5269928 .3363495 .5269928 .37635804 .5269928 .42837525 .46798707 .4423828 .43399049 .4423828 .37599183 .4423828 .34098817 .38935853 .32899476 .36634828 .3039856 .43237306 .25 .4423828 .22099304 .4423828 .116989139 .4423828 .05999756 .3133545 .05999756 .28834535 .05999756 .27833558 .069992069 .27833558 .07199097 .27833558 .07998657 .27833558 .08299255 .28033448 .084991458 .28933717 .11898804 .39535523 .18499756 .42037965 .21899414 .42037965 .23799134 .42037965 .272995 .4113617 .272995 .35334779 .272995 .32235719 .2559967 .25532533 .21899414 .11528015 .20298767 .053268434 .16799927 .011245728 .12399292 .011245728 .117996219 .011245728 .09498596 .011245728 .07398987 .024276734 .09899902 .029266358 .12098694 .05027771 .12098694 .07827759 .12098694 .105270389 .09899902 .11328125 .083999637 .11328125 .053985597 .11328125 .0289917 .08728027 .0289917 .055267335 .0289917 .009246826 .07899475-.0107421879 .12298584-.0107421879 .18899536-.0107421879 .22499085 .059280397 .22799683 .0652771 .23999024 .028274537 .27598573-.0107421879 .33599855-.0107421879 .43899537-.0107421879 .49598695 .118270877 .49598695 .14328003 .49598695 .1532898 .4869995 .1532898 .48399354 .1532898 .47499085 .1532898 .47299195 .14929199 .47099305 .14228821 .43798829 .03527832 .36999513 .011245728 .33799745 .011245728 .29899598 .011245728 .2829895 .043273927 .2829895 .07727051 .2829895 .09927368 .2889862 .121276859 .2999878 .16529846L.33399964 .30233766Z"/>
<path id="font_2_2" d="M.08299255 .44218446V.39518739C.099990848 .39518739 .12199402 .39518739 .13699341 .39318849 .15899658 .38919068 .15899658 .37617494 .15899658 .35516358V-.042114259C.15899658-.09214783 .14399719-.16419983 .083999637-.16419983 .067993167-.16419983 .05999756-.16220093 .04499817-.15820313 .06399536-.14419556 .068984989-.123168949 .068984989-.108169559 .068984989-.073135379 .042999269-.04612732 .0069885256-.04612732-.03100586-.04612732-.056015016-.073135379-.056015016-.10916138-.056015016-.16619873 .0039978029-.20019531 .085998538-.20019531 .17199707-.20019531 .2669983-.14819336 .2669983-.042114259V.4501953L.08299255 .44218446M.2669983 .6173096C.2669983 .66030886 .23199463 .6953125 .18899536 .6953125 .1459961 .6953125 .11099243 .66030886 .11099243 .6173096 .11099243 .5743103 .1459961 .53930667 .18899536 .53930667 .23199463 .53930667 .2669983 .5743103 .2669983 .6173096Z"/>
<path id="font_3_3" d="M.68699648 .32714845C.70199587 .32714845 .72099307 .32714845 .72099307 .34713746 .72099307 .36714173 .70199587 .36714173 .6879883 .36714173H.08898926C.07499695 .36714173 .055999757 .36714173 .055999757 .34713746 .055999757 .32714845 .07499695 .32714845 .08999634 .32714845H.68699648M.6879883 .13284302C.70199587 .13284302 .72099307 .13284302 .72099307 .15284729 .72099307 .17285156 .70199587 .17285156 .68699648 .17285156H.08999634C.07499695 .17285156 .055999757 .17285156 .055999757 .15284729 .055999757 .13284302 .07499695 .13284302 .08898926 .13284302H.6879883Z"/>
<path id="font_4_1" d="M.32598878-1.7597656H.394989V-.029937745H.6589966V.0390625H.32598878V-1.7597656Z"/>
<path id="font_4_3" d="M.32598878-1.7587891H.6589966V-1.6898041H.394989V.040039064H.32598878V-1.7587891Z"/>
<path id="font_3_1" d="M.45999146 .31976319C.45999146 .39982606 .45498658 .47988893 .41999818 .5539398 .37399293 .65000918 .2919922 .6660156 .25 .6660156 .18998719 .6660156 .116989139 .64001467 .07598877 .54693606 .04399109 .47789 .038986207 .39982606 .038986207 .31976319 .038986207 .24472046 .042999269 .15464783 .083999637 .07859802 .1269989-.0024719239 .19999695-.022460938 .24899292-.022460938 .30299378-.022460938 .3789978-.0014648438 .4229889 .09359741 .45498658 .16265869 .45999146 .2407074 .45999146 .31976319M.24899292-.00047302247C.20999146-.00047302247 .15098572 .024551392 .1329956 .12062073 .12199402 .18066406 .12199402 .2727356 .12199402 .3317871 .12199402 .39582826 .12199402 .46188355 .12998963 .5159149 .14898682 .63500979 .22399903 .64401248 .24899292 .64401248 .28199769 .64401248 .34799195 .6259918 .36698915 .52693179 .3769989 .47088624 .3769989 .39482118 .3769989 .3317871 .3769989 .25672914 .3769989 .18867493 .3659973 .12461853 .35099793 .029556275 .2939911-.00047302247 .24899292-.00047302247Z"/>
<path id="font_3_2" d="M.2939911 .64004519C.2939911 .66400149 .2939911 .6660156 .2709961 .6660156 .20899964 .60227969 .12098694 .60227969 .08898926 .60227969V.57128909C.10899353 .57128909 .16799927 .57128909 .21998596 .5972748V.07902527C.21998596 .042999269 .21699524 .0309906 .1269989 .0309906H.09498596V0C.12998963 .0029907227 .21699524 .0029907227 .25698854 .0029907227 .29699708 .0029907227 .38398744 .0029907227 .4189911 0V.0309906H.3869934C.29699708 .0309906 .2939911 .041992189 .2939911 .07902527V.64004519Z"/>
<path id="font_4_2" d="M.2709961-1.7597656H.33999635V.0390625H.0069885256V-.029937745H.2709961V-1.7597656Z"/>
<path id="font_4_4" d="M.2709961-1.6898041H.0069885256V-1.7587891H.33999635V.040039064H.2709961V-1.6898041Z"/>
<path id="font_2_1" d="M.22399903 .4501953 .049987794 .44218446V.39518739C.10899353 .39518739 .115997318 .39518739 .115997318 .35617066V.04699707H.04699707V0C.07798767 .0009918213 .1269989 .0029907227 .16899109 .0029907227 .19898987 .0029907227 .25 .0009918213 .28599549 0V.04699707H.22399903V.4501953M.23399353 .6173096C.23399353 .66130068 .19799805 .6953125 .1559906 .6953125 .11299133 .6953125 .07798767 .66030886 .07798767 .6173096 .07798767 .5743103 .11299133 .53930667 .1559906 .53930667 .19799805 .53930667 .23399353 .5733032 .23399353 .6173096Z"/>
<path id="font_2_3" d="M.21398926 .23716736V.69433596L.036987306 .6863251V.639328C.09899902 .639328 .10598755 .639328 .10598755 .60032656V.04699707H.036987306V0C.07398987 .0009918213 .12098694 .0029907227 .15699768 .0029907227 .19400025 .0029907227 .24198914 .0009918213 .27799989 0V.04699707H.20899964V.17411804C.23799134 .1971283 .24598694 .20314026 .2659912 .21714783L.36698915 .091033939C.37599183 .07902527 .3919983 .059005739 .3919983 .055999757 .3919983 .04699707 .37399293 .04699707 .36099244 .04699707V0C.3909912 .0019989014 .47799684 .0029907227 .48298646 .0029907227 .5189972 .0029907227 .5529938 .0019989014 .58699038 0V.04699707H.56999209C.5269928 .04699707 .5239868 .050994874 .5109863 .0670166L.34199525 .2782135 .47200013 .37930299C.48599244 .39031983 .49499513 .3973236 .56199648 .3973236V.44433595C.5349884 .44132997 .5099945 .44132997 .48399354 .44132997 .45700074 .44132997 .3919983 .44332887 .36898805 .44433595V.3973236C.3919983 .3973236 .394989 .39431764 .40299989 .38632203L.21398926 .23716736Z"/>
</defs>
<path transform="matrix(1.00006,0,0,-1.00008,72.39805,115.19393)" stroke-width=".3985" stroke-linecap="butt" stroke-miterlimit="10" stroke-linejoin="miter" fill="none" stroke="#000000" d="M-28.3468 0H112.98872"/>
<path transform="matrix(1.00006,0,0,-1.00008,185.5928,115.19393)" stroke-width=".3985" stroke-linecap="round" stroke-linejoin="round" fill="none" stroke="#000000" d="M-2.07224 2.39104C-1.69365 .95639-.84999 .27895 0 0-.84999-.27895-1.69365-.95639-2.07224-2.39104"/>
<use data-text="y" xlink:href="#font_1_2" transform="matrix(9.963197,0,0,-9.963397,177.02933,123.003559)"/>
<path transform="matrix(1.00006,0,0,-1.00008,72.39805,115.19393)" stroke-width=".3985" stroke-linecap="butt" stroke-miterlimit="10" stroke-linejoin="miter" fill="none" stroke="#000000" d="M0-28.3468V112.98872"/>
<path transform="matrix(0,-1.00008,-1.00006,-0,72.39805,1.9969025)" stroke-width=".3985" stroke-linecap="round" stroke-linejoin="round" fill="none" stroke="#000000" d="M-2.07224 2.39104C-1.69365 .95639-.84999 .27895 0 0-.84999-.27895-1.69365-.95639-2.07224-2.39104"/>
<use data-text="z" xlink:href="#font_1_3" transform="matrix(9.963197,0,0,-9.963397,63.806535,9.607483)"/>
<path transform="matrix(1.00006,0,0,-1.00008,72.39805,115.19393)" stroke-width=".3985" stroke-linecap="butt" stroke-miterlimit="10" stroke-linejoin="miter" fill="none" stroke="#000000" d="M10.91336 10.91336-43.37166-43.37166"/>
<path transform="matrix(-.70714238,.70715656,.70714238,.70715656,28.882878,158.70998)" stroke-width=".3985" stroke-linecap="round" stroke-linejoin="round" fill="none" stroke="#000000" d="M-2.07224 2.39104C-1.69365 .95639-.84999 .27895 0 0-.84999-.27895-1.69365-.95639-2.07224-2.39104"/>
<use data-text="x" xlink:href="#font_1_1" transform="matrix(9.963197,0,0,-9.963397,19.527878,166.66104)"/>
<path transform="matrix(1.00006,0,0,-1.00008,72.39805,115.19393)" stroke-width=".99628" stroke-linecap="butt" stroke-miterlimit="10" stroke-linejoin="miter" fill="none" stroke="#0000ff" d="M0 0H82.15121"/>
<path transform="matrix(1.00006,0,0,-1.00008,154.55419,115.19393)" d="M2.8892 0-1.73352 2.31136 0 0-1.73352-2.31136" fill="#0000ff"/>
<path transform="matrix(1.00006,0,0,-1.00008,72.39805,115.19393)" stroke-width=".99628" stroke-linecap="butt" stroke-miterlimit="10" stroke-linejoin="miter" fill="none" stroke="#ff0000" d="M0 0-30.6971-30.6971"/>
<path transform="matrix(-.70714238,.70715656,.70714238,.70715656,41.69911,145.8935)" d="M2.8892 0-1.73352 2.31136 0 0-1.73352-2.31136" fill="#ff0000"/>
<use data-text="j" xlink:href="#font_2_2" transform="matrix(9.963197,0,0,-9.963397,139.91809,97.840549)" fill="#0000ff"/>
<use data-text="=" xlink:href="#font_3_3" transform="matrix(9.963197,0,0,-9.963397,146.18647,97.840549)" fill="#0000ff"/>
<use data-text="&#xf8ee;" xlink:href="#font_4_1" transform="matrix(9.963197,0,0,-9.963397,156.70313,77.81394)" fill="#0000ff"/>
<use data-text="&#xf8f0;" xlink:href="#font_4_3" transform="matrix(9.963197,0,0,-9.963397,156.70313,95.748378)" fill="#0000ff"/>
<use data-text="0" xlink:href="#font_3_1" transform="matrix(9.963197,0,0,-9.963397,163.34552,85.784587)" fill="#0000ff"/>
<use data-text="1" xlink:href="#font_3_2" transform="matrix(9.963197,0,0,-9.963397,163.34552,97.74054)" fill="#0000ff"/>
<use data-text="0" xlink:href="#font_3_1" transform="matrix(9.963197,0,0,-9.963397,163.34552,109.696498)" fill="#0000ff"/>
<use data-text="&#xf8f9;" xlink:href="#font_4_2" transform="matrix(9.963197,0,0,-9.963397,168.32779,77.81395)" fill="#0000ff"/>
<use data-text="&#xf8fb;" xlink:href="#font_4_4" transform="matrix(9.963197,0,0,-9.963397,168.32779,95.74838)" fill="#0000ff"/>
<use data-text="i" xlink:href="#font_2_1" transform="matrix(9.963197,0,0,-9.963397,1.1697693,131.85927)" fill="#ff0000"/>
<use data-text="=" xlink:href="#font_3_3" transform="matrix(9.963197,0,0,-9.963397,7.120117,131.85927)" fill="#ff0000"/>
<use data-text="&#xf8ee;" xlink:href="#font_4_1" transform="matrix(9.963197,0,0,-9.963397,17.636765,111.83266)" fill="#ff0000"/>
<use data-text="&#xf8f0;" xlink:href="#font_4_3" transform="matrix(9.963197,0,0,-9.963397,17.636765,129.76709)" fill="#ff0000"/>
<use data-text="1" xlink:href="#font_3_2" transform="matrix(9.963197,0,0,-9.963397,24.27916,119.8033)" fill="#ff0000"/>
<use data-text="0" xlink:href="#font_3_1" transform="matrix(9.963197,0,0,-9.963397,24.27916,131.75926)" fill="#ff0000"/>
<use data-text="0" xlink:href="#font_3_1" transform="matrix(9.963197,0,0,-9.963397,24.27916,143.71521)" fill="#ff0000"/>
<use data-text="&#xf8f9;" xlink:href="#font_4_2" transform="matrix(9.963197,0,0,-9.963397,29.260453,111.83267)" fill="#ff0000"/>
<use data-text="&#xf8fb;" xlink:href="#font_4_4" transform="matrix(9.963197,0,0,-9.963397,29.260453,129.7671)" fill="#ff0000"/>
<path transform="matrix(1.00006,0,0,-1.00008,72.39805,115.19393)" stroke-width=".99628" stroke-linecap="butt" stroke-miterlimit="10" stroke-linejoin="miter" fill="none" stroke="#00aeef" d="M0 0V82.15121"/>
<path transform="matrix(0,-1.00008,-1.00006,-0,72.39805,33.036157)" d="M2.8892 0-1.73352 2.31136 0 0-1.73352-2.31136" fill="#00aeef"/>
<use data-text="k" xlink:href="#font_2_3" transform="matrix(9.963197,0,0,-9.963397,76.21728,32.63733)" fill="#00aeef"/>
<use data-text="=" xlink:href="#font_3_3" transform="matrix(9.963197,0,0,-9.963397,85.03179,32.63733)" fill="#00aeef"/>
<use data-text="&#xf8ee;" xlink:href="#font_4_1" transform="matrix(9.963197,0,0,-9.963397,95.54844,12.610725)" fill="#00aeef"/>
<use data-text="&#xf8f0;" xlink:href="#font_4_3" transform="matrix(9.963197,0,0,-9.963397,95.54844,30.545159)" fill="#00aeef"/>
<use data-text="0" xlink:href="#font_3_1" transform="matrix(9.963197,0,0,-9.963397,102.190837,20.581368)" fill="#00aeef"/>
<use data-text="0" xlink:href="#font_3_1" transform="matrix(9.963197,0,0,-9.963397,102.190837,32.537324)" fill="#00aeef"/>
<use data-text="1" xlink:href="#font_3_2" transform="matrix(9.963197,0,0,-9.963397,102.190837,44.49328)" fill="#00aeef"/>
<use data-text="&#xf8f9;" xlink:href="#font_4_2" transform="matrix(9.963197,0,0,-9.963397,107.17312,12.610733)" fill="#00aeef"/>
<use data-text="&#xf8fb;" xlink:href="#font_4_4" transform="matrix(9.963197,0,0,-9.963397,107.17312,30.545166)" fill="#00aeef"/>
</svg>
