<svg xmlns="http://www.w3.org/2000/svg" xmlns:xlink="http://www.w3.org/1999/xlink" xmlns:inkscape="http://www.inkscape.org/namespaces/inkscape" version="1.1" width="327" height="102" viewBox="0 0 327 102">
<defs>
<path id="font_1_1" d="M.5059967 .37631227C.5119934 .39031983 .5159912 .3973236 .5799866 .3973236V.44433595C.5549927 .44232179 .526001 .44132997 .5009918 .44132997 .47599793 .44132997 .43099977 .44332887 .4099884 .44433595V.3973236C.42900086 .3973236 .45799256 .3943329 .45799256 .38632203 .45799256 .3853302 .45700074 .38331605 .45298768 .37431336L.33699037 .12416077 .20999146 .3973236H.2639923V.44433595C.23098755 .44232179 .14099121 .44132997 .13999939 .44132997 .11199951 .44132997 .066986087 .44332887 .025985718 .44433595V.3973236H.08999634L.2649994 .021087647C.2769928-.00390625 .2899933-.00390625 .30299378-.00390625 .31999208-.00390625 .32998658-.00091552737 .33999635 .020080567L.5059967 .37631227Z"/>
<path id="font_2_1" d="M.33499146 .63612368C.33499146 .6630554 .33299256 .6640625 .30499269 .6640625 .24099732 .6014404 .1499939 .6004486 .10899353 .6004486V.5644531C.1329956 .5644531 .19898987 .5644531 .2539978 .592453V.08203125C.2539978 .04899597 .2539978 .035995485 .1539917 .035995485H.115997318V0C.13398743 .0009918213 .25698854 .0039978029 .2939911 .0039978029 .32499696 .0039978029 .45098878 .0009918213 .47299195 0V.035995485H.43499757C.33499146 .035995485 .33499146 .04899597 .33499146 .08203125V.63612368Z"/>
<path id="font_2_2" d="M.5049896 .18203736H.47099305C.46798707 .16001892 .45799256 .100997928 .44499208 .09098816 .43699647 .084991458 .3600006 .084991458 .34599305 .084991458H.1619873C.2669983 .17803955 .3019867 .20603943 .3619995 .25306703 .43598939 .312088 .5049896 .374115 .5049896 .46914674 .5049896 .5900879 .39898683 .6640625 .2709961 .6640625 .14698792 .6640625 .06298828 .57710269 .06298828 .4851532 .06298828 .43414308 .10598755 .42915345 .115997318 .42915345 .13999939 .42915345 .16899109 .44615174 .16899109 .48214723 .16899109 .5001526 .1619873 .53515627 .10998535 .53515627 .14099121 .6060791 .20899964 .62805178 .2559967 .62805178 .35598756 .62805178 .4079895 .5501404 .4079895 .46914674 .4079895 .38212586 .34599305 .3130951 .31399537 .27708436L.07299805 .038986207C.06298828 .02999878 .06298828 .027999878 .06298828 0H.47499085L.5049896 .18203736Z"/>
<path id="font_3_1" d="M.4269867 .6066284C.43399049 .63461306 .43798829 .64060977 .44999696 .6436157 .45899964 .6456146 .49198915 .6456146 .5130005 .6456146 .6139984 .6456146 .6589966 .6416168 .6589966 .56365969 .6589966 .54867556 .6549988 .50968936 .651001 .4837036 .6499939 .4797058 .647995 .4677124 .647995 .46472169 .647995 .45872499 .651001 .45173646 .6599884 .45173646 .67099 .45173646 .6729889 .45973207 .6749878 .4747162L.70199587 .64860537C.7029877 .65260317 .70399478 .6626129 .70399478 .66560366 .70399478 .6766052 .69400027 .6766052 .6769867 .6766052H.12199402C.09799194 .6766052 .09700012 .6756134 .08999634 .6566162L.02999878 .4807129C.0289917 .478714 .023986817 .46472169 .023986817 .46272279 .023986817 .45672608 .0289917 .45173646 .035995485 .45173646 .04598999 .45173646 .04699707 .45672608 .052993776 .4727173 .10699463 .6276245 .1329956 .6456146 .2809906 .6456146H.31999208C.34799195 .6456146 .34799195 .6416168 .34799195 .6336212 .34799195 .6276245 .34498597 .6156311 .34399415 .6126251L.20999146 .07896423C.20098877 .041992189 .19799805 .0309906 .09098816 .0309906 .054992677 .0309906 .04899597 .0309906 .04899597 .011993408 .04899597 0 .05999756 0 .06599426 0 .09298706 0 .12098694 .0019989014 .147995 .0019989014 .17599488 .0019989014 .20498657 .0029907227 .23298645 .0029907227 .26098634 .0029907227 .2889862 .0019989014 .31599427 .0019989014 .34498597 .0019989014 .375 0 .40299989 0 .41299439 0 .4249878 0 .4249878 .019989014 .4249878 .0309906 .4169922 .0309906 .3909912 .0309906 .3659973 .0309906 .35299684 .0309906 .32699586 .032989503 .2979889 .035995485 .2899933 .038986207 .2899933 .054977418 .2899933 .05596924 .2899933 .06097412 .2939911 .07595825L.4269867 .6066284Z"/>
<path id="font_4_1" d="M.33099366-.2400055C.33099366-.23701477 .33099366-.23500061 .31399537-.21800232 .18899536-.0920105 .15699768 .09700012 .15699768 .25 .15699768 .42399598 .19499207 .59799197 .31799317 .72299197 .33099366 .73498538 .33099366 .7369995 .33099366 .73999026 .33099366 .746994 .32699586 .75 .32099916 .75 .31098939 .75 .22099304 .6819916 .1619873 .5549927 .11099243 .44499208 .09899902 .33399964 .09899902 .25 .09899902 .17199707 .10998535 .050994874 .16499329-.06201172 .22499085-.18501282 .31098939-.25 .32099916-.25 .32699586-.25 .33099366-.24700928 .33099366-.2400055Z"/>
<path id="font_4_2" d="M.2889862 .25C.2889862 .32798768 .27799989 .44898988 .22299195 .56199648 .16299439 .68499758 .07699585 .75 .066986087 .75 .06098938 .75 .056991579 .74598696 .056991579 .73999026 .056991579 .7369995 .056991579 .73498538 .07598877 .71699526 .17399597 .6179962 .23098755 .45899964 .23098755 .25 .23098755 .07899475 .19400025-.09700012 .069992069-.2230072 .056991579-.23500061 .056991579-.23701477 .056991579-.2400055 .056991579-.2460022 .06098938-.25 .066986087-.25 .07699585-.25 .16699219-.18200684 .22599793-.055007936 .2769928 .054992677 .2889862 .16600037 .2889862 .25Z"/>
<path id="font_4_3" d="M.68699648 .32714845C.70199587 .32714845 .72099307 .32714845 .72099307 .34713746 .72099307 .36714173 .70199587 .36714173 .6879883 .36714173H.08898926C.07499695 .36714173 .055999757 .36714173 .055999757 .34713746 .055999757 .32714845 .07499695 .32714845 .08999634 .32714845H.68699648M.6879883 .13284302C.70199587 .13284302 .72099307 .13284302 .72099307 .15284729 .72099307 .17285156 .70199587 .17285156 .68699648 .17285156H.08999634C.07499695 .17285156 .055999757 .17285156 .055999757 .15284729 .055999757 .13284302 .07499695 .13284302 .08898926 .13284302H.6879883Z"/>
<path id="font_1_2" d="M.7369995 .37631227C.74198916 .389328 .74598696 .3973236 .8049927 .3973236V.44433595C.7819977 .44232179 .7519989 .44132997 .7279968 .44132997 .70098879 .44132997 .6539917 .44332887 .6319885 .44433595V.3973236C.6409912 .3973236 .6899872 .3963318 .6899872 .3853302 .6899872 .38232423 .68699648 .37631227 .6859894 .37332154L.58099368 .11715698 .46699525 .3973236H.522995V.44433595C.4909973 .44332887 .43899537 .44132997 .40899659 .44132997 .36698915 .44132997 .32499696 .44332887 .30899049 .44433595V.3973236H.36799623C.3889923 .3473053 .3889923 .34529115 .3889923 .34429933 .3889923 .34028626 .38598634 .33428956 .3849945 .33128358L.30599977 .13916016 .20098877 .3973236H.25698854V.44433595C.21598816 .44232179 .1749878 .44132997 .13398743 .44132997 .102996829 .44132997 .05899048 .44332887 .024993897 .44433595V.3973236H.083999637L.23699951 .023086548C.24398804 .006088257 .24798584-.00390625 .272995-.00390625 .2979889-.00390625 .3019867 .006088257 .30899049 .023086548L.4149933 .28225709 .5209961 .023086548C.5279999 .006088257 .5319977-.00390625 .5569916-.00390625 .58200076-.00390625 .58599856 .006088257 .59298709 .023086548L.7369995 .37631227Z"/>
<path id="font_5_85" d="M.33099366-.2400055C.33099366-.23701477 .33099366-.23500061 .31399537-.21800232 .18899536-.0920105 .15699768 .09700012 .15699768 .25 .15699768 .42399598 .19499207 .59799197 .31799317 .72299197 .33099366 .7350006 .33099366 .7369995 .33099366 .73999026 .33099366 .746994 .32699586 .75 .32099916 .75 .31098939 .75 .22099304 .6819916 .1619873 .5549927 .11099243 .44499208 .09899902 .33399964 .09899902 .25 .09899902 .17199707 .10998535 .050994874 .16499329-.06201172 .22499085-.18501282 .31098939-.25 .32099916-.25 .32699586-.25 .33099366-.24700928 .33099366-.2400055Z"/>
<path id="font_5_95" d="M.7319946 .08753967C.7319946 .09353638 .7319946 .104537967 .71899417 .104537967 .70799258 .104537967 .70799258 .09555054 .70700076 .08854675 .70098879 .017532349 .66600039-.00047302247 .6409912-.00047302247 .59199526-.00047302247 .58399966 .05053711 .56999209 .14355469L.5569916 .22355652C.5389862 .28756715 .48999024 .3205719 .43499757 .3395691 .5319977 .36357118 .6100006 .4245758 .6100006 .502594 .6100006 .5986023 .49598695 .6826172 .34899903 .6826172H.034988405V.6516113H.05899048C.13598633 .6516113 .13798523 .64060977 .13798523 .604599V.077545169C.13798523 .04197693 .13598633 .0309906 .05899048 .0309906H.034988405V0C.070999149 .0029907227 .14199829 .0029907227 .18099976 .0029907227 .21998596 .0029907227 .29100038 .0029907227 .32699586 0V.0309906H.30299378C.22599793 .0309906 .22399903 .04197693 .22399903 .077926639V.3305359H.33898927C.35499574 .3305359 .39698792 .3305359 .43199159 .29658509 .46998597 .26063539 .46998597 .22969055 .46998597 .16279602 .46998597 .09788513 .46998597 .05795288 .5109863 .019989014 .5519867-.016464234 .6069946-.022460938 .6369934-.022460938 .71499636-.022460938 .7319946 .059524537 .7319946 .087524417V.08753967M.5069885 .5025635C.5069885 .43354798 .48298646 .35253907 .33499146 .35253907H.22399903V.6116028C.22399903 .6345978 .22399903 .64660647 .24598694 .6496124 .2559967 .6516113 .2849884 .6516113 .30499269 .6516113 .394989 .6516113 .5069885 .6476135 .5069885 .5025635Z"/>
<path id="font_5_50" d="M.4149933 .11933899C.4149933 .12934876 .40699769 .13134766 .4019928 .13134766 .3929901 .13134766 .3909912 .12535095 .3889923 .11734009 .35398866 .014251709 .2639923 .014251709 .2539978 .014251709 .20399475 .014251709 .1639862 .044281007 .14099121 .08131409 .11099243 .12934876 .11099243 .19540406 .11099243 .23144531H.3899994C.4119873 .23144531 .4149933 .23144531 .4149933 .2524414 .4149933 .35131837 .36099244 .4482422 .23599243 .4482422 .11999512 .4482422 .027999878 .34532167 .027999878 .22042847 .027999878 .08631897 .1329956-.0107421879 .24798584-.0107421879 .36999513-.0107421879 .4149933 .10032654 .4149933 .11933899M.34899903 .2524414H.11199951C.117996219 .40126039 .20199585 .426239 .23599243 .426239 .33898927 .426239 .34899903 .2913971 .34899903 .2524414Z"/>
<path id="font_5_112" d="M.5079956 .3996582V.43066407C.4850006 .4286499 .45599366 .42765809 .43299867 .42765809L.34599305 .43066407V.3996582C.3829956 .39865113 .3939972 .37568666 .3939972 .35671998 .3939972 .34773255 .3919983 .34373475 .3880005 .3327484L.28599549 .078125 .17399597 .35671998C.16799927 .3697052 .16799927 .37368775 .16799927 .37368775 .16799927 .3996582 .20698548 .3996582 .22499085 .3996582V.43066407L.115997318 .42765809C.08898926 .42765809 .04899597 .4286499 .018997193 .43066407V.3996582C.08198547 .3996582 .085998538 .3936615 .09899902 .36271668L.24299622 .008224487C.24899292-.0057525637 .25099183-.0107421879 .2639923-.0107421879 .2769928-.0107421879 .2809906-.0017700195 .2849884 .008224487L.41600038 .3327484C.4249878 .3557129 .44198609 .39865113 .5079956 .3996582Z"/>
<path id="font_5_96" d="M.3639984 .38137818C.3639984 .41337586 .33299256 .4423828 .2899933 .4423828 .21699524 .4423828 .18099976 .37538148 .16699219 .3323822V.4423828L.027999878 .43066407V.3996582C.09799194 .3996582 .10598755 .39266969 .10598755 .34370423V.07595825C.10598755 .0309906 .09498596 .0309906 .027999878 .0309906V0L.14199829 .0029907227C.18199158 .0029907227 .22898865 .0029907227 .2689972 0V.0309906H.24798584C.17399597 .0309906 .17199707 .04197693 .17199707 .07795715V.23181153C.17199707 .33137513 .21398926 .42037965 .2899933 .42037965 .29699708 .42037965 .29899598 .42037965 .30099488 .41937257 .2979889 .41838075 .27799989 .40637208 .27799989 .3803711 .27799989 .35237123 .29899598 .33737184 .32099916 .33737184 .33898927 .33737184 .3639984 .3493805 .3639984 .38137818Z"/>
<path id="font_5_98" d="M.3600006 .12823487C.3600006 .18122864 .32998658 .21122742 .31799317 .22323609 .2849884 .25523377 .24598694 .26322938 .20399475 .27124024 .147995 .28224183 .08099365 .29522706 .08099365 .35324098 .08099365 .38822938 .10699463 .42922975 .19299317 .42922975 .30299378 .42922975 .30799867 .3392334 .30999757 .30822755 .31098939 .2992401 .32199098 .2992401 .32199098 .2992401 .33499146 .2992401 .33499146 .30422975 .33499146 .32322694V.4242401C.33499146 .4412384 .33499146 .4482422 .32398988 .4482422 .31900025 .4482422 .31698609 .4482422 .3039856 .43623353 .30099488 .43223573 .29100038 .42323304 .2869873 .42022706 .24899292 .4482422 .20799256 .4482422 .19299317 .4482422 .070999149 .4482422 .032989503 .38124085 .032989503 .3252411 .032989503 .29023744 .04899597 .26223756 .07598877 .24023438 .10798645 .2142334 .13598633 .2082367 .20799256 .19422913 .22999573 .19021607 .31199647 .17422486 .31199647 .10221863 .31199647 .051223756 .2769928 .011245728 .19898987 .011245728 .114990238 .011245728 .07899475 .068222049 .05999756 .1532135 .056991579 .16621399 .055999757 .17021179 .04598999 .17021179 .032989503 .17021179 .032989503 .16322327 .032989503 .1452179V.013214111C.032989503-.003753662 .032989503-.0107421879 .04399109-.0107421879 .04899597-.0107421879 .049987794-.009750366 .068984989 .009246826 .070999149 .011245728 .070999149 .013214111 .08898926 .032226564 .1329956-.009750366 .17799378-.0107421879 .19898987-.0107421879 .31399537-.0107421879 .3600006 .05621338 .3600006 .1282196V.12823487Z"/>
<path id="font_5_66" d="M.24699402 0V.0309906C.18099976 .0309906 .1769867 .035995485 .1769867 .075042728V.4423828L.036987306 .43066407V.3996582C.101989749 .3996582 .11099243 .3936615 .11099243 .3447113V.07595825C.11099243 .0309906 .099990848 .0309906 .032989503 .0309906V0L.14299011 .0029907227C.17799378 .0029907227 .21299744 .0009918213 .24699402 0M.19198609 .603775C.19198609 .6307678 .16899109 .6567688 .13899231 .6567688 .10499573 .6567688 .084991458 .6287689 .084991458 .603775 .084991458 .57676699 .10798645 .55078127 .13798523 .55078127 .17199707 .55078127 .19198609 .5787811 .19198609 .603775Z"/>
<path id="font_5_77" d="M.5349884 0V.0309906C.48298646 .0309906 .45799256 .0309906 .45700074 .061019899V.25221253C.45700074 .3383026 .45700074 .36932374 .42599488 .405365 .4119873 .42237855 .3789978 .4423828 .32099916 .4423828 .24798584 .4423828 .20098877 .39935304 .17298889 .33729554V.4423828L.03199768 .43066407V.3996582C.101989749 .3996582 .10998535 .39266969 .10998535 .34370423V.07595825C.10998535 .0309906 .09899902 .0309906 .03199768 .0309906V0L.14498902 .0029907227 .25698854 0V.0309906C.18998719 .0309906 .1789856 .0309906 .1789856 .07595825V.25978089C.1789856 .36431886 .25 .42037965 .31399537 .42037965 .3769989 .42037965 .3880005 .36631776 .3880005 .30926515V.076034549C.3880005 .0309906 .3769989 .0309906 .30999757 .0309906V0L.4229889 .0029907227 .5349884 0Z"/>
<path id="font_5_59" d="M.4850006 .40411378C.4850006 .42111207 .47299195 .453125 .43399049 .453125 .4139862 .453125 .36999513 .44711305 .32798768 .40611268 .28599549 .43937684 .24398804 .4423828 .22200012 .4423828 .1289978 .4423828 .05999756 .37338258 .05999756 .29638673 .05999756 .25239564 .08198547 .21440125 .10699463 .19340515 .09399414 .17840576 .07598877 .14538574 .07598877 .11035156 .07598877 .07899475 .08898926 .04083252 .11999512 .020828248 .05999756 .003829956 .027999878-.039138795 .027999878-.07911682 .027999878-.15107727 .1269989-.20605469 .24899292-.20605469 .36698915-.20605469 .47099305-.15507508 .47099305-.07711792 .47099305-.042144777 .45700074 .008834839 .4059906 .036834718 .35299684 .064834598 .29499818 .064834598 .23399353 .064834598 .20899964 .064834598 .1659851 .064834598 .15899658 .065841678 .1269989 .069885257 .10598755 .101242069 .10598755 .13334656 .10598755 .13735962 .10598755 .16040039 .12298584 .18040467 .1619873 .15240479 .20298767 .14941406 .22200012 .14941406 .31498719 .14941406 .38398744 .21839905 .38398744 .2953949 .38398744 .3323822 .36799623 .36938478 .34298707 .39237977 .3789978 .42637635 .4149933 .43138124 .43299867 .43138124 .43299867 .43112184 .43998719 .43112184 .44299317 .43011476 .43199159 .42611695 .4269867 .41513063 .4269867 .40315248 .4269867 .38616944 .43998719 .37417604 .45599366 .37417604 .46598817 .37417604 .4850006 .3811798 .4850006 .4041443V.40411378M.30899049 .29626466C.30899049 .26930238 .30799867 .2373352 .29299928 .21235657 .2849884 .20037842 .2619934 .17240906 .22200012 .17240906 .1349945 .17240906 .1349945 .2722931 .1349945 .29527284 .1349945 .3222351 .13598633 .35420228 .15098572 .3791809 .15899658 .3913269 .18199158 .41937257 .22200012 .41937257 .30899049 .41937257 .30899049 .31922914 .30899049 .29618836V.29626466M.4189911-.07911682C.4189911-.13308716 .34799195-.18305969 .25-.18305969 .14898682-.18305969 .07998657-.13209534 .07998657-.07911682 .07998657-.03314209 .117996219 .003829956 .1619873 .0068359377H.22099304C.30699159 .0068359377 .4189911 .0068359377 .4189911-.07911682Z"/>
<path id="font_5_105" d="M.33198548 .12385559V.18066406H.30699159V.12585449C.30699159 .052108766 .2769928 .014251709 .23999024 .014251709 .17298889 .014251709 .17298889 .10491943 .17298889 .12187195V.3996582H.31599427V.43066407H.17298889V.6142578H.147995C.14698792 .5324249 .116989139 .42565919 .018997193 .42166139V.3996582H.10398865V.12408447C.10398865 .0012512207 .19699097-.0107421879 .23298645-.0107421879 .3039856-.0107421879 .33198548 .060180665 .33198548 .12408447V.12385559Z"/>
<path id="font_5_63" d="M.5349884 0V.0309906C.48298646 .0309906 .45799256 .0309906 .45700074 .061019899V.25221253C.45700074 .3383026 .45700074 .36932374 .42599488 .405365 .4119873 .42237855 .3789978 .4423828 .32099916 .4423828 .23699951 .4423828 .19299317 .38233949 .1769867 .34629823H.17599488V.69433596L.03199768 .6826172V.6516113C.101989749 .6516113 .10998535 .64463809 .10998535 .59580996V.076034549C.10998535 .0309906 .09899902 .0309906 .03199768 .0309906V0L.14498902 .0029907227 .25698854 0V.0309906C.18998719 .0309906 .1789856 .0309906 .1789856 .076034549V.2602234C.1789856 .36431886 .25 .42037965 .31399537 .42037965 .3769989 .42037965 .3880005 .36631776 .3880005 .30926515V.076034549C.3880005 .0309906 .3769989 .0309906 .30999757 .0309906V0L.4229889 .0029907227 .5349884 0Z"/>
<path id="font_5_28" d="M.48298646 .08912659V.14511109H.45799256V.08912659C.45799256 .03112793 .43299867 .025131226 .42199708 .025131226 .3889923 .025131226 .3849945 .070129398 .3849945 .07511902V.27508546C.3849945 .31707765 .3849945 .3560791 .34899903 .39312745 .30999757 .43223573 .2599945 .4482422 .21199036 .4482422 .12998963 .4482422 .06098938 .40115357 .06098938 .335083 .06098938 .30508424 .08099365 .28808595 .10699463 .28808595 .1349945 .28808595 .15299988 .30807496 .15299988 .33407594 .15299988 .3460846 .147995 .37908937 .101989749 .38008119 .1289978 .41519166 .17799378 .426239 .20999146 .426239 .25898744 .426239 .31599427 .38710023 .31599427 .29808045V.26107789C.2649994 .25808717 .19499207 .25508119 .13198853 .22509766 .056991579 .19110108 .03199768 .13911438 .03199768 .09512329 .03199768 .014251709 .1289978-.0107421879 .19198609-.0107421879 .2579956-.0107421879 .3039856 .029251099 .32299806 .07624817 .32699586 .036132814 .35398866-.005859375 .40098573-.005859375 .42199708-.005859375 .48298646 .008132935 .48298646 .08912659M.31599427 .14013672C.31599427 .04525757 .24398804 .011245728 .19898987 .011245728 .1499939 .011245728 .10899353 .04624939 .10899353 .09625244 .10899353 .15124512 .15098572 .23425293 .31599427 .24024964V.14013672Z"/>
<path id="font_5_81" d="M.47099305 .21424866C.47099305 .34223939 .37098695 .4482422 .25 .4482422 .125 .4482422 .027999878 .3392334 .027999878 .21424866 .027999878 .085250858 .13198853-.0107421879 .24899292-.0107421879 .36999513-.0107421879 .47099305 .087249759 .47099305 .21424866M.3880005 .22224427C.3880005 .18624878 .3880005 .13224793 .3659973 .08824158 .34399415 .04324341 .2999878 .014251709 .25 .014251709 .20698548 .014251709 .16299439 .035247804 .13598633 .08125305 .11099243 .12524414 .11099243 .18624878 .11099243 .22224427 .11099243 .26124574 .11099243 .31523133 .1349945 .35923768 .1619873 .40522767 .20899964 .426239 .24899292 .426239 .29299928 .426239 .33599855 .40423585 .3619995 .36123658 .3880005 .3182373 .3880005 .26023866 .3880005 .22224427Z"/>
<path id="font_5_114" d="M.7029877 .3996582V.43066407C.68099978 .4286499 .6519928 .42765809 .6299896 .42765809L.5369873 .43066407V.3996582C.57299807 .39866639 .59498599 .38075257 .59498599 .35176087 .59498599 .34576417 .59498599 .34376527 .58999636 .33078004L.49899293 .07513428 .3999939 .35375978C.3959961 .36575318 .394989 .36775209 .394989 .37275697 .394989 .3996582 .43399049 .3996582 .45399476 .3996582V.43066407L.34999085 .42765809C.31999208 .42765809 .29100038 .4286499 .26098634 .43066407V.3996582C.2979889 .3996582 .31399537 .39767457 .32398988 .38476563 .32899476 .37875367 .33999635 .34877015 .34700013 .3297882L.26098634 .08811951 .1659851 .3547516C.16099549 .36676026 .16099549 .36875917 .16099549 .37275697 .16099549 .3996582 .19999695 .3996582 .21998596 .3996582V.43066407L.11099243 .42765809 .017990113 .43066407V.3996582C.067993167 .3996582 .07998657 .39668275 .09199524 .36476136L.21798706 .01121521C.22299195-.0027618409 .22599793-.0107421879 .23899842-.0107421879 .2519989-.0107421879 .2539978-.004760742 .25898744 .009216309L.3600006 .2918396 .46199037 .008224487C.46598817-.0027618409 .46899415-.0107421879 .48199464-.0107421879 .49499513-.0107421879 .49798585-.0017547608 .5019989 .008224487L.61898806 .3357849C.6369934 .38575746 .66799929 .39866639 .7029877 .3996582Z"/>
<path id="font_5_47" d="M.5269928 0V.0309906C.45700074 .0309906 .44898988 .038009645 .44898988 .0871582V.69433596L.30499269 .6826172V.6516113C.375 .6516113 .3829956 .64463809 .3829956 .59580996V.38035584C.35398866 .41636659 .31098939 .4423828 .25698854 .4423828 .13899231 .4423828 .033996583 .3443451 .033996583 .21531677 .033996583 .088272098 .13198853-.0107421879 .24598694-.0107421879 .30999757-.0107421879 .35499574 .023254395 .37998963 .055267335V-.0107421879L.5269928 0M.37998963 .117996219C.37998963 .099990848 .37998963 .09799194 .36898805 .08099365 .33898927 .033218385 .2939911 .011245728 .25099183 .011245728 .20599365 .011245728 .16999817 .037216188 .1459961 .075164798 .11999512 .1161499 .116989139 .17320252 .116989139 .21421814 .116989139 .25125123 .11898804 .31129457 .147995 .35632325 .16899109 .38734437 .20698548 .42037965 .26098634 .42037965 .29599 .42037965 .33799745 .405365 .36898805 .3603363 .37998963 .34332276 .37998963 .34132386 .37998963 .32330323V.117996219Z"/>
<path id="font_5_84" d="M.5209961 .21636963C.5209961 .34336854 .42399598 .4423828 .31199647 .4423828 .23399353 .4423828 .19198609 .39837647 .17199707 .3763733V.4423828L.027999878 .43066407V.3996582C.09899902 .3996582 .10598755 .3936615 .10598755 .34973146V-.117996219C.10598755-.16308594 .09498596-.16308594 .027999878-.16308594V-.1940918L.13999939-.19110108 .25299073-.1940918V-.16308594C.18598938-.16308594 .1749878-.16308594 .1749878-.117996219V.050186159 .059173585C.17999268 .04319763 .22200012-.0107421879 .2979889-.0107421879 .4169922-.0107421879 .5209961 .087127689 .5209961 .21594239V.21636963M.43798829 .21594239C.43798829 .09512329 .36799623 .011245728 .2939911 .011245728 .2539978 .011245728 .21598816 .031219483 .18899536 .07215881 .1749878 .09312439 .1749878 .09411621 .1749878 .114089969V.33674623C.20399475 .38838197 .25299073 .41737367 .3039856 .41737367 .3769989 .41737367 .43798829 .32937623 .43798829 .21636963V.21594239Z"/>
<path id="font_5_109" d="M.5349884 0V.0309906C.46499635 .0309906 .45700074 .037994386 .45700074 .08705139V.4423828L.30999757 .43066407V.3996582C.37998963 .3996582 .3880005 .39266969 .3880005 .34373475V.16601563C.3880005 .07910156 .33999635 .011245728 .2669983 .011245728 .18299866 .011245728 .1789856 .058135988 .1789856 .11009216V.4423828L.03199768 .43066407V.3996582C.10998535 .3996582 .10998535 .39666749 .10998535 .3078003V.15802002C.10998535 .080093387 .10998535-.0107421879 .2619934-.0107421879 .31799317-.0107421879 .3619995 .017242432 .3909912 .07910156V-.0107421879L.5349884 0Z"/>
<path id="font_5_43" d="M.4149933 .119140628C.4149933 .12911988 .40499879 .12911988 .4019928 .12911988 .3929901 .12911988 .3909912 .12512207 .3889923 .119140628 .3600006 .026229859 .29499818 .014251709 .2579956 .014251709 .20498657 .014251709 .116989139 .0572052 .116989139 .21801758 .116989139 .38093568 .19898987 .42323304 .2519989 .42323304 .26098634 .42323304 .32398988 .42222596 .35899354 .38594056 .31799317 .38293458 .31199647 .3529358 .31199647 .3399353 .31199647 .31393434 .32998658 .2939453 .35798646 .2939453 .38398744 .2939453 .4039917 .3109436 .4039917 .34094239 .4039917 .40911866 .32798768 .4482422 .25099183 .4482422 .12599182 .4482422 .033996583 .3399353 .033996583 .21601868 .033996583 .08816528 .1329956-.0107421879 .24899292-.0107421879 .3829956-.0107421879 .4149933 .10914612 .4149933 .119140628Z"/>
<path id="font_5_55" d="M.35699464 .63479617C.35699464 .6717987 .31999208 .7050781 .2669983 .7050781 .19699097 .7050781 .11199951 .65179446 .11199951 .5457611V.43066407H.032989503V.3996582H.11199951V.07595825C.11199951 .0309906 .100997928 .0309906 .033996583 .0309906V0L.147995 .0029907227C.18798828 .0029907227 .23498535 .0029907227 .2749939 0V.0309906H.2539978C.17999268 .0309906 .17799378 .04197693 .17799378 .07795715V.3996582H.2919922V.43066407H.1749878V.5467529C.1749878 .63479617 .22299195 .68307498 .2669983 .68307498 .269989 .68307498 .2849884 .68307498 .2999878 .675827 .28799439 .6717987 .269989 .6587982 .269989 .6338043 .269989 .61079409 .28599549 .5907898 .31298829 .5907898 .34199525 .5907898 .35699464 .61079409 .35699464 .63479617Z"/>
<path id="font_5_86" d="M.2889862 .25C.2889862 .32798768 .27799989 .44898988 .22299195 .56199648 .16299439 .68499758 .07699585 .75 .066986087 .75 .06098938 .75 .056991579 .74598696 .056991579 .73999026 .056991579 .7369995 .056991579 .7350006 .07598877 .71699526 .17399597 .6179962 .23098755 .45899964 .23098755 .25 .23098755 .07899475 .19400025-.09700012 .069992069-.2230072 .056991579-.23500061 .056991579-.23701477 .056991579-.2400055 .056991579-.2460022 .06098938-.25 .066986087-.25 .07699585-.25 .16699219-.18200684 .22599793-.055007936 .2769928 .054992677 .2889862 .16600037 .2889862 .25Z"/>
<path id="font_5_54" d="M.6100006 .45477296 .58200076 .6796875H.032989503V.64868167H.056991579C.13398743 .64868167 .13598633 .63768008 .13598633 .6016998V.07797241C.13598633 .041992189 .13398743 .0309906 .056991579 .0309906H.032989503V0C.067993167 .0029907227 .1459961 .0029907227 .18499756 .0029907227 .22599793 .0029907227 .31698609 .0029907227 .35299684 0V.0309906H.31999208C.22499085 .031188965 .22499085 .044189454 .22499085 .079193118V.3251953H.31098939C.40699769 .3251953 .4169922 .29318238 .4169922 .20819092H.44198609V.4731903H.4169922C.4169922 .38919068 .40699769 .3561859 .31098939 .3561859H.22499085V.6091919C.22499085 .64167788 .22698975 .64868167 .27398683 .64868167H.3939972C.5439911 .64868167 .56900027 .5926819 .58499148 .4546814L.6100006 .45477296Z"/>
<path id="font_5_82" d="M.4189911 0V.0309906H.3869934C.29699708 .0309906 .2939911 .041992189 .2939911 .07902527V.64012148C.2939911 .6640167 .2939911 .6660156 .2709961 .6660156 .20899964 .60227969 .12098694 .60227969 .08898926 .60227969V.57128909C.10899353 .57128909 .16799927 .57128909 .21998596 .5972748V.07902527C.21998596 .042999269 .21699524 .0309906 .1269989 .0309906H.09498596V0C.12998963 .0029907227 .21699524 .0029907227 .25698854 .0029907227 .29699708 .0029907227 .38398744 .0029907227 .4189911 0Z"/>
<path id="font_5_88" d="M.19198609 .052993776C.19198609 .08198547 .16799927 .10598755 .13899231 .10598755 .10998535 .10598755 .085998538 .08198547 .085998538 .052993776 .085998538 .023986817 .10998535 0 .13899231 0 .16799927 0 .19198609 .023986817 .19198609 .052993776Z"/>
<path id="font_5_104" d="M.68499758 .45214845 .66600039 .6767578H.054992677L.035995485 .45214845H.06098938C.07499695 .6128235 .08999634 .64575198 .24099732 .64575198 .25898744 .64575198 .2849884 .64575198 .29499818 .64375308 .31599427 .6397705 .31599427 .6287842 .31599427 .60583499V.07901001C.31599427 .04499817 .31599427 .0309906 .21099854 .0309906H.17098999V0C.21199036 .0029907227 .31399537 .0029907227 .3600006 .0029907227 .4059906 .0029907227 .5089874 .0029907227 .5499878 0V.0309906H.5099945C.40499879 .0309906 .40499879 .04499817 .40499879 .07901001V.60583499C.40499879 .62579348 .40499879 .6397705 .4229889 .64375308 .43399049 .64575198 .46099855 .64575198 .47999574 .64575198 .6309967 .64575198 .6459961 .6128235 .6599884 .45214845H.68499758Z"/>
<path id="font_5_72" d="M.25498963 0V.0309906C.18798828 .0309906 .1769867 .0309906 .1769867 .07601929V.69433596L.032989503 .6826172V.6516113C.102996829 .6516113 .11099243 .64460757 .11099243 .5956421V.07595825C.11099243 .0309906 .099990848 .0309906 .032989503 .0309906V0L.14399719 .0029907227 .25498963 0Z"/>
<path id="font_5_75" d="M.8129883 0V.0309906C.7609863 .0309906 .73599246 .0309906 .7350006 .061019899V.25221253C.7350006 .3383026 .7350006 .36932374 .70399478 .405365 .6899872 .42237855 .6569977 .4423828 .598999 .4423828 .5149994 .4423828 .47099305 .38233949 .45399476 .34429933 .43998719 .43138124 .3659973 .4423828 .32099916 .4423828 .24798584 .4423828 .20098877 .39935304 .17298889 .33729554V.4423828L.03199768 .43066407V.3996582C.101989749 .3996582 .10998535 .39266969 .10998535 .34370423V.07595825C.10998535 .0309906 .09899902 .0309906 .03199768 .0309906V0L.14498902 .0029907227 .25698854 0V.0309906C.18998719 .0309906 .1789856 .0309906 .1789856 .07595825V.25978089C.1789856 .36431886 .25 .42037965 .31399537 .42037965 .3769989 .42037965 .3880005 .36631776 .3880005 .30926515V.076034549C.3880005 .0309906 .3769989 .0309906 .30999757 .0309906V0L.4229889 .0029907227 .5349884 0V.0309906C.46798707 .0309906 .45700074 .0309906 .45700074 .076034549V.2602234C.45700074 .36431886 .5279999 .42037965 .59199526 .42037965 .6549988 .42037965 .66600039 .36631776 .66600039 .30926515V.076034549C.66600039 .0309906 .6549988 .0309906 .58799746 .0309906V0L.70098879 .0029907227 .8129883 0Z"/>
</defs>
<use data-text="v" xlink:href="#font_1_1" transform="matrix(9.963197,0,0,-9.963197,135.60126,6.349598)"/>
<use data-text="1" xlink:href="#font_2_1" transform="matrix(6.9742186,0,0,-6.9742186,141.64762,7.843687)"/>
<use data-text="v" xlink:href="#font_1_1" transform="matrix(9.963197,0,0,-9.963197,135.60126,74.38568)"/>
<use data-text="2" xlink:href="#font_2_2" transform="matrix(6.9742186,0,0,-6.9742186,141.64762,75.87977)"/>
<use data-text="T" xlink:href="#font_3_1" transform="matrix(9.963197,0,0,-9.963197,239.62851,41.3917)"/>
<use data-text="(" xlink:href="#font_4_1" transform="matrix(9.963197,0,0,-9.963197,246.83393,41.3917)"/>
<use data-text="v" xlink:href="#font_1_1" transform="matrix(9.963197,0,0,-9.963197,250.70917,41.3917)"/>
<use data-text="1" xlink:href="#font_2_1" transform="matrix(6.9742186,0,0,-6.9742186,256.75654,42.885789)"/>
<use data-text=")" xlink:href="#font_4_2" transform="matrix(9.963197,0,0,-9.963197,261.2258,41.3917)"/>
<use data-text="=" xlink:href="#font_4_3" transform="matrix(9.963197,0,0,-9.963197,267.85133,41.3917)"/>
<use data-text="T" xlink:href="#font_3_1" transform="matrix(9.963197,0,0,-9.963197,278.3848,41.3917)"/>
<use data-text="(" xlink:href="#font_4_1" transform="matrix(9.963197,0,0,-9.963197,285.59025,41.3917)"/>
<use data-text="v" xlink:href="#font_1_1" transform="matrix(9.963197,0,0,-9.963197,289.46546,41.3917)"/>
<use data-text="2" xlink:href="#font_2_2" transform="matrix(6.9742186,0,0,-6.9742186,295.5118,42.885789)"/>
<use data-text=")" xlink:href="#font_4_2" transform="matrix(9.963197,0,0,-9.963197,299.9821,41.3917)"/>
<use data-text="=" xlink:href="#font_4_3" transform="matrix(9.963197,0,0,-9.963197,306.6076,41.3917)"/>
<use data-text="w" xlink:href="#font_1_2" transform="matrix(9.963197,0,0,-9.963197,317.1411,41.3917)"/>
<use data-text="(" xlink:href="#font_5_85" transform="matrix(9.963197,0,0,-9.963197,.21414185,41.3917)" fill="#7f807f"/>
<use data-text="R" xlink:href="#font_5_95" transform="matrix(9.963197,0,0,-9.963197,4.0898439,41.3917)" fill="#7f807f"/>
<use data-text="e" xlink:href="#font_5_50" transform="matrix(9.963197,0,0,-9.963197,11.42276,41.3917)" fill="#7f807f"/>
<use data-text="v" xlink:href="#font_5_112" transform="matrix(9.963197,0,0,-9.963197,15.846436,41.3917)" fill="#7f807f"/>
<use data-text="e" xlink:href="#font_5_50" transform="matrix(9.963197,0,0,-9.963197,20.828034,41.3917)" fill="#7f807f"/>
<use data-text="r" xlink:href="#font_5_96" transform="matrix(9.963197,0,0,-9.963197,25.251679,41.3917)" fill="#7f807f"/>
<use data-text="s" xlink:href="#font_5_98" transform="matrix(9.963197,0,0,-9.963197,29.157258,41.3917)" fill="#7f807f"/>
<use data-text="i" xlink:href="#font_5_66" transform="matrix(9.963197,0,0,-9.963197,33.082765,41.3917)" fill="#7f807f"/>
<use data-text="n" xlink:href="#font_5_77" transform="matrix(9.963197,0,0,-9.963197,35.85251,41.3917)" fill="#7f807f"/>
<use data-text="g" xlink:href="#font_5_59" transform="matrix(9.963197,0,0,-9.963197,41.39206,41.3917)" fill="#7f807f"/>
<use data-text="t" xlink:href="#font_5_105" transform="matrix(9.963197,0,0,-9.963197,49.681428,41.3917)" fill="#7f807f"/>
<use data-text="h" xlink:href="#font_5_63" transform="matrix(9.963197,0,0,-9.963197,53.55713,41.3917)" fill="#7f807f"/>
<use data-text="e" xlink:href="#font_5_50" transform="matrix(9.963197,0,0,-9.963197,59.09668,41.3917)" fill="#7f807f"/>
<use data-text="a" xlink:href="#font_5_28" transform="matrix(9.963197,0,0,-9.963197,66.83807,41.3917)" fill="#7f807f"/>
<use data-text="r" xlink:href="#font_5_96" transform="matrix(9.963197,0,0,-9.963197,71.81967,41.3917)" fill="#7f807f"/>
<use data-text="r" xlink:href="#font_5_96" transform="matrix(9.963197,0,0,-9.963197,75.72525,41.3917)" fill="#7f807f"/>
<use data-text="o" xlink:href="#font_5_81" transform="matrix(9.963197,0,0,-9.963197,79.6308,41.3917)" fill="#7f807f"/>
<use data-text="w" xlink:href="#font_5_114" transform="matrix(9.963197,0,0,-9.963197,84.343418,41.3917)" fill="#7f807f"/>
<use data-text="s" xlink:href="#font_5_98" transform="matrix(9.963197,0,0,-9.963197,91.536838,41.3917)" fill="#7f807f"/>
<use data-text="d" xlink:href="#font_5_47" transform="matrix(9.963197,0,0,-9.963197,98.77011,41.3917)" fill="#7f807f"/>
<use data-text="o" xlink:href="#font_5_81" transform="matrix(9.963197,0,0,-9.963197,104.30966,41.3917)" fill="#7f807f"/>
<use data-text="e" xlink:href="#font_5_50" transform="matrix(9.963197,0,0,-9.963197,109.57022,41.3917)" fill="#7f807f"/>
<use data-text="s" xlink:href="#font_5_98" transform="matrix(9.963197,0,0,-9.963197,113.9939,41.3917)" fill="#7f807f"/>
<use data-text="n" xlink:href="#font_5_77" transform="matrix(9.963197,0,0,-9.963197,121.23712,41.3917)" fill="#7f807f"/>
<use data-text="o" xlink:href="#font_5_81" transform="matrix(9.963197,0,0,-9.963197,126.77667,41.3917)" fill="#7f807f"/>
<use data-text="t" xlink:href="#font_5_105" transform="matrix(9.963197,0,0,-9.963197,131.75827,41.3917)" fill="#7f807f"/>
<use data-text="p" xlink:href="#font_5_84" transform="matrix(9.963197,0,0,-9.963197,138.95169,41.3917)" fill="#7f807f"/>
<use data-text="r" xlink:href="#font_5_96" transform="matrix(9.963197,0,0,-9.963197,144.49121,41.3917)" fill="#7f807f"/>
<use data-text="o" xlink:href="#font_5_81" transform="matrix(9.963197,0,0,-9.963197,148.39679,41.3917)" fill="#7f807f"/>
<use data-text="d" xlink:href="#font_5_47" transform="matrix(9.963197,0,0,-9.963197,153.65735,41.3917)" fill="#7f807f"/>
<use data-text="u" xlink:href="#font_5_109" transform="matrix(9.963197,0,0,-9.963197,159.19684,41.3917)" fill="#7f807f"/>
<use data-text="c" xlink:href="#font_5_43" transform="matrix(9.963197,0,0,-9.963197,164.73639,41.3917)" fill="#7f807f"/>
<use data-text="e" xlink:href="#font_5_50" transform="matrix(9.963197,0,0,-9.963197,169.16004,41.3917)" fill="#7f807f"/>
<use data-text="a" xlink:href="#font_5_28" transform="matrix(9.963197,0,0,-9.963197,176.90149,41.3917)" fill="#7f807f"/>
<use data-text="f" xlink:href="#font_5_55" transform="matrix(9.963197,0,0,-9.963197,185.20087,41.3917)" fill="#7f807f"/>
<use data-text="u" xlink:href="#font_5_109" transform="matrix(9.963197,0,0,-9.963197,188.25959,41.3917)" fill="#7f807f"/>
<use data-text="n" xlink:href="#font_5_77" transform="matrix(9.963197,0,0,-9.963197,193.79907,41.3917)" fill="#7f807f"/>
<use data-text="c" xlink:href="#font_5_43" transform="matrix(9.963197,0,0,-9.963197,199.33863,41.3917)" fill="#7f807f"/>
<use data-text="t" xlink:href="#font_5_105" transform="matrix(9.963197,0,0,-9.963197,203.76227,41.3917)" fill="#7f807f"/>
<use data-text="i" xlink:href="#font_5_66" transform="matrix(9.963197,0,0,-9.963197,207.63794,41.3917)" fill="#7f807f"/>
<use data-text="o" xlink:href="#font_5_81" transform="matrix(9.963197,0,0,-9.963197,210.40772,41.3917)" fill="#7f807f"/>
<use data-text="n" xlink:href="#font_5_77" transform="matrix(9.963197,0,0,-9.963197,215.38928,41.3917)" fill="#7f807f"/>
<use data-text=")" xlink:href="#font_5_86" transform="matrix(9.963197,0,0,-9.963197,220.92884,41.3917)" fill="#7f807f"/>
<path transform="matrix(1.00006,0,0,-1.00006,282.60209,38.90055)" stroke-width=".49814" stroke-linecap="butt" stroke-miterlimit="10" stroke-linejoin="miter" fill="none" stroke="#000000" d="M-46.49106 8.50119-130.90184 33.40993"/>
<path transform="matrix(-.95911756,-.28300698,-.28300698,.95911756,151.69242,5.48864)" d="M2.14195 0-1.28517 1.71356 0 0-1.28517-1.71356"/>
<path transform="matrix(1.00006,0,0,-1.00006,282.60209,38.90055)" stroke-width=".49814" stroke-linecap="butt" stroke-miterlimit="10" stroke-linejoin="miter" fill="none" stroke="#000000" d="M-46.49106-8.50119-130.90184-33.40993"/>
<path transform="matrix(-.95911756,.28300698,.28300698,.95911756,151.69242,72.31246)" d="M2.14195 0-1.28517 1.71356 0 0-1.28517-1.71356"/>
<use data-text="F" xlink:href="#font_5_54" transform="matrix(9.963197,0,0,-9.963197,75.469669,98.0291)"/>
<use data-text="i" xlink:href="#font_5_66" transform="matrix(9.963197,0,0,-9.963197,81.97565,98.0291)"/>
<use data-text="g" xlink:href="#font_5_59" transform="matrix(9.963197,0,0,-9.963197,84.74539,98.0291)"/>
<use data-text="u" xlink:href="#font_5_109" transform="matrix(9.963197,0,0,-9.963197,89.72699,98.0291)"/>
<use data-text="r" xlink:href="#font_5_96" transform="matrix(9.963197,0,0,-9.963197,95.26654,98.0291)"/>
<use data-text="e" xlink:href="#font_5_50" transform="matrix(9.963197,0,0,-9.963197,99.17212,98.0291)"/>
<use data-text="1" xlink:href="#font_5_82" transform="matrix(9.963197,0,0,-9.963197,106.903568,98.0291)"/>
<use data-text="." xlink:href="#font_5_88" transform="matrix(9.963197,0,0,-9.963197,111.88516,98.0291)"/>
<use data-text="T" xlink:href="#font_5_104" transform="matrix(9.963197,0,0,-9.963197,119.07858,98.0291)"/>
<use data-text="w" xlink:href="#font_5_114" transform="matrix(9.963197,0,0,-9.963197,125.45502,98.0291)"/>
<use data-text="o" xlink:href="#font_5_81" transform="matrix(9.963197,0,0,-9.963197,132.36948,98.0291)"/>
<use data-text="d" xlink:href="#font_5_47" transform="matrix(9.963197,0,0,-9.963197,140.65885,98.0291)"/>
<use data-text="i" xlink:href="#font_5_66" transform="matrix(9.963197,0,0,-9.963197,146.1984,98.0291)"/>
<use data-text="s" xlink:href="#font_5_98" transform="matrix(9.963197,0,0,-9.963197,148.96817,98.0291)"/>
<use data-text="t" xlink:href="#font_5_105" transform="matrix(9.963197,0,0,-9.963197,152.89365,98.0291)"/>
<use data-text="i" xlink:href="#font_5_66" transform="matrix(9.963197,0,0,-9.963197,156.76935,98.0291)"/>
<use data-text="n" xlink:href="#font_5_77" transform="matrix(9.963197,0,0,-9.963197,159.5391,98.0291)"/>
<use data-text="c" xlink:href="#font_5_43" transform="matrix(9.963197,0,0,-9.963197,165.07865,98.0291)"/>
<use data-text="t" xlink:href="#font_5_105" transform="matrix(9.963197,0,0,-9.963197,169.50232,98.0291)"/>
<use data-text="e" xlink:href="#font_5_50" transform="matrix(9.963197,0,0,-9.963197,176.69574,98.0291)"/>
<use data-text="l" xlink:href="#font_5_72" transform="matrix(9.963197,0,0,-9.963197,181.11942,98.0291)"/>
<use data-text="e" xlink:href="#font_5_50" transform="matrix(9.963197,0,0,-9.963197,183.88916,98.0291)"/>
<use data-text="m" xlink:href="#font_5_75" transform="matrix(9.963197,0,0,-9.963197,188.31284,98.0291)"/>
<use data-text="e" xlink:href="#font_5_50" transform="matrix(9.963197,0,0,-9.963197,196.61219,98.0291)"/>
<use data-text="n" xlink:href="#font_5_77" transform="matrix(9.963197,0,0,-9.963197,201.03586,98.0291)"/>
<use data-text="t" xlink:href="#font_5_105" transform="matrix(9.963197,0,0,-9.963197,206.3064,98.0291)"/>
<use data-text="s" xlink:href="#font_5_98" transform="matrix(9.963197,0,0,-9.963197,210.1821,98.0291)"/>
<use data-text="m" xlink:href="#font_5_75" transform="matrix(9.963197,0,0,-9.963197,217.41538,98.0291)"/>
<use data-text="a" xlink:href="#font_5_28" transform="matrix(9.963197,0,0,-9.963197,225.71475,98.0291)"/>
<use data-text="p" xlink:href="#font_5_84" transform="matrix(9.963197,0,0,-9.963197,230.69638,98.0291)"/>
<use data-text="t" xlink:href="#font_5_105" transform="matrix(9.963197,0,0,-9.963197,239.55362,98.0291)"/>
<use data-text="o" xlink:href="#font_5_81" transform="matrix(9.963197,0,0,-9.963197,243.42929,98.0291)"/>
<use data-text="w" xlink:href="#font_1_2" transform="matrix(9.963197,0,0,-9.963197,251.73923,98.0291)"/>
<use data-text="." xlink:href="#font_5_88" transform="matrix(9.963197,0,0,-9.963197,260.17277,98.0291)"/>
</svg>
