<svg xmlns="http://www.w3.org/2000/svg" xmlns:xlink="http://www.w3.org/1999/xlink" xmlns:inkscape="http://www.inkscape.org/namespaces/inkscape" version="1.1" width="185" height="151" viewBox="0 0 185 151">
<defs>
<path id="font_1_1" d="M.5059967 .37631227C.5119934 .39031983 .5159912 .3973236 .5799866 .3973236V.44433595C.5549927 .44232179 .526001 .44132997 .5009918 .44132997 .47599793 .44132997 .43099977 .44332887 .4099884 .44433595V.3973236C.42900086 .3973236 .45799256 .3943329 .45799256 .38632203 .45799256 .3853302 .45700074 .38331605 .45298768 .37431336L.33699037 .12416077 .20999146 .3973236H.2639923V.44433595C.23098755 .44232179 .14099121 .44132997 .13999939 .44132997 .11199951 .44132997 .066986087 .44332887 .025985718 .44433595V.3973236H.08999634L.2649994 .021087647C.2769928-.00390625 .2899933-.00390625 .30299378-.00390625 .31999208-.00390625 .32998658-.00091552737 .33999635 .020080567L.5059967 .37631227Z"/>
<path id="font_2_1" d="M.47099305 .6553192C.47099305 .67033389 .47099305 .69433596 .44699098 .69433596 .42199708 .69433596 .42199708 .6713257 .42199708 .6553192V.04899597H.116989139C.101989749 .04899597 .07699585 .04899597 .07699585 .024993897 .07699585 0 .099990848 0 .116989139 0H.776001C.7919922 0 .81599429 0 .81599429 .023986817 .81599429 .04899597 .79299929 .04899597 .776001 .04899597H.47099305V.6553192Z"/>
<path id="font_2_2" d="M.20599365 .71199038C.20599365 .72698977 .20599365 .75 .18199158 .75 .15699768 .75 .15699768 .72499087 .15699768 .7069855V-.20602417C.15699768-.22402954 .15699768-.24902344 .18199158-.24902344 .20599365-.24902344 .20599365-.22602844 .20599365-.21102906V.71199038M.4269867 .7069855C.4269867 .72499087 .4269867 .75 .4019928 .75 .37799073 .75 .37799073 .72698977 .37799073 .71199038V-.21102906C.37799073-.22602844 .37799073-.24902344 .4019928-.24902344 .4269867-.24902344 .4269867-.22402954 .4269867-.20602417V.7069855Z"/>
<path id="font_3_1" d="M.2579956 .68333438C.2579956 .6843262 .2579956 .69433596 .24499512 .69433596 .22200012 .69433596 .14898682 .6863251 .12298584 .6843262 .114990238 .68333438 .10398865 .6823273 .10398865 .6633301 .10398865 .6523285 .11399841 .6523285 .1289978 .6523285 .1769867 .6523285 .17799378 .6433258 .17799378 .6353302L.1749878 .6153259 .04899597 .11526489C.04598999 .104263309 .04399109 .09725952 .04399109 .08125305 .04399109 .024246216 .08799744-.0107421879 .1349945-.0107421879 .16799927-.0107421879 .19299317 .009246826 .20999146 .04525757 .22799683 .08325195 .23999024 .14126587 .23999024 .14326477 .23999024 .15327454 .23098755 .15327454 .22799683 .15327454 .21798706 .15327454 .21699524 .14926148 .21398926 .13526917 .19699097 .070251468 .17799378 .011245728 .13798523 .011245728 .10798645 .011245728 .10798645 .043258668 .10798645 .057250978 .10798645 .08125305 .10899353 .086257938 .11399841 .10525513L.2579956 .68333438Z"/>
<path id="font_4_2" d="M.68699648 .32714845C.70199587 .32714845 .72099307 .32714845 .72099307 .34713746 .72099307 .36714173 .70199587 .36714173 .6879883 .36714173H.08898926C.07499695 .36714173 .055999757 .36714173 .055999757 .34713746 .055999757 .32714845 .07499695 .32714845 .08999634 .32714845H.68699648M.6879883 .13284302C.70199587 .13284302 .72099307 .13284302 .72099307 .15284729 .72099307 .17285156 .70199587 .17285156 .68699648 .17285156H.08999634C.07499695 .17285156 .055999757 .17285156 .055999757 .15284729 .055999757 .13284302 .07499695 .13284302 .08898926 .13284302H.6879883Z"/>
<path id="font_4_1" d="M.40899659 .23046875H.6879883C.70199587 .23046875 .72099307 .23046875 .72099307 .25045777 .72099307 .27046205 .70199587 .27046205 .6879883 .27046205H.40899659V.5500183C.40899659 .56399539 .40899659 .5830078 .3889923 .5830078 .36898805 .5830078 .36898805 .56399539 .36898805 .5500183V.27046205H.08898926C.07499695 .27046205 .055999757 .27046205 .055999757 .25045777 .055999757 .23046875 .07499695 .23046875 .08898926 .23046875H.36898805V-.05000305C.36898805-.06401062 .36898805-.08300781 .3889923-.08300781 .40899659-.08300781 .40899659-.06401062 .40899659-.05000305V.23046875Z"/>
</defs>
<path transform="matrix(1.00003,0,0,-1,69.42854,92.305)" stroke-width="1.99255" stroke-linecap="butt" stroke-miterlimit="10" stroke-linejoin="miter" fill="none" stroke="#ff0000" d="M81.63924 18.14206 47.31529 86.78957"/>
<path transform="matrix(-.44718344,-.89436,-.8943869,.44717,116.745258,5.5154268)" d="M4.38364 0-2.63017 3.50691 0 0-2.63017-3.50691" fill="#ff0000"/>
<use data-text="v" xlink:href="#font_1_1" transform="matrix(9.962899,0,0,-9.9626,142.41574,43.881)" fill="#ff0000"/>
<use data-text="&#x22a5;" xlink:href="#font_2_1" transform="matrix(6.9740097,0,0,-6.9738,148.46292,45.376005)" fill="#ff0000"/>
<use data-text="v" xlink:href="#font_1_1" transform="matrix(9.962899,0,0,-9.9626,98.1324,114.291)" fill="#ff0000"/>
<use data-text="&#x2225;" xlink:href="#font_2_2" transform="matrix(6.9740097,0,0,-6.9738,104.17958,116.090007)" fill="#ff0000"/>
<use data-text="l" xlink:href="#font_3_1" transform="matrix(9.962899,0,0,-9.9626,181.2349,73.087)"/>
<use data-text="v" xlink:href="#font_1_1" transform="matrix(9.962899,0,0,-9.9626,23.753174,50.352)" fill="#0000ff"/>
<use data-text="=" xlink:href="#font_4_2" transform="matrix(9.962899,0,0,-9.9626,32.727449,50.352)" fill="#0000ff"/>
<use data-text="v" xlink:href="#font_1_1" transform="matrix(9.962899,0,0,-9.9626,43.24376,50.352)" fill="#0000ff"/>
<use data-text="&#x22a5;" xlink:href="#font_2_1" transform="matrix(6.9740097,0,0,-6.9738,49.289949,51.847005)" fill="#0000ff"/>
<use data-text="+" xlink:href="#font_4_1" transform="matrix(9.962899,0,0,-9.9626,58.229219,50.352)" fill="#0000ff"/>
<use data-text="v" xlink:href="#font_1_1" transform="matrix(9.962899,0,0,-9.9626,68.19252,50.352)" fill="#0000ff"/>
<use data-text="&#x2225;" xlink:href="#font_2_2" transform="matrix(6.9740097,0,0,-6.9738,74.23871,52.151006)" fill="#0000ff"/>
<path transform="matrix(1.00003,0,0,-1,69.42854,92.305)" stroke-width=".99628" stroke-linecap="butt" stroke-miterlimit="10" stroke-linejoin="miter" fill="none" stroke="#000000" d="M-68.0326-56.69382 113.38766 34.01628"/>
<path transform="matrix(1.00003,0,0,-1,69.42854,92.305)" stroke-width="1.99255" stroke-linecap="butt" stroke-miterlimit="10" stroke-linejoin="miter" fill="none" stroke="#0000ff" d="M-45.35506-45.35506 42.92357 87.06287"/>
<path transform="matrix(.55468669,-.83202,-.83204498,-.55467,112.3534,5.242134)" d="M4.38364 0-2.63017 3.50691 0 0-2.63017-3.50691" fill="#0000ff"/>
<path transform="matrix(1.00003,0,0,-1,69.42854,92.305)" stroke-width="1.99255" stroke-linecap="butt" stroke-miterlimit="10" stroke-linejoin="miter" fill="none" stroke="#ff0000" d="M-45.35506-45.35506 77.71867 16.18181"/>
<path transform="matrix(.8943869,-.44717,-.44718344,-.89436,147.14955,76.12319)" d="M4.38364 0-2.63017 3.50691 0 0-2.63017-3.50691" fill="#ff0000"/>
</svg>
