<svg xmlns="http://www.w3.org/2000/svg" xmlns:xlink="http://www.w3.org/1999/xlink" xmlns:inkscape="http://www.inkscape.org/namespaces/inkscape" version="1.1" width="208" height="207" viewBox="0 0 208 207">
<defs>
<path id="font_1_84" d="M.5209961 .21636963C.5209961 .34336854 .42399598 .4423828 .31199647 .4423828 .23399353 .4423828 .19198609 .39837647 .17199707 .3763733V.4423828L.027999878 .43066407V.3996582C.09899902 .3996582 .10598755 .3936615 .10598755 .34973146V-.117996219C.10598755-.16308594 .09498596-.16308594 .027999878-.16308594V-.1940918L.13999939-.19110108 .25299073-.1940918V-.16308594C.18598938-.16308594 .1749878-.16308594 .1749878-.117996219V.050186159 .059173585C.17999268 .04319763 .22200012-.0107421879 .2979889-.0107421879 .4169922-.0107421879 .5209961 .087127689 .5209961 .21594239V.21636963M.43798829 .21594239C.43798829 .09512329 .36799623 .011245728 .2939911 .011245728 .2539978 .011245728 .21598816 .031219483 .18899536 .07215881 .1749878 .09312439 .1749878 .09411621 .1749878 .114089969V.33674623C.20399475 .38838197 .25299073 .41737367 .3039856 .41737367 .3769989 .41737367 .43798829 .32937623 .43798829 .21636963V.21594239Z"/>
<path id="font_1_96" d="M.3639984 .38137818C.3639984 .41337586 .33299256 .4423828 .2899933 .4423828 .21699524 .4423828 .18099976 .37538148 .16699219 .3323822V.4423828L.027999878 .43066407V.3996582C.09799194 .3996582 .10598755 .39266969 .10598755 .34370423V.07595825C.10598755 .0309906 .09498596 .0309906 .027999878 .0309906V0L.14199829 .0029907227C.18199158 .0029907227 .22898865 .0029907227 .2689972 0V.0309906H.24798584C.17399597 .0309906 .17199707 .04197693 .17199707 .07795715V.23181153C.17199707 .33137513 .21398926 .42037965 .2899933 .42037965 .29699708 .42037965 .29899598 .42037965 .30099488 .41937257 .2979889 .41838075 .27799989 .40637208 .27799989 .3803711 .27799989 .35237123 .29899598 .33737184 .32099916 .33737184 .33898927 .33737184 .3639984 .3493805 .3639984 .38137818Z"/>
<path id="font_1_81" d="M.47099305 .21424866C.47099305 .34223939 .37098695 .4482422 .25 .4482422 .125 .4482422 .027999878 .3392334 .027999878 .21424866 .027999878 .085250858 .13198853-.0107421879 .24899292-.0107421879 .36999513-.0107421879 .47099305 .087249759 .47099305 .21424866M.3880005 .22224427C.3880005 .18624878 .3880005 .13224793 .3659973 .08824158 .34399415 .04324341 .2999878 .014251709 .25 .014251709 .20698548 .014251709 .16299439 .035247804 .13598633 .08125305 .11099243 .12524414 .11099243 .18624878 .11099243 .22224427 .11099243 .26124574 .11099243 .31523133 .1349945 .35923768 .1619873 .40522767 .20899964 .426239 .24899292 .426239 .29299928 .426239 .33599855 .40423585 .3619995 .36123658 .3880005 .3182373 .3880005 .26023866 .3880005 .22224427Z"/>
<path id="font_1_68" d="M.20999146-.049972536V.4423828L.057998659 .43138124V.40037538C.1349945 .40037538 .14399719 .39337159 .14399719 .34432984V-.051971437C.14399719-.09700012 .1349945-.18309021 .070999149-.18309021 .06599426-.18309021 .042999269-.18309021 .016998291-.17001343 .03199768-.16600037 .051986696-.1519928 .051986696-.125 .051986696-.09899902 .033996583-.07899475 .005996704-.07899475-.022003174-.07899475-.040008546-.09899902-.040008546-.125-.040008546-.17704773 .015991211-.20507813 .07299805-.20507813 .147995-.20507813 .20999146-.14100647 .20999146-.049972536M.20999146 .6042175C.20999146 .6312256 .18699646 .65722659 .15699768 .65722659 .12298584 .65722659 .102996829 .6292114 .102996829 .6042175 .102996829 .57722476 .12599182 .55122378 .1559906 .55122378 .18998719 .55122378 .20999146 .57922366 .20999146 .6042175Z"/>
<path id="font_2_1" d="M.25498963 .38832093H.3829956V.44433595H.24798584V.5383148C.24798584 .5553131 .24798584 .6542969 .35798646 .6542969 .36898805 .6542969 .36898805 .6532898 .36898805 .6522827 .36898805 .6512909 .36799623 .649292 .3659973 .6472931 .3619995 .6412964 .35398866 .626297 .35398866 .6062927 .35398866 .55830386 .3929901 .53730776 .42199708 .53730776 .45498658 .53730776 .4909973 .56030276 .4909973 .6062927 .4909973 .6522827 .44999696 .70028689 .36499024 .70028689 .24899292 .70028689 .1349945 .6532898 .1349945 .5403137V.44433595H.051986696V.38832093H.1349945V.055999757H.067993167V0C.07199097 0 .14898682 .0039978029 .19599915 .0039978029 .23498535 .0039978029 .33198548 0 .33898927 0V.055999757H.25498963V.38832093Z"/>
<path id="font_3_1" d="M.397995 .63591006C.397995 .6660156 .394989 .6660156 .3619995 .6660156 .29100038 .6016083 .17999268 .6016083 .1599884 .6016083H.14299011V.5576172H.1599884C.18299866 .5576172 .24798584 .5606079 .30599977 .58561709V.08596802C.30599977 .054977418 .30599977 .04399109 .19999695 .04399109H.1499939V0C.20498657 .0039978029 .2939911 .0039978029 .35198976 .0039978029 .4099884 .0039978029 .49899293 .0039978029 .55400088 0V.04399109H.5039978C.397995 .04399109 .397995 .054977418 .397995 .08596802V.63591006Z"/>
<path id="font_4_2" d="M.5059967 .37631227C.5119934 .39031983 .5159912 .3973236 .5799866 .3973236V.44433595C.5549927 .44232179 .526001 .44132997 .5009918 .44132997 .47599793 .44132997 .43099977 .44332887 .4099884 .44433595V.3973236C.42900086 .3973236 .45799256 .3943329 .45799256 .38632203 .45799256 .3853302 .45700074 .38331605 .45298768 .37431336L.33699037 .12416077 .20999146 .3973236H.2639923V.44433595C.23098755 .44232179 .14099121 .44132997 .13999939 .44132997 .11199951 .44132997 .066986087 .44332887 .025985718 .44433595V.3973236H.08999634L.2649994 .021087647C.2769928-.00390625 .2899933-.00390625 .30299378-.00390625 .31999208-.00390625 .32998658-.00091552737 .33999635 .020080567L.5059967 .37631227Z"/>
<path id="font_5_2" d="M.5049896 .18203736H.47099305C.46798707 .16001892 .45799256 .100997928 .44499208 .09098816 .43699647 .084991458 .3600006 .084991458 .34599305 .084991458H.1619873C.2669983 .17803955 .3019867 .20603943 .3619995 .25306703 .43598939 .312088 .5049896 .374115 .5049896 .46914674 .5049896 .5900879 .39898683 .6640625 .2709961 .6640625 .14698792 .6640625 .06298828 .57710269 .06298828 .4851532 .06298828 .43414308 .10598755 .42915345 .115997318 .42915345 .13999939 .42915345 .16899109 .44615174 .16899109 .48214723 .16899109 .5001526 .1619873 .53515627 .10998535 .53515627 .14099121 .6060791 .20899964 .62805178 .2559967 .62805178 .35598756 .62805178 .4079895 .5501404 .4079895 .46914674 .4079895 .38212586 .34599305 .3130951 .31399537 .27708436L.07299805 .038986207C.06298828 .02999878 .06298828 .027999878 .06298828 0H.47499085L.5049896 .18203736Z"/>
<path id="font_4_1" d="M.116989139 .44433595H.041992189V.3973236H.116989139V.04699707H.04798889V0C.08299255 .0009918213 .12799073 .0029907227 .17399597 .0029907227 .21199036 .0029907227 .27598573 .0029907227 .31199647 0V.04699707H.22499085V.3973236H.33999635V.44433595H.21899414V.54525759C.21899414 .65519717 .29499818 .6641846 .31999208 .6641846 .32499696 .6641846 .32998658 .6641846 .33699037 .66218569 .32199098 .65119937 .31399537 .63220217 .31399537 .6132202 .31399537 .57025149 .34899903 .5512543 .375 .5512543 .40499879 .5512543 .43699647 .57225039 .43699647 .6132202 .43699647 .65519717 .40098573 .7001953 .32299806 .7001953 .22499085 .7001953 .116989139 .65818789 .116989139 .54525759V.44433595Z"/>
<path id="font_6_1" d="M.68699648 .32714845C.70199587 .32714845 .72099307 .32714845 .72099307 .34713746 .72099307 .36714173 .70199587 .36714173 .6879883 .36714173H.08898926C.07499695 .36714173 .055999757 .36714173 .055999757 .34713746 .055999757 .32714845 .07499695 .32714845 .08999634 .32714845H.68699648M.6879883 .13284302C.70199587 .13284302 .72099307 .13284302 .72099307 .15284729 .72099307 .17285156 .70199587 .17285156 .68699648 .17285156H.08999634C.07499695 .17285156 .055999757 .17285156 .055999757 .15284729 .055999757 .13284302 .07499695 .13284302 .08898926 .13284302H.6879883Z"/>
<path id="font_7_1" d="M.6589966 .23046875C.6759949 .23046875 .69400027 .23046875 .69400027 .25045777 .69400027 .27046205 .6759949 .27046205 .6589966 .27046205H.117996219C.100997928 .27046205 .08299255 .27046205 .08299255 .25045777 .08299255 .23046875 .100997928 .23046875 .117996219 .23046875H.6589966Z"/>
<path id="font_5_1" d="M.33499146 .63612368C.33499146 .6630554 .33299256 .6640625 .30499269 .6640625 .24099732 .6014404 .1499939 .6004486 .10899353 .6004486V.5644531C.1329956 .5644531 .19898987 .5644531 .2539978 .592453V.08203125C.2539978 .04899597 .2539978 .035995485 .1539917 .035995485H.115997318V0C.13398743 .0009918213 .25698854 .0039978029 .2939911 .0039978029 .32499696 .0039978029 .45098878 .0009918213 .47299195 0V.035995485H.43499757C.33499146 .035995485 .33499146 .04899597 .33499146 .08203125V.63612368Z"/>
</defs>
<path transform="matrix(1.00002,0,0,-1.00003,35.112344,171.88269)" stroke-width=".3985" stroke-linecap="butt" stroke-miterlimit="10" stroke-linejoin="miter" fill="none" stroke="#000000" d="M-33.61757 0H169.6819"/>
<path transform="matrix(-1.00002,-0,0,1.00003,1.2948456,171.88269)" stroke-width=".3985" stroke-linecap="round" stroke-linejoin="round" fill="none" stroke="#000000" d="M-2.07224 2.39104C-1.69365 .95639-.84999 .27895 0 0-.84999-.27895-1.69365-.95639-2.07224-2.39104"/>
<path transform="matrix(1.00002,0,0,-1.00003,204.99692,171.88269)" stroke-width=".3985" stroke-linecap="round" stroke-linejoin="round" fill="none" stroke="#000000" d="M-2.07224 2.39104C-1.69365 .95639-.84999 .27895 0 0-.84999-.27895-1.69365-.95639-2.07224-2.39104"/>
<path transform="matrix(1.00002,0,0,-1.00003,35.112344,171.88269)" stroke-width=".3985" stroke-linecap="butt" stroke-miterlimit="10" stroke-linejoin="miter" fill="none" stroke="#000000" d="M0-33.61757V169.6819"/>
<path transform="matrix(0,1.00003,1.00002,0,35.112344,205.70053)" stroke-width=".3985" stroke-linecap="round" stroke-linejoin="round" fill="none" stroke="#000000" d="M-2.07224 2.39104C-1.69365 .95639-.84999 .27895 0 0-.84999-.27895-1.69365-.95639-2.07224-2.39104"/>
<path transform="matrix(0,-1.00003,-1.00002,-0,35.112344,1.9964295)" stroke-width=".3985" stroke-linecap="round" stroke-linejoin="round" fill="none" stroke="#000000" d="M-2.07224 2.39104C-1.69365 .95639-.84999 .27895 0 0-.84999-.27895-1.69365-.95639-2.07224-2.39104"/>
<path transform="matrix(1.00002,0,0,-1.00003,35.112344,171.88269)" stroke-width="5.97766" stroke-linecap="butt" stroke-miterlimit="10" stroke-linejoin="miter" fill="none" stroke="#cccccc" d="M0 0 63.39883 126.7975"/>
<path transform="matrix(.44717894,-.8943869,-.89437797,-.44718344,98.512439,45.081384)" d="M10.36136 0-6.21681 8.28908 0 0-6.21681-8.28908" fill="#cccccc"/>
<path transform="matrix(1.00002,0,0,-1.00003,35.112344,171.88269)" stroke-width="1.99255" stroke-linecap="butt" stroke-miterlimit="10" stroke-linejoin="miter" fill="none" stroke="#ff0000" d="M0 0 32.05583 64.1116"/>
<path transform="matrix(.44717894,-.8943869,-.89437797,-.44718344,67.16881,107.769168)" d="M4.38364 0-2.63017 3.50691 0 0-2.63017-3.50691" fill="#ff0000"/>
<path transform="matrix(1.00002,0,0,-1.00003,35.112344,171.88269)" stroke-width="1.99255" stroke-linecap="butt" stroke-miterlimit="10" stroke-linejoin="miter" fill="none" stroke="#0000ff" d="M0 0 132.55754 99.4181"/>
<path transform="matrix(.799986,-.600008,-.60000208,-.799994,167.67255,72.46161)" d="M4.38364 0-2.63017 3.50691 0 0-2.63017-3.50691" fill="#0000ff"/>
<path transform="matrix(1.00002,0,0,-1.00003,35.112344,171.88269)" stroke-width="1.99255" stroke-linecap="butt" stroke-miterlimit="10" stroke-linejoin="miter" fill="none" stroke="#000000" d="M68.03217 136.06433 132.14377 104.0085"/>
<path transform="matrix(.89437797,.44718344,.44717894,-.8943869,167.25876,67.87106)" d="M4.38364 0-2.63017 3.50691 0 0-2.63017-3.50691"/>
<use data-text="p" xlink:href="#font_1_84" transform="matrix(9.962799,0,0,-9.962899,41.205469,78.13888)"/>
<use data-text="r" xlink:href="#font_1_96" transform="matrix(9.962799,0,0,-9.962899,46.74479,78.13888)"/>
<use data-text="o" xlink:href="#font_1_81" transform="matrix(9.962799,0,0,-9.962899,50.650209,78.13888)"/>
<use data-text="j" xlink:href="#font_1_68" transform="matrix(9.962799,0,0,-9.962899,55.900606,78.13888)"/>
<use data-text="f" xlink:href="#font_2_1" transform="matrix(6.97394,0,0,-6.9740097,58.95883,80.67895)"/>
<use data-text="1" xlink:href="#font_3_1" transform="matrix(4.9813997,0,0,-4.9814498,61.73889,81.67498)"/>
<use data-text="v" xlink:href="#font_4_2" transform="matrix(9.962799,0,0,-9.962899,66.12497,78.13888)"/>
<use data-text="2" xlink:href="#font_5_2" transform="matrix(6.97394,0,0,-6.9740097,72.17209,79.63293)"/>
<use data-text="f" xlink:href="#font_4_1" transform="matrix(9.962799,0,0,-9.962899,128.0852,44.30886)"/>
<use data-text="2" xlink:href="#font_5_2" transform="matrix(6.97394,0,0,-6.9740097,131.58528,45.80291)"/>
<use data-text="=" xlink:href="#font_6_1" transform="matrix(9.962799,0,0,-9.962899,138.82242,44.30886)"/>
<use data-text="v" xlink:href="#font_4_2" transform="matrix(9.962799,0,0,-9.962899,149.33866,44.30886)"/>
<use data-text="2" xlink:href="#font_5_2" transform="matrix(6.97394,0,0,-6.9740097,155.38578,45.80291)"/>
<use data-text="&#x2212;" xlink:href="#font_7_1" transform="matrix(9.962799,0,0,-9.962899,162.06888,44.30886)"/>
<use data-text="p" xlink:href="#font_1_84" transform="matrix(9.962799,0,0,-9.962899,172.03208,44.30886)"/>
<use data-text="r" xlink:href="#font_1_96" transform="matrix(9.962799,0,0,-9.962899,177.57141,44.30886)"/>
<use data-text="o" xlink:href="#font_1_81" transform="matrix(9.962799,0,0,-9.962899,181.4768,44.30886)"/>
<use data-text="j" xlink:href="#font_1_68" transform="matrix(9.962799,0,0,-9.962899,186.7272,44.30886)"/>
<use data-text="f" xlink:href="#font_2_1" transform="matrix(6.97394,0,0,-6.9740097,189.78546,46.84893)"/>
<use data-text="1" xlink:href="#font_3_1" transform="matrix(4.9813997,0,0,-4.9814498,192.56549,47.844964)"/>
<use data-text="v" xlink:href="#font_4_2" transform="matrix(9.962799,0,0,-9.962899,196.9516,44.30886)"/>
<use data-text="2" xlink:href="#font_5_2" transform="matrix(6.97394,0,0,-6.9740097,202.99872,45.80291)"/>
<use data-text="v" xlink:href="#font_4_2" transform="matrix(9.962799,0,0,-9.962899,15.824959,140.57775)" fill="#ff0000"/>
<use data-text="1" xlink:href="#font_5_1" transform="matrix(6.97394,0,0,-6.9740097,21.871079,142.0718)" fill="#ff0000"/>
<use data-text="=" xlink:href="#font_6_1" transform="matrix(9.962799,0,0,-9.962899,29.10823,140.57775)" fill="#ff0000"/>
<use data-text="f" xlink:href="#font_4_1" transform="matrix(9.962799,0,0,-9.962899,39.62445,140.57775)" fill="#ff0000"/>
<use data-text="1" xlink:href="#font_5_1" transform="matrix(6.97394,0,0,-6.9740097,43.125535,142.0718)" fill="#ff0000"/>
<use data-text="v" xlink:href="#font_4_2" transform="matrix(9.962799,0,0,-9.962899,97.8876,132.52951)" fill="#0000ff"/>
<use data-text="2" xlink:href="#font_5_2" transform="matrix(6.97394,0,0,-6.9740097,103.933719,134.02356)" fill="#0000ff"/>
</svg>
