<svg xmlns="http://www.w3.org/2000/svg" xmlns:xlink="http://www.w3.org/1999/xlink" xmlns:inkscape="http://www.inkscape.org/namespaces/inkscape" version="1.1" width="159" height="101" viewBox="0 0 159 101">
<defs>
<path id="font_1_2" d="M.34599305 .2461853 .46299745 .37631227C.47599793 .39031983 .48199464 .3973236 .5649872 .3973236V.44433595C.5299988 .44232179 .47799684 .44132997 .47299195 .44132997 .44799806 .44132997 .397995 .44332887 .36999513 .44433595V.3973236C.38398744 .3973236 .3959961 .3953247 .4079895 .38832093 .4039917 .38230897 .4039917 .38031007 .3999939 .37631227L.31599427 .2822113 .21798706 .3973236H.2579956V.44433595C.23199463 .44332887 .16899109 .44132997 .13699341 .44132997 .10499573 .44132997 .05999756 .44332887 .026992798 .44433595V.3973236H.09799194L.2539978 .21315003 .12298584 .06600952C.10598755 .04699707 .069992069 .04699707 .021987915 .04699707V0C.056991579 .0019989014 .10899353 .0029907227 .11399841 .0029907227 .13899231 .0029907227 .19699097 .0009918213 .21699524 0V.04699707C.19898987 .04699707 .17999268 .052001954 .17999268 .057998659 .17999268 .059005739 .17999268 .05999756 .18699646 .06800842L.28399659 .17712403 .3939972 .04699707H.35499574V0C.3809967 .0009918213 .44198609 .0029907227 .47499085 .0029907227 .5069885 .0029907227 .5519867 .0009918213 .58499148 0V.04699707H.5139923L.34599305 .2461853Z"/>
<path id="font_1_1" d="M.7369995 .37631227C.74198916 .389328 .74598696 .3973236 .8049927 .3973236V.44433595C.7819977 .44232179 .7519989 .44132997 .7279968 .44132997 .70098879 .44132997 .6539917 .44332887 .6319885 .44433595V.3973236C.6409912 .3973236 .6899872 .3963318 .6899872 .3853302 .6899872 .38232423 .68699648 .37631227 .6859894 .37332154L.58099368 .11715698 .46699525 .3973236H.522995V.44433595C.4909973 .44332887 .43899537 .44132997 .40899659 .44132997 .36698915 .44132997 .32499696 .44332887 .30899049 .44433595V.3973236H.36799623C.3889923 .3473053 .3889923 .34529115 .3889923 .34429933 .3889923 .34028626 .38598634 .33428956 .3849945 .33128358L.30599977 .13916016 .20098877 .3973236H.25698854V.44433595C.21598816 .44232179 .1749878 .44132997 .13398743 .44132997 .102996829 .44132997 .05899048 .44332887 .024993897 .44433595V.3973236H.083999637L.23699951 .023086548C.24398804 .006088257 .24798584-.00390625 .272995-.00390625 .2979889-.00390625 .3019867 .006088257 .30899049 .023086548L.4149933 .28225709 .5209961 .023086548C.5279999 .006088257 .5319977-.00390625 .5569916-.00390625 .58200076-.00390625 .58599856 .006088257 .59298709 .023086548L.7369995 .37631227Z"/>
<path id="font_2_1" d="M.47099305 .6553192C.47099305 .67033389 .47099305 .69433596 .44699098 .69433596 .42199708 .69433596 .42199708 .6713257 .42199708 .6553192V.04899597H.116989139C.101989749 .04899597 .07699585 .04899597 .07699585 .024993897 .07699585 0 .099990848 0 .116989139 0H.776001C.7919922 0 .81599429 0 .81599429 .023986817 .81599429 .04899597 .79299929 .04899597 .776001 .04899597H.47099305V.6553192Z"/>
<path id="font_3_2" d="M.68699648 .32714845C.70199587 .32714845 .72099307 .32714845 .72099307 .34713746 .72099307 .36714173 .70199587 .36714173 .6879883 .36714173H.08898926C.07499695 .36714173 .055999757 .36714173 .055999757 .34713746 .055999757 .32714845 .07499695 .32714845 .08999634 .32714845H.68699648M.6879883 .13284302C.70199587 .13284302 .72099307 .13284302 .72099307 .15284729 .72099307 .17285156 .70199587 .17285156 .68699648 .17285156H.08999634C.07499695 .17285156 .055999757 .17285156 .055999757 .15284729 .055999757 .13284302 .07499695 .13284302 .08898926 .13284302H.6879883Z"/>
<path id="font_3_1" d="M.40899659 .23046875H.6879883C.70199587 .23046875 .72099307 .23046875 .72099307 .25045777 .72099307 .27046205 .70199587 .27046205 .6879883 .27046205H.40899659V.5500183C.40899659 .56399539 .40899659 .5830078 .3889923 .5830078 .36898805 .5830078 .36898805 .56399539 .36898805 .5500183V.27046205H.08898926C.07499695 .27046205 .055999757 .27046205 .055999757 .25045777 .055999757 .23046875 .07499695 .23046875 .08898926 .23046875H.36898805V-.05000305C.36898805-.06401062 .36898805-.08300781 .3889923-.08300781 .40899659-.08300781 .40899659-.06401062 .40899659-.05000305V.23046875Z"/>
<path id="font_4_1" d="M.9169922 .5666046C.94200137 .61061099 .96598818 .64660647 1.0289917 .6516113 1.0379944 .65260317 1.0479889 .65260317 1.0479889 .6716156 1.0479889 .6756134 1.0439911 .6826172 1.0359955 .6826172 1.0119934 .6826172 .98399356 .6796112 .95899966 .6796112 .9249878 .6796112 .8880005 .6826172 .8549957 .6826172 .848999 .6826172 .83599856 .6826172 .83599856 .66360476 .83599856 .65260317 .8450012 .6516113 .8509979 .6516113 .875 .65060427 .9099884 .64260867 .9099884 .61260989 .9099884 .6016083 .9049988 .5935974 .8969879 .5796051L.6269989 .108551029 .58999636 .604599C.58898928 .6246033 .58699038 .65060427 .6599884 .6516113 .6769867 .6516113 .68699648 .6516113 .68699648 .6716156 .68699648 .6816101 .6759949 .6826172 .6719971 .6826172 .6319885 .6826172 .58999636 .6796112 .5499878 .6796112 .5269928 .6796112 .46798707 .6826172 .44499208 .6826172 .43899537 .6826172 .42599488 .6826172 .42599488 .6626129 .42599488 .6516113 .43598939 .6516113 .44999696 .6516113 .49398805 .6516113 .5009918 .6456146 .5029907 .6266022L.5089874 .54959109 .2559967 .108551029 .21798706 .6156006C.21798706 .62760928 .21798706 .65060427 .2939911 .6516113 .3039856 .6516113 .31498719 .6516113 .31498719 .6716156 .31498719 .6826172 .30299378 .6826172 .30099488 .6826172 .26098634 .6826172 .21899414 .6796112 .17799378 .6796112 .14299011 .6796112 .10699463 .6826172 .07299805 .6826172 .067993167 .6826172 .054992677 .6826172 .054992677 .66360476 .054992677 .6516113 .06399536 .6516113 .07998657 .6516113 .12998963 .6516113 .1309967 .64260867 .1329956 .61460879L.17799378 .0035247803C.1789856-.014465332 .17999268-.022460938 .19400025-.022460938 .20599365-.022460938 .20899964-.016464234 .21798706-.0014648438L.5119934 .5085907 .548996 .0035247803C.5509949-.017471314 .5529938-.022460938 .5649872-.022460938 .5779877-.022460938 .58399966-.012466431 .58898928-.0034637452L.9169922 .5666046Z"/>
</defs>
<g>
<path transform="matrix(1.00002,0,0,-1,44.70273,34.835)" d="M0 0H113.38766L69.73404-43.6536H-43.6536Z" fill="#0000ff" fill-opacity=".2"/>
<path transform="matrix(1.00002,0,0,-1,44.70273,34.835)" stroke-width=".3985" stroke-linecap="butt" stroke-miterlimit="10" stroke-linejoin="miter" fill="none" stroke="#0000ff" stroke-opacity=".2" d="M0 0H113.38766L69.73404-43.6536H-43.6536Z"/>
</g>
<use data-text="x" xlink:href="#font_1_2" transform="matrix(9.962799,0,0,-9.9626,69.57323,11.24)"/>
<use data-text="w" xlink:href="#font_1_1" transform="matrix(9.962799,0,0,-9.9626,59.81903,58.352998)"/>
<use data-text="w" xlink:href="#font_1_1" transform="matrix(9.962799,0,0,-9.9626,104.93193,30.289)"/>
<use data-text="&#x22a5;" xlink:href="#font_2_1" transform="matrix(6.97394,0,0,-6.9738,113.3651,26.674)"/>
<path transform="matrix(1.00002,0,0,-1,44.70273,34.835)" stroke-width="2.26773" stroke-linecap="butt" stroke-miterlimit="10" stroke-linejoin="miter" fill="none" stroke="#ff0000" d="M0 0 51.6628 30.66182"/>
<path transform="matrix(.85992726,-.51036,-.5103702,-.85991,96.36655,4.1731989)" d="M4.79637 0-2.87782 3.8371 0 0-2.87782-3.8371" fill="#ff0000"/>
<path transform="matrix(1.00002,0,0,-1,44.70273,34.835)" stroke-width="4.252" stroke-linecap="butt" stroke-miterlimit="10" stroke-linejoin="miter" fill="none" stroke="#ff0000" stroke-opacity=".2" d="M0 0 49.199-30.79866"/>
<path transform="matrix(.847617,.5306,.5306106,-.8476,93.9027,65.63366)" d="M7.77284 0-4.6637 6.21828 0 0-4.6637-6.21828" fill="#ff0000" fill-opacity=".2"/>
<path transform="matrix(1.00002,0,0,-1,44.70273,34.835)" stroke-width="4.252" stroke-linecap="butt" stroke-miterlimit="10" stroke-linejoin="miter" fill="none" stroke="#ff0000" stroke-opacity=".2" d="M55.78723-34.92287V25.33684"/>
<path transform="matrix(0,-1,-1.00002,-0,100.49107,9.498159)" d="M7.77284 0-4.6637 6.21828 0 0-4.6637-6.21828" fill="#ff0000" fill-opacity=".2"/>
<use data-text="x" xlink:href="#font_1_2" transform="matrix(9.962799,0,0,-9.9626,58.99402,99.202999)"/>
<use data-text="=" xlink:href="#font_3_2" transform="matrix(9.962799,0,0,-9.9626,67.8082,99.202999)"/>
<use data-text="w" xlink:href="#font_1_1" transform="matrix(9.962799,0,0,-9.9626,78.32442,99.202999)"/>
<use data-text="+" xlink:href="#font_3_1" transform="matrix(9.962799,0,0,-9.9626,88.971637,99.202999)"/>
<use data-text="w" xlink:href="#font_1_1" transform="matrix(9.962799,0,0,-9.9626,98.93483,99.202999)"/>
<use data-text="&#x22a5;" xlink:href="#font_2_1" transform="matrix(6.97394,0,0,-6.9738,107.368,95.588)"/>
<use data-text="W" xlink:href="#font_4_1" transform="matrix(9.962799,0,0,-9.9626,136.10756,44.384)"/>
</svg>
