<svg xmlns="http://www.w3.org/2000/svg" xmlns:xlink="http://www.w3.org/1999/xlink" xmlns:inkscape="http://www.inkscape.org/namespaces/inkscape" version="1.1" width="101" height="88" viewBox="0 0 101 88">
<defs>
<path id="font_1_1" d="M.22399903 .4501953 .049987794 .44218446V.39518739C.10899353 .39518739 .115997318 .39518739 .115997318 .35617066V.04699707H.04699707V0C.07798767 .0009918213 .1269989 .0029907227 .16899109 .0029907227 .19898987 .0029907227 .25 .0009918213 .28599549 0V.04699707H.22399903V.4501953M.23399353 .6173096C.23399353 .66130068 .19799805 .6953125 .1559906 .6953125 .11299133 .6953125 .07798767 .66030886 .07798767 .6173096 .07798767 .5743103 .11299133 .53930667 .1559906 .53930667 .19799805 .53930667 .23399353 .5733032 .23399353 .6173096Z"/>
<path id="font_2_3" d="M.68699648 .32714845C.70199587 .32714845 .72099307 .32714845 .72099307 .34713746 .72099307 .36714173 .70199587 .36714173 .6879883 .36714173H.08898926C.07499695 .36714173 .055999757 .36714173 .055999757 .34713746 .055999757 .32714845 .07499695 .32714845 .08999634 .32714845H.68699648M.6879883 .13284302C.70199587 .13284302 .72099307 .13284302 .72099307 .15284729 .72099307 .17285156 .70199587 .17285156 .68699648 .17285156H.08999634C.07499695 .17285156 .055999757 .17285156 .055999757 .15284729 .055999757 .13284302 .07499695 .13284302 .08898926 .13284302H.6879883Z"/>
<path id="font_3_1" d="M.25-2.3587189H.5130005V-2.303711H.30499269V-.0146484379H.5130005V.04034424H.25V-2.3587189Z"/>
<path id="font_2_2" d="M.2939911 .64004519C.2939911 .66400149 .2939911 .6660156 .2709961 .6660156 .20899964 .60227969 .12098694 .60227969 .08898926 .60227969V.57128909C.10899353 .57128909 .16799927 .57128909 .21998596 .5972748V.07902527C.21998596 .042999269 .21699524 .0309906 .1269989 .0309906H.09498596V0C.12998963 .0029907227 .21699524 .0029907227 .25698854 .0029907227 .29699708 .0029907227 .38398744 .0029907227 .4189911 0V.0309906H.3869934C.29699708 .0309906 .2939911 .041992189 .2939911 .07902527V.64004519Z"/>
<path id="font_2_1" d="M.45999146 .31976319C.45999146 .39982606 .45498658 .47988893 .41999818 .5539398 .37399293 .65000918 .2919922 .6660156 .25 .6660156 .18998719 .6660156 .116989139 .64001467 .07598877 .54693606 .04399109 .47789 .038986207 .39982606 .038986207 .31976319 .038986207 .24472046 .042999269 .15464783 .083999637 .07859802 .1269989-.0024719239 .19999695-.022460938 .24899292-.022460938 .30299378-.022460938 .3789978-.0014648438 .4229889 .09359741 .45498658 .16265869 .45999146 .2407074 .45999146 .31976319M.24899292-.00047302247C.20999146-.00047302247 .15098572 .024551392 .1329956 .12062073 .12199402 .18066406 .12199402 .2727356 .12199402 .3317871 .12199402 .39582826 .12199402 .46188355 .12998963 .5159149 .14898682 .63500979 .22399903 .64401248 .24899292 .64401248 .28199769 .64401248 .34799195 .6259918 .36698915 .52693179 .3769989 .47088624 .3769989 .39482118 .3769989 .3317871 .3769989 .25672914 .3769989 .18867493 .3659973 .12461853 .35099793 .029556275 .2939911-.00047302247 .24899292-.00047302247Z"/>
<path id="font_3_2" d="M.22200012-2.303711H.01399231V-2.3587189H.2769928V.04034424H.01399231V-.0146484379H.22200012V-2.303711Z"/>
<path id="font_1_2" d="M.08299255 .44218446V.39518739C.099990848 .39518739 .12199402 .39518739 .13699341 .39318849 .15899658 .38919068 .15899658 .37617494 .15899658 .35516358V-.042114259C.15899658-.09214783 .14399719-.16419983 .083999637-.16419983 .067993167-.16419983 .05999756-.16220093 .04499817-.15820313 .06399536-.14419556 .068984989-.123168949 .068984989-.108169559 .068984989-.073135379 .042999269-.04612732 .0069885256-.04612732-.03100586-.04612732-.056015016-.073135379-.056015016-.10916138-.056015016-.16619873 .0039978029-.20019531 .085998538-.20019531 .17199707-.20019531 .2669983-.14819336 .2669983-.042114259V.4501953L.08299255 .44218446M.2669983 .6173096C.2669983 .66030886 .23199463 .6953125 .18899536 .6953125 .1459961 .6953125 .11099243 .66030886 .11099243 .6173096 .11099243 .5743103 .1459961 .53930667 .18899536 .53930667 .23199463 .53930667 .2669983 .5743103 .2669983 .6173096Z"/>
</defs>
<path transform="matrix(1.00006,0,0,-1.00003,38.319337,57.998353)" stroke-width=".3985" stroke-linecap="butt" stroke-miterlimit="10" stroke-linejoin="miter" fill="none" stroke="#cccccc" d="M-28.3468-28.3468H56.69362M-28.3468 0H56.69362M-28.3468 28.3468H56.69362M-28.3468 56.68365H56.69362M-28.3468-28.3468V56.69362M0-28.3468V56.69362M28.3468-28.3468V56.69362M56.68365-28.3468V56.69362M56.69362 56.69362"/>
<path transform="matrix(1.00006,0,0,-1.00003,38.319337,57.998353)" stroke-width=".3985" stroke-linecap="butt" stroke-miterlimit="10" stroke-linejoin="miter" fill="none" stroke="#000000" d="M-27.9483 0H56.2951"/>
<path transform="matrix(-1.00006,-0,0,1.00003,10.170097,57.998353)" stroke-width=".3985" stroke-linecap="round" stroke-linejoin="round" fill="none" stroke="#000000" d="M-2.07224 2.39104C-1.69365 .95639-.84999 .27895 0 0-.84999-.27895-1.69365-.95639-2.07224-2.39104"/>
<path transform="matrix(1.00006,0,0,-1.00003,94.81708,57.998353)" stroke-width=".3985" stroke-linecap="round" stroke-linejoin="round" fill="none" stroke="#000000" d="M-2.07224 2.39104C-1.69365 .95639-.84999 .27895 0 0-.84999-.27895-1.69365-.95639-2.07224-2.39104"/>
<path transform="matrix(1.00006,0,0,-1.00003,38.319337,57.998353)" stroke-width=".3985" stroke-linecap="butt" stroke-miterlimit="10" stroke-linejoin="miter" fill="none" stroke="#000000" d="M0-27.9483V56.2951"/>
<path transform="matrix(0,1.00003,1.00006,0,38.319337,86.14674)" stroke-width=".3985" stroke-linecap="round" stroke-linejoin="round" fill="none" stroke="#000000" d="M-2.07224 2.39104C-1.69365 .95639-.84999 .27895 0 0-.84999-.27895-1.69365-.95639-2.07224-2.39104"/>
<path transform="matrix(0,-1.00003,-1.00006,-0,38.319337,1.5023041)" stroke-width=".3985" stroke-linecap="round" stroke-linejoin="round" fill="none" stroke="#000000" d="M-2.07224 2.39104C-1.69365 .95639-.84999 .27895 0 0-.84999-.27895-1.69365-.95639-2.07224-2.39104"/>
<path transform="matrix(1.00006,0,0,-1.00003,38.319337,57.998353)" stroke-width=".99628" stroke-linecap="butt" stroke-miterlimit="10" stroke-linejoin="miter" fill="none" stroke="#ff0000" d="M0 0H25.4576"/>
<path transform="matrix(1.00006,0,0,-1.00003,63.77846,57.998353)" d="M2.8892 0-1.73352 2.31136 0 0-1.73352-2.31136" fill="#ff0000"/>
<use data-text="i" xlink:href="#font_1_1" transform="matrix(9.963197,0,0,-9.962899,70.48727,76.2639)" fill="#ff0000"/>
<use data-text="=" xlink:href="#font_2_3" transform="matrix(9.963197,0,0,-9.962899,76.43762,76.2639)" fill="#ff0000"/>
<use data-text="[" xlink:href="#font_3_1" transform="matrix(9.963197,0,0,-9.962899,86.954257,62.215478)" fill="#ff0000"/>
<use data-text="1" xlink:href="#font_2_2" transform="matrix(9.963197,0,0,-9.962899,92.21257,70.18672)" fill="#ff0000"/>
<use data-text="0" xlink:href="#font_2_1" transform="matrix(9.963197,0,0,-9.962899,92.21257,82.142078)" fill="#ff0000"/>
<use data-text="]" xlink:href="#font_3_2" transform="matrix(9.963197,0,0,-9.962899,97.19487,62.215478)" fill="#ff0000"/>
<path transform="matrix(1.00006,0,0,-1.00003,38.319337,57.998353)" stroke-width=".99628" stroke-linecap="butt" stroke-miterlimit="10" stroke-linejoin="miter" fill="none" stroke="#0000ff" d="M0 0V25.4576"/>
<path transform="matrix(0,-1.00003,-1.00006,-0,38.319337,32.539987)" d="M2.8892 0-1.73352 2.31136 0 0-1.73352-2.31136" fill="#0000ff"/>
<use data-text="j" xlink:href="#font_1_2" transform="matrix(9.963197,0,0,-9.962899,2.2161713,16.3671)" fill="#0000ff"/>
<use data-text="=" xlink:href="#font_2_3" transform="matrix(9.963197,0,0,-9.962899,8.485542,16.3671)" fill="#0000ff"/>
<use data-text="[" xlink:href="#font_3_1" transform="matrix(9.963197,0,0,-9.962899,19.00219,2.318678)" fill="#0000ff"/>
<use data-text="0" xlink:href="#font_2_1" transform="matrix(9.963197,0,0,-9.962899,24.26049,10.289921)" fill="#0000ff"/>
<use data-text="1" xlink:href="#font_2_2" transform="matrix(9.963197,0,0,-9.962899,24.26049,22.245278)" fill="#0000ff"/>
<use data-text="]" xlink:href="#font_3_2" transform="matrix(9.963197,0,0,-9.962899,29.241799,2.318676)" fill="#0000ff"/>
</svg>
