<svg xmlns="http://www.w3.org/2000/svg" xmlns:xlink="http://www.w3.org/1999/xlink" xmlns:inkscape="http://www.inkscape.org/namespaces/inkscape" version="1.1" width="246" height="230" viewBox="0 0 246 230">
<defs>
<path id="font_1_1" d="M.25-2.3587189H.5130005V-2.303711H.30499269V-.0146484379H.5130005V.04034424H.25V-2.3587189Z"/>
<path id="font_2_2" d="M.2939911 .64004519C.2939911 .66400149 .2939911 .6660156 .2709961 .6660156 .20899964 .60227969 .12098694 .60227969 .08898926 .60227969V.57128909C.10899353 .57128909 .16799927 .57128909 .21998596 .5972748V.07902527C.21998596 .042999269 .21699524 .0309906 .1269989 .0309906H.09498596V0C.12998963 .0029907227 .21699524 .0029907227 .25698854 .0029907227 .29699708 .0029907227 .38398744 .0029907227 .4189911 0V.0309906H.3869934C.29699708 .0309906 .2939911 .041992189 .2939911 .07902527V.64004519Z"/>
<path id="font_2_1" d="M.45999146 .31976319C.45999146 .39982606 .45498658 .47988893 .41999818 .5539398 .37399293 .65000918 .2919922 .6660156 .25 .6660156 .18998719 .6660156 .116989139 .64001467 .07598877 .54693606 .04399109 .47789 .038986207 .39982606 .038986207 .31976319 .038986207 .24472046 .042999269 .15464783 .083999637 .07859802 .1269989-.0024719239 .19999695-.022460938 .24899292-.022460938 .30299378-.022460938 .3789978-.0014648438 .4229889 .09359741 .45498658 .16265869 .45999146 .2407074 .45999146 .31976319M.24899292-.00047302247C.20999146-.00047302247 .15098572 .024551392 .1329956 .12062073 .12199402 .18066406 .12199402 .2727356 .12199402 .3317871 .12199402 .39582826 .12199402 .46188355 .12998963 .5159149 .14898682 .63500979 .22399903 .64401248 .24899292 .64401248 .28199769 .64401248 .34799195 .6259918 .36698915 .52693179 .3769989 .47088624 .3769989 .39482118 .3769989 .3317871 .3769989 .25672914 .3769989 .18867493 .3659973 .12461853 .35099793 .029556275 .2939911-.00047302247 .24899292-.00047302247Z"/>
<path id="font_1_2" d="M.22200012-2.303711H.01399231V-2.3587189H.2769928V.04034424H.01399231V-.0146484379H.22200012V-2.303711Z"/>
<path id="font_3_1" d="M.34599305 .2461853 .46299745 .37631227C.47599793 .39031983 .48199464 .3973236 .5649872 .3973236V.44433595C.5299988 .44232179 .47799684 .44132997 .47299195 .44132997 .44799806 .44132997 .397995 .44332887 .36999513 .44433595V.3973236C.38398744 .3973236 .3959961 .3953247 .4079895 .38832093 .4039917 .38230897 .4039917 .38031007 .3999939 .37631227L.31599427 .2822113 .21798706 .3973236H.2579956V.44433595C.23199463 .44332887 .16899109 .44132997 .13699341 .44132997 .10499573 .44132997 .05999756 .44332887 .026992798 .44433595V.3973236H.09799194L.2539978 .21315003 .12298584 .06600952C.10598755 .04699707 .069992069 .04699707 .021987915 .04699707V0C.056991579 .0019989014 .10899353 .0029907227 .11399841 .0029907227 .13899231 .0029907227 .19699097 .0009918213 .21699524 0V.04699707C.19898987 .04699707 .17999268 .052001954 .17999268 .057998659 .17999268 .059005739 .17999268 .05999756 .18699646 .06800842L.28399659 .17712403 .3939972 .04699707H.35499574V0C.3809967 .0009918213 .44198609 .0029907227 .47499085 .0029907227 .5069885 .0029907227 .5519867 .0009918213 .58499148 0V.04699707H.5139923L.34599305 .2461853Z"/>
<path id="font_2_3" d="M.68699648 .32714845C.70199587 .32714845 .72099307 .32714845 .72099307 .34713746 .72099307 .36714173 .70199587 .36714173 .6879883 .36714173H.08898926C.07499695 .36714173 .055999757 .36714173 .055999757 .34713746 .055999757 .32714845 .07499695 .32714845 .08999634 .32714845H.68699648M.6879883 .13284302C.70199587 .13284302 .72099307 .13284302 .72099307 .15284729 .72099307 .17285156 .70199587 .17285156 .68699648 .17285156H.08999634C.07499695 .17285156 .055999757 .17285156 .055999757 .15284729 .055999757 .13284302 .07499695 .13284302 .08898926 .13284302H.6879883Z"/>
<path id="font_4_1" d="M.33399964 .30233766C.33999635 .32835389 .36299134 .42037965 .43299867 .42037965 .43798829 .42037965 .46199037 .42037965 .48298646 .40734864 .45498658 .402359 .43499757 .37734986 .43499757 .35334779 .43499757 .33735658 .44599916 .31835938 .47299195 .31835938 .49499513 .31835938 .5269928 .3363495 .5269928 .37635804 .5269928 .42837525 .46798707 .4423828 .43399049 .4423828 .37599183 .4423828 .34098817 .38935853 .32899476 .36634828 .3039856 .43237306 .25 .4423828 .22099304 .4423828 .116989139 .4423828 .05999756 .3133545 .05999756 .28834535 .05999756 .27833558 .069992069 .27833558 .07199097 .27833558 .07998657 .27833558 .08299255 .28033448 .084991458 .28933717 .11898804 .39535523 .18499756 .42037965 .21899414 .42037965 .23799134 .42037965 .272995 .4113617 .272995 .35334779 .272995 .32235719 .2559967 .25532533 .21899414 .11528015 .20298767 .053268434 .16799927 .011245728 .12399292 .011245728 .117996219 .011245728 .09498596 .011245728 .07398987 .024276734 .09899902 .029266358 .12098694 .05027771 .12098694 .07827759 .12098694 .105270389 .09899902 .11328125 .083999637 .11328125 .053985597 .11328125 .0289917 .08728027 .0289917 .055267335 .0289917 .009246826 .07899475-.0107421879 .12298584-.0107421879 .18899536-.0107421879 .22499085 .059280397 .22799683 .0652771 .23999024 .028274537 .27598573-.0107421879 .33599855-.0107421879 .43899537-.0107421879 .49598695 .118270877 .49598695 .14328003 .49598695 .1532898 .4869995 .1532898 .48399354 .1532898 .47499085 .1532898 .47299195 .14929199 .47099305 .14228821 .43798829 .03527832 .36999513 .011245728 .33799745 .011245728 .29899598 .011245728 .2829895 .043273927 .2829895 .07727051 .2829895 .09927368 .2889862 .121276859 .2999878 .16529846L.33399964 .30233766Z"/>
<path id="font_5_1" d="M.33499146 .63612368C.33499146 .6630554 .33299256 .6640625 .30499269 .6640625 .24099732 .6014404 .1499939 .6004486 .10899353 .6004486V.5644531C.1329956 .5644531 .19898987 .5644531 .2539978 .592453V.08203125C.2539978 .04899597 .2539978 .035995485 .1539917 .035995485H.115997318V0C.13398743 .0009918213 .25698854 .0039978029 .2939911 .0039978029 .32499696 .0039978029 .45098878 .0009918213 .47299195 0V.035995485H.43499757C.33499146 .035995485 .33499146 .04899597 .33499146 .08203125V.63612368Z"/>
<path id="font_5_2" d="M.5049896 .18203736H.47099305C.46798707 .16001892 .45799256 .100997928 .44499208 .09098816 .43699647 .084991458 .3600006 .084991458 .34599305 .084991458H.1619873C.2669983 .17803955 .3019867 .20603943 .3619995 .25306703 .43598939 .312088 .5049896 .374115 .5049896 .46914674 .5049896 .5900879 .39898683 .6640625 .2709961 .6640625 .14698792 .6640625 .06298828 .57710269 .06298828 .4851532 .06298828 .43414308 .10598755 .42915345 .115997318 .42915345 .13999939 .42915345 .16899109 .44615174 .16899109 .48214723 .16899109 .5001526 .1619873 .53515627 .10998535 .53515627 .14099121 .6060791 .20899964 .62805178 .2559967 .62805178 .35598756 .62805178 .4079895 .5501404 .4079895 .46914674 .4079895 .38212586 .34599305 .3130951 .31399537 .27708436L.07299805 .038986207C.06298828 .02999878 .06298828 .027999878 .06298828 0H.47499085L.5049896 .18203736Z"/>
</defs>
<path transform="matrix(1.00005,0,0,-1.00002,114.48781,115.18599)" stroke-width=".3985" stroke-linecap="butt" stroke-miterlimit="10" stroke-linejoin="miter" fill="none" stroke="#000000" d="M-112.98872 0H112.98872"/>
<path transform="matrix(-1.00005,-0,0,1.00002,1.2941818,115.18599)" stroke-width=".3985" stroke-linecap="round" stroke-linejoin="round" fill="none" stroke="#000000" d="M-2.07224 2.39104C-1.69365 .95639-.84999 .27895 0 0-.84999-.27895-1.69365-.95639-2.07224-2.39104"/>
<path transform="matrix(1.00005,0,0,-1.00002,227.68143,115.18599)" stroke-width=".3985" stroke-linecap="round" stroke-linejoin="round" fill="none" stroke="#000000" d="M-2.07224 2.39104C-1.69365 .95639-.84999 .27895 0 0-.84999-.27895-1.69365-.95639-2.07224-2.39104"/>
<path transform="matrix(1.00005,0,0,-1.00002,114.48781,115.18599)" stroke-width=".3985" stroke-linecap="butt" stroke-miterlimit="10" stroke-linejoin="miter" fill="none" stroke="#000000" d="M0-112.98872V112.98872"/>
<path transform="matrix(0,1.00002,1.00005,0,114.48781,228.37622)" stroke-width=".3985" stroke-linecap="round" stroke-linejoin="round" fill="none" stroke="#000000" d="M-2.07224 2.39104C-1.69365 .95639-.84999 .27895 0 0-.84999-.27895-1.69365-.95639-2.07224-2.39104"/>
<path transform="matrix(0,-1.00002,-1.00005,-0,114.48781,1.9957504)" stroke-width=".3985" stroke-linecap="round" stroke-linejoin="round" fill="none" stroke="#000000" d="M-2.07224 2.39104C-1.69365 .95639-.84999 .27895 0 0-.84999-.27895-1.69365-.95639-2.07224-2.39104"/>
<path transform="matrix(1.00005,0,0,-1.00002,114.48781,115.18599)" stroke-width=".99628" stroke-linecap="butt" stroke-miterlimit="10" stroke-linejoin="miter" fill="none" stroke="#0000ff" d="M0 0V25.4576"/>
<path transform="matrix(0,-1.00002,-1.00005,-0,114.48781,89.72788)" d="M2.8892 0-1.73352 2.31136 0 0-1.73352-2.31136" fill="#0000ff"/>
<path transform="matrix(1.00005,0,0,-1.00002,114.48781,115.18599)" stroke-width=".99628" stroke-linecap="butt" stroke-miterlimit="10" stroke-linejoin="miter" fill="none" stroke="#0000ff" d="M0 0V53.8044"/>
<path transform="matrix(0,-1.00002,-1.00005,-0,114.48781,61.380514)" d="M2.8892 0-1.73352 2.31136 0 0-1.73352-2.31136" fill="#0000ff"/>
<path transform="matrix(1.00005,0,0,-1.00002,114.48781,115.18599)" stroke-width=".99628" stroke-linecap="butt" stroke-miterlimit="10" stroke-linejoin="miter" fill="none" stroke="#0000ff" d="M0 0V82.15121"/>
<path transform="matrix(0,-1.00002,-1.00005,-0,114.48781,33.033136)" d="M2.8892 0-1.73352 2.31136 0 0-1.73352-2.31136" fill="#0000ff"/>
<path transform="matrix(1.00005,0,0,-1.00002,114.48781,115.18599)" stroke-width=".99628" stroke-linecap="butt" stroke-miterlimit="10" stroke-linejoin="miter" fill="none" stroke="#0000ff" d="M0 0V-25.4576"/>
<path transform="matrix(0,1.00002,1.00005,0,114.48781,140.6441)" d="M2.8892 0-1.73352 2.31136 0 0-1.73352-2.31136" fill="#0000ff"/>
<path transform="matrix(1.00005,0,0,-1.00002,114.48781,115.18599)" stroke-width=".99628" stroke-linecap="butt" stroke-miterlimit="10" stroke-linejoin="miter" fill="none" stroke="#0000ff" d="M0 0V-53.8044"/>
<path transform="matrix(0,1.00002,1.00005,0,114.48781,168.99147)" d="M2.8892 0-1.73352 2.31136 0 0-1.73352-2.31136" fill="#0000ff"/>
<path transform="matrix(1.00005,0,0,-1.00002,114.48781,115.18599)" stroke-width=".99628" stroke-linecap="butt" stroke-miterlimit="10" stroke-linejoin="miter" fill="none" stroke="#0000ff" d="M0 0V-82.15121"/>
<path transform="matrix(0,1.00002,1.00005,0,114.48781,197.33884)" d="M2.8892 0-1.73352 2.31136 0 0-1.73352-2.31136" fill="#0000ff"/>
<path transform="matrix(1.00005,0,0,-1.00002,114.48781,115.18599)" stroke-width=".49814" stroke-linecap="butt" stroke-dasharray="2.98883,2.98883" stroke-miterlimit="10" stroke-linejoin="miter" fill="none" stroke="#000000" d="M48.38802 48.38802V0"/>
<path transform="matrix(1.00005,0,0,-1.00002,114.48781,115.18599)" stroke-width="5.97766" stroke-linecap="butt" stroke-miterlimit="10" stroke-linejoin="miter" fill="none" stroke="#b2b3b2" d="M0 0H38.02664"/>
<path transform="matrix(1.00005,0,0,-1.00002,152.51636,115.18599)" d="M10.36136 0-6.21681 8.28908 0 0-6.21681-8.28908" fill="#b2b3b2"/>
<path transform="matrix(1.00005,0,0,-1.00002,114.48781,115.18599)" stroke-width="1.99255" stroke-linecap="butt" stroke-miterlimit="10" stroke-linejoin="miter" fill="none" stroke="#000000" d="M0 0 45.28831 45.28831"/>
<path transform="matrix(.7071353,-.70711418,-.7071353,-.70711418,159.77837,69.89678)" d="M4.38364 0-2.63017 3.50691 0 0-2.63017-3.50691"/>
<path transform="matrix(1.00005,0,0,-1.00002,114.48781,115.18599)" stroke-width=".49814" stroke-linecap="butt" stroke-dasharray="2.98883,2.98883" stroke-miterlimit="10" stroke-linejoin="miter" fill="none" stroke="#000000" d="M-70.867-28.3468V0"/>
<path transform="matrix(1.00005,0,0,-1.00002,114.48781,115.18599)" stroke-width="5.97766" stroke-linecap="butt" stroke-miterlimit="10" stroke-linejoin="miter" fill="none" stroke="#b2b3b2" d="M0 0H-60.50565"/>
<path transform="matrix(-1.00005,-0,0,1.00002,53.979139,115.18599)" d="M10.36136 0-6.21681 8.28908 0 0-6.21681-8.28908" fill="#b2b3b2"/>
<path transform="matrix(1.00005,0,0,-1.00002,114.48781,115.18599)" stroke-width="1.99255" stroke-linecap="butt" stroke-miterlimit="10" stroke-linejoin="miter" fill="none" stroke="#000000" d="M0 0-66.79709-26.71887"/>
<path transform="matrix(-.92848637,.37137745,.37138853,.9284586,47.6874,141.90538)" d="M4.38364 0-2.63017 3.50691 0 0-2.63017-3.50691"/>
<path transform="matrix(1.00005,0,0,-1.00002,114.48781,115.18599)" stroke-width=".99628" stroke-linecap="butt" stroke-miterlimit="10" stroke-linejoin="miter" fill="none" stroke="#ff0000" d="M0 0H-82.15121"/>
<path transform="matrix(-1.00005,-0,0,1.00002,32.332498,115.18599)" d="M2.8892 0-1.73352 2.31136 0 0-1.73352-2.31136" fill="#ff0000"/>
<path transform="matrix(1.00005,0,0,-1.00002,114.48781,115.18599)" stroke-width=".99628" stroke-linecap="butt" stroke-miterlimit="10" stroke-linejoin="miter" fill="none" stroke="#ff0000" d="M0 0H-53.8044"/>
<path transform="matrix(-1.00005,-0,0,1.00002,60.680719,115.18599)" d="M2.8892 0-1.73352 2.31136 0 0-1.73352-2.31136" fill="#ff0000"/>
<path transform="matrix(1.00005,0,0,-1.00002,114.48781,115.18599)" stroke-width=".99628" stroke-linecap="butt" stroke-miterlimit="10" stroke-linejoin="miter" fill="none" stroke="#ff0000" d="M0 0H-25.4576"/>
<path transform="matrix(-1.00005,-0,0,1.00002,89.02894,115.18599)" d="M2.8892 0-1.73352 2.31136 0 0-1.73352-2.31136" fill="#ff0000"/>
<path transform="matrix(1.00005,0,0,-1.00002,114.48781,115.18599)" stroke-width=".99628" stroke-linecap="butt" stroke-miterlimit="10" stroke-linejoin="miter" fill="none" stroke="#ff0000" d="M0 0H82.15121"/>
<path transform="matrix(1.00005,0,0,-1.00002,196.64313,115.18599)" d="M2.8892 0-1.73352 2.31136 0 0-1.73352-2.31136" fill="#ff0000"/>
<path transform="matrix(1.00005,0,0,-1.00002,114.48781,115.18599)" stroke-width=".99628" stroke-linecap="butt" stroke-miterlimit="10" stroke-linejoin="miter" fill="none" stroke="#ff0000" d="M0 0H53.8044"/>
<path transform="matrix(1.00005,0,0,-1.00002,168.29489,115.18599)" d="M2.8892 0-1.73352 2.31136 0 0-1.73352-2.31136" fill="#ff0000"/>
<path transform="matrix(1.00005,0,0,-1.00002,114.48781,115.18599)" stroke-width=".99628" stroke-linecap="butt" stroke-miterlimit="10" stroke-linejoin="miter" fill="none" stroke="#ff0000" d="M0 0H25.4576"/>
<path transform="matrix(1.00005,0,0,-1.00002,139.94669,115.18599)" d="M2.8892 0-1.73352 2.31136 0 0-1.73352-2.31136" fill="#ff0000"/>
<use data-text="[" xlink:href="#font_1_1" transform="matrix(9.963098,0,0,-9.962799,182.47422,83.786357)" fill="#ff0000"/>
<use data-text="1" xlink:href="#font_2_2" transform="matrix(9.963098,0,0,-9.962799,187.73246,91.756519)" fill="#ff0000"/>
<use data-text="0" xlink:href="#font_2_1" transform="matrix(9.963098,0,0,-9.962799,202.66715,91.756519)" fill="#ff0000"/>
<use data-text="0" xlink:href="#font_2_1" transform="matrix(9.963098,0,0,-9.962799,187.73246,103.71176)" fill="#ff0000"/>
<use data-text="0" xlink:href="#font_2_1" transform="matrix(9.963098,0,0,-9.962799,202.66715,103.71176)" fill="#ff0000"/>
<use data-text="]" xlink:href="#font_1_2" transform="matrix(9.963098,0,0,-9.962799,207.65848,83.78636)" fill="#ff0000"/>
<use data-text="x" xlink:href="#font_3_1" transform="matrix(9.963098,0,0,-9.962799,214.57782,97.83364)" fill="#ff0000"/>
<use data-text="=" xlink:href="#font_2_3" transform="matrix(9.963098,0,0,-9.962799,223.39225,97.83364)" fill="#ff0000"/>
<use data-text="1" xlink:href="#font_2_2" transform="matrix(9.963098,0,0,-9.962799,233.89334,97.83364)" fill="#ff0000"/>
<use data-text="x" xlink:href="#font_3_1" transform="matrix(9.963098,0,0,-9.962799,238.89002,97.83364)" fill="#ff0000"/>
<use data-text="[" xlink:href="#font_1_1" transform="matrix(9.963098,0,0,-9.962799,117.27395,18.587044)" fill="#0000ff"/>
<use data-text="1" xlink:href="#font_2_2" transform="matrix(9.963098,0,0,-9.962799,122.5322,26.557206)" fill="#0000ff"/>
<use data-text="0" xlink:href="#font_2_1" transform="matrix(9.963098,0,0,-9.962799,137.46689,26.557206)" fill="#0000ff"/>
<use data-text="0" xlink:href="#font_2_1" transform="matrix(9.963098,0,0,-9.962799,122.5322,38.51245)" fill="#0000ff"/>
<use data-text="0" xlink:href="#font_2_1" transform="matrix(9.963098,0,0,-9.962799,137.46689,38.51245)" fill="#0000ff"/>
<use data-text="]" xlink:href="#font_1_2" transform="matrix(9.963098,0,0,-9.962799,142.45822,18.587052)" fill="#0000ff"/>
<use data-text="x" xlink:href="#font_3_1" transform="matrix(9.963098,0,0,-9.962799,149.37757,32.63433)" fill="#0000ff"/>
<use data-text="=" xlink:href="#font_2_3" transform="matrix(9.963098,0,0,-9.962799,158.19199,32.63433)" fill="#0000ff"/>
<use data-text="0" xlink:href="#font_2_1" transform="matrix(9.963098,0,0,-9.962799,168.69309,32.63433)" fill="#0000ff"/>
<use data-text="x" xlink:href="#font_3_1" transform="matrix(9.963098,0,0,-9.962799,173.68976,32.63433)" fill="#0000ff"/>
<use data-text="[" xlink:href="#font_1_1" transform="matrix(9.963098,0,0,-9.962799,133.47876,131.97632)"/>
<use data-text="1" xlink:href="#font_2_2" transform="matrix(9.963098,0,0,-9.962799,138.73702,139.94647)"/>
<use data-text="0" xlink:href="#font_2_1" transform="matrix(9.963098,0,0,-9.962799,153.67169,139.94647)"/>
<use data-text="0" xlink:href="#font_2_1" transform="matrix(9.963098,0,0,-9.962799,138.73702,151.90174)"/>
<use data-text="0" xlink:href="#font_2_1" transform="matrix(9.963098,0,0,-9.962799,153.67169,151.90174)"/>
<use data-text="]" xlink:href="#font_1_2" transform="matrix(9.963098,0,0,-9.962799,158.66303,131.97632)"/>
<use data-text="[" xlink:href="#font_1_1" transform="matrix(9.963098,0,0,-9.962799,165.56745,131.97632)"/>
<use data-text="x" xlink:href="#font_4_1" transform="matrix(9.963098,0,0,-9.962799,170.84062,139.94649)"/>
<use data-text="1" xlink:href="#font_5_1" transform="matrix(6.9741489,0,0,-6.97394,176.53491,141.44153)"/>
<use data-text="x" xlink:href="#font_4_1" transform="matrix(9.963098,0,0,-9.962799,170.84062,151.90174)"/>
<use data-text="2" xlink:href="#font_5_2" transform="matrix(6.9741489,0,0,-6.97394,176.53491,153.39676)"/>
<use data-text="]" xlink:href="#font_1_2" transform="matrix(9.963098,0,0,-9.962799,181.00414,131.97634)"/>
<use data-text="=" xlink:href="#font_2_3" transform="matrix(9.963098,0,0,-9.962799,189.02953,146.02362)"/>
<use data-text="[" xlink:href="#font_1_1" transform="matrix(9.963098,0,0,-9.962799,199.54607,131.97634)"/>
<use data-text="x" xlink:href="#font_4_1" transform="matrix(9.963098,0,0,-9.962799,204.8043,139.9465)"/>
<use data-text="1" xlink:href="#font_5_1" transform="matrix(6.9741489,0,0,-6.97394,210.49861,141.44153)"/>
<use data-text="0" xlink:href="#font_2_1" transform="matrix(9.963098,0,0,-9.962799,207.39546,151.90174)"/>
<use data-text="]" xlink:href="#font_1_2" transform="matrix(9.963098,0,0,-9.962799,214.96883,131.97635)"/>
</svg>
