<svg xmlns="http://www.w3.org/2000/svg" xmlns:xlink="http://www.w3.org/1999/xlink" xmlns:inkscape="http://www.inkscape.org/namespaces/inkscape" version="1.1" width="182" height="51" viewBox="0 0 182 51">
<defs>
<path id="font_1_3" d="M.1269989 .07699585 .23298645 .18003845C.3889923 .31811524 .44898988 .3721466 .44898988 .47216798 .44898988 .5860901 .35899354 .6660156 .23699951 .6660156 .12399292 .6660156 .049987794 .57411196 .049987794 .48516847 .049987794 .4291687 .099990848 .4291687 .102996829 .4291687 .11999512 .4291687 .15499878 .44117738 .15499878 .48217774 .15499878 .5081787 .13699341 .5341797 .101989749 .5341797 .09399414 .5341797 .09199524 .5341797 .08898926 .5331726 .11199951 .59806826 .1659851 .63500979 .22399903 .63500979 .31498719 .63500979 .35798646 .5541382 .35798646 .47216798 .35798646 .39215089 .30799867 .31311036 .25299073 .25108338L.06098938 .036987306C.049987794 .025985718 .049987794 .023986817 .049987794 0H.42099L.44898988 .17404175H.42399598C.4189911 .14402771 .4119873 .1000061 .4019928 .084991458 .394989 .07699585 .32899476 .07699585 .30699159 .07699585H.1269989Z"/>
<path id="font_2_1" d="M.6589966 .23046875C.6759949 .23046875 .69400027 .23046875 .69400027 .25045777 .69400027 .27046205 .6759949 .27046205 .6589966 .27046205H.117996219C.100997928 .27046205 .08299255 .27046205 .08299255 .25045777 .08299255 .23046875 .100997928 .23046875 .117996219 .23046875H.6589966Z"/>
<path id="font_1_2" d="M.2939911 .64004519C.2939911 .66400149 .2939911 .6660156 .2709961 .6660156 .20899964 .60227969 .12098694 .60227969 .08898926 .60227969V.57128909C.10899353 .57128909 .16799927 .57128909 .21998596 .5972748V.07902527C.21998596 .042999269 .21699524 .0309906 .1269989 .0309906H.09498596V0C.12998963 .0029907227 .21699524 .0029907227 .25698854 .0029907227 .29699708 .0029907227 .38398744 .0029907227 .4189911 0V.0309906H.3869934C.29699708 .0309906 .2939911 .041992189 .2939911 .07902527V.64004519Z"/>
<path id="font_1_4" d="M.2899933 .35191346C.37199403 .37893678 .42999269 .4490509 .42999269 .52809146 .42999269 .6100464 .34199525 .6660156 .24598694 .6660156 .14498902 .6660156 .068984989 .60606387 .068984989 .53009036 .068984989 .49710084 .09098816 .47808839 .11999512 .47808839 .15098572 .47808839 .17098999 .50009158 .17098999 .5290985 .17098999 .57910159 .12399292 .57910159 .10899353 .57910159 .13999939 .62802127 .20599365 .64100649 .24198914 .64100649 .2829895 .64100649 .33799745 .6190338 .33799745 .5290985 .33799745 .51708987 .33599855 .45906068 .30999757 .4149933 .27999879 .36691285 .24598694 .36390687 .22099304 .36291505 .21299744 .36190797 .18899536 .35990907 .18199158 .35990907 .17399597 .35890199 .16699219 .35791017 .16699219 .3479004 .16699219 .33691407 .17399597 .33691407 .19099427 .33691407H.23498535C.31698609 .33691407 .35398866 .2686615 .35398866 .17037964 .35398866 .034469606 .2849884 .0055389406 .24099732 .0055389406 .19799805 .0055389406 .12298584 .022491456 .08799744 .08137512 .12298584 .07637024 .1539917 .09837341 .1539917 .1363678 .1539917 .17237854 .1269989 .19238281 .09799194 .19238281 .07398987 .19238281 .041992189 .17837525 .041992189 .1343689 .041992189 .043441774 .1349945-.022460938 .24398804-.022460938 .3659973-.022460938 .45700074 .06838989 .45700074 .17037964 .45700074 .252594 .3939972 .33088685 .2899933 .35191346Z"/>
<path id="font_3_1" d="M.32598878-1.7597656H.394989V-.029937745H.6589966V.0390625H.32598878V-1.7597656Z"/>
<path id="font_3_5" d="M.32598878-.60058596H.394989V.0014343262H.32598878V-.60058596Z"/>
<path id="font_3_3" d="M.32598878-1.7587891H.6589966V-1.6898041H.394989V.040039064H.32598878V-1.7587891Z"/>
<path id="font_3_2" d="M.2709961-1.7597656H.33999635V.0390625H.0069885256V-.029937745H.2709961V-1.7597656Z"/>
<path id="font_3_6" d="M.2709961-.60058596H.33999635V.0014343262H.2709961V-.60058596Z"/>
<path id="font_3_4" d="M.2709961-1.6898041H.0069885256V-1.7587891H.33999635V.040039064H.2709961V-1.6898041Z"/>
<path id="font_4_1" d="M.18899536 .34246827C.1769867 .3534546 .17098999 .3534546 .16799927 .3534546 .16099549 .3534546 .15899658 .3534546 .13899231 .3344574L.070999149 .27445985C.05899048 .26345826 .054992677 .25946046 .054992677 .25045777 .054992677 .23945618 .06498718 .23046875 .07499695 .23046875 .08099365 .23046875 .08299255 .23046875 .099990848 .24645996 .12098694 .26446534 .14099121 .28445436 .16799927 .30645753L.30499269 .1824646C.30699159 .18145752 .32499696 .16546631 .32998658 .1614685 .34399415 .14746094 .34599305 .14746094 .35299684 .14746094 .3600006 .14746094 .3619995 .14746094 .38398744 .16746521L.46299745 .23846436 .5379944 .30645753 .6119995 .24046326C.6230011 .23046875 .625 .23046875 .6459961 .23046875H.8619995C.8529968 .22245789 .79599 .17346192 .7609863 .083465579H.7919922C.8089905 .12945557 .84799197 .20045471 .94200137 .25045777 .84799197 .3014679 .80799868 .37246705 .7919922 .4174652H.7609863C.79599 .32746888 .8529968 .27845765 .8619995 .27046205H.6380005C.598999 .30645753 .58799746 .3174591 .5649872 .33746339 .5469971 .3534546 .54499819 .3534546 .5379944 .3534546 .5309906 .3534546 .5289917 .3514557 .5179901 .34246827 .5149994 .3404541 .375 .2134552 .35299684 .19445801L.18899536 .34246827Z"/>
<path id="font_1_1" d="M.45999146 .31976319C.45999146 .39982606 .45498658 .47988893 .41999818 .5539398 .37399293 .65000918 .2919922 .6660156 .25 .6660156 .18998719 .6660156 .116989139 .64001467 .07598877 .54693606 .04399109 .47789 .038986207 .39982606 .038986207 .31976319 .038986207 .24472046 .042999269 .15464783 .083999637 .07859802 .1269989-.0024719239 .19999695-.022460938 .24899292-.022460938 .30299378-.022460938 .3789978-.0014648438 .4229889 .09359741 .45498658 .16265869 .45999146 .2407074 .45999146 .31976319M.24899292-.00047302247C.20999146-.00047302247 .15098572 .024551392 .1329956 .12062073 .12199402 .18066406 .12199402 .2727356 .12199402 .3317871 .12199402 .39582826 .12199402 .46188355 .12998963 .5159149 .14898682 .63500979 .22399903 .64401248 .24899292 .64401248 .28199769 .64401248 .34799195 .6259918 .36698915 .52693179 .3769989 .47088624 .3769989 .39482118 .3769989 .3317871 .3769989 .25672914 .3769989 .18867493 .3659973 .12461853 .35099793 .029556275 .2939911-.00047302247 .24899292-.00047302247Z"/>
</defs>
<use data-text="2" xlink:href="#font_1_3" transform="matrix(9.962899,0,0,-9.963098,12.574936,14.860943)"/>
<use data-text="&#x2212;" xlink:href="#font_2_1" transform="matrix(9.962899,0,0,-9.963098,24.19728,14.860943)"/>
<use data-text="1" xlink:href="#font_1_2" transform="matrix(9.962899,0,0,-9.963098,31.946503,14.860943)"/>
<use data-text="3" xlink:href="#font_1_4" transform="matrix(9.962899,0,0,-9.963098,47.44397,14.860943)"/>
<use data-text="1" xlink:href="#font_1_2" transform="matrix(9.962899,0,0,-9.963098,66.81555,14.860943)"/>
<use data-text="1" xlink:href="#font_1_2" transform="matrix(9.962899,0,0,-9.963098,12.574936,28.753638)"/>
<use data-text="&#x2212;" xlink:href="#font_2_1" transform="matrix(9.962899,0,0,-9.963098,24.19728,28.753638)"/>
<use data-text="1" xlink:href="#font_1_2" transform="matrix(9.962899,0,0,-9.963098,31.946503,28.753638)"/>
<use data-text="2" xlink:href="#font_1_3" transform="matrix(9.962899,0,0,-9.963098,47.44397,28.753638)"/>
<use data-text="2" xlink:href="#font_1_3" transform="matrix(9.962899,0,0,-9.963098,66.81555,28.753638)"/>
<use data-text="1" xlink:href="#font_1_2" transform="matrix(9.962899,0,0,-9.963098,12.574936,42.645334)"/>
<use data-text="3" xlink:href="#font_1_4" transform="matrix(9.962899,0,0,-9.963098,28.071396,42.645334)"/>
<use data-text="&#x2212;" xlink:href="#font_2_1" transform="matrix(9.962899,0,0,-9.963098,43.569856,42.645334)"/>
<use data-text="2" xlink:href="#font_1_3" transform="matrix(9.962899,0,0,-9.963098,51.3181,42.645334)"/>
<use data-text="&#x2212;" xlink:href="#font_2_1" transform="matrix(9.962899,0,0,-9.963098,62.941438,42.645334)"/>
<use data-text="3" xlink:href="#font_1_4" transform="matrix(9.962899,0,0,-9.963098,70.68968,42.645334)"/>
<use data-text="&#xf8ee;" xlink:href="#font_3_1" transform="matrix(9.962899,0,0,-9.963098,-2.1025239,2.445324)"/>
<use data-text="&#xf8ef;" xlink:href="#font_3_5" transform="matrix(9.962899,0,0,-9.963098,-2.1025239,19.9802)"/>
<use data-text="&#xf8ef;" xlink:href="#font_3_5" transform="matrix(9.962899,0,0,-9.963098,-2.1025239,25.958498)"/>
<use data-text="&#xf8f0;" xlink:href="#font_3_3" transform="matrix(9.962899,0,0,-9.963098,-2.1025239,32.334817)"/>
<use data-text="&#xf8f9;" xlink:href="#font_3_2" transform="matrix(9.962899,0,0,-9.963098,83.70808,2.445324)"/>
<use data-text="&#xf8fa;" xlink:href="#font_3_6" transform="matrix(9.962899,0,0,-9.963098,83.70808,19.9802)"/>
<use data-text="&#xf8fa;" xlink:href="#font_3_6" transform="matrix(9.962899,0,0,-9.963098,83.70808,25.958498)"/>
<use data-text="&#xf8fb;" xlink:href="#font_3_4" transform="matrix(9.962899,0,0,-9.963098,83.70808,32.334817)"/>
<use data-text="&#x21dd;" xlink:href="#font_4_1" transform="matrix(9.962899,0,0,-9.963098,91.70532,27.840592)"/>
<use data-text="1" xlink:href="#font_1_2" transform="matrix(9.962899,0,0,-9.963098,121.0782,15.690985)"/>
<use data-text="0" xlink:href="#font_1_1" transform="matrix(9.962899,0,0,-9.963098,132.70055,15.690985)"/>
<use data-text="1" xlink:href="#font_1_2" transform="matrix(9.962899,0,0,-9.963098,148.19802,15.690985)"/>
<use data-text="0" xlink:href="#font_1_1" transform="matrix(9.962899,0,0,-9.963098,163.69548,15.690985)"/>
<use data-text="0" xlink:href="#font_1_1" transform="matrix(9.962899,0,0,-9.963098,121.0782,28.753638)"/>
<use data-text="1" xlink:href="#font_1_2" transform="matrix(9.962899,0,0,-9.963098,132.70055,28.753638)"/>
<use data-text="&#x2212;" xlink:href="#font_2_1" transform="matrix(9.962899,0,0,-9.963098,144.3239,28.753638)"/>
<use data-text="1" xlink:href="#font_1_2" transform="matrix(9.962899,0,0,-9.963098,152.07312,28.753638)"/>
<use data-text="0" xlink:href="#font_1_1" transform="matrix(9.962899,0,0,-9.963098,163.69548,28.753638)"/>
<use data-text="0" xlink:href="#font_1_1" transform="matrix(9.962899,0,0,-9.963098,121.0782,42.645334)"/>
<use data-text="0" xlink:href="#font_1_1" transform="matrix(9.962899,0,0,-9.963098,132.70055,42.645334)"/>
<use data-text="0" xlink:href="#font_1_1" transform="matrix(9.962899,0,0,-9.963098,148.19802,42.645334)"/>
<use data-text="1" xlink:href="#font_1_2" transform="matrix(9.962899,0,0,-9.963098,163.69548,42.645334)"/>
<use data-text="&#xf8ee;" xlink:href="#font_3_1" transform="matrix(9.962899,0,0,-9.963098,106.399738,2.061304)"/>
<use data-text="&#xf8ef;" xlink:href="#font_3_5" transform="matrix(9.962899,0,0,-9.963098,106.399738,19.59618)"/>
<use data-text="&#xf8ef;" xlink:href="#font_3_5" transform="matrix(9.962899,0,0,-9.963098,106.399738,25.574479)"/>
<use data-text="&#xf8f0;" xlink:href="#font_3_3" transform="matrix(9.962899,0,0,-9.963098,106.399738,31.950798)"/>
<use data-text="&#xf8f9;" xlink:href="#font_3_2" transform="matrix(9.962899,0,0,-9.963098,176.71288,2.061304)"/>
<use data-text="&#xf8fa;" xlink:href="#font_3_6" transform="matrix(9.962899,0,0,-9.963098,176.71288,19.59618)"/>
<use data-text="&#xf8fa;" xlink:href="#font_3_6" transform="matrix(9.962899,0,0,-9.963098,176.71288,25.574479)"/>
<use data-text="&#xf8fb;" xlink:href="#font_3_4" transform="matrix(9.962899,0,0,-9.963098,176.71288,31.950798)"/>
<path transform="matrix(1.00003,0,0,-1.00005,44.12387,25.957497)" stroke-width=".3985" stroke-linecap="butt" stroke-miterlimit="10" stroke-linejoin="miter" fill="none" stroke="#0000ff" d="M5.81125 21.03694V-21.03696"/>
<path transform="matrix(1.00003,0,0,-1.00005,44.12387,25.957497)" stroke-width=".3985" stroke-linecap="butt" stroke-miterlimit="10" stroke-linejoin="miter" fill="none" stroke="#0000ff" d="M106.56227 20.20673V-20.20673"/>
</svg>
