<svg xmlns="http://www.w3.org/2000/svg" xmlns:xlink="http://www.w3.org/1999/xlink" xmlns:inkscape="http://www.inkscape.org/namespaces/inkscape" version="1.1" width="202" height="163" viewBox="0 0 202 163">
<defs>
<path id="font_1_1" d="M.43798829 .072143558V-.005859375L.61499026 .0001373291V.0471344C.5529938 .0471344 .54599 .0471344 .54599 .086135867V.4501953L.36299134 .44218446V.39518739C.4249878 .39518739 .43199159 .39518739 .43199159 .3561859V.16514588C.43199159 .08314514 .3809967 .030136109 .30799867 .030136109 .23098755 .030136109 .22799683 .055130006 .22799683 .10914612V.4501953L.04499817 .44218446V.39518739C.10699463 .39518739 .11399841 .39518739 .11399841 .3561859V.12315369C.11399841 .01612854 .19499207-.005859375 .2939911-.005859375 .31999208-.005859375 .3919983-.005859375 .43798829 .072143558Z"/>
<path id="font_1_2" d="M.5059967 .37631227C.5119934 .39031983 .5159912 .3973236 .5799866 .3973236V.44433595C.5549927 .44232179 .526001 .44132997 .5009918 .44132997 .47599793 .44132997 .43099977 .44332887 .4099884 .44433595V.3973236C.42900086 .3973236 .45799256 .3943329 .45799256 .38632203 .45799256 .3853302 .45700074 .38331605 .45298768 .37431336L.33699037 .12416077 .20999146 .3973236H.2639923V.44433595C.23098755 .44232179 .14099121 .44132997 .13999939 .44132997 .11199951 .44132997 .066986087 .44332887 .025985718 .44433595V.3973236H.08999634L.2649994 .021087647C.2769928-.00390625 .2899933-.00390625 .30299378-.00390625 .31999208-.00390625 .32998658-.00091552737 .33999635 .020080567L.5059967 .37631227Z"/>
</defs>
<g>
<path transform="matrix(1.00005,0,0,-1.00002,1.8931885,160.5409)" d="M0 0 158.74143 79.37071 198.42679 158.74143 39.68535 79.37071Z" fill="#0000ff" fill-opacity=".3"/>
<path transform="matrix(1.00005,0,0,-1.00002,1.8931885,160.5409)" stroke-width=".3985" stroke-linecap="butt" stroke-miterlimit="10" stroke-linejoin="miter" fill="none" stroke="#0000ff" stroke-opacity=".3" d="M0 0 158.74143 79.37071 198.42679 158.74143 39.68535 79.37071Z"/>
</g>
<path transform="matrix(1.00005,0,0,-1.00002,1.8931885,160.5409)" stroke-width="1.99255" stroke-linecap="butt" stroke-miterlimit="10" stroke-linejoin="miter" fill="none" stroke="#ff0000" d="M0 0 154.82086 77.41046"/>
<path transform="matrix(.89440467,-.44717894,-.4471923,-.89437797,156.72179,83.12888)" d="M4.38364 0-2.63017 3.50691 0 0-2.63017-3.50691" fill="#ff0000"/>
<use data-text="u" xlink:href="#font_1_1" transform="matrix(9.963098,0,0,-9.962799,164.95934,89.91348)" fill="#ff0000"/>
<path transform="matrix(1.00005,0,0,-1.00002,1.8931885,160.5409)" stroke-width="1.99255" stroke-linecap="butt" stroke-miterlimit="10" stroke-linejoin="miter" fill="none" stroke="#0000ff" d="M0 0 37.7251 75.45015"/>
<path transform="matrix(.4471923,-.89437797,-.89440467,-.44717894,39.620176,85.08923)" d="M4.38364 0-2.63017 3.50691 0 0-2.63017-3.50691" fill="#0000ff"/>
<use data-text="v" xlink:href="#font_1_2" transform="matrix(9.963098,0,0,-9.962799,31.057648,76.85121)" fill="#0000ff"/>
</svg>
