<svg xmlns="http://www.w3.org/2000/svg" xmlns:xlink="http://www.w3.org/1999/xlink" xmlns:inkscape="http://www.inkscape.org/namespaces/inkscape" version="1.1" width="274" height="248" viewBox="0 0 274 248">
<defs>
<path id="font_1_2" d="M.5059967 .37631227C.5119934 .39031983 .5159912 .3973236 .5799866 .3973236V.44433595C.5549927 .44232179 .526001 .44132997 .5009918 .44132997 .47599793 .44132997 .43099977 .44332887 .4099884 .44433595V.3973236C.42900086 .3973236 .45799256 .3943329 .45799256 .38632203 .45799256 .3853302 .45700074 .38331605 .45298768 .37431336L.33699037 .12416077 .20999146 .3973236H.2639923V.44433595C.23098755 .44232179 .14099121 .44132997 .13999939 .44132997 .11199951 .44132997 .066986087 .44332887 .025985718 .44433595V.3973236H.08999634L.2649994 .021087647C.2769928-.00390625 .2899933-.00390625 .30299378-.00390625 .31999208-.00390625 .32998658-.00091552737 .33999635 .020080567L.5059967 .37631227Z"/>
<path id="font_1_1" d="M.43798829 .072143558V-.005859375L.61499026 .0001373291V.0471344C.5529938 .0471344 .54599 .0471344 .54599 .086135867V.4501953L.36299134 .44218446V.39518739C.4249878 .39518739 .43199159 .39518739 .43199159 .3561859V.16514588C.43199159 .08314514 .3809967 .030136109 .30799867 .030136109 .23098755 .030136109 .22799683 .055130006 .22799683 .10914612V.4501953L.04499817 .44218446V.39518739C.10699463 .39518739 .11399841 .39518739 .11399841 .3561859V.12315369C.11399841 .01612854 .19499207-.005859375 .2939911-.005859375 .31999208-.005859375 .3919983-.005859375 .43798829 .072143558Z"/>
<path id="font_1_3" d="M.7369995 .37631227C.74198916 .389328 .74598696 .3973236 .8049927 .3973236V.44433595C.7819977 .44232179 .7519989 .44132997 .7279968 .44132997 .70098879 .44132997 .6539917 .44332887 .6319885 .44433595V.3973236C.6409912 .3973236 .6899872 .3963318 .6899872 .3853302 .6899872 .38232423 .68699648 .37631227 .6859894 .37332154L.58099368 .11715698 .46699525 .3973236H.522995V.44433595C.4909973 .44332887 .43899537 .44132997 .40899659 .44132997 .36698915 .44132997 .32499696 .44332887 .30899049 .44433595V.3973236H.36799623C.3889923 .3473053 .3889923 .34529115 .3889923 .34429933 .3889923 .34028626 .38598634 .33428956 .3849945 .33128358L.30599977 .13916016 .20098877 .3973236H.25698854V.44433595C.21598816 .44232179 .1749878 .44132997 .13398743 .44132997 .102996829 .44132997 .05899048 .44332887 .024993897 .44433595V.3973236H.083999637L.23699951 .023086548C.24398804 .006088257 .24798584-.00390625 .272995-.00390625 .2979889-.00390625 .3019867 .006088257 .30899049 .023086548L.4149933 .28225709 .5209961 .023086548C.5279999 .006088257 .5319977-.00390625 .5569916-.00390625 .58200076-.00390625 .58599856 .006088257 .59298709 .023086548L.7369995 .37631227Z"/>
<path id="font_2_1" d="M.45498658 .5001831C.45498658 .56614688 .43699647 .7050781 .33499146 .7050781 .19599915 .7050781 .041992189 .42323304 .041992189 .19425965 .041992189 .100250247 .070999149-.0107421879 .1619873-.0107421879 .30299378-.0107421879 .45498658 .27627564 .45498658 .5001831M.147995 .36328126C.16499329 .42723084 .18499756 .5071869 .22499085 .57814028 .2519989 .6271057 .2889862 .68307498 .33399964 .68307498 .3829956 .68307498 .3889923 .6191101 .3889923 .56214907 .3889923 .5131836 .3809967 .46220399 .35699464 .36328126H.147995M.34799195 .3312683C.33699037 .28527833 .31599427 .2002716 .27799989 .12826538 .24299622 .060256959 .20498657 .011245728 .1619873 .011245728 .1289978 .011245728 .10798645 .040252687 .10798645 .133255 .10798645 .17526245 .11399841 .23326111 .13999939 .3312683H.34799195Z"/>
<path id="font_3_1" d="M.3889923 .27801515 .18899536 .47720338C.1769867 .48919679 .1749878 .49121095 .16699219 .49121095 .15699768 .49121095 .14698792 .48220826 .14698792 .47120667 .14698792 .46420289 .14898682 .46218873 .1599884 .45118714L.3600006 .24998474 .1599884 .048797609C.14898682 .03779602 .14698792 .03578186 .14698792 .028778077 .14698792 .01777649 .15699768 .0087890629 .16699219 .0087890629 .1749878 .0087890629 .1769867 .010787964 .18899536 .022781373L.3880005 .2219696 .59498599 .014785767C.5970001 .0137786869 .60398867 .0087890629 .6100006 .0087890629 .621994 .0087890629 .6299896 .01777649 .6299896 .028778077 .6299896 .030776978 .6299896 .03479004 .6269989 .039794923 .6259918 .041793825 .46699525 .19894409 .4169922 .24998474L.59999087 .4331665C.6049957 .43917848 .6199951 .45217896 .625 .45819093 .6259918 .46018983 .6299896 .46420289 .6299896 .47120667 .6299896 .48220826 .621994 .49121095 .6100006 .49121095 .60198977 .49121095 .59799197 .48719789 .58699038 .4761963L.3889923 .27801515Z"/>
<path id="font_2_2" d="M.2869873 .68333438C.2869873 .6843262 .2869873 .69433596 .27398683 .69433596 .25099183 .69433596 .17799378 .6863251 .1519928 .6843262 .14399719 .68333438 .1329956 .6823273 .1329956 .6643219 .1329956 .6523285 .14199829 .6523285 .15699768 .6523285 .20498657 .6523285 .20698548 .6453247 .20698548 .6353302L.20399475 .6153412 .05899048 .039260866C.054992677 .025253296 .054992677 .023254395 .054992677 .01725769 .054992677-.0057525637 .07499695-.0107421879 .083999637-.0107421879 .099990848-.0107421879 .115997318 .0012512207 .12098694 .015258789L.13999939 .091278079 .1619873 .18130493C.16799927 .2033081 .17399597 .22531128 .1789856 .24832154 .18099976 .25431825 .18899536 .28733827 .18998719 .29333497 .19299317 .30233766 .22399903 .35835267 .2579956 .38536073 .27999879 .4013672 .31098939 .42037965 .35398866 .42037965 .39698792 .42037965 .4079895 .3863678 .4079895 .35035707 .4079895 .29634095 .36999513 .18730164 .34599305 .12628174 .33799745 .103271488 .33299256 .091278079 .33299256 .0712738 .33299256 .024261475 .36799623-.0107421879 .4149933-.0107421879 .5089874-.0107421879 .54599 .13528443 .54599 .14329529 .54599 .1532898 .5369873 .1532898 .5339966 .1532898 .5239868 .1532898 .5239868 .15029907 .5189972 .13528443 .5039978 .08227539 .47200013 .011245728 .4169922 .011245728 .3999939 .011245728 .3929901 .021255494 .3929901 .044265748 .3929901 .0692749 .4019928 .09327698 .41099549 .11528015 .4269867 .15829468 .47200013 .2773285 .47200013 .3353424 .47200013 .4003601 .43199159 .4423828 .35699464 .4423828 .2939911 .4423828 .24598694 .41137696 .20899964 .36535646L.2869873 .68333438Z"/>
</defs>
<path transform="matrix(1.00005,0,0,-1.00003,38.073656,180.46509)" stroke-width="1.99255" stroke-linecap="butt" stroke-dasharray="2.98883,2.98883" stroke-miterlimit="10" stroke-linejoin="miter" fill="none" stroke="#ff8000" d="M0 0 98.11499-10.44922"/>
<path transform="matrix(.99439969,.10588318,.10588529,-.9943799,136.19351,190.91463)" d="M4.38364 0-2.63017 3.50691 0 0-2.63017-3.50691" fill="#ff8000"/>
<use data-text="v" xlink:href="#font_1_2" transform="matrix(9.963098,0,0,-9.962899,130.02924,187.06229)" fill="#ff8000"/>
<path transform="matrix(1.00005,0,0,-1.00003,38.073656,180.46509)" stroke-width=".49814" stroke-linecap="butt" stroke-dasharray="2.98883,2.98883" stroke-miterlimit="10" stroke-linejoin="miter" fill="none" stroke="#000000" d="M102.47386-10.91336 76.25386-65.48018"/>
<path transform="matrix(1.00005,0,0,-1.00003,38.073656,180.46509)" stroke-width=".49814" stroke-linecap="butt" stroke-dasharray="2.98883,2.98883" stroke-miterlimit="10" stroke-linejoin="miter" fill="none" stroke="#000000" d="M102.47386-10.91336 233.29456 119.90732"/>
<path transform="matrix(1.00005,0,0,-1.00003,38.073656,180.46509)" stroke-width=".49814" stroke-linecap="butt" stroke-dasharray="2.98883,2.98883" stroke-miterlimit="10" stroke-linejoin="miter" fill="none" stroke="#000000" d="M130.82068 130.82068 0 141.73404"/>
<path transform="matrix(1.00005,0,0,-1.00003,38.073656,180.46509)" stroke-width="1.99255" stroke-linecap="butt" stroke-miterlimit="10" stroke-linejoin="miter" fill="none" stroke="#7f807f" d="M-26.22-54.5668 104.60068 76.25386"/>
<path transform="matrix(1.00005,0,0,-1.00003,38.073656,180.46509)" stroke-width="1.99255" stroke-linecap="butt" stroke-miterlimit="10" stroke-linejoin="miter" fill="none" stroke="#7f807f" d="M207.07454 65.3405 104.60068 76.25386"/>
<path transform="matrix(1.00005,0,0,-1.00003,38.073656,180.46509)" stroke-width="1.99255" stroke-linecap="butt" stroke-miterlimit="10" stroke-linejoin="miter" fill="none" stroke="#7f807f" d="M207.07454 65.3405 76.25386-65.48018"/>
<path transform="matrix(1.00005,0,0,-1.00003,38.073656,180.46509)" stroke-width="1.99255" stroke-linecap="butt" stroke-miterlimit="10" stroke-linejoin="miter" fill="none" stroke="#7f807f" d="M-26.22-54.5668 76.25386-65.48018"/>
<path transform="matrix(1.00005,0,0,-1.00003,38.073656,180.46509)" stroke-width="1.99255" stroke-linecap="butt" stroke-miterlimit="10" stroke-linejoin="miter" fill="none" stroke="#7f807f" d="M104.60068 76.25386 130.82068 130.82068"/>
<path transform="matrix(1.00005,0,0,-1.00003,38.073656,180.46509)" stroke-width="1.99255" stroke-linecap="butt" stroke-miterlimit="10" stroke-linejoin="miter" fill="none" stroke="#7f807f" d="M233.29456 119.90732 130.82068 130.82068"/>
<path transform="matrix(1.00005,0,0,-1.00003,38.073656,180.46509)" stroke-width="1.99255" stroke-linecap="butt" stroke-miterlimit="10" stroke-linejoin="miter" fill="none" stroke="#7f807f" d="M207.07454 65.3405 233.29456 119.90732"/>
<path transform="matrix(1.00005,0,0,-1.00003,38.073656,180.46509)" stroke-width="1.99255" stroke-linecap="butt" stroke-miterlimit="10" stroke-linejoin="miter" fill="none" stroke="#ff0000" d="M0 0-24.32156-50.61588"/>
<path transform="matrix(-.43309165,.90131708,.901335,.43308304,13.750889,231.08249)" d="M4.38364 0-2.63017 3.50691 0 0-2.63017-3.50691" fill="#ff0000"/>
<use data-text="u" xlink:href="#font_1_1" transform="matrix(9.963098,0,0,-9.962899,1.1698151,243.77899)" fill="#ff0000"/>
<path transform="matrix(1.00005,0,0,-1.00003,38.073656,180.46509)" stroke-width="1.99255" stroke-linecap="butt" stroke-miterlimit="10" stroke-linejoin="miter" fill="none" stroke="#0000ff" d="M0 0 127.72098 127.72098"/>
<path transform="matrix(.7071353,-.7071212,-.7071353,-.7071212,165.801,52.740289)" d="M4.38364 0-2.63017 3.50691 0 0-2.63017-3.50691" fill="#0000ff"/>
<use data-text="w" xlink:href="#font_1_3" transform="matrix(9.963098,0,0,-9.962899,156.14955,45.32303)" fill="#0000ff"/>
<use data-text="&#x03b8;" xlink:href="#font_2_1" transform="matrix(9.963098,0,0,-9.962899,46.936098,152.74225)" fill="#0000ff"/>
<path transform="matrix(1.00005,0,0,-1.00003,38.073656,180.46509)" stroke-width=".99628" stroke-linecap="butt" stroke-miterlimit="10" stroke-linejoin="miter" fill="none" stroke="#000000" d="M0 0V167.19164"/>
<path transform="matrix(0,-1.00003,-1.00005,-0,38.073656,13.268433)" d="M2.8892 0-1.73352 2.31136 0 0-1.73352-2.31136"/>
<use data-text="u" xlink:href="#font_1_1" transform="matrix(9.963098,0,0,-9.962899,25.699036,5.729843)"/>
<use data-text="&#x00d7;" xlink:href="#font_3_1" transform="matrix(9.963098,0,0,-9.962899,34.278459,5.729843)"/>
<use data-text="v" xlink:href="#font_1_2" transform="matrix(9.963098,0,0,-9.962899,44.241945,5.729843)"/>
<path transform="matrix(1.00005,0,0,-1.00003,38.073656,180.46509)" stroke-width=".49814" stroke-linecap="butt" stroke-miterlimit="10" stroke-linejoin="miter" fill="none" stroke="#7f807f" d="M-7.08669 70.867V2.14195"/>
<path transform="matrix(0,1.00003,1.00005,0,30.98661,178.32308)" d="M2.14195 0-1.28517 1.71356 0 0-1.28517-1.71356" fill="#7f807f"/>
<use data-text="h" xlink:href="#font_2_2" transform="matrix(9.963098,0,0,-9.962899,21.676835,113.05507)"/>
<path transform="matrix(1.00005,0,0,-1.00003,38.073656,180.46509)" stroke-width=".49814" stroke-linecap="butt" stroke-miterlimit="10" stroke-linejoin="miter" fill="none" stroke="#7f807f" d="M-7.08669 70.867V139.59209"/>
<path transform="matrix(0,-1.00003,-1.00005,-0,30.98661,40.868806)" d="M2.14195 0-1.28517 1.71356 0 0-1.28517-1.71356" fill="#7f807f"/>
</svg>
