<svg xmlns="http://www.w3.org/2000/svg" xmlns:xlink="http://www.w3.org/1999/xlink" xmlns:inkscape="http://www.inkscape.org/namespaces/inkscape" version="1.1" width="140" height="139" viewBox="0 0 140 139">
<path transform="matrix(1.00005,0,0,-1.00003,47.452409,92.5103)" stroke-width=".3985" stroke-linecap="butt" stroke-miterlimit="10" stroke-linejoin="miter" fill="none" stroke="#cccccc" d="M-45.35506-45.35506H90.71013M-45.35506-22.67752H90.71013M-45.35506 0H90.71013M-45.35506 22.67752H90.71013M-45.35506 45.35506H90.71013M-45.35506 68.0326H90.71013M-45.35506 90.70215H90.71013M-45.35506-45.35506V90.71013M-22.67752-45.35506V90.71013M0-45.35506V90.71013M22.67752-45.35506V90.71013M45.35506-45.35506V90.71013M68.0326-45.35506V90.71013M90.70215-45.35506V90.71013M90.71013 90.71013"/>
<path transform="matrix(1.00005,0,0,-1.00003,47.452409,92.5103)" stroke-width=".3985" stroke-linecap="butt" stroke-miterlimit="10" stroke-linejoin="miter" fill="none" stroke="#000000" d="M-44.95654 0H90.31161"/>
<path transform="matrix(-1.00005,-0,0,1.00003,2.294365,92.5103)" stroke-width=".3985" stroke-linecap="round" stroke-linejoin="round" fill="none" stroke="#000000" d="M-2.07224 2.39104C-1.69365 .95639-.84999 .27895 0 0-.84999-.27895-1.69365-.95639-2.07224-2.39104"/>
<path transform="matrix(1.00005,0,0,-1.00003,137.96779,92.5103)" stroke-width=".3985" stroke-linecap="round" stroke-linejoin="round" fill="none" stroke="#000000" d="M-2.07224 2.39104C-1.69365 .95639-.84999 .27895 0 0-.84999-.27895-1.69365-.95639-2.07224-2.39104"/>
<path transform="matrix(1.00005,0,0,-1.00003,47.452409,92.5103)" stroke-width=".3985" stroke-linecap="butt" stroke-miterlimit="10" stroke-linejoin="miter" fill="none" stroke="#000000" d="M0-44.95654V90.31161"/>
<path transform="matrix(0,1.00003,1.00005,0,47.452409,137.66745)" stroke-width=".3985" stroke-linecap="round" stroke-linejoin="round" fill="none" stroke="#000000" d="M-2.07224 2.39104C-1.69365 .95639-.84999 .27895 0 0-.84999-.27895-1.69365-.95639-2.07224-2.39104"/>
<path transform="matrix(0,-1.00003,-1.00005,-0,47.452409,1.996727)" stroke-width=".3985" stroke-linecap="round" stroke-linejoin="round" fill="none" stroke="#000000" d="M-2.07224 2.39104C-1.69365 .95639-.84999 .27895 0 0-.84999-.27895-1.69365-.95639-2.07224-2.39104"/>
<path transform="matrix(1.00005,0,0,-1.00003,47.452409,92.5103)" d="M2.26787-22.67752C2.26787-21.42499 1.25252-20.40964 0-20.40964-1.25252-20.40964-2.26787-21.42499-2.26787-22.67752-2.26787-23.93004-1.25252-24.94539 0-24.94539 1.25252-24.94539 2.26787-23.93004 2.26787-22.67752ZM0-22.67752"/>
<path transform="matrix(1.00005,0,0,-1.00003,47.452409,92.5103)" d="M24.94539-22.67752C24.94539-21.42499 23.93004-20.40964 22.67752-20.40964 21.42499-20.40964 20.40964-21.42499 20.40964-22.67752 20.40964-23.93004 21.42499-24.94539 22.67752-24.94539 23.93004-24.94539 24.94539-23.93004 24.94539-22.67752ZM22.67752-22.67752"/>
<path transform="matrix(1.00005,0,0,-1.00003,47.452409,92.5103)" d="M47.62292-22.67752C47.62292-21.42499 46.60757-20.40964 45.35506-20.40964 44.10252-20.40964 43.08717-21.42499 43.08717-22.67752 43.08717-23.93004 44.10252-24.94539 45.35506-24.94539 46.60757-24.94539 47.62292-23.93004 47.62292-22.67752ZM45.35506-22.67752"/>
<path transform="matrix(1.00005,0,0,-1.00003,47.452409,92.5103)" d="M2.26787 0C2.26787 1.25252 1.25252 2.26787 0 2.26787-1.25252 2.26787-2.26787 1.25252-2.26787 0-2.26787-1.25252-1.25252-2.26787 0-2.26787 1.25252-2.26787 2.26787-1.25252 2.26787 0ZM0 0" fill="#ff0000"/>
<path transform="matrix(1.00005,0,0,-1.00003,47.452409,92.5103)" d="M24.94539 0C24.94539 1.25252 23.93004 2.26787 22.67752 2.26787 21.42499 2.26787 20.40964 1.25252 20.40964 0 20.40964-1.25252 21.42499-2.26787 22.67752-2.26787 23.93004-2.26787 24.94539-1.25252 24.94539 0ZM22.67752 0" fill="#ff0000"/>
<path transform="matrix(1.00005,0,0,-1.00003,47.452409,92.5103)" d="M47.62292 0C47.62292 1.25252 46.60757 2.26787 45.35506 2.26787 44.10252 2.26787 43.08717 1.25252 43.08717 0 43.08717-1.25252 44.10252-2.26787 45.35506-2.26787 46.60757-2.26787 47.62292-1.25252 47.62292 0ZM45.35506 0" fill="#ff0000"/>
<path transform="matrix(1.00005,0,0,-1.00003,47.452409,92.5103)" d="M2.26787 22.67752C2.26787 23.93004 1.25252 24.94539 0 24.94539-1.25252 24.94539-2.26787 23.93004-2.26787 22.67752-2.26787 21.42499-1.25252 20.40964 0 20.40964 1.25252 20.40964 2.26787 21.42499 2.26787 22.67752ZM0 22.67752" fill="#0000ff"/>
<path transform="matrix(1.00005,0,0,-1.00003,47.452409,92.5103)" d="M24.94539 22.67752C24.94539 23.93004 23.93004 24.94539 22.67752 24.94539 21.42499 24.94539 20.40964 23.93004 20.40964 22.67752 20.40964 21.42499 21.42499 20.40964 22.67752 20.40964 23.93004 20.40964 24.94539 21.42499 24.94539 22.67752ZM22.67752 22.67752" fill="#0000ff"/>
<path transform="matrix(1.00005,0,0,-1.00003,47.452409,92.5103)" d="M47.62292 22.67752C47.62292 23.93004 46.60757 24.94539 45.35506 24.94539 44.10252 24.94539 43.08717 23.93004 43.08717 22.67752 43.08717 21.42499 44.10252 20.40964 45.35506 20.40964 46.60757 20.40964 47.62292 21.42499 47.62292 22.67752ZM45.35506 22.67752" fill="#0000ff"/>
<path transform="matrix(1.00005,0,0,-1.00003,47.452409,92.5103)" d="M2.26787 45.35506C2.26787 46.60757 1.25252 47.62292 0 47.62292-1.25252 47.62292-2.26787 46.60757-2.26787 45.35506-2.26787 44.10252-1.25252 43.08717 0 43.08717 1.25252 43.08717 2.26787 44.10252 2.26787 45.35506ZM0 45.35506" fill="#7f807f"/>
<path transform="matrix(1.00005,0,0,-1.00003,47.452409,92.5103)" d="M24.94539 45.35506C24.94539 46.60757 23.93004 47.62292 22.67752 47.62292 21.42499 47.62292 20.40964 46.60757 20.40964 45.35506 20.40964 44.10252 21.42499 43.08717 22.67752 43.08717 23.93004 43.08717 24.94539 44.10252 24.94539 45.35506ZM22.67752 45.35506" fill="#7f807f"/>
<path transform="matrix(1.00005,0,0,-1.00003,47.452409,92.5103)" d="M47.62292 45.35506C47.62292 46.60757 46.60757 47.62292 45.35506 47.62292 44.10252 47.62292 43.08717 46.60757 43.08717 45.35506 43.08717 44.10252 44.10252 43.08717 45.35506 43.08717 46.60757 43.08717 47.62292 44.10252 47.62292 45.35506ZM45.35506 45.35506" fill="#7f807f"/>
<path transform="matrix(1.00005,0,0,-1.00003,47.452409,92.5103)" d="M2.26787 68.0326C2.26787 69.28511 1.25252 70.30046 0 70.30046-1.25252 70.30046-2.26787 69.28511-2.26787 68.0326-2.26787 66.78006-1.25252 65.76471 0 65.76471 1.25252 65.76471 2.26787 66.78006 2.26787 68.0326ZM0 68.0326" fill="#ff8000"/>
<path transform="matrix(1.00005,0,0,-1.00003,47.452409,92.5103)" d="M24.94539 68.0326C24.94539 69.28511 23.93004 70.30046 22.67752 70.30046 21.42499 70.30046 20.40964 69.28511 20.40964 68.0326 20.40964 66.78006 21.42499 65.76471 22.67752 65.76471 23.93004 65.76471 24.94539 66.78006 24.94539 68.0326ZM22.67752 68.0326" fill="#ff8000"/>
<path transform="matrix(1.00005,0,0,-1.00003,47.452409,92.5103)" d="M47.62292 68.0326C47.62292 69.28511 46.60757 70.30046 45.35506 70.30046 44.10252 70.30046 43.08717 69.28511 43.08717 68.0326 43.08717 66.78006 44.10252 65.76471 45.35506 65.76471 46.60757 65.76471 47.62292 66.78006 47.62292 68.0326ZM45.35506 68.0326" fill="#ff8000"/>
</svg>
