<svg xmlns="http://www.w3.org/2000/svg" xmlns:xlink="http://www.w3.org/1999/xlink" xmlns:inkscape="http://www.inkscape.org/namespaces/inkscape" version="1.1" width="89" height="157" viewBox="0 0 89 157">
<defs>
<path id="font_1_1" d="M.5059967 .37631227C.5119934 .39031983 .5159912 .3973236 .5799866 .3973236V.44433595C.5549927 .44232179 .526001 .44132997 .5009918 .44132997 .47599793 .44132997 .43099977 .44332887 .4099884 .44433595V.3973236C.42900086 .3973236 .45799256 .3943329 .45799256 .38632203 .45799256 .3853302 .45700074 .38331605 .45298768 .37431336L.33699037 .12416077 .20999146 .3973236H.2639923V.44433595C.23098755 .44232179 .14099121 .44132997 .13999939 .44132997 .11199951 .44132997 .066986087 .44332887 .025985718 .44433595V.3973236H.08999634L.2649994 .021087647C.2769928-.00390625 .2899933-.00390625 .30299378-.00390625 .31999208-.00390625 .32998658-.00091552737 .33999635 .020080567L.5059967 .37631227Z"/>
</defs>
<path transform="matrix(1.00003,0,0,-1.00009,19.105004,137.87598)" stroke-width=".3985" stroke-linecap="butt" stroke-miterlimit="10" stroke-linejoin="miter" fill="none" stroke="#cccccc" d="M-17.00824-17.00824H68.03302M-17.00824 0H68.03302M-17.00824 17.00824H68.03302M-17.00824 34.0165H68.03302M-17.00824 51.02477H68.03302M-17.00824 68.03302H68.03302M-17.00824 85.04128H68.03302M-17.00824 102.04953H68.03302M-17.00824 119.0578H68.03302M-17.00824 136.06009H68.03302M-17.00824-17.00824V136.06606M0-17.00824V136.06606M17.00824-17.00824V136.06606M34.0165-17.00824V136.06606M51.02477-17.00824V136.06606M68.02705-17.00824V136.06606M68.03302 136.06606"/>
<path transform="matrix(1.00003,0,0,-1.00009,19.105004,137.87598)" stroke-width=".3985" stroke-linecap="butt" stroke-miterlimit="10" stroke-linejoin="miter" fill="none" stroke="#000000" d="M-16.60974 0H67.63452"/>
<path transform="matrix(-1.00003,-0,0,1.00009,2.2955075,137.87598)" stroke-width=".3985" stroke-linecap="round" stroke-linejoin="round" fill="none" stroke="#000000" d="M-2.07224 2.39104C-1.69365 .95639-.84999 .27895 0 0-.84999-.27895-1.69365-.95639-2.07224-2.39104"/>
<path transform="matrix(1.00003,0,0,-1.00009,86.94081,137.87598)" stroke-width=".3985" stroke-linecap="round" stroke-linejoin="round" fill="none" stroke="#000000" d="M-2.07224 2.39104C-1.69365 .95639-.84999 .27895 0 0-.84999-.27895-1.69365-.95639-2.07224-2.39104"/>
<path transform="matrix(1.00003,0,0,-1.00009,19.105004,137.87598)" stroke-width=".3985" stroke-linecap="butt" stroke-miterlimit="10" stroke-linejoin="miter" fill="none" stroke="#000000" d="M0-16.60974V135.66756"/>
<path transform="matrix(0,1.00009,1.00003,0,19.105004,154.68648)" stroke-width=".3985" stroke-linecap="round" stroke-linejoin="round" fill="none" stroke="#000000" d="M-2.07224 2.39104C-1.69365 .95639-.84999 .27895 0 0-.84999-.27895-1.69365-.95639-2.07224-2.39104"/>
<path transform="matrix(0,-1.00009,-1.00003,-0,19.105004,1.9969483)" stroke-width=".3985" stroke-linecap="round" stroke-linejoin="round" fill="none" stroke="#000000" d="M-2.07224 2.39104C-1.69365 .95639-.84999 .27895 0 0-.84999-.27895-1.69365-.95639-2.07224-2.39104"/>
<path transform="matrix(1.00003,0,0,-1.00009,19.105004,137.87598)" stroke-width="1.99255" stroke-linecap="butt" stroke-miterlimit="10" stroke-linejoin="miter" fill="none" stroke="#ff0000" d="M0 0 16.38838 114.71838"/>
<path transform="matrix(.14140424,-.9899991,-.98993977,-.14141272,35.493875,23.147286)" d="M4.38364 0-2.63017 3.50691 0 0-2.63017-3.50691" fill="#ff0000"/>
<use data-text="v" xlink:href="#font_1_1" transform="matrix(9.962899,0,0,-9.963496,25.590203,14.489876)" fill="#ff0000"/>
</svg>
