<svg xmlns="http://www.w3.org/2000/svg" xmlns:xlink="http://www.w3.org/1999/xlink" xmlns:inkscape="http://www.inkscape.org/namespaces/inkscape" version="1.1" width="318" height="126" viewBox="0 0 318 126">
<defs>
<path id="font_1_3" d="M.32598878-1.7597656H.394989V-.029937745H.6589966V.0390625H.32598878V-1.7597656Z"/>
<path id="font_1_5" d="M.32598878-1.7587891H.6589966V-1.6898041H.394989V.040039064H.32598878V-1.7587891Z"/>
<path id="font_2_2" d="M.2939911 .64004519C.2939911 .66400149 .2939911 .6660156 .2709961 .6660156 .20899964 .60227969 .12098694 .60227969 .08898926 .60227969V.57128909C.10899353 .57128909 .16799927 .57128909 .21998596 .5972748V.07902527C.21998596 .042999269 .21699524 .0309906 .1269989 .0309906H.09498596V0C.12998963 .0029907227 .21699524 .0029907227 .25698854 .0029907227 .29699708 .0029907227 .38398744 .0029907227 .4189911 0V.0309906H.3869934C.29699708 .0309906 .2939911 .041992189 .2939911 .07902527V.64004519Z"/>
<path id="font_2_3" d="M.1269989 .07699585 .23298645 .18003845C.3889923 .31811524 .44898988 .3721466 .44898988 .47216798 .44898988 .5860901 .35899354 .6660156 .23699951 .6660156 .12399292 .6660156 .049987794 .57411196 .049987794 .48516847 .049987794 .4291687 .099990848 .4291687 .102996829 .4291687 .11999512 .4291687 .15499878 .44117738 .15499878 .48217774 .15499878 .5081787 .13699341 .5341797 .101989749 .5341797 .09399414 .5341797 .09199524 .5341797 .08898926 .5331726 .11199951 .59806826 .1659851 .63500979 .22399903 .63500979 .31498719 .63500979 .35798646 .5541382 .35798646 .47216798 .35798646 .39215089 .30799867 .31311036 .25299073 .25108338L.06098938 .036987306C.049987794 .025985718 .049987794 .023986817 .049987794 0H.42099L.44898988 .17404175H.42399598C.4189911 .14402771 .4119873 .1000061 .4019928 .084991458 .394989 .07699585 .32899476 .07699585 .30699159 .07699585H.1269989Z"/>
<path id="font_2_1" d="M.45999146 .31976319C.45999146 .39982606 .45498658 .47988893 .41999818 .5539398 .37399293 .65000918 .2919922 .6660156 .25 .6660156 .18998719 .6660156 .116989139 .64001467 .07598877 .54693606 .04399109 .47789 .038986207 .39982606 .038986207 .31976319 .038986207 .24472046 .042999269 .15464783 .083999637 .07859802 .1269989-.0024719239 .19999695-.022460938 .24899292-.022460938 .30299378-.022460938 .3789978-.0014648438 .4229889 .09359741 .45498658 .16265869 .45999146 .2407074 .45999146 .31976319M.24899292-.00047302247C.20999146-.00047302247 .15098572 .024551392 .1329956 .12062073 .12199402 .18066406 .12199402 .2727356 .12199402 .3317871 .12199402 .39582826 .12199402 .46188355 .12998963 .5159149 .14898682 .63500979 .22399903 .64401248 .24899292 .64401248 .28199769 .64401248 .34799195 .6259918 .36698915 .52693179 .3769989 .47088624 .3769989 .39482118 .3769989 .3317871 .3769989 .25672914 .3769989 .18867493 .3659973 .12461853 .35099793 .029556275 .2939911-.00047302247 .24899292-.00047302247Z"/>
<path id="font_1_4" d="M.2709961-1.7597656H.33999635V.0390625H.0069885256V-.029937745H.2709961V-1.7597656Z"/>
<path id="font_1_6" d="M.2709961-1.6898041H.0069885256V-1.7587891H.33999635V.040039064H.2709961V-1.6898041Z"/>
<path id="font_3_65" d="M.33299256 0V.0309906H.30699159C.22799683 .0309906 .22499085 .041992189 .22499085 .07795715V.6046295C.22499085 .64060977 .22799683 .6516113 .30699159 .6516113H.33299256V.6826172C.2979889 .6796112 .21899414 .6796112 .18099976 .6796112 .14199829 .6796112 .06298828 .6796112 .027999878 .6826172V.6516113H.053985597C.1329956 .6516113 .13598633 .64060977 .13598633 .6046295V.07795715C.13598633 .041992189 .1329956 .0309906 .053985597 .0309906H.027999878V0C.06298828 .0029907227 .14199829 .0029907227 .17999268 .0029907227 .21899414 .0029907227 .2979889 .0029907227 .33299256 0Z"/>
<path id="font_3_75" d="M.8129883 0V.0309906C.7609863 .0309906 .73599246 .0309906 .7350006 .061019899V.25221253C.7350006 .3383026 .7350006 .36932374 .70399478 .405365 .6899872 .42237855 .6569977 .4423828 .598999 .4423828 .5149994 .4423828 .47099305 .38233949 .45399476 .34429933 .43998719 .43138124 .3659973 .4423828 .32099916 .4423828 .24798584 .4423828 .20098877 .39935304 .17298889 .33729554V.4423828L.03199768 .43066407V.3996582C.101989749 .3996582 .10998535 .39266969 .10998535 .34370423V.07595825C.10998535 .0309906 .09899902 .0309906 .03199768 .0309906V0L.14498902 .0029907227 .25698854 0V.0309906C.18998719 .0309906 .1789856 .0309906 .1789856 .07595825V.25978089C.1789856 .36431886 .25 .42037965 .31399537 .42037965 .3769989 .42037965 .3880005 .36631776 .3880005 .30926515V.076034549C.3880005 .0309906 .3769989 .0309906 .30999757 .0309906V0L.4229889 .0029907227 .5349884 0V.0309906C.46798707 .0309906 .45700074 .0309906 .45700074 .076034549V.2602234C.45700074 .36431886 .5279999 .42037965 .59199526 .42037965 .6549988 .42037965 .66600039 .36631776 .66600039 .30926515V.076034549C.66600039 .0309906 .6549988 .0309906 .58799746 .0309906V0L.70098879 .0029907227 .8129883 0Z"/>
<path id="font_3_28" d="M.48298646 .08912659V.14511109H.45799256V.08912659C.45799256 .03112793 .43299867 .025131226 .42199708 .025131226 .3889923 .025131226 .3849945 .070129398 .3849945 .07511902V.27508546C.3849945 .31707765 .3849945 .3560791 .34899903 .39312745 .30999757 .43223573 .2599945 .4482422 .21199036 .4482422 .12998963 .4482422 .06098938 .40115357 .06098938 .335083 .06098938 .30508424 .08099365 .28808595 .10699463 .28808595 .1349945 .28808595 .15299988 .30807496 .15299988 .33407594 .15299988 .3460846 .147995 .37908937 .101989749 .38008119 .1289978 .41519166 .17799378 .426239 .20999146 .426239 .25898744 .426239 .31599427 .38710023 .31599427 .29808045V.26107789C.2649994 .25808717 .19499207 .25508119 .13198853 .22509766 .056991579 .19110108 .03199768 .13911438 .03199768 .09512329 .03199768 .014251709 .1289978-.0107421879 .19198609-.0107421879 .2579956-.0107421879 .3039856 .029251099 .32299806 .07624817 .32699586 .036132814 .35398866-.005859375 .40098573-.005859375 .42199708-.005859375 .48298646 .008132935 .48298646 .08912659M.31599427 .14013672C.31599427 .04525757 .24398804 .011245728 .19898987 .011245728 .1499939 .011245728 .10899353 .04624939 .10899353 .09625244 .10899353 .15124512 .15098572 .23425293 .31599427 .24024964V.14013672Z"/>
<path id="font_3_59" d="M.4850006 .40411378C.4850006 .42111207 .47299195 .453125 .43399049 .453125 .4139862 .453125 .36999513 .44711305 .32798768 .40611268 .28599549 .43937684 .24398804 .4423828 .22200012 .4423828 .1289978 .4423828 .05999756 .37338258 .05999756 .29638673 .05999756 .25239564 .08198547 .21440125 .10699463 .19340515 .09399414 .17840576 .07598877 .14538574 .07598877 .11035156 .07598877 .07899475 .08898926 .04083252 .11999512 .020828248 .05999756 .003829956 .027999878-.039138795 .027999878-.07911682 .027999878-.15107727 .1269989-.20605469 .24899292-.20605469 .36698915-.20605469 .47099305-.15507508 .47099305-.07711792 .47099305-.042144777 .45700074 .008834839 .4059906 .036834718 .35299684 .064834598 .29499818 .064834598 .23399353 .064834598 .20899964 .064834598 .1659851 .064834598 .15899658 .065841678 .1269989 .069885257 .10598755 .101242069 .10598755 .13334656 .10598755 .13735962 .10598755 .16040039 .12298584 .18040467 .1619873 .15240479 .20298767 .14941406 .22200012 .14941406 .31498719 .14941406 .38398744 .21839905 .38398744 .2953949 .38398744 .3323822 .36799623 .36938478 .34298707 .39237977 .3789978 .42637635 .4149933 .43138124 .43299867 .43138124 .43299867 .43112184 .43998719 .43112184 .44299317 .43011476 .43199159 .42611695 .4269867 .41513063 .4269867 .40315248 .4269867 .38616944 .43998719 .37417604 .45599366 .37417604 .46598817 .37417604 .4850006 .3811798 .4850006 .4041443V.40411378M.30899049 .29626466C.30899049 .26930238 .30799867 .2373352 .29299928 .21235657 .2849884 .20037842 .2619934 .17240906 .22200012 .17240906 .1349945 .17240906 .1349945 .2722931 .1349945 .29527284 .1349945 .3222351 .13598633 .35420228 .15098572 .3791809 .15899658 .3913269 .18199158 .41937257 .22200012 .41937257 .30899049 .41937257 .30899049 .31922914 .30899049 .29618836V.29626466M.4189911-.07911682C.4189911-.13308716 .34799195-.18305969 .25-.18305969 .14898682-.18305969 .07998657-.13209534 .07998657-.07911682 .07998657-.03314209 .117996219 .003829956 .1619873 .0068359377H.22099304C.30699159 .0068359377 .4189911 .0068359377 .4189911-.07911682Z"/>
<path id="font_3_50" d="M.4149933 .11933899C.4149933 .12934876 .40699769 .13134766 .4019928 .13134766 .3929901 .13134766 .3909912 .12535095 .3889923 .11734009 .35398866 .014251709 .2639923 .014251709 .2539978 .014251709 .20399475 .014251709 .1639862 .044281007 .14099121 .08131409 .11099243 .12934876 .11099243 .19540406 .11099243 .23144531H.3899994C.4119873 .23144531 .4149933 .23144531 .4149933 .2524414 .4149933 .35131837 .36099244 .4482422 .23599243 .4482422 .11999512 .4482422 .027999878 .34532167 .027999878 .22042847 .027999878 .08631897 .1329956-.0107421879 .24798584-.0107421879 .36999513-.0107421879 .4149933 .10032654 .4149933 .11933899M.34899903 .2524414H.11199951C.117996219 .40126039 .20199585 .426239 .23599243 .426239 .33898927 .426239 .34899903 .2913971 .34899903 .2524414Z"/>
<path id="font_3_81" d="M.47099305 .21424866C.47099305 .34223939 .37098695 .4482422 .25 .4482422 .125 .4482422 .027999878 .3392334 .027999878 .21424866 .027999878 .085250858 .13198853-.0107421879 .24899292-.0107421879 .36999513-.0107421879 .47099305 .087249759 .47099305 .21424866M.3880005 .22224427C.3880005 .18624878 .3880005 .13224793 .3659973 .08824158 .34399415 .04324341 .2999878 .014251709 .25 .014251709 .20698548 .014251709 .16299439 .035247804 .13598633 .08125305 .11099243 .12524414 .11099243 .18624878 .11099243 .22224427 .11099243 .26124574 .11099243 .31523133 .1349945 .35923768 .1619873 .40522767 .20899964 .426239 .24899292 .426239 .29299928 .426239 .33599855 .40423585 .3619995 .36123658 .3880005 .3182373 .3880005 .26023866 .3880005 .22224427Z"/>
<path id="font_3_55" d="M.35699464 .63479617C.35699464 .6717987 .31999208 .7050781 .2669983 .7050781 .19699097 .7050781 .11199951 .65179446 .11199951 .5457611V.43066407H.032989503V.3996582H.11199951V.07595825C.11199951 .0309906 .100997928 .0309906 .033996583 .0309906V0L.147995 .0029907227C.18798828 .0029907227 .23498535 .0029907227 .2749939 0V.0309906H.2539978C.17999268 .0309906 .17799378 .04197693 .17799378 .07795715V.3996582H.2919922V.43066407H.1749878V.5467529C.1749878 .63479617 .22299195 .68307498 .2669983 .68307498 .269989 .68307498 .2849884 .68307498 .2999878 .675827 .28799439 .6717987 .269989 .6587982 .269989 .6338043 .269989 .61079409 .28599549 .5907898 .31298829 .5907898 .34199525 .5907898 .35699464 .61079409 .35699464 .63479617Z"/>
<path id="font_4_1" d="M.4269867 .6066284C.43399049 .63461306 .43798829 .64060977 .44999696 .6436157 .45899964 .6456146 .49198915 .6456146 .5130005 .6456146 .6139984 .6456146 .6589966 .6416168 .6589966 .56365969 .6589966 .54867556 .6549988 .50968936 .651001 .4837036 .6499939 .4797058 .647995 .4677124 .647995 .46472169 .647995 .45872499 .651001 .45173646 .6599884 .45173646 .67099 .45173646 .6729889 .45973207 .6749878 .4747162L.70199587 .64860537C.7029877 .65260317 .70399478 .6626129 .70399478 .66560366 .70399478 .6766052 .69400027 .6766052 .6769867 .6766052H.12199402C.09799194 .6766052 .09700012 .6756134 .08999634 .6566162L.02999878 .4807129C.0289917 .478714 .023986817 .46472169 .023986817 .46272279 .023986817 .45672608 .0289917 .45173646 .035995485 .45173646 .04598999 .45173646 .04699707 .45672608 .052993776 .4727173 .10699463 .6276245 .1329956 .6456146 .2809906 .6456146H.31999208C.34799195 .6456146 .34799195 .6416168 .34799195 .6336212 .34799195 .6276245 .34498597 .6156311 .34399415 .6126251L.20999146 .07896423C.20098877 .041992189 .19799805 .0309906 .09098816 .0309906 .054992677 .0309906 .04899597 .0309906 .04899597 .011993408 .04899597 0 .05999756 0 .06599426 0 .09298706 0 .12098694 .0019989014 .147995 .0019989014 .17599488 .0019989014 .20498657 .0029907227 .23298645 .0029907227 .26098634 .0029907227 .2889862 .0019989014 .31599427 .0019989014 .34498597 .0019989014 .375 0 .40299989 0 .41299439 0 .4249878 0 .4249878 .019989014 .4249878 .0309906 .4169922 .0309906 .3909912 .0309906 .3659973 .0309906 .35299684 .0309906 .32699586 .032989503 .2979889 .035995485 .2899933 .038986207 .2899933 .054977418 .2899933 .05596924 .2899933 .06097412 .2939911 .07595825L.4269867 .6066284Z"/>
<path id="font_1_1" d="M.37399293-1.7700348C.3959961-1.7700348 .4019928-1.7700348 .4019928-1.7560272 .4039917-1.0549927 .4850006-.47297669 .83499148 .016052247 .84199526 .025054932 .84199526 .027053833 .84199526 .029052735 .84199526 .0390625 .83499148 .0390625 .81900027 .0390625 .8029938 .0390625 .8009949 .0390625 .798996 .03704834 .79499819 .034057619 .66799929-.111953739 .5669861-.31295777 .43499757-.5769806 .35198976-.8799896 .31498719-1.2440033 .31199647-1.2750092 .29100038-1.483017 .29100038-1.7200317V-1.7590332C.2919922-1.7700348 .2979889-1.7700348 .31900025-1.7700348H.37399293Z"/>
<path id="font_1_7" d="M.31900025 .049804689C.2979889 .049804689 .2919922 .049804689 .29100038 .0388031V-.00021362305C.29100038-.6110687 .3999939-.9689789 .43099977-1.0699616 .49899293-1.2919006 .6100006-1.5258484 .7769928-1.7317963 .7919922-1.7498016 .79599-1.7547913 .7999878-1.7567902 .8019867-1.7577973 .8029938-1.7587891 .81900027-1.7587891 .83499148-1.7587891 .84199526-1.7587891 .84199526-1.7487946 .84199526-1.7467957 .84199526-1.7447968 .83599856-1.7357941 .5029907-1.2739105 .40299989-.71803286 .4019928 .03579712 .4019928 .049804689 .3959961 .049804689 .37399293 .049804689H.31900025Z"/>
<path id="font_1_2" d="M.58299258-1.7200317C.58299258-1.1089935 .47399903-.7509918 .44299317-.64997866 .375-.42796327 .2639923-.19395447 .09700012 .012054443 .08198547 .030059815 .07798767 .03504944 .07398987 .03704834 .07199097 .03805542 .070999149 .0390625 .054992677 .0390625 .039993287 .0390625 .03199768 .0390625 .03199768 .029052735 .03199768 .027053833 .03199768 .025054932 .04499817 .0070495607 .3929901-.4789734 .47099305-1.0789948 .47200013-1.7560272 .47200013-1.7700348 .47799684-1.7700348 .5-1.7700348H.5549927C.57598879-1.7700348 .58200076-1.7700348 .58299258-1.7590332V-1.7200317Z"/>
<path id="font_1_8" d="M.58299258 .0388031C.58200076 .049804689 .57598879 .049804689 .5549927 .049804689H.5C.47799684 .049804689 .47200013 .049804689 .47200013 .03579712 .47200013-.06718445 .47099305-.30513 .44499208-.55407717 .3909912-1.0709534 .2579956-1.4288635 .038986207-1.7357941 .03199768-1.7447968 .03199768-1.7467957 .03199768-1.7487946 .03199768-1.7587891 .039993287-1.7587891 .054992677-1.7587891 .070999149-1.7587891 .07299805-1.7587891 .07499695-1.7567902 .07899475-1.7537994 .20599365-1.6078339 .30699159-1.4068756 .43899537-1.1429443 .5219879-.8400116 .5589905-.47608949 .56199648-.44509889 .58299258-.2371521 .58299258-.00021362305V.0388031Z"/>
<path id="font_2_5" d="M.68699648 .32714845C.70199587 .32714845 .72099307 .32714845 .72099307 .34713746 .72099307 .36714173 .70199587 .36714173 .6879883 .36714173H.08898926C.07499695 .36714173 .055999757 .36714173 .055999757 .34713746 .055999757 .32714845 .07499695 .32714845 .08999634 .32714845H.68699648M.6879883 .13284302C.70199587 .13284302 .72099307 .13284302 .72099307 .15284729 .72099307 .17285156 .70199587 .17285156 .68699648 .17285156H.08999634C.07499695 .17285156 .055999757 .17285156 .055999757 .15284729 .055999757 .13284302 .07499695 .13284302 .08898926 .13284302H.6879883Z"/>
<path id="font_2_4" d="M.2899933 .35191346C.37199403 .37893678 .42999269 .4490509 .42999269 .52809146 .42999269 .6100464 .34199525 .6660156 .24598694 .6660156 .14498902 .6660156 .068984989 .60606387 .068984989 .53009036 .068984989 .49710084 .09098816 .47808839 .11999512 .47808839 .15098572 .47808839 .17098999 .50009158 .17098999 .5290985 .17098999 .57910159 .12399292 .57910159 .10899353 .57910159 .13999939 .62802127 .20599365 .64100649 .24198914 .64100649 .2829895 .64100649 .33799745 .6190338 .33799745 .5290985 .33799745 .51708987 .33599855 .45906068 .30999757 .4149933 .27999879 .36691285 .24598694 .36390687 .22099304 .36291505 .21299744 .36190797 .18899536 .35990907 .18199158 .35990907 .17399597 .35890199 .16699219 .35791017 .16699219 .3479004 .16699219 .33691407 .17399597 .33691407 .19099427 .33691407H.23498535C.31698609 .33691407 .35398866 .2686615 .35398866 .17037964 .35398866 .034469606 .2849884 .0055389406 .24099732 .0055389406 .19799805 .0055389406 .12298584 .022491456 .08799744 .08137512 .12298584 .07637024 .1539917 .09837341 .1539917 .1363678 .1539917 .17237854 .1269989 .19238281 .09799194 .19238281 .07398987 .19238281 .041992189 .17837525 .041992189 .1343689 .041992189 .043441774 .1349945-.022460938 .24398804-.022460938 .3659973-.022460938 .45700074 .06838989 .45700074 .17037964 .45700074 .252594 .3939972 .33088685 .2899933 .35191346Z"/>
</defs>
<path transform="matrix(1.00002,0,0,-1.00002,103.144718,73.491237)" stroke-width=".3985" stroke-linecap="butt" stroke-miterlimit="10" stroke-linejoin="miter" fill="none" stroke="#000000" d="M0 0H67.63408"/>
<path transform="matrix(1.00002,0,0,-1.00002,170.9794,73.491237)" stroke-width=".3985" stroke-linecap="round" stroke-linejoin="round" fill="none" stroke="#000000" d="M-2.07224 2.39104C-1.69365 .95639-.84999 .27895 0 0-.84999-.27895-1.69365-.95639-2.07224-2.39104"/>
<path transform="matrix(1.00002,0,0,-1.00002,103.144718,73.491237)" stroke-width=".3985" stroke-linecap="butt" stroke-miterlimit="10" stroke-linejoin="miter" fill="none" stroke="#000000" d="M0 0V67.63408"/>
<path transform="matrix(0,-1.00002,-1.00002,-0,103.144718,5.6565477)" stroke-width=".3985" stroke-linecap="round" stroke-linejoin="round" fill="none" stroke="#000000" d="M-2.07224 2.39104C-1.69365 .95639-.84999 .27895 0 0-.84999-.27895-1.69365-.95639-2.07224-2.39104"/>
<path transform="matrix(1.00002,0,0,-1.00002,103.144718,73.491237)" stroke-width=".3985" stroke-linecap="butt" stroke-miterlimit="10" stroke-linejoin="miter" fill="none" stroke="#000000" d="M0 0-33.68472-22.45648"/>
<path transform="matrix(-.8320367,.55468109,.55468109,.8320367,69.29353,96.058689)" stroke-width=".3985" stroke-linecap="round" stroke-linejoin="round" fill="none" stroke="#000000" d="M-2.07224 2.39104C-1.69365 .95639-.84999 .27895 0 0-.84999-.27895-1.69365-.95639-2.07224-2.39104"/>
<g>
<path transform="matrix(1.00002,0,0,-1.00002,103.144718,73.491237)" d="M34.01628-22.67752 102.04889 22.67752H-34.01628L-102.04889-22.67752Z" fill="#0000ff" fill-opacity=".3"/>
<path transform="matrix(1.00002,0,0,-1.00002,103.144718,73.491237)" stroke-width=".3985" stroke-linecap="butt" stroke-miterlimit="10" stroke-linejoin="miter" fill="none" stroke="#0000ff" stroke-opacity=".3" d="M34.01628-22.67752 102.04889 22.67752H-34.01628L-102.04889-22.67752Z"/>
</g>
<path transform="matrix(1.00002,0,0,-1.00002,103.144718,73.491237)" stroke-width=".99628" stroke-linecap="butt" stroke-miterlimit="10" stroke-linejoin="miter" fill="none" stroke="#ff0000" d="M0 0 42.55212-10.6381"/>
<path transform="matrix(.9701594,.24251487,.24251487,-.9701594,145.69768,84.12954)" d="M2.8892 0-1.73352 2.31136 0 0-1.73352-2.31136" fill="#ff0000"/>
<use data-text="&#xf8ee;" xlink:href="#font_1_3" transform="matrix(9.962799,0,0,-9.962799,152.3197,89.04755)" fill="#ff0000"/>
<use data-text="&#xf8f0;" xlink:href="#font_1_5" transform="matrix(9.962799,0,0,-9.962799,152.3197,106.98091)" fill="#ff0000"/>
<use data-text="1" xlink:href="#font_2_2" transform="matrix(9.962799,0,0,-9.962799,158.96184,97.01771)" fill="#ff0000"/>
<use data-text="2" xlink:href="#font_2_3" transform="matrix(9.962799,0,0,-9.962799,158.96184,108.973949)" fill="#ff0000"/>
<use data-text="0" xlink:href="#font_2_1" transform="matrix(9.962799,0,0,-9.962799,158.96184,120.929187)" fill="#ff0000"/>
<use data-text="&#xf8f9;" xlink:href="#font_1_4" transform="matrix(9.962799,0,0,-9.962799,163.94393,89.04755)" fill="#ff0000"/>
<use data-text="&#xf8fb;" xlink:href="#font_1_6" transform="matrix(9.962799,0,0,-9.962799,163.94393,106.98091)" fill="#ff0000"/>
<path transform="matrix(1.00002,0,0,-1.00002,103.144718,73.491237)" stroke-width=".3985" stroke-linecap="butt" stroke-miterlimit="10" stroke-linejoin="miter" fill="none" stroke="#000000" d="M136.0652 0H203.6993"/>
<path transform="matrix(1.00002,0,0,-1.00002,307.04737,73.491237)" stroke-width=".3985" stroke-linecap="round" stroke-linejoin="round" fill="none" stroke="#000000" d="M-2.07224 2.39104C-1.69365 .95639-.84999 .27895 0 0-.84999-.27895-1.69365-.95639-2.07224-2.39104"/>
<path transform="matrix(1.00002,0,0,-1.00002,103.144718,73.491237)" stroke-width=".3985" stroke-linecap="butt" stroke-miterlimit="10" stroke-linejoin="miter" fill="none" stroke="#000000" d="M136.0652 0 102.38043-22.45648"/>
<path transform="matrix(-.8320367,.55468109,.55468109,.8320367,205.36142,96.058689)" stroke-width=".3985" stroke-linecap="round" stroke-linejoin="round" fill="none" stroke="#000000" d="M-2.07224 2.39104C-1.69365 .95639-.84999 .27895 0 0-.84999-.27895-1.69365-.95639-2.07224-2.39104"/>
<path transform="matrix(1.00002,0,0,-1.00002,103.144718,73.491237)" stroke-width="1.99255" stroke-linecap="butt" stroke-miterlimit="10" stroke-linejoin="miter" fill="none" stroke="#0000ff" d="M136.0652-22.67752V68.0326"/>
<use data-text="I" xlink:href="#font_3_65" transform="matrix(9.962799,0,0,-9.962799,243.52953,7.9429247)" fill="#0000ff"/>
<use data-text="m" xlink:href="#font_3_75" transform="matrix(9.962799,0,0,-9.962799,247.1261,7.9429247)" fill="#0000ff"/>
<use data-text="a" xlink:href="#font_3_28" transform="matrix(9.962799,0,0,-9.962799,255.42511,7.9429247)" fill="#0000ff"/>
<use data-text="g" xlink:href="#font_3_59" transform="matrix(9.962799,0,0,-9.962799,260.4065,7.9429247)" fill="#0000ff"/>
<use data-text="e" xlink:href="#font_3_50" transform="matrix(9.962799,0,0,-9.962799,265.38789,7.9429247)" fill="#0000ff"/>
<use data-text="o" xlink:href="#font_3_81" transform="matrix(9.962799,0,0,-9.962799,273.129,7.9429247)" fill="#0000ff"/>
<use data-text="f" xlink:href="#font_3_55" transform="matrix(9.962799,0,0,-9.962799,278.11039,7.9429247)" fill="#0000ff"/>
<use data-text="T" xlink:href="#font_4_1" transform="matrix(9.962799,0,0,-9.962799,284.47737,7.9429247)" fill="#0000ff"/>
<path transform="matrix(1.00002,0,0,-1.00002,103.144718,73.491237)" stroke-width="1.99255" stroke-linecap="butt" stroke-miterlimit="10" stroke-linejoin="miter" fill="none" stroke="#ff0000" d="M136.0652 0V29.63263"/>
<path transform="matrix(0,-1.00002,-1.00002,-0,239.21265,43.85801)" d="M4.38364 0-2.63017 3.50691 0 0-2.63017-3.50691" fill="#ff0000"/>
<use data-text="T" xlink:href="#font_4_1" transform="matrix(9.962799,0,0,-9.962799,243.52953,41.964605)" fill="#ff0000"/>
<use data-text="&#xf8eb;" xlink:href="#font_1_1" transform="matrix(9.962799,0,0,-9.962799,252.39672,21.939206)" fill="#ff0000"/>
<use data-text="&#xf8ed;" xlink:href="#font_1_7" transform="matrix(9.962799,0,0,-9.962799,252.39672,39.872564)" fill="#ff0000"/>
<use data-text="&#xf8ee;" xlink:href="#font_1_3" transform="matrix(9.962799,0,0,-9.962799,261.1139,21.939206)" fill="#ff0000"/>
<use data-text="&#xf8f0;" xlink:href="#font_1_5" transform="matrix(9.962799,0,0,-9.962799,261.1139,39.872564)" fill="#ff0000"/>
<use data-text="1" xlink:href="#font_2_2" transform="matrix(9.962799,0,0,-9.962799,267.756,29.909363)" fill="#ff0000"/>
<use data-text="2" xlink:href="#font_2_3" transform="matrix(9.962799,0,0,-9.962799,267.756,41.8656)" fill="#ff0000"/>
<use data-text="0" xlink:href="#font_2_1" transform="matrix(9.962799,0,0,-9.962799,267.756,53.820844)" fill="#ff0000"/>
<use data-text="&#xf8f9;" xlink:href="#font_1_4" transform="matrix(9.962799,0,0,-9.962799,272.73713,21.939202)" fill="#ff0000"/>
<use data-text="&#xf8fb;" xlink:href="#font_1_6" transform="matrix(9.962799,0,0,-9.962799,272.73713,39.872564)" fill="#ff0000"/>
<use data-text="&#xf8f6;" xlink:href="#font_1_2" transform="matrix(9.962799,0,0,-9.962799,279.37925,21.939206)" fill="#ff0000"/>
<use data-text="&#xf8f8;" xlink:href="#font_1_8" transform="matrix(9.962799,0,0,-9.962799,279.37925,39.872564)" fill="#ff0000"/>
<use data-text="=" xlink:href="#font_2_5" transform="matrix(9.962799,0,0,-9.962799,290.86347,41.964605)" fill="#ff0000"/>
<use data-text="&#xf8ee;" xlink:href="#font_1_3" transform="matrix(9.962799,0,0,-9.962799,301.3797,21.939206)" fill="#ff0000"/>
<use data-text="&#xf8f0;" xlink:href="#font_1_5" transform="matrix(9.962799,0,0,-9.962799,301.3797,39.872564)" fill="#ff0000"/>
<use data-text="0" xlink:href="#font_2_1" transform="matrix(9.962799,0,0,-9.962799,308.02183,29.909363)" fill="#ff0000"/>
<use data-text="0" xlink:href="#font_2_1" transform="matrix(9.962799,0,0,-9.962799,308.02183,41.8656)" fill="#ff0000"/>
<use data-text="3" xlink:href="#font_2_4" transform="matrix(9.962799,0,0,-9.962799,308.02183,53.820844)" fill="#ff0000"/>
<use data-text="&#xf8f9;" xlink:href="#font_1_4" transform="matrix(9.962799,0,0,-9.962799,313.0039,21.939202)" fill="#ff0000"/>
<use data-text="&#xf8fb;" xlink:href="#font_1_6" transform="matrix(9.962799,0,0,-9.962799,313.0039,39.872564)" fill="#ff0000"/>
<path transform="matrix(1.00002,0,0,-1.00002,103.144718,73.491237)" stroke-width=".99628" stroke-linecap="butt" stroke-miterlimit="10" stroke-linejoin="miter" fill="none" stroke="#000000" d="M56.69382 45.35506C75.84076 56.40952 94.2407 56.40952 110.88556 46.7996"/>
<path transform="matrix(.86602738,.49999003,.49999003,-.86602738,214.0325,26.690674)" d="M2.8892 0-1.73352 2.31136 0 0-1.73352-2.31136"/>
<use data-text="T" xlink:href="#font_4_1" transform="matrix(9.962799,0,0,-9.962799,184.58435,8.860939)"/>
</svg>
