<svg xmlns="http://www.w3.org/2000/svg" xmlns:xlink="http://www.w3.org/1999/xlink" xmlns:inkscape="http://www.inkscape.org/namespaces/inkscape" version="1.1" width="128" height="125" viewBox="0 0 128 125">
<path transform="matrix(1.00006,0,0,-1.00005,104.00976,78.565128)" stroke-width=".3985" stroke-linecap="butt" stroke-miterlimit="10" stroke-linejoin="miter" fill="none" stroke="#000000" d="M-90.71013 0H22.279"/>
<path transform="matrix(1.00006,0,0,-1.00005,126.489368,78.565128)" stroke-width=".3985" stroke-linecap="round" stroke-linejoin="round" fill="none" stroke="#000000" d="M-2.07224 2.39104C-1.69365 .95639-.84999 .27895 0 0-.84999-.27895-1.69365-.95639-2.07224-2.39104"/>
<path transform="matrix(1.00006,0,0,-1.00005,104.00976,78.565128)" stroke-width=".3985" stroke-linecap="butt" stroke-miterlimit="10" stroke-linejoin="miter" fill="none" stroke="#000000" d="M0-45.35506V67.63408"/>
<path transform="matrix(0,-1.00005,-1.00006,-0,104.00976,10.728409)" stroke-width=".3985" stroke-linecap="round" stroke-linejoin="round" fill="none" stroke="#000000" d="M-2.07224 2.39104C-1.69365 .95639-.84999 .27895 0 0-.84999-.27895-1.69365-.95639-2.07224-2.39104"/>
<path transform="matrix(1.00006,0,0,-1.00005,104.00976,78.565128)" stroke-width=".3985" stroke-linecap="butt" stroke-miterlimit="10" stroke-linejoin="miter" fill="none" stroke="#000000" d="M17.46143 17.46143-43.37181-43.37181"/>
<path transform="matrix(-.70714238,.7071353,.70714238,.7071353,60.49444,122.08001)" stroke-width=".3985" stroke-linecap="round" stroke-linejoin="round" fill="none" stroke="#000000" d="M-2.07224 2.39104C-1.69365 .95639-.84999 .27895 0 0-.84999-.27895-1.69365-.95639-2.07224-2.39104"/>
<g>
<path transform="matrix(1.00006,0,0,-1.00005,104.00976,78.565128)" d="M8.7307 8.7307-59.30186 76.7633-102.95547 33.1097-34.92287-34.92287Z" fill="#0000ff" fill-opacity=".3"/>
<path transform="matrix(1.00006,0,0,-1.00005,104.00976,78.565128)" stroke-width=".3985" stroke-linecap="butt" stroke-miterlimit="10" stroke-linejoin="miter" fill="none" stroke="#0000ff" stroke-opacity=".3" d="M8.7307 8.7307-59.30186 76.7633-102.95547 33.1097-34.92287-34.92287Z"/>
</g>
</svg>
