<svg xmlns="http://www.w3.org/2000/svg" xmlns:xlink="http://www.w3.org/1999/xlink" xmlns:inkscape="http://www.inkscape.org/namespaces/inkscape" version="1.1" width="174" height="174" viewBox="0 0 174 174">
<path transform="matrix(1.00005,0,0,-1.00003,87.13939,115.18799)" stroke-width=".3985" stroke-linecap="butt" stroke-miterlimit="10" stroke-linejoin="miter" fill="none" stroke="#cccccc" d="M-85.04042-56.69362H85.04042M-85.04042-28.3468H85.04042M-85.04042 0H85.04042M-85.04042 28.3468H85.04042M-85.04042 56.69362H85.04042M-85.04042 85.04042H85.04042M-85.04042 113.37727H85.04042M-85.04042-56.69362V113.38724M-56.69362-56.69362V113.38724M-28.3468-56.69362V113.38724M0-56.69362V113.38724M28.3468-56.69362V113.38724M56.69362-56.69362V113.38724M85.03047-56.69362V113.38724M85.04042 113.38724"/>
<path transform="matrix(1.00005,0,0,-1.00003,87.13939,115.18799)" stroke-width=".3985" stroke-linecap="butt" stroke-miterlimit="10" stroke-linejoin="miter" fill="none" stroke="#000000" d="M-84.64192 0H84.64192"/>
<path transform="matrix(-1.00005,-0,0,1.00003,2.2939835,115.18799)" stroke-width=".3985" stroke-linecap="round" stroke-linejoin="round" fill="none" stroke="#000000" d="M-2.07224 2.39104C-1.69365 .95639-.84999 .27895 0 0-.84999-.27895-1.69365-.95639-2.07224-2.39104"/>
<path transform="matrix(1.00005,0,0,-1.00003,171.9848,115.18799)" stroke-width=".3985" stroke-linecap="round" stroke-linejoin="round" fill="none" stroke="#000000" d="M-2.07224 2.39104C-1.69365 .95639-.84999 .27895 0 0-.84999-.27895-1.69365-.95639-2.07224-2.39104"/>
<path transform="matrix(1.00005,0,0,-1.00003,87.13939,115.18799)" stroke-width=".3985" stroke-linecap="butt" stroke-miterlimit="10" stroke-linejoin="miter" fill="none" stroke="#000000" d="M0-56.2951V112.98872"/>
<path transform="matrix(0,1.00003,1.00005,0,87.13939,171.68404)" stroke-width=".3985" stroke-linecap="round" stroke-linejoin="round" fill="none" stroke="#000000" d="M-2.07224 2.39104C-1.69365 .95639-.84999 .27895 0 0-.84999-.27895-1.69365-.95639-2.07224-2.39104"/>
<path transform="matrix(0,-1.00003,-1.00005,-0,87.13939,1.9966126)" stroke-width=".3985" stroke-linecap="round" stroke-linejoin="round" fill="none" stroke="#000000" d="M-2.07224 2.39104C-1.69365 .95639-.84999 .27895 0 0-.84999-.27895-1.69365-.95639-2.07224-2.39104"/>
<g>
<path transform="matrix(1.00005,0,0,-1.00003,87.13939,115.18799)" d="M-28.3468-28.3468-56.69362 56.69362-28.3468 85.04042 28.3468 56.69362 56.69362 0Z" fill="#0000ff" fill-opacity=".3"/>
<path transform="matrix(1.00005,0,0,-1.00003,87.13939,115.18799)" stroke-width=".3985" stroke-linecap="butt" stroke-miterlimit="10" stroke-linejoin="miter" fill="none" stroke="#0000ff" stroke-opacity=".3" d="M-28.3468-28.3468-56.69362 56.69362-28.3468 85.04042 28.3468 56.69362 56.69362 0Z"/>
</g>
<path transform="matrix(1.00005,0,0,-1.00003,87.13939,115.18799)" stroke-width=".99628" stroke-linecap="butt" stroke-miterlimit="10" stroke-linejoin="miter" fill="none" stroke="#ff0000" d="M0 0-26.30382-26.30382"/>
<path transform="matrix(-.7071353,.7071212,.7071353,.7071212,60.834257,141.4926)" d="M2.8892 0-1.73352 2.31136 0 0-1.73352-2.31136" fill="#ff0000"/>
<path transform="matrix(1.00005,0,0,-1.00003,87.13939,115.18799)" stroke-width=".99628" stroke-linecap="butt" stroke-miterlimit="10" stroke-linejoin="miter" fill="none" stroke="#ff0000" d="M0 0-54.65063 54.65063"/>
<path transform="matrix(-.7071353,-.7071212,-.7071353,.7071212,32.486028,60.535718)" d="M2.8892 0-1.73352 2.31136 0 0-1.73352-2.31136" fill="#ff0000"/>
<path transform="matrix(1.00005,0,0,-1.00003,87.13939,115.18799)" stroke-width=".99628" stroke-linecap="butt" stroke-miterlimit="10" stroke-linejoin="miter" fill="none" stroke="#ff0000" d="M0 0-27.43323 82.2996"/>
<path transform="matrix(-.3162258,-.9486685,-.9486874,.3162195,59.70481,32.885919)" d="M2.8892 0-1.73352 2.31136 0 0-1.73352-2.31136" fill="#ff0000"/>
<path transform="matrix(1.00005,0,0,-1.00003,87.13939,115.18799)" stroke-width=".99628" stroke-linecap="butt" stroke-miterlimit="10" stroke-linejoin="miter" fill="none" stroke="#ff0000" d="M0 0 27.05482 54.1096"/>
<path transform="matrix(.4471923,-.8943869,-.89440467,-.44718344,114.19555,61.076776)" d="M2.8892 0-1.73352 2.31136 0 0-1.73352-2.31136" fill="#ff0000"/>
<path transform="matrix(1.00005,0,0,-1.00003,87.13939,115.18799)" stroke-width=".99628" stroke-linecap="butt" stroke-miterlimit="10" stroke-linejoin="miter" fill="none" stroke="#ff0000" d="M0 0H53.8044"/>
<path transform="matrix(1.00005,0,0,-1.00003,140.94647,115.18799)" d="M2.8892 0-1.73352 2.31136 0 0-1.73352-2.31136" fill="#ff0000"/>
<g>
<path transform="matrix(1.00005,0,0,-1.00003,87.13939,115.18799)" d="M56.69362 0H0L28.3468 56.69362H85.04042Z" fill="#ff8000" fill-opacity=".3"/>
<path transform="matrix(1.00005,0,0,-1.00003,87.13939,115.18799)" stroke-width=".3985" stroke-linecap="butt" stroke-miterlimit="10" stroke-linejoin="miter" fill="none" stroke="#ff8000" stroke-opacity=".3" d="M56.69362 0H0L28.3468 56.69362H85.04042Z"/>
</g>
</svg>
