<svg xmlns="http://www.w3.org/2000/svg" xmlns:xlink="http://www.w3.org/1999/xlink" xmlns:inkscape="http://www.inkscape.org/namespaces/inkscape" version="1.1" width="206" height="182" viewBox="0 0 206 182">
<defs>
<path id="font_1_84" d="M.5209961 .21636963C.5209961 .34336854 .42399598 .4423828 .31199647 .4423828 .23399353 .4423828 .19198609 .39837647 .17199707 .3763733V.4423828L.027999878 .43066407V.3996582C.09899902 .3996582 .10598755 .3936615 .10598755 .34973146V-.117996219C.10598755-.16308594 .09498596-.16308594 .027999878-.16308594V-.1940918L.13999939-.19110108 .25299073-.1940918V-.16308594C.18598938-.16308594 .1749878-.16308594 .1749878-.117996219V.050186159 .059173585C.17999268 .04319763 .22200012-.0107421879 .2979889-.0107421879 .4169922-.0107421879 .5209961 .087127689 .5209961 .21594239V.21636963M.43798829 .21594239C.43798829 .09512329 .36799623 .011245728 .2939911 .011245728 .2539978 .011245728 .21598816 .031219483 .18899536 .07215881 .1749878 .09312439 .1749878 .09411621 .1749878 .114089969V.33674623C.20399475 .38838197 .25299073 .41737367 .3039856 .41737367 .3769989 .41737367 .43798829 .32937623 .43798829 .21636963V.21594239Z"/>
<path id="font_1_96" d="M.3639984 .38137818C.3639984 .41337586 .33299256 .4423828 .2899933 .4423828 .21699524 .4423828 .18099976 .37538148 .16699219 .3323822V.4423828L.027999878 .43066407V.3996582C.09799194 .3996582 .10598755 .39266969 .10598755 .34370423V.07595825C.10598755 .0309906 .09498596 .0309906 .027999878 .0309906V0L.14199829 .0029907227C.18199158 .0029907227 .22898865 .0029907227 .2689972 0V.0309906H.24798584C.17399597 .0309906 .17199707 .04197693 .17199707 .07795715V.23181153C.17199707 .33137513 .21398926 .42037965 .2899933 .42037965 .29699708 .42037965 .29899598 .42037965 .30099488 .41937257 .2979889 .41838075 .27799989 .40637208 .27799989 .3803711 .27799989 .35237123 .29899598 .33737184 .32099916 .33737184 .33898927 .33737184 .3639984 .3493805 .3639984 .38137818Z"/>
<path id="font_1_81" d="M.47099305 .21424866C.47099305 .34223939 .37098695 .4482422 .25 .4482422 .125 .4482422 .027999878 .3392334 .027999878 .21424866 .027999878 .085250858 .13198853-.0107421879 .24899292-.0107421879 .36999513-.0107421879 .47099305 .087249759 .47099305 .21424866M.3880005 .22224427C.3880005 .18624878 .3880005 .13224793 .3659973 .08824158 .34399415 .04324341 .2999878 .014251709 .25 .014251709 .20698548 .014251709 .16299439 .035247804 .13598633 .08125305 .11099243 .12524414 .11099243 .18624878 .11099243 .22224427 .11099243 .26124574 .11099243 .31523133 .1349945 .35923768 .1619873 .40522767 .20899964 .426239 .24899292 .426239 .29299928 .426239 .33599855 .40423585 .3619995 .36123658 .3880005 .3182373 .3880005 .26023866 .3880005 .22224427Z"/>
<path id="font_1_68" d="M.20999146-.049972536V.4423828L.057998659 .43138124V.40037538C.1349945 .40037538 .14399719 .39337159 .14399719 .34432984V-.051971437C.14399719-.09700012 .1349945-.18309021 .070999149-.18309021 .06599426-.18309021 .042999269-.18309021 .016998291-.17001343 .03199768-.16600037 .051986696-.1519928 .051986696-.125 .051986696-.09899902 .033996583-.07899475 .005996704-.07899475-.022003174-.07899475-.040008546-.09899902-.040008546-.125-.040008546-.17704773 .015991211-.20507813 .07299805-.20507813 .147995-.20507813 .20999146-.14100647 .20999146-.049972536M.20999146 .6042175C.20999146 .6312256 .18699646 .65722659 .15699768 .65722659 .12298584 .65722659 .102996829 .6292114 .102996829 .6042175 .102996829 .57722476 .12599182 .55122378 .1559906 .55122378 .18998719 .55122378 .20999146 .57922366 .20999146 .6042175Z"/>
<path id="font_2_1" d="M.2619934 .61331179C.2619934 .66130068 .22299195 .6953125 .18099976 .6953125 .1329956 .6953125 .09899902 .65631106 .09899902 .6143036 .09899902 .56629946 .13798523 .53230288 .17999268 .53230288 .22799683 .53230288 .2619934 .5713043 .2619934 .61331179M.069992069 .44218446V.3861847C.1269989 .3861847 .13398743 .3861847 .13398743 .34716798V.055999757H.066986087V0C.068984989 0 .147995 .0039978029 .19299317 .0039978029 .23399353 .0039978029 .27398683 .0029907227 .31498719 0V.055999757H.2539978V.4501953L.069992069 .44218446Z"/>
<path id="font_3_3" d="M.34599305 .2461853 .46299745 .37631227C.47599793 .39031983 .48199464 .3973236 .5649872 .3973236V.44433595C.5299988 .44232179 .47799684 .44132997 .47299195 .44132997 .44799806 .44132997 .397995 .44332887 .36999513 .44433595V.3973236C.38398744 .3973236 .3959961 .3953247 .4079895 .38832093 .4039917 .38230897 .4039917 .38031007 .3999939 .37631227L.31599427 .2822113 .21798706 .3973236H.2579956V.44433595C.23199463 .44332887 .16899109 .44132997 .13699341 .44132997 .10499573 .44132997 .05999756 .44332887 .026992798 .44433595V.3973236H.09799194L.2539978 .21315003 .12298584 .06600952C.10598755 .04699707 .069992069 .04699707 .021987915 .04699707V0C.056991579 .0019989014 .10899353 .0029907227 .11399841 .0029907227 .13899231 .0029907227 .19699097 .0009918213 .21699524 0V.04699707C.19898987 .04699707 .17999268 .052001954 .17999268 .057998659 .17999268 .059005739 .17999268 .05999756 .18699646 .06800842L.28399659 .17712403 .3939972 .04699707H.35499574V0C.3809967 .0009918213 .44198609 .0029907227 .47499085 .0029907227 .5069885 .0029907227 .5519867 .0009918213 .58499148 0V.04699707H.5139923L.34599305 .2461853Z"/>
<path id="font_2_2" d="M.3039856 .61331179C.3039856 .66130068 .2649994 .6953125 .22299195 .6953125 .1749878 .6953125 .14099121 .65631106 .14099121 .6143036 .14099121 .56629946 .17999268 .53230288 .22200012 .53230288 .269989 .53230288 .3039856 .5713043 .3039856 .61331179M.10998535 .44218446V.3861847C.17599488 .3861847 .18399048 .3861847 .18399048 .3461609V-.036117555C.18399048-.10316467 .15499878-.15420532 .101989749-.15420532 .09799194-.15420532 .067993167-.15220642 .067993167-.14920044 .067993167-.14720154 .069992069-.14419556 .07199097-.14118958 .07499695-.13819885 .083999637-.123184207 .083999637-.10116577 .083999637-.060134889 .052993776-.03211975 .01499939-.03211975-.027008057-.03211975-.055007936-.06314087-.055007936-.10116577-.055007936-.17019654 .017990113-.20019531 .102996829-.20019531 .19299317-.20019531 .3039856-.15220642 .3039856-.038116456V.4501953L.10998535 .44218446Z"/>
<path id="font_4_2" d="M.68699648 .32714845C.70199587 .32714845 .72099307 .32714845 .72099307 .34713746 .72099307 .36714173 .70199587 .36714173 .6879883 .36714173H.08898926C.07499695 .36714173 .055999757 .36714173 .055999757 .34713746 .055999757 .32714845 .07499695 .32714845 .08999634 .32714845H.68699648M.6879883 .13284302C.70199587 .13284302 .72099307 .13284302 .72099307 .15284729 .72099307 .17285156 .70199587 .17285156 .68699648 .17285156H.08999634C.07499695 .17285156 .055999757 .17285156 .055999757 .15284729 .055999757 .13284302 .07499695 .13284302 .08898926 .13284302H.6879883Z"/>
<path id="font_4_1" d="M.40899659 .23046875H.6879883C.70199587 .23046875 .72099307 .23046875 .72099307 .25045777 .72099307 .27046205 .70199587 .27046205 .6879883 .27046205H.40899659V.5500183C.40899659 .56399539 .40899659 .5830078 .3889923 .5830078 .36898805 .5830078 .36898805 .56399539 .36898805 .5500183V.27046205H.08898926C.07499695 .27046205 .055999757 .27046205 .055999757 .25045777 .055999757 .23046875 .07499695 .23046875 .08898926 .23046875H.36898805V-.05000305C.36898805-.06401062 .36898805-.08300781 .3889923-.08300781 .40899659-.08300781 .40899659-.06401062 .40899659-.05000305V.23046875Z"/>
<path id="font_3_1" d="M.22399903 .4501953 .049987794 .44218446V.39518739C.10899353 .39518739 .115997318 .39518739 .115997318 .35617066V.04699707H.04699707V0C.07798767 .0009918213 .1269989 .0029907227 .16899109 .0029907227 .19898987 .0029907227 .25 .0009918213 .28599549 0V.04699707H.22399903V.4501953M.23399353 .6173096C.23399353 .66130068 .19799805 .6953125 .1559906 .6953125 .11299133 .6953125 .07798767 .66030886 .07798767 .6173096 .07798767 .5743103 .11299133 .53930667 .1559906 .53930667 .19799805 .53930667 .23399353 .5733032 .23399353 .6173096Z"/>
<path id="font_3_2" d="M.08299255 .44218446V.39518739C.099990848 .39518739 .12199402 .39518739 .13699341 .39318849 .15899658 .38919068 .15899658 .37617494 .15899658 .35516358V-.042114259C.15899658-.09214783 .14399719-.16419983 .083999637-.16419983 .067993167-.16419983 .05999756-.16220093 .04499817-.15820313 .06399536-.14419556 .068984989-.123168949 .068984989-.108169559 .068984989-.073135379 .042999269-.04612732 .0069885256-.04612732-.03100586-.04612732-.056015016-.073135379-.056015016-.10916138-.056015016-.16619873 .0039978029-.20019531 .085998538-.20019531 .17199707-.20019531 .2669983-.14819336 .2669983-.042114259V.4501953L.08299255 .44218446M.2669983 .6173096C.2669983 .66030886 .23199463 .6953125 .18899536 .6953125 .1459961 .6953125 .11099243 .66030886 .11099243 .6173096 .11099243 .5743103 .1459961 .53930667 .18899536 .53930667 .23199463 .53930667 .2669983 .5743103 .2669983 .6173096Z"/>
</defs>
<path transform="matrix(1.00005,0,0,-1.00005,42.537378,140.70223)" stroke-width=".3985" stroke-linecap="butt" stroke-miterlimit="10" stroke-linejoin="miter" fill="none" stroke="#000000" d="M-39.28685 0H138.50023"/>
<path transform="matrix(-1.00005,-0,0,1.00005,3.049305,140.70223)" stroke-width=".3985" stroke-linecap="round" stroke-linejoin="round" fill="none" stroke="#000000" d="M-2.07224 2.39104C-1.69365 .95639-.84999 .27895 0 0-.84999-.27895-1.69365-.95639-2.07224-2.39104"/>
<path transform="matrix(1.00005,0,0,-1.00005,181.24378,140.70223)" stroke-width=".3985" stroke-linecap="round" stroke-linejoin="round" fill="none" stroke="#000000" d="M-2.07224 2.39104C-1.69365 .95639-.84999 .27895 0 0-.84999-.27895-1.69365-.95639-2.07224-2.39104"/>
<path transform="matrix(1.00005,0,0,-1.00005,42.537378,140.70223)" stroke-width=".3985" stroke-linecap="butt" stroke-miterlimit="10" stroke-linejoin="miter" fill="none" stroke="#000000" d="M0-39.28685V138.50023"/>
<path transform="matrix(0,1.00005,1.00005,0,42.537378,180.19029)" stroke-width=".3985" stroke-linecap="round" stroke-linejoin="round" fill="none" stroke="#000000" d="M-2.07224 2.39104C-1.69365 .95639-.84999 .27895 0 0-.84999-.27895-1.69365-.95639-2.07224-2.39104"/>
<path transform="matrix(0,-1.00005,-1.00005,-0,42.537378,1.9958191)" stroke-width=".3985" stroke-linecap="round" stroke-linejoin="round" fill="none" stroke="#000000" d="M-2.07224 2.39104C-1.69365 .95639-.84999 .27895 0 0-.84999-.27895-1.69365-.95639-2.07224-2.39104"/>
<path transform="matrix(1.00005,0,0,-1.00005,42.537378,140.70223)" stroke-width="5.97766" stroke-linecap="butt" stroke-miterlimit="10" stroke-linejoin="miter" fill="none" stroke="#cccccc" d="M0 0H69.00934"/>
<path transform="matrix(1.00005,0,0,-1.00005,111.55016,140.70223)" d="M10.36136 0-6.21681 8.28908 0 0-6.21681-8.28908" fill="#cccccc"/>
<path transform="matrix(1.00005,0,0,-1.00005,42.537378,140.70223)" stroke-width="5.97766" stroke-linecap="butt" stroke-miterlimit="10" stroke-linejoin="miter" fill="none" stroke="#cccccc" d="M0 0V108.6947"/>
<path transform="matrix(0,-1.00005,-1.00005,-0,42.537378,32.00209)" d="M10.36136 0-6.21681 8.28908 0 0-6.21681-8.28908" fill="#cccccc"/>
<path transform="matrix(1.00005,0,0,-1.00005,42.537378,140.70223)" stroke-width="1.99255" stroke-linecap="butt" stroke-miterlimit="10" stroke-linejoin="miter" fill="none" stroke="#ff0000" d="M0 0H35.30171"/>
<path transform="matrix(1.00005,0,0,-1.00005,77.84085,140.70223)" d="M4.38364 0-2.63017 3.50691 0 0-2.63017-3.50691" fill="#ff0000"/>
<path transform="matrix(1.00005,0,0,-1.00005,42.537378,140.70223)" stroke-width="1.99255" stroke-linecap="butt" stroke-miterlimit="10" stroke-linejoin="miter" fill="none" stroke="#0000ff" d="M0 0V35.30171"/>
<path transform="matrix(0,-1.00005,-1.00005,-0,42.537378,105.39876)" d="M4.38364 0-2.63017 3.50691 0 0-2.63017-3.50691" fill="#0000ff"/>
<path transform="matrix(1.00005,0,0,-1.00005,42.537378,140.70223)" stroke-width="1.99255" stroke-linecap="butt" stroke-miterlimit="10" stroke-linejoin="miter" fill="none" stroke="#000000" d="M0 0 76.93922 115.40881"/>
<path transform="matrix(.5546977,-.8320615,-.8320615,-.5546977,119.48044,25.287644)" d="M4.38364 0-2.63017 3.50691 0 0-2.63017-3.50691"/>
<path transform="matrix(1.00005,0,0,-1.00005,42.537378,140.70223)" stroke-width=".49814" stroke-linecap="butt" stroke-dasharray="2.98883,2.98883" stroke-miterlimit="10" stroke-linejoin="miter" fill="none" stroke="#000000" d="M79.37071 119.05606V0"/>
<path transform="matrix(1.00005,0,0,-1.00005,42.537378,140.70223)" stroke-width=".49814" stroke-linecap="butt" stroke-dasharray="2.98883,2.98883" stroke-miterlimit="10" stroke-linejoin="miter" fill="none" stroke="#000000" d="M79.37071 119.05606H0"/>
<use data-text="p" xlink:href="#font_1_84" transform="matrix(9.963098,0,0,-9.963098,96.59007,158.57912)"/>
<use data-text="r" xlink:href="#font_1_96" transform="matrix(9.963098,0,0,-9.963098,102.12956,158.57912)"/>
<use data-text="o" xlink:href="#font_1_81" transform="matrix(9.963098,0,0,-9.963098,106.03508,158.57912)"/>
<use data-text="j" xlink:href="#font_1_68" transform="matrix(9.963098,0,0,-9.963098,111.29559,158.57912)"/>
<use data-text="i" xlink:href="#font_2_1" transform="matrix(6.9741489,0,0,-6.9741489,114.34497,161.12024)"/>
<use data-text="x" xlink:href="#font_3_3" transform="matrix(9.963098,0,0,-9.963098,117.37512,158.57912)"/>
<use data-text="p" xlink:href="#font_1_84" transform="matrix(9.963098,0,0,-9.963098,1.2163162,42.808336)"/>
<use data-text="r" xlink:href="#font_1_96" transform="matrix(9.963098,0,0,-9.963098,6.7557985,42.808336)"/>
<use data-text="o" xlink:href="#font_1_81" transform="matrix(9.963098,0,0,-9.963098,10.661316,42.808336)"/>
<use data-text="j" xlink:href="#font_1_68" transform="matrix(9.963098,0,0,-9.963098,15.921829,42.808336)"/>
<use data-text="j" xlink:href="#font_2_2" transform="matrix(6.9741489,0,0,-6.9741489,18.971207,45.349466)"/>
<use data-text="x" xlink:href="#font_3_3" transform="matrix(9.963098,0,0,-9.963098,22.24936,42.808336)"/>
<use data-text="x" xlink:href="#font_3_3" transform="matrix(9.963098,0,0,-9.963098,118.88919,18.996148)"/>
<use data-text="=" xlink:href="#font_4_2" transform="matrix(9.963098,0,0,-9.963098,127.70463,18.996148)"/>
<use data-text="p" xlink:href="#font_1_84" transform="matrix(9.963098,0,0,-9.963098,138.22116,18.996148)"/>
<use data-text="r" xlink:href="#font_1_96" transform="matrix(9.963098,0,0,-9.963098,143.76065,18.996148)"/>
<use data-text="o" xlink:href="#font_1_81" transform="matrix(9.963098,0,0,-9.963098,147.66617,18.996148)"/>
<use data-text="j" xlink:href="#font_1_68" transform="matrix(9.963098,0,0,-9.963098,152.91672,18.996148)"/>
<use data-text="i" xlink:href="#font_2_1" transform="matrix(6.9741489,0,0,-6.9741489,155.97507,21.537278)"/>
<use data-text="x" xlink:href="#font_3_3" transform="matrix(9.963098,0,0,-9.963098,159.00522,18.996148)"/>
<use data-text="+" xlink:href="#font_4_1" transform="matrix(9.963098,0,0,-9.963098,167.26663,18.996148)"/>
<use data-text="p" xlink:href="#font_1_84" transform="matrix(9.963098,0,0,-9.963098,177.2301,18.996148)"/>
<use data-text="r" xlink:href="#font_1_96" transform="matrix(9.963098,0,0,-9.963098,182.76959,18.996148)"/>
<use data-text="o" xlink:href="#font_1_81" transform="matrix(9.963098,0,0,-9.963098,186.67511,18.996148)"/>
<use data-text="j" xlink:href="#font_1_68" transform="matrix(9.963098,0,0,-9.963098,191.92569,18.996148)"/>
<use data-text="j" xlink:href="#font_2_2" transform="matrix(6.9741489,0,0,-6.9741489,194.98401,21.537278)"/>
<use data-text="x" xlink:href="#font_3_3" transform="matrix(9.963098,0,0,-9.963098,198.26218,18.996148)"/>
<use data-text="i" xlink:href="#font_3_1" transform="matrix(9.963098,0,0,-9.963098,60.789285,156.068)" fill="#ff0000"/>
<use data-text="j" xlink:href="#font_3_2" transform="matrix(9.963098,0,0,-9.963098,28.880692,123.34936)" fill="#0000ff"/>
</svg>
