<svg xmlns="http://www.w3.org/2000/svg" xmlns:xlink="http://www.w3.org/1999/xlink" xmlns:inkscape="http://www.inkscape.org/namespaces/inkscape" version="1.1" width="184" height="186" viewBox="0 0 184 186">
<defs>
<path id="font_1_1" d="M.43798829 .072143558V-.005859375L.61499026 .0001373291V.0471344C.5529938 .0471344 .54599 .0471344 .54599 .086135867V.4501953L.36299134 .44218446V.39518739C.4249878 .39518739 .43199159 .39518739 .43199159 .3561859V.16514588C.43199159 .08314514 .3809967 .030136109 .30799867 .030136109 .23098755 .030136109 .22799683 .055130006 .22799683 .10914612V.4501953L.04499817 .44218446V.39518739C.10699463 .39518739 .11399841 .39518739 .11399841 .3561859V.12315369C.11399841 .01612854 .19499207-.005859375 .2939911-.005859375 .31999208-.005859375 .3919983-.005859375 .43798829 .072143558Z"/>
<path id="font_2_3" d="M.37399293 .6046295C.3829956 .64060977 .38598634 .6516113 .47999574 .6516113 .5099945 .6516113 .5179901 .6516113 .5179901 .6706085 .5179901 .6826172 .5069885 .6826172 .5019989 .6826172 .46899415 .6826172 .3869934 .6796112 .35398866 .6796112 .32398988 .6796112 .25099183 .6826172 .22099304 .6826172 .21398926 .6826172 .20199585 .6826172 .20199585 .6626129 .20199585 .6516113 .21099854 .6516113 .22999573 .6516113 .23199463 .6516113 .25099183 .6516113 .2679901 .6496124 .28599549 .6476135 .29499818 .64660647 .29499818 .6336212 .29499818 .6296234 .2939911 .62661746 .29100038 .614624L.15699768 .07795715C.14698792 .038986207 .14498902 .0309906 .06599426 .0309906 .04899597 .0309906 .038986207 .0309906 .038986207 .010986328 .038986207 0 .04798889 0 .06599426 0H.5289917C.5529938 0 .55400088 0 .55999758 .016998291L.6389923 .23286438C.6429901 .24386597 .6429901 .24586487 .6429901 .24685669 .6429901 .2508545 .6399994 .25785829 .6309967 .25785829 .621994 .25785829 .62098696 .2528534 .6139984 .23686219 .5799866 .14492798 .5359955 .0309906 .36299134 .0309906H.2689972C.25498963 .0309906 .25299073 .0309906 .24699402 .03199768 .23699951 .032989503 .23399353 .033996583 .23399353 .041992189 .23399353 .04498291 .23399353 .04698181 .23899842 .064971927L.37399293 .6046295Z"/>
<path id="font_3_1" d="M.41799928 .44218446V.3861847C.47698976 .3861847 .4850006 .3861847 .4850006 .34718324V.16215515C.4850006 .07913208 .42099 .040130617 .34498597 .040130617 .25898744 .040130617 .2579956 .06213379 .2579956 .11013794V.4501953L.06399536 .44218446V.3861847C.12298584 .3861847 .1309967 .3861847 .1309967 .34718324V.12113953C.1309967 .005126953 .24198914-.005859375 .32798768-.005859375 .36099244-.005859375 .43499757-.005859375 .49198915 .06513977V-.005859375L.67900088 .0001373291V.056137086C.6199951 .056137086 .6119995 .056137086 .6119995 .09513855V.4501953L.41799928 .44218446Z"/>
<path id="font_2_5" d="M.30299378 .3157959H.47299195C.61499026 .3157959 .7539978 .41973878 .7539978 .53167727 .7539978 .6086273 .6879883 .6826172 .5569916 .6826172H.23298645C.21398926 .6826172 .20298767 .6826172 .20298767 .66360476 .20298767 .6516113 .21199036 .6516113 .23199463 .6516113 .24499512 .6516113 .2630005 .65060427 .2749939 .6496124 .29100038 .6476135 .29699708 .64460757 .29699708 .6336212 .29699708 .6296234 .29599 .62661746 .29299928 .614624L.15899658 .07795715C.14898682 .038986207 .14698792 .0309906 .067993167 .0309906 .050994874 .0309906 .039993287 .0309906 .039993287 .011993408 .039993287 0 .051986696 0 .054992677 0 .08299255 0 .1539917 .0029907227 .18199158 .0029907227 .20298767 .0029907227 .22499085 .0019989014 .24598694 .0019989014 .2679901 .0019989014 .2899933 0 .31098939 0 .31799317 0 .33099366 0 .33099366 .019989014 .33099366 .0309906 .32199098 .0309906 .30299378 .0309906 .2659912 .0309906 .23799134 .0309906 .23799134 .048980714 .23799134 .054977418 .23999024 .05996704 .24099732 .065963748L.30299378 .3157959M.375 .6136322C.38398744 .64860537 .38598634 .6516113 .42900086 .6516113H.5249939C.60798647 .6516113 .6609955 .62461856 .6609955 .55566409 .6609955 .5166931 .6409912 .43074037 .60198977 .39476014 .5519867 .34977723 .49198915 .34179688 .44799806 .34179688H.30699159L.375 .6136322Z"/>
<path id="font_1_2" d="M.5059967 .37631227C.5119934 .39031983 .5159912 .3973236 .5799866 .3973236V.44433595C.5549927 .44232179 .526001 .44132997 .5009918 .44132997 .47599793 .44132997 .43099977 .44332887 .4099884 .44433595V.3973236C.42900086 .3973236 .45799256 .3943329 .45799256 .38632203 .45799256 .3853302 .45700074 .38331605 .45298768 .37431336L.33699037 .12416077 .20999146 .3973236H.2639923V.44433595C.23098755 .44232179 .14099121 .44132997 .13999939 .44132997 .11199951 .44132997 .066986087 .44332887 .025985718 .44433595V.3973236H.08999634L.2649994 .021087647C.2769928-.00390625 .2899933-.00390625 .30299378-.00390625 .31999208-.00390625 .32998658-.00091552737 .33999635 .020080567L.5059967 .37631227Z"/>
<path id="font_3_2" d="M.57299807 .37132264C.5799866 .38432313 .58099368 .3853302 .60198977 .3873291 .6139984 .38832093 .6389923 .38832093 .6459961 .38832093V.44433595C.61499026 .44232179 .59399417 .44032289 .56199648 .44032289 .5319977 .44032289 .49299623 .44132997 .46299745 .44433595V.38832093C.4889984 .38832093 .49499513 .38632203 .5069885 .38232423L.37298585 .1191864 .23599243 .38832093H.2829895V.44433595C.23999024 .44232179 .19599915 .44032289 .15299988 .44032289 .11399841 .44032289 .07499695 .44132997 .035995485 .44433595V.38832093H.100997928L.28799439 .022140503C.30099488-.0038604737 .31098939-.005859375 .34098817-.005859375 .37098695-.005859375 .37998963-.0038604737 .3939972 .022140503L.57299807 .37132264Z"/>
<path id="font_2_4" d="M.73999026 .4358673C.73999026 .5970001 .6339874 .7050781 .4850006 .7050781 .2689972 .7050781 .04899597 .47790528 .04899597 .24472046 .04899597 .07859802 .16099549-.022460938 .30499269-.022460938 .5169983-.022460938 .73999026 .19668579 .73999026 .4358673M.31098939 .0035247803C.21199036 .0035247803 .14199829 .08459473 .14199829 .21670532 .14199829 .2607422 .1559906 .4068451 .23298645 .52394106 .3019867 .62802127 .3999939 .68006899 .47898866 .68006899 .5609894 .68006899 .651001 .62402346 .651001 .4748993 .651001 .4028473 .6239929 .24671936 .5249939 .12362671 .47698976 .062576297 .394989 .0035247803 .31098939 .0035247803Z"/>
<path id="font_1_3" d="M.7369995 .37631227C.74198916 .389328 .74598696 .3973236 .8049927 .3973236V.44433595C.7819977 .44232179 .7519989 .44132997 .7279968 .44132997 .70098879 .44132997 .6539917 .44332887 .6319885 .44433595V.3973236C.6409912 .3973236 .6899872 .3963318 .6899872 .3853302 .6899872 .38232423 .68699648 .37631227 .6859894 .37332154L.58099368 .11715698 .46699525 .3973236H.522995V.44433595C.4909973 .44332887 .43899537 .44132997 .40899659 .44132997 .36698915 .44132997 .32499696 .44332887 .30899049 .44433595V.3973236H.36799623C.3889923 .3473053 .3889923 .34529115 .3889923 .34429933 .3889923 .34028626 .38598634 .33428956 .3849945 .33128358L.30599977 .13916016 .20098877 .3973236H.25698854V.44433595C.21598816 .44232179 .1749878 .44132997 .13398743 .44132997 .102996829 .44132997 .05899048 .44332887 .024993897 .44433595V.3973236H.083999637L.23699951 .023086548C.24398804 .006088257 .24798584-.00390625 .272995-.00390625 .2979889-.00390625 .3019867 .006088257 .30899049 .023086548L.4149933 .28225709 .5209961 .023086548C.5279999 .006088257 .5319977-.00390625 .5569916-.00390625 .58200076-.00390625 .58599856 .006088257 .59298709 .023086548L.7369995 .37631227Z"/>
<path id="font_2_2" d="M.1599884 .07795715C.1499939 .038986207 .147995 .0309906 .068984989 .0309906 .051986696 .0309906 .041992189 .0309906 .041992189 .010986328 .041992189 0 .050994874 0 .068984989 0H.42599488C.58399966 0 .70199587 .11791992 .70199587 .21585083 .70199587 .28778077 .6439972 .3457489 .5469971 .35673524 .651001 .37573243 .7559967 .44970704 .7559967 .5446625 .7559967 .6186218 .6899872 .6826172 .56999209 .6826172H.23399353C.21499634 .6826172 .20498657 .6826172 .20498657 .6626129 .20498657 .6516113 .21398926 .6516113 .23298645 .6516113 .23498535 .6516113 .2539978 .6516113 .2709961 .6496124 .2889862 .6476135 .2979889 .64660647 .2979889 .6336212 .2979889 .6296234 .29699708 .62661746 .2939911 .614624L.1599884 .07795715M.31098939 .36573792 .37298585 .6136322C.38198854 .64860537 .38398744 .6516113 .4269867 .6516113H.55599978C.6439972 .6516113 .6649933 .5926361 .6649933 .5486603 .6649933 .46069337 .57899478 .36573792 .45700074 .36573792H.31098939M.2659912 .0309906C.2519989 .0309906 .25 .0309906 .24398804 .03199768 .23399353 .032989503 .23098755 .033996583 .23098755 .04197693 .23098755 .04498291 .23098755 .04698181 .23599243 .064971927L.30499269 .34375H.49398805C.58999636 .34375 .60899356 .2698059 .60899356 .22683716 .60899356 .12791443 .519989 .0309906 .4019928 .0309906H.2659912Z"/>
<path id="font_2_1" d="M.1789856 .114868167C.13899231 .047973634 .099990848 .033981325 .055999757 .0309906 .04399109 .02999878 .034988405 .02999878 .034988405 .010986328 .034988405 .004989624 .039993287 0 .04798889 0 .07499695 0 .10598755 .0029907227 .13398743 .0029907227 .16699219 .0029907227 .20199585 0 .23399353 0 .23999024 0 .25299073 0 .25299073 .018997193 .25299073 .02999878 .24398804 .0309906 .23699951 .0309906 .21398926 .032989503 .18998719 .04096985 .18998719 .06593323 .18998719 .077926639 .19599915 .088897708 .20399475 .102890018L.27999879 .23068238H.5309906C.5329895 .2097168 .5469971 .07392883 .5469971 .063949588 .5469971 .033981325 .49499513 .0309906 .47499085 .0309906 .46099855 .0309906 .45098878 .0309906 .45098878 .010986328 .45098878 0 .46299745 0 .46499635 0 .5059967 0 .548996 .0029907227 .58999636 .0029907227 .61499026 .0029907227 .6779938 0 .7029877 0 .70899966 0 .72099307 0 .72099307 .019989014 .72099307 .0309906 .71099856 .0309906 .69799807 .0309906 .6359863 .0309906 .6359863 .037979127 .6329956 .06694031L.57199099 .691803C.56999209 .71180728 .56999209 .7158203 .5529938 .7158203 .5369873 .7158203 .5329895 .7088165 .5269928 .69880679L.1789856 .114868167M.29899598 .26168824 .49598695 .5917816 .5279999 .26168824H.29899598Z"/>
</defs>
<path transform="matrix(1.00003,0,0,-1.00006,92.10724,91.81361)" stroke-width=".3985" stroke-linecap="butt" stroke-miterlimit="10" stroke-linejoin="miter" fill="none" stroke="#000000" d="M-90.31161 0H90.31161"/>
<path transform="matrix(-1.00003,-0,0,1.00006,1.5936661,91.81361)" stroke-width=".3985" stroke-linecap="round" stroke-linejoin="round" fill="none" stroke="#000000" d="M-2.07224 2.39104C-1.69365 .95639-.84999 .27895 0 0-.84999-.27895-1.69365-.95639-2.07224-2.39104"/>
<path transform="matrix(1.00003,0,0,-1.00006,182.62082,91.81361)" stroke-width=".3985" stroke-linecap="round" stroke-linejoin="round" fill="none" stroke="#000000" d="M-2.07224 2.39104C-1.69365 .95639-.84999 .27895 0 0-.84999-.27895-1.69365-.95639-2.07224-2.39104"/>
<path transform="matrix(1.00003,0,0,-1.00006,92.10724,91.81361)" stroke-width=".3985" stroke-linecap="butt" stroke-miterlimit="10" stroke-linejoin="miter" fill="none" stroke="#000000" d="M0-90.31161V90.31161"/>
<path transform="matrix(0,1.00006,1.00003,0,92.10724,182.3299)" stroke-width=".3985" stroke-linecap="round" stroke-linejoin="round" fill="none" stroke="#000000" d="M-2.07224 2.39104C-1.69365 .95639-.84999 .27895 0 0-.84999-.27895-1.69365-.95639-2.07224-2.39104"/>
<path transform="matrix(0,-1.00006,-1.00003,-0,92.10724,1.2973251)" stroke-width=".3985" stroke-linecap="round" stroke-linejoin="round" fill="none" stroke="#000000" d="M-2.07224 2.39104C-1.69365 .95639-.84999 .27895 0 0-.84999-.27895-1.69365-.95639-2.07224-2.39104"/>
<g>
<path transform="matrix(1.00003,0,0,-1.00006,92.10724,91.81361)" d="M0 0 22.67752-68.0326 68.0326-90.71013 45.35506-22.67752Z" fill="#0000ff" fill-opacity=".3"/>
<path transform="matrix(1.00003,0,0,-1.00006,92.10724,91.81361)" stroke-width=".3985" stroke-linecap="butt" stroke-miterlimit="10" stroke-linejoin="miter" fill="none" stroke="#0000ff" stroke-opacity=".3" d="M0 0 22.67752-68.0326 68.0326-90.71013 45.35506-22.67752Z"/>
</g>
<path transform="matrix(1.00003,0,0,-1.00006,92.10724,91.81361)" stroke-width="1.99255" stroke-linecap="butt" stroke-miterlimit="10" stroke-linejoin="miter" fill="none" stroke="#ff0000" d="M0 0-21.29138 63.8741"/>
<path transform="matrix(-.3162195,-.94869688,-.9486685,.31622897,70.815219,27.935696)" d="M4.38364 0-2.63017 3.50691 0 0-2.63017-3.50691" fill="#ff0000"/>
<use data-text="u" xlink:href="#font_1_1" transform="matrix(9.962899,0,0,-9.963197,61.711328,37.33034)" fill="#ff0000"/>
<use data-text="L" xlink:href="#font_2_3" transform="matrix(9.962899,0,0,-9.963197,70.08858,15.094009)" fill="#ff0000"/>
<use data-text="u" xlink:href="#font_3_1" transform="matrix(6.9740097,0,0,-6.9742186,76.868778,16.588097)" fill="#ff0000"/>
<path transform="matrix(1.00003,0,0,-1.00006,92.10724,91.81361)" stroke-width=".99628" stroke-linecap="butt" stroke-dasharray="2.98883,2.98883" stroke-miterlimit="10" stroke-linejoin="miter" fill="none" stroke="#ff0000" d="M30.23657-90.71013-30.23657 90.71013"/>
<path transform="matrix(1.00003,0,0,-1.00006,92.10724,91.81361)" stroke-width=".99628" stroke-linecap="butt" stroke-dasharray="2.98883,2.98883" stroke-miterlimit="10" stroke-linejoin="miter" fill="none" stroke="#ff0000" d="M68.0326-90.71013 7.55904 90.71013"/>
<use data-text="P" xlink:href="#font_2_5" transform="matrix(9.962899,0,0,-9.963197,106.565677,15.094009)" fill="#ff0000"/>
<use data-text="u" xlink:href="#font_3_1" transform="matrix(6.9740097,0,0,-6.9742186,112.96185,16.588097)" fill="#ff0000"/>
<path transform="matrix(1.00003,0,0,-1.00006,92.10724,91.81361)" stroke-width="1.99255" stroke-linecap="butt" stroke-miterlimit="10" stroke-linejoin="miter" fill="none" stroke="#0000ff" d="M0 0 86.78957-43.3948"/>
<path transform="matrix(.8943869,.4471968,.44718344,-.89441367,178.89942,135.211)" d="M4.38364 0-2.63017 3.50691 0 0-2.63017-3.50691" fill="#0000ff"/>
<use data-text="v" xlink:href="#font_1_2" transform="matrix(9.962899,0,0,-9.963197,168.37754,128.04578)" fill="#0000ff"/>
<path transform="matrix(1.00003,0,0,-1.00006,92.10724,91.81361)" stroke-width=".99628" stroke-linecap="butt" stroke-dasharray="2.98883,2.98883" stroke-miterlimit="10" stroke-linejoin="miter" fill="none" stroke="#0000ff" d="M-90.71013 45.35506 90.71013-45.35506"/>
<use data-text="L" xlink:href="#font_2_3" transform="matrix(9.962899,0,0,-9.963197,5.2136385,41.14257)" fill="#0000ff"/>
<use data-text="v" xlink:href="#font_3_2" transform="matrix(6.9740097,0,0,-6.9742186,11.993835,42.636659)" fill="#0000ff"/>
<path transform="matrix(1.00003,0,0,-1.00006,92.10724,91.81361)" stroke-width=".99628" stroke-linecap="butt" stroke-dasharray="2.98883,2.98883" stroke-miterlimit="10" stroke-linejoin="miter" fill="none" stroke="#0000ff" d="M-90.71013-11.33876 68.0326-90.71013"/>
<use data-text="P" xlink:href="#font_2_5" transform="matrix(9.962899,0,0,-9.963197,6.8436739,121.685398)" fill="#0000ff"/>
<use data-text="v" xlink:href="#font_3_2" transform="matrix(6.9740097,0,0,-6.9742186,13.239853,123.17949)" fill="#0000ff"/>
<path transform="matrix(1.00003,0,0,-1.00006,92.10724,91.81361)" stroke-width="1.99255" stroke-linecap="butt" stroke-miterlimit="10" stroke-linejoin="miter" fill="none" stroke="#000000" d="M0 0 65.40245-87.20332"/>
<path transform="matrix(.600008,.80001798,.799994,-.600026,157.51166,179.02216)" d="M4.38364 0-2.63017 3.50691 0 0-2.63017-3.50691"/>
<use data-text="O" xlink:href="#font_2_4" transform="matrix(9.962899,0,0,-9.963197,79.91387,102.93927)"/>
<use data-text="w" xlink:href="#font_1_3" transform="matrix(9.962899,0,0,-9.963197,164.4584,184.74318)"/>
<path transform="matrix(1.00003,0,0,-1.00006,92.10724,91.81361)" d="M24.94539-68.0326C24.94539-66.78006 23.93004-65.76471 22.67752-65.76471 21.42499-65.76471 20.40964-66.78006 20.40964-68.0326 20.40964-69.28511 21.42499-70.30046 22.67752-70.30046 23.93004-70.30046 24.94539-69.28511 24.94539-68.0326ZM22.67752-68.0326" fill="#ff0000"/>
<use data-text="B" xlink:href="#font_2_2" transform="matrix(9.962899,0,0,-9.963197,103.20857,170.17832)" fill="#ff0000"/>
<path transform="matrix(1.00003,0,0,-1.00006,92.10724,91.81361)" d="M47.62292-22.67752C47.62292-21.42499 46.60757-20.40964 45.35506-20.40964 44.10252-20.40964 43.08717-21.42499 43.08717-22.67752 43.08717-23.93004 44.10252-24.94539 45.35506-24.94539 46.60757-24.94539 47.62292-23.93004 47.62292-22.67752ZM45.35506-22.67752" fill="#0000ff"/>
<use data-text="A" xlink:href="#font_2_1" transform="matrix(9.962899,0,0,-9.963197,140.9837,110.972759)" fill="#0000ff"/>
</svg>
