<svg xmlns="http://www.w3.org/2000/svg" xmlns:xlink="http://www.w3.org/1999/xlink" xmlns:inkscape="http://www.inkscape.org/namespaces/inkscape" version="1.1" width="201" height="89" viewBox="0 0 201 89">
<defs>
<path id="font_1_2" d="M.5059967 .37631227C.5119934 .39031983 .5159912 .3973236 .5799866 .3973236V.44433595C.5549927 .44232179 .526001 .44132997 .5009918 .44132997 .47599793 .44132997 .43099977 .44332887 .4099884 .44433595V.3973236C.42900086 .3973236 .45799256 .3943329 .45799256 .38632203 .45799256 .3853302 .45700074 .38331605 .45298768 .37431336L.33699037 .12416077 .20999146 .3973236H.2639923V.44433595C.23098755 .44232179 .14099121 .44132997 .13999939 .44132997 .11199951 .44132997 .066986087 .44332887 .025985718 .44433595V.3973236H.08999634L.2649994 .021087647C.2769928-.00390625 .2899933-.00390625 .30299378-.00390625 .31999208-.00390625 .32998658-.00091552737 .33999635 .020080567L.5059967 .37631227Z"/>
<path id="font_1_1" d="M.43798829 .072143558V-.005859375L.61499026 .0001373291V.0471344C.5529938 .0471344 .54599 .0471344 .54599 .086135867V.4501953L.36299134 .44218446V.39518739C.4249878 .39518739 .43199159 .39518739 .43199159 .3561859V.16514588C.43199159 .08314514 .3809967 .030136109 .30799867 .030136109 .23098755 .030136109 .22799683 .055130006 .22799683 .10914612V.4501953L.04499817 .44218446V.39518739C.10699463 .39518739 .11399841 .39518739 .11399841 .3561859V.12315369C.11399841 .01612854 .19499207-.005859375 .2939911-.005859375 .31999208-.005859375 .3919983-.005859375 .43798829 .072143558Z"/>
</defs>
<g>
<path transform="matrix(1.00006,0,0,-1.00008,29.742699,87.14369)" d="M-28.3468 28.3468 56.69362 0 170.08086 56.69362 85.04042 85.04042Z" fill="#0000ff" fill-opacity=".3"/>
<path transform="matrix(1.00006,0,0,-1.00008,29.742699,87.14369)" stroke-width=".3985" stroke-linecap="butt" stroke-miterlimit="10" stroke-linejoin="miter" fill="none" stroke="#0000ff" stroke-opacity=".3" d="M-28.3468 28.3468 56.69362 0 170.08086 56.69362 85.04042 85.04042Z"/>
</g>
<path transform="matrix(1.00006,0,0,-1.00008,29.742699,87.14369)" stroke-width=".99628" stroke-linecap="butt" stroke-miterlimit="10" stroke-linejoin="miter" fill="none" stroke="#0000ff" d="M56.69362 0 167.49686 55.40164"/>
<path transform="matrix(.89441367,-.44720576,-.4471968,-.89443156,197.24958,31.737629)" d="M2.8892 0-1.73352 2.31136 0 0-1.73352-2.31136" fill="#0000ff"/>
<path transform="matrix(1.00006,0,0,-1.00008,29.742699,87.14369)" stroke-width=".99628" stroke-linecap="butt" stroke-miterlimit="10" stroke-linejoin="miter" fill="none" stroke="#ff0000" d="M85.04042 85.04042 167.34004 57.6072"/>
<path transform="matrix(.94869688,.3162353,.31622897,-.94871589,197.09278,29.531876)" d="M2.8892 0-1.73352 2.31136 0 0-1.73352-2.31136" fill="#ff0000"/>
<path transform="matrix(1.00006,0,0,-1.00008,29.742699,87.14369)" stroke-width=".99628" stroke-linecap="butt" stroke-miterlimit="10" stroke-linejoin="miter" fill="none" stroke="#ff0000" d="M-28.3468 28.3468 53.9528 .91357"/>
<path transform="matrix(.94869688,.3162353,.31622897,-.94871589,83.69873,86.23003)" d="M2.8892 0-1.73352 2.31136 0 0-1.73352-2.31136" fill="#ff0000"/>
<path transform="matrix(1.00006,0,0,-1.00008,29.742699,87.14369)" stroke-width=".99628" stroke-linecap="butt" stroke-miterlimit="10" stroke-linejoin="miter" fill="none" stroke="#0000ff" d="M-28.3468 28.3468 82.45642 83.74846"/>
<path transform="matrix(.89441367,-.44720576,-.4471968,-.89443156,112.20404,3.3885499)" d="M2.8892 0-1.73352 2.31136 0 0-1.73352-2.31136" fill="#0000ff"/>
<use data-text="v" xlink:href="#font_1_2" transform="matrix(9.963197,0,0,-9.963397,54.988214,24.154652)" fill="#0000ff"/>
<use data-text="u" xlink:href="#font_1_1" transform="matrix(9.963197,0,0,-9.963397,40.73436,83.688419)" fill="#ff0000"/>
<use data-text="v" xlink:href="#font_1_2" transform="matrix(9.963197,0,0,-9.963397,140.03331,69.51328)" fill="#0000ff"/>
<use data-text="u" xlink:href="#font_1_1" transform="matrix(9.963197,0,0,-9.963397,154.12816,9.980522)" fill="#ff0000"/>
</svg>
