<svg xmlns="http://www.w3.org/2000/svg" xmlns:xlink="http://www.w3.org/1999/xlink" xmlns:inkscape="http://www.inkscape.org/namespaces/inkscape" version="1.1" width="174" height="230" viewBox="0 0 174 230">
<defs>
<path id="font_1_1" d="M.20599365 .3996582H.2999878C.31999208 .3996582 .32998658 .3996582 .32998658 .41966249 .32998658 .43066407 .31999208 .43066407 .3019867 .43066407H.21398926C.25 .5724945 .25498963 .59246829 .25498963 .59846499 .25498963 .61546328 .24299622 .62545779 .22599793 .62545779 .22299195 .62545779 .19499207 .62446597 .18598938 .58947756L.14698792 .43066407H.052993776C.032989503 .43066407 .022994996 .43066407 .022994996 .4116516 .022994996 .3996582 .0309906 .3996582 .050994874 .3996582H.13899231C.066986087 .11608887 .06298828 .099121097 .06298828 .08114624 .06298828 .02722168 .100997928-.0107421879 .15499878-.0107421879 .25698854-.0107421879 .31399537 .13505554 .31399537 .14305115 .31399537 .1530304 .30599977 .1530304 .3019867 .1530304 .29299928 .1530304 .2919922 .15003968 .2869873 .13905335 .24398804 .035217287 .19099427 .011245728 .15699768 .011245728 .13598633 .011245728 .12599182 .024230957 .12599182 .057174684 .12599182 .08114624 .12799073 .088134769 .13198853 .10510254L.20599365 .3996582Z"/>
<path id="font_2_5" d="M.68699648 .32714845C.70199587 .32714845 .72099307 .32714845 .72099307 .34713746 .72099307 .36714173 .70199587 .36714173 .6879883 .36714173H.08898926C.07499695 .36714173 .055999757 .36714173 .055999757 .34713746 .055999757 .32714845 .07499695 .32714845 .08999634 .32714845H.68699648M.6879883 .13284302C.70199587 .13284302 .72099307 .13284302 .72099307 .15284729 .72099307 .17285156 .70199587 .17285156 .68699648 .17285156H.08999634C.07499695 .17285156 .055999757 .17285156 .055999757 .15284729 .055999757 .13284302 .07499695 .13284302 .08898926 .13284302H.6879883Z"/>
<path id="font_2_1" d="M.45999146 .31976319C.45999146 .39982606 .45498658 .47988893 .41999818 .5539398 .37399293 .65000918 .2919922 .6660156 .25 .6660156 .18998719 .6660156 .116989139 .64001467 .07598877 .54693606 .04399109 .47789 .038986207 .39982606 .038986207 .31976319 .038986207 .24472046 .042999269 .15464783 .083999637 .07859802 .1269989-.0024719239 .19999695-.022460938 .24899292-.022460938 .30299378-.022460938 .3789978-.0014648438 .4229889 .09359741 .45498658 .16265869 .45999146 .2407074 .45999146 .31976319M.24899292-.00047302247C.20999146-.00047302247 .15098572 .024551392 .1329956 .12062073 .12199402 .18066406 .12199402 .2727356 .12199402 .3317871 .12199402 .39582826 .12199402 .46188355 .12998963 .5159149 .14898682 .63500979 .22399903 .64401248 .24899292 .64401248 .28199769 .64401248 .34799195 .6259918 .36698915 .52693179 .3769989 .47088624 .3769989 .39482118 .3769989 .3317871 .3769989 .25672914 .3769989 .18867493 .3659973 .12461853 .35099793 .029556275 .2939911-.00047302247 .24899292-.00047302247Z"/>
<path id="font_2_2" d="M.2939911 .64004519C.2939911 .66400149 .2939911 .6660156 .2709961 .6660156 .20899964 .60227969 .12098694 .60227969 .08898926 .60227969V.57128909C.10899353 .57128909 .16799927 .57128909 .21998596 .5972748V.07902527C.21998596 .042999269 .21699524 .0309906 .1269989 .0309906H.09498596V0C.12998963 .0029907227 .21699524 .0029907227 .25698854 .0029907227 .29699708 .0029907227 .38398744 .0029907227 .4189911 0V.0309906H.3869934C.29699708 .0309906 .2939911 .041992189 .2939911 .07902527V.64004519Z"/>
<path id="font_2_3" d="M.1269989 .07699585 .23298645 .18003845C.3889923 .31811524 .44898988 .3721466 .44898988 .47216798 .44898988 .5860901 .35899354 .6660156 .23699951 .6660156 .12399292 .6660156 .049987794 .57411196 .049987794 .48516847 .049987794 .4291687 .099990848 .4291687 .102996829 .4291687 .11999512 .4291687 .15499878 .44117738 .15499878 .48217774 .15499878 .5081787 .13699341 .5341797 .101989749 .5341797 .09399414 .5341797 .09199524 .5341797 .08898926 .5331726 .11199951 .59806826 .1659851 .63500979 .22399903 .63500979 .31498719 .63500979 .35798646 .5541382 .35798646 .47216798 .35798646 .39215089 .30799867 .31311036 .25299073 .25108338L.06098938 .036987306C.049987794 .025985718 .049987794 .023986817 .049987794 0H.42099L.44898988 .17404175H.42399598C.4189911 .14402771 .4119873 .1000061 .4019928 .084991458 .394989 .07699585 .32899476 .07699585 .30699159 .07699585H.1269989Z"/>
<path id="font_2_4" d="M.2899933 .35191346C.37199403 .37893678 .42999269 .4490509 .42999269 .52809146 .42999269 .6100464 .34199525 .6660156 .24598694 .6660156 .14498902 .6660156 .068984989 .60606387 .068984989 .53009036 .068984989 .49710084 .09098816 .47808839 .11999512 .47808839 .15098572 .47808839 .17098999 .50009158 .17098999 .5290985 .17098999 .57910159 .12399292 .57910159 .10899353 .57910159 .13999939 .62802127 .20599365 .64100649 .24198914 .64100649 .2829895 .64100649 .33799745 .6190338 .33799745 .5290985 .33799745 .51708987 .33599855 .45906068 .30999757 .4149933 .27999879 .36691285 .24598694 .36390687 .22099304 .36291505 .21299744 .36190797 .18899536 .35990907 .18199158 .35990907 .17399597 .35890199 .16699219 .35791017 .16699219 .3479004 .16699219 .33691407 .17399597 .33691407 .19099427 .33691407H.23498535C.31698609 .33691407 .35398866 .2686615 .35398866 .17037964 .35398866 .034469606 .2849884 .0055389406 .24099732 .0055389406 .19799805 .0055389406 .12298584 .022491456 .08799744 .08137512 .12298584 .07637024 .1539917 .09837341 .1539917 .1363678 .1539917 .17237854 .1269989 .19238281 .09799194 .19238281 .07398987 .19238281 .041992189 .17837525 .041992189 .1343689 .041992189 .043441774 .1349945-.022460938 .24398804-.022460938 .3659973-.022460938 .45700074 .06838989 .45700074 .17037964 .45700074 .252594 .3939972 .33088685 .2899933 .35191346Z"/>
</defs>
<path transform="matrix(1.00005,0,0,-1.00002,72.9657,143.53356)" stroke-width=".3985" stroke-linecap="butt" stroke-miterlimit="10" stroke-linejoin="miter" fill="none" stroke="#cccccc" d="M-70.867-85.04042H99.21382M-70.867-70.867H99.21382M-70.867-56.69362H99.21382M-70.867-42.5202H99.21382M-70.867-28.3468H99.21382M-70.867-14.17339H99.21382M-70.867 0H99.21382M-70.867 14.17339H99.21382M-70.867 28.3468H99.21382M-70.867 42.5202H99.21382M-70.867 56.69362H99.21382M-70.867 70.867H99.21382M-70.867 85.04042H99.21382M-70.867 99.21382H99.21382M-70.867 113.38724H99.21382M-70.867 127.56062H99.21382M-70.867 141.72905H99.21382M-70.867-85.04042V141.73404M-56.69362-85.04042V141.73404M-42.5202-85.04042V141.73404M-28.3468-85.04042V141.73404M-14.17339-85.04042V141.73404M0-85.04042V141.73404M14.17339-85.04042V141.73404M28.3468-85.04042V141.73404M42.5202-85.04042V141.73404M56.69362-85.04042V141.73404M70.867-85.04042V141.73404M85.04042-85.04042V141.73404M99.20885-85.04042V141.73404M99.21382 141.73404"/>
<path transform="matrix(1.00005,0,0,-1.00002,72.9657,143.53356)" stroke-width=".3985" stroke-linecap="butt" stroke-miterlimit="10" stroke-linejoin="miter" fill="none" stroke="#000000" d="M-70.4685 0H98.8153"/>
<path transform="matrix(-1.00005,-0,0,1.00002,2.294403,143.53356)" stroke-width=".3985" stroke-linecap="round" stroke-linejoin="round" fill="none" stroke="#000000" d="M-2.07224 2.39104C-1.69365 .95639-.84999 .27895 0 0-.84999-.27895-1.69365-.95639-2.07224-2.39104"/>
<path transform="matrix(1.00005,0,0,-1.00002,171.98522,143.53356)" stroke-width=".3985" stroke-linecap="round" stroke-linejoin="round" fill="none" stroke="#000000" d="M-2.07224 2.39104C-1.69365 .95639-.84999 .27895 0 0-.84999-.27895-1.69365-.95639-2.07224-2.39104"/>
<path transform="matrix(1.00005,0,0,-1.00002,72.9657,143.53356)" stroke-width=".3985" stroke-linecap="butt" stroke-miterlimit="10" stroke-linejoin="miter" fill="none" stroke="#000000" d="M0-84.64192V141.33554"/>
<path transform="matrix(0,1.00002,1.00005,0,72.9657,228.37644)" stroke-width=".3985" stroke-linecap="round" stroke-linejoin="round" fill="none" stroke="#000000" d="M-2.07224 2.39104C-1.69365 .95639-.84999 .27895 0 0-.84999-.27895-1.69365-.95639-2.07224-2.39104"/>
<path transform="matrix(0,-1.00002,-1.00005,-0,72.9657,1.9959259)" stroke-width=".3985" stroke-linecap="round" stroke-linejoin="round" fill="none" stroke="#000000" d="M-2.07224 2.39104C-1.69365 .95639-.84999 .27895 0 0-.84999-.27895-1.69365-.95639-2.07224-2.39104"/>
<path transform="matrix(1.00005,0,0,-1.00002,72.9657,143.53356)" stroke-width="1.99255" stroke-linecap="butt" stroke-miterlimit="10" stroke-linejoin="miter" fill="none" stroke="#0000ff" d="M-14.17339 85.04042 70.867-42.5202"/>
<path transform="matrix(1.00005,0,0,-1.00002,72.9657,143.53356)" d="M-11.33876 85.04042C-11.33876 86.60597-12.60785 87.87506-14.17339 87.87506-15.73894 87.87506-17.00803 86.60597-17.00803 85.04042-17.00803 83.47488-15.73894 82.20578-14.17339 82.20578-12.60785 82.20578-11.33876 83.47488-11.33876 85.04042ZM-14.17339 85.04042" fill="#ff0000"/>
<use data-text="t" xlink:href="#font_1_1" transform="matrix(9.963098,0,0,-9.962799,62.311166,54.971788)" fill="#ff0000"/>
<use data-text="=" xlink:href="#font_2_5" transform="matrix(9.963098,0,0,-9.962799,68.67649,54.971788)" fill="#ff0000"/>
<use data-text="0" xlink:href="#font_2_1" transform="matrix(9.963098,0,0,-9.962799,79.17759,54.971788)" fill="#ff0000"/>
<path transform="matrix(1.00005,0,0,-1.00002,72.9657,143.53356)" d="M17.00803 42.5202C17.00803 44.08574 15.73894 45.35484 14.17339 45.35484 12.60785 45.35484 11.33876 44.08574 11.33876 42.5202 11.33876 40.95465 12.60785 39.68556 14.17339 39.68556 15.73894 39.68556 17.00803 40.95465 17.00803 42.5202ZM14.17339 42.5202" fill="#ff0000"/>
<use data-text="t" xlink:href="#font_1_1" transform="matrix(9.963098,0,0,-9.962799,90.659587,97.49263)" fill="#ff0000"/>
<use data-text="=" xlink:href="#font_2_5" transform="matrix(9.963098,0,0,-9.962799,97.02491,97.49263)" fill="#ff0000"/>
<use data-text="1" xlink:href="#font_2_2" transform="matrix(9.963098,0,0,-9.962799,107.52601,97.49263)" fill="#ff0000"/>
<path transform="matrix(1.00005,0,0,-1.00002,72.9657,143.53356)" d="M45.35484 0C45.35484 1.56554 44.08574 2.83463 42.5202 2.83463 40.95465 2.83463 39.68556 1.56554 39.68556 0 39.68556-1.56554 40.95465-2.83463 42.5202-2.83463 44.08574-2.83463 45.35484-1.56554 45.35484 0ZM42.5202 0" fill="#ff0000"/>
<use data-text="t" xlink:href="#font_1_1" transform="matrix(9.963098,0,0,-9.962799,119.007999,140.01349)" fill="#ff0000"/>
<use data-text="=" xlink:href="#font_2_5" transform="matrix(9.963098,0,0,-9.962799,125.37332,140.01349)" fill="#ff0000"/>
<use data-text="2" xlink:href="#font_2_3" transform="matrix(9.963098,0,0,-9.962799,135.87442,140.01349)" fill="#ff0000"/>
<path transform="matrix(1.00005,0,0,-1.00002,72.9657,143.53356)" d="M73.70164-42.5202C73.70164-40.95465 72.43256-39.68556 70.867-39.68556 69.30147-39.68556 68.03238-40.95465 68.03238-42.5202 68.03238-44.08574 69.30147-45.35484 70.867-45.35484 72.43256-45.35484 73.70164-44.08574 73.70164-42.5202ZM70.867-42.5202" fill="#ff0000"/>
<use data-text="t" xlink:href="#font_1_1" transform="matrix(9.963098,0,0,-9.962799,147.35642,182.53433)" fill="#ff0000"/>
<use data-text="=" xlink:href="#font_2_5" transform="matrix(9.963098,0,0,-9.962799,153.72174,182.53433)" fill="#ff0000"/>
<use data-text="3" xlink:href="#font_2_4" transform="matrix(9.963098,0,0,-9.962799,164.22284,182.53433)" fill="#ff0000"/>
</svg>
