<svg xmlns="http://www.w3.org/2000/svg" xmlns:xlink="http://www.w3.org/1999/xlink" xmlns:inkscape="http://www.inkscape.org/namespaces/inkscape" version="1.1" width="128" height="38" viewBox="0 0 128 38">
<g>
<path transform="matrix(1.00006,0,0,-1,63.86834,19.26)" d="M27.8936-17.46143H-62.8165L-27.8936 17.46143H62.8165Z" fill="#7f807f" fill-opacity=".5"/>
<path transform="matrix(1.00006,0,0,-1,63.86834,19.26)" stroke-width=".3985" stroke-linecap="butt" stroke-miterlimit="10" stroke-linejoin="miter" fill="none" stroke="#7f807f" stroke-opacity=".5" d="M27.8936-17.46143H-62.8165L-27.8936 17.46143H62.8165Z"/>
</g>
<g>
<path transform="matrix(1.00006,0,0,-1,63.86834,19.26)" d="M20.9202-13.09607H-47.11237L-20.9202 13.09607H47.11237Z" fill="#0000ff" fill-opacity=".3"/>
<path transform="matrix(1.00006,0,0,-1,63.86834,19.26)" stroke-width=".3985" stroke-linecap="butt" stroke-miterlimit="10" stroke-linejoin="miter" fill="none" stroke="#0000ff" stroke-opacity=".3" d="M20.9202-13.09607H-47.11237L-20.9202 13.09607H47.11237Z"/>
</g>
<g>
<path transform="matrix(1.00006,0,0,-1,63.86834,19.26)" d="M13.9468-8.7307H-31.40823L-13.9468 8.7307H31.40823Z" fill="#ff0000" fill-opacity=".3"/>
<path transform="matrix(1.00006,0,0,-1,63.86834,19.26)" stroke-width=".3985" stroke-linecap="butt" stroke-miterlimit="10" stroke-linejoin="miter" fill="none" stroke="#ff0000" stroke-opacity=".3" d="M13.9468-8.7307H-31.40823L-13.9468 8.7307H31.40823Z"/>
</g>
</svg>
