<svg xmlns="http://www.w3.org/2000/svg" xmlns:xlink="http://www.w3.org/1999/xlink" xmlns:inkscape="http://www.inkscape.org/namespaces/inkscape" version="1.1" width="259" height="174" viewBox="0 0 259 174">
<defs>
<path id="font_1_1" d="M.33099366-.2400055C.33099366-.23701477 .33099366-.23500061 .31399537-.21800232 .18899536-.0920105 .15699768 .09700012 .15699768 .25 .15699768 .42399598 .19499207 .59799197 .31799317 .72299197 .33099366 .73498538 .33099366 .7369995 .33099366 .73999026 .33099366 .746994 .32699586 .75 .32099916 .75 .31098939 .75 .22099304 .6819916 .1619873 .5549927 .11099243 .44499208 .09899902 .33399964 .09899902 .25 .09899902 .17199707 .10998535 .050994874 .16499329-.06201172 .22499085-.18501282 .31098939-.25 .32099916-.25 .32699586-.25 .33099366-.24700928 .33099366-.2400055Z"/>
<path id="font_1_5" d="M.1269989 .07699585 .23298645 .18003845C.3889923 .31811524 .44898988 .3721466 .44898988 .47216798 .44898988 .5860901 .35899354 .6660156 .23699951 .6660156 .12399292 .6660156 .049987794 .57411196 .049987794 .48516847 .049987794 .4291687 .099990848 .4291687 .102996829 .4291687 .11999512 .4291687 .15499878 .44117738 .15499878 .48217774 .15499878 .5081787 .13699341 .5341797 .101989749 .5341797 .09399414 .5341797 .09199524 .5341797 .08898926 .5331726 .11199951 .59806826 .1659851 .63500979 .22399903 .63500979 .31498719 .63500979 .35798646 .5541382 .35798646 .47216798 .35798646 .39215089 .30799867 .31311036 .25299073 .25108338L.06098938 .036987306C.049987794 .025985718 .049987794 .023986817 .049987794 0H.42099L.44898988 .17404175H.42399598C.4189911 .14402771 .4119873 .1000061 .4019928 .084991458 .394989 .07699585 .32899476 .07699585 .30699159 .07699585H.1269989Z"/>
<path id="font_2_1" d="M.20298767 .0009918213C.20298767 .066986087 .17799378 .10598755 .13899231 .10598755 .10598755 .10598755 .085998538 .08099365 .085998538 .052993776 .085998538 .025985718 .10598755 0 .13899231 0 .15098572 0 .1639862 .0039978029 .17399597 .0129852299 .1769867 .01499939 .17799378 .015991211 .1789856 .015991211 .17999268 .015991211 .18099976 .01499939 .18099976 .0009918213 .18099976-.07316589 .1459961-.13328552 .11299133-.16635132 .101989749-.17736817 .101989749-.17936707 .101989749-.18237305 .101989749-.18936157 .10699463-.19335938 .11199951-.19335938 .12298584-.19335938 .20298767-.116256717 .20298767 .0009918213Z"/>
<path id="font_1_6" d="M.2899933 .35191346C.37199403 .37893678 .42999269 .4490509 .42999269 .52809146 .42999269 .6100464 .34199525 .6660156 .24598694 .6660156 .14498902 .6660156 .068984989 .60606387 .068984989 .53009036 .068984989 .49710084 .09098816 .47808839 .11999512 .47808839 .15098572 .47808839 .17098999 .50009158 .17098999 .5290985 .17098999 .57910159 .12399292 .57910159 .10899353 .57910159 .13999939 .62802127 .20599365 .64100649 .24198914 .64100649 .2829895 .64100649 .33799745 .6190338 .33799745 .5290985 .33799745 .51708987 .33599855 .45906068 .30999757 .4149933 .27999879 .36691285 .24598694 .36390687 .22099304 .36291505 .21299744 .36190797 .18899536 .35990907 .18199158 .35990907 .17399597 .35890199 .16699219 .35791017 .16699219 .3479004 .16699219 .33691407 .17399597 .33691407 .19099427 .33691407H.23498535C.31698609 .33691407 .35398866 .2686615 .35398866 .17037964 .35398866 .034469606 .2849884 .0055389406 .24099732 .0055389406 .19799805 .0055389406 .12298584 .022491456 .08799744 .08137512 .12298584 .07637024 .1539917 .09837341 .1539917 .1363678 .1539917 .17237854 .1269989 .19238281 .09799194 .19238281 .07398987 .19238281 .041992189 .17837525 .041992189 .1343689 .041992189 .043441774 .1349945-.022460938 .24398804-.022460938 .3659973-.022460938 .45700074 .06838989 .45700074 .17037964 .45700074 .252594 .3939972 .33088685 .2899933 .35191346Z"/>
<path id="font_1_2" d="M.2889862 .25C.2889862 .32798768 .27799989 .44898988 .22299195 .56199648 .16299439 .68499758 .07699585 .75 .066986087 .75 .06098938 .75 .056991579 .74598696 .056991579 .73999026 .056991579 .7369995 .056991579 .73498538 .07598877 .71699526 .17399597 .6179962 .23098755 .45899964 .23098755 .25 .23098755 .07899475 .19400025-.09700012 .069992069-.2230072 .056991579-.23500061 .056991579-.23701477 .056991579-.2400055 .056991579-.2460022 .06098938-.25 .066986087-.25 .07699585-.25 .16699219-.18200684 .22599793-.055007936 .2769928 .054992677 .2889862 .16600037 .2889862 .25Z"/>
<path id="font_1_9" d="M.47599793 .609375C.4850006 .6213684 .4850006 .62338259 .4850006 .64437869H.24198914C.11999512 .64437869 .117996219 .65737918 .11399841 .67637637H.08898926L.055999757 .4702301H.08099365C.083999637 .48625184 .09298706 .5493469 .10598755 .56137087 .11299133 .5673828 .19099427 .5673828 .20399475 .5673828H.41099549C.3999939 .5513611 .32099916 .4421997 .29899598 .40914918 .20899964 .27394105 .17599488 .1347351 .17599488 .032577516 .17599488 .022567749 .17599488-.022460938 .22200012-.022460938 .2679901-.022460938 .2679901 .022567749 .2679901 .032577516V.08366394C.2679901 .13873291 .2709961 .19381714 .2789917 .24790955 .2829895 .27093507 .29699708 .35707093 .34098817 .41915895L.47599793 .609375Z"/>
<path id="font_1_7" d="M.2939911 .16503906V.07800293C.2939911 .041992189 .2919922 .0309906 .21798706 .0309906H.19699097V0C.23799134 .0029907227 .2899933 .0029907227 .33198548 .0029907227 .37399293 .0029907227 .4269867 .0029907227 .46798707 0V.0309906H.44699098C.37298585 .0309906 .37098695 .041992189 .37098695 .07800293V.16503906H.47099305V.19602967H.37098695V.65075686C.37098695 .67074587 .37098695 .6767578 .35499574 .6767578 .34599305 .6767578 .34298707 .6767578 .33499146 .66474917L.027999878 .19602967V.16503906H.2939911M.2999878 .19602967H.055999757L.2999878 .5688019V.19602967Z"/>
<path id="font_1_3" d="M.40899659 .23046875H.6879883C.70199587 .23046875 .72099307 .23046875 .72099307 .25045777 .72099307 .27046205 .70199587 .27046205 .6879883 .27046205H.40899659V.5500183C.40899659 .56399539 .40899659 .5830078 .3889923 .5830078 .36898805 .5830078 .36898805 .56399539 .36898805 .5500183V.27046205H.08898926C.07499695 .27046205 .055999757 .27046205 .055999757 .25045777 .055999757 .23046875 .07499695 .23046875 .08898926 .23046875H.36898805V-.05000305C.36898805-.06401062 .36898805-.08300781 .3889923-.08300781 .40899659-.08300781 .40899659-.06401062 .40899659-.05000305V.23046875Z"/>
<path id="font_1_8" d="M.44898988 .20022583C.44898988 .3193512 .36698915 .41944886 .25898744 .41944886 .21099854 .41944886 .16799927 .40345765 .13198853 .36842347V.5637665C.1519928 .5577698 .18499756 .55078127 .21699524 .55078127 .33999635 .55078127 .4099884 .6417694 .4099884 .6547699 .4099884 .6607666 .40699769 .6657715 .3999939 .6657715 .39898683 .6657715 .39698792 .6657715 .3919983 .66278079 .37199403 .6537781 .32299806 .6337738 .2559967 .6337738 .21598816 .6337738 .16999817 .6407776 .12298584 .6617737 .114990238 .66477969 .11299133 .66477969 .11099243 .66477969 .100997928 .66477969 .100997928 .6567688 .100997928 .6407776V.34439088C.100997928 .32637025 .100997928 .31835938 .114990238 .31835938 .12199402 .31835938 .12399292 .32136537 .12799073 .32736207 .13899231 .3433838 .17599488 .39746095 .25698854 .39746095 .30899049 .39746095 .33399964 .35139466 .34199525 .33337403 .35798646 .29632569 .3600006 .25727845 .3600006 .20722962 .3600006 .17222595 .3600006 .11222839 .33599855 .07035828 .31199647 .031463624 .2749939 .0055389406 .22898865 .0055389406 .1559906 .0055389406 .09899902 .058380128 .08198547 .11723328 .084991458 .1162262 .08799744 .115234378 .09899902 .115234378 .13198853 .115234378 .14898682 .14022827 .14898682 .16423035 .14898682 .18823242 .13198853 .21322632 .09899902 .21322632 .084991458 .21322632 .049987794 .20622254 .049987794 .16023255 .049987794 .07434082 .11898804-.022460938 .23098755-.022460938 .34700013-.022460938 .44898988 .073349 .44898988 .20022583Z"/>
<path id="font_1_4" d="M.2939911 .64004519C.2939911 .66400149 .2939911 .6660156 .2709961 .6660156 .20899964 .60227969 .12098694 .60227969 .08898926 .60227969V.57128909C.10899353 .57128909 .16799927 .57128909 .21998596 .5972748V.07902527C.21998596 .042999269 .21699524 .0309906 .1269989 .0309906H.09498596V0C.12998963 .0029907227 .21699524 .0029907227 .25698854 .0029907227 .29699708 .0029907227 .38398744 .0029907227 .4189911 0V.0309906H.3869934C.29699708 .0309906 .2939911 .041992189 .2939911 .07902527V.64004519Z"/>
</defs>
<path transform="matrix(1.00008,0,0,-1.00003,30.444916,143.53583)" stroke-width=".3985" stroke-linecap="butt" stroke-miterlimit="10" stroke-linejoin="miter" fill="none" stroke="#cccccc" d="M-28.3468-28.3468H226.77448M-28.3468 0H226.77448M-28.3468 28.3468H226.77448M-28.3468 56.69362H226.77448M-28.3468 85.04042H226.77448M-28.3468 113.38724H226.77448M-28.3468 141.72409H226.77448M-28.3468-28.3468V141.73404M0-28.3468V141.73404M28.3468-28.3468V141.73404M56.69362-28.3468V141.73404M85.04042-28.3468V141.73404M113.38724-28.3468V141.73404M141.73404-28.3468V141.73404M170.08086-28.3468V141.73404M198.42766-28.3468V141.73404M226.76451-28.3468V141.73404M226.77448 141.73404"/>
<path transform="matrix(1.00008,0,0,-1.00003,30.444916,143.53583)" stroke-width=".3985" stroke-linecap="butt" stroke-miterlimit="10" stroke-linejoin="miter" fill="none" stroke="#000000" d="M-27.9483 0H226.37596"/>
<path transform="matrix(-1.00008,-0,0,1.00003,2.2951146,143.53583)" stroke-width=".3985" stroke-linecap="round" stroke-linejoin="round" fill="none" stroke="#000000" d="M-2.07224 2.39104C-1.69365 .95639-.84999 .27895 0 0-.84999-.27895-1.69365-.95639-2.07224-2.39104"/>
<path transform="matrix(1.00008,0,0,-1.00003,257.03828,143.53583)" stroke-width=".3985" stroke-linecap="round" stroke-linejoin="round" fill="none" stroke="#000000" d="M-2.07224 2.39104C-1.69365 .95639-.84999 .27895 0 0-.84999-.27895-1.69365-.95639-2.07224-2.39104"/>
<path transform="matrix(1.00008,0,0,-1.00003,30.444916,143.53583)" stroke-width=".3985" stroke-linecap="butt" stroke-miterlimit="10" stroke-linejoin="miter" fill="none" stroke="#000000" d="M0-27.9483V141.33554"/>
<path transform="matrix(0,1.00003,1.00008,0,30.444916,171.68422)" stroke-width=".3985" stroke-linecap="round" stroke-linejoin="round" fill="none" stroke="#000000" d="M-2.07224 2.39104C-1.69365 .95639-.84999 .27895 0 0-.84999-.27895-1.69365-.95639-2.07224-2.39104"/>
<path transform="matrix(0,-1.00003,-1.00008,-0,30.444916,1.9967804)" stroke-width=".3985" stroke-linecap="round" stroke-linejoin="round" fill="none" stroke="#000000" d="M-2.07224 2.39104C-1.69365 .95639-.84999 .27895 0 0-.84999-.27895-1.69365-.95639-2.07224-2.39104"/>
<path transform="matrix(1.00008,0,0,-1.00003,30.444916,143.53583)" stroke-width=".99628" stroke-linecap="butt" stroke-miterlimit="10" stroke-linejoin="miter" fill="none" stroke="#0000ff" d="M0 0 55.09105 82.63657"/>
<path transform="matrix(.5547143,-.83204498,-.83208659,-.55468669,85.54035,60.896799)" d="M2.8892 0-1.73352 2.31136 0 0-1.73352-2.31136" fill="#0000ff"/>
<path transform="matrix(1.00008,0,0,-1.00003,30.444916,143.53583)" stroke-width=".99628" stroke-linecap="butt" stroke-miterlimit="10" stroke-linejoin="miter" fill="none" stroke="#ff0000" d="M0 0 138.90105 27.78023"/>
<path transform="matrix(.98062846,-.19610588,-.19611569,-.98057946,169.35707,115.75478)" d="M2.8892 0-1.73352 2.31136 0 0-1.73352-2.31136" fill="#ff0000"/>
<path transform="matrix(1.00008,0,0,-1.00003,30.444916,143.53583)" stroke-width=".99628" stroke-linecap="butt" stroke-miterlimit="10" stroke-linejoin="miter" fill="none" stroke="#ff0000" d="M56.69362 85.04042 195.59467 112.82065"/>
<path transform="matrix(.98062846,-.19610588,-.19611569,-.98057946,226.05522,30.711808)" d="M2.8892 0-1.73352 2.31136 0 0-1.73352-2.31136" fill="#ff0000"/>
<path transform="matrix(1.00008,0,0,-1.00003,30.444916,143.53583)" stroke-width=".49814" stroke-linecap="butt" stroke-dasharray="2.98883,2.98883" stroke-miterlimit="10" stroke-linejoin="miter" fill="none" stroke="#ff0000" d="M59.52846 82.20555H193.45084"/>
<path transform="matrix(1.00008,0,0,-1.00003,223.91123,61.327806)" d="M2.14195 0-1.28517 1.71356 0 0-1.28517-1.71356" fill="#ff0000"/>
<path transform="matrix(1.00008,0,0,-1.00003,30.444916,143.53583)" stroke-width=".49814" stroke-linecap="butt" stroke-dasharray="2.98883,2.98883" stroke-miterlimit="10" stroke-linejoin="miter" fill="none" stroke="#ff0000" d="M201.26251 87.87527V108.41042"/>
<path transform="matrix(0,-1.00003,-1.00008,-0,231.72353,35.122148)" d="M2.14195 0-1.28517 1.71356 0 0-1.28517-1.71356" fill="#ff0000"/>
<path transform="matrix(1.00008,0,0,-1.00003,30.444916,143.53583)" stroke-width=".49814" stroke-linecap="butt" stroke-dasharray="2.98883,2.98883" stroke-miterlimit="10" stroke-linejoin="miter" fill="none" stroke="#ff0000" d="M2.83484-2.83484H136.75722"/>
<path transform="matrix(1.00008,0,0,-1.00003,167.21308,146.37076)" d="M2.14195 0-1.28517 1.71356 0 0-1.28517-1.71356" fill="#ff0000"/>
<path transform="matrix(1.00008,0,0,-1.00003,30.444916,143.53583)" stroke-width=".49814" stroke-linecap="butt" stroke-dasharray="2.98883,2.98883" stroke-miterlimit="10" stroke-linejoin="miter" fill="none" stroke="#ff0000" d="M144.5689 2.83484V23.36998"/>
<path transform="matrix(0,-1.00003,-1.00008,-0,175.02538,120.165149)" d="M2.14195 0-1.28517 1.71356 0 0-1.28517-1.71356" fill="#ff0000"/>
<path transform="matrix(1.00008,0,0,-1.00003,30.444916,143.53583)" d="M59.52846 85.04042C59.52846 86.60608 58.25926 87.87527 56.69362 87.87527 55.12796 87.87527 53.85876 86.60608 53.85876 85.04042 53.85876 83.47478 55.12796 82.20557 56.69362 82.20557 58.25926 82.20557 59.52846 83.47478 59.52846 85.04042ZM56.69362 85.04042" fill="#0000ff"/>
<use data-text="(" xlink:href="#font_1_1" transform="matrix(9.963397,0,0,-9.962899,61.4814,52.482088)" fill="#0000ff"/>
<use data-text="2" xlink:href="#font_1_5" transform="matrix(9.963397,0,0,-9.962899,65.3472,52.482088)" fill="#0000ff"/>
<use data-text="," xlink:href="#font_2_1" transform="matrix(9.963397,0,0,-9.962899,70.33811,52.482088)" fill="#0000ff"/>
<use data-text="3" xlink:href="#font_1_6" transform="matrix(9.963397,0,0,-9.962899,74.76647,52.482088)" fill="#0000ff"/>
<use data-text=")" xlink:href="#font_1_2" transform="matrix(9.963397,0,0,-9.962899,79.74817,52.482088)" fill="#0000ff"/>
<path transform="matrix(1.00008,0,0,-1.00003,30.444916,143.53583)" d="M201.26251 113.38724C201.26251 114.95288 199.99332 116.22208 198.42766 116.22208 196.86202 116.22208 195.59282 114.95288 195.59282 113.38724 195.59282 111.82158 196.86202 110.55238 198.42766 110.55238 199.99332 110.55238 201.26251 111.82158 201.26251 113.38724ZM198.42766 113.38724" fill="#ff0000"/>
<use data-text="(" xlink:href="#font_1_1" transform="matrix(9.963397,0,0,-9.962899,232.40808,24.13424)" fill="#ff0000"/>
<use data-text="7" xlink:href="#font_1_9" transform="matrix(9.963397,0,0,-9.962899,236.27388,24.13424)" fill="#ff0000"/>
<use data-text="," xlink:href="#font_2_1" transform="matrix(9.963397,0,0,-9.962899,241.2648,24.13424)" fill="#ff0000"/>
<use data-text="4" xlink:href="#font_1_7" transform="matrix(9.963397,0,0,-9.962899,245.69315,24.13424)" fill="#ff0000"/>
<use data-text=")" xlink:href="#font_1_2" transform="matrix(9.963397,0,0,-9.962899,250.67485,24.13424)" fill="#ff0000"/>
<use data-text="+" xlink:href="#font_1_3" transform="matrix(9.963397,0,0,-9.962899,94.95207,160.50434)" fill="#ff0000"/>
<use data-text="5" xlink:href="#font_1_8" transform="matrix(9.963397,0,0,-9.962899,102.693637,160.50434)" fill="#ff0000"/>
<use data-text="+" xlink:href="#font_1_3" transform="matrix(9.963397,0,0,-9.962899,151.6506,75.461788)" fill="#ff0000"/>
<use data-text="5" xlink:href="#font_1_8" transform="matrix(9.963397,0,0,-9.962899,159.39218,75.461788)" fill="#ff0000"/>
<use data-text="+" xlink:href="#font_1_3" transform="matrix(9.963397,0,0,-9.962899,179.99889,132.15749)" fill="#ff0000"/>
<use data-text="1" xlink:href="#font_1_4" transform="matrix(9.963397,0,0,-9.962899,187.74045,132.15749)" fill="#ff0000"/>
<use data-text="+" xlink:href="#font_1_3" transform="matrix(9.963397,0,0,-9.962899,236.6974,47.11393)" fill="#ff0000"/>
<use data-text="1" xlink:href="#font_1_4" transform="matrix(9.963397,0,0,-9.962899,244.43897,47.11393)" fill="#ff0000"/>
</svg>
